solid S192803_ACL_AM_Region_Fem_2
facet normal  -0.4295389637 0.88987286168 0.1536963522 
    outer loop
       vertex 3.6834640E+00 5.7315460E+01 -1.645669E+01
       vertex 3.6283210E+00 5.7090850E+01 -1.531035E+01
       vertex 4.7476780E+00 5.7673210E+01 -1.555381E+01
    endloop
endfacet
facet normal  -0.5515650001 0.4810680107  0.68143203601
    outer loop
       vertex 1.2881570E+01 5.9357070E+01 -8.640676E+00
       vertex 1.3400380E+01 5.8936940E+01 -7.924143E+00
       vertex 1.3713430E+01 5.9570180E+01 -8.117800E+00
    endloop
endfacet
facet normal  -0.5295400506 0.50655838794 0.68043069776
    outer loop
       vertex 1.2881570E+01 5.9357070E+01 -8.640676E+00
       vertex 1.2735890E+01 5.8329070E+01 -7.988738E+00
       vertex 1.3400380E+01 5.8936940E+01 -7.924143E+00
    endloop
endfacet
facet normal  -0.5517590258 0.47949886137 0.68238026009
    outer loop
       vertex 1.3748920E+01 6.0398080E+01 -8.670857E+00
       vertex 1.2881570E+01 5.9357070E+01 -8.640676E+00
       vertex 1.3713430E+01 5.9570180E+01 -8.117800E+00
    endloop
endfacet
facet normal  -0.5751787744 0.49804225884 0.64894012506
    outer loop
       vertex 1.2793190E+01 6.0452110E+01 -9.559421E+00
       vertex 1.2881570E+01 5.9357070E+01 -8.640676E+00
       vertex 1.3748920E+01 6.0398080E+01 -8.670857E+00
    endloop
endfacet
facet normal  -0.5813361067 0.48318648857 0.65465956672
    outer loop
       vertex 1.2793190E+01 6.0452110E+01 -9.559421E+00
       vertex 1.3748920E+01 6.0398080E+01 -8.670857E+00
       vertex 1.3739140E+01 6.1489680E+01 -9.485222E+00
    endloop
endfacet
facet normal  -0.6052042844 0.50792809466 0.61297375536
    outer loop
       vertex 1.2793190E+01 6.0452110E+01 -9.559421E+00
       vertex 1.3739140E+01 6.1489680E+01 -9.485222E+00
       vertex 1.2744570E+01 6.1508270E+01 -1.048259E+01
    endloop
endfacet
facet normal  -0.6106987538 0.49483823341 0.61820882792
    outer loop
       vertex 1.2744570E+01 6.1508270E+01 -1.048259E+01
       vertex 1.3739140E+01 6.1489680E+01 -9.485222E+00
       vertex 1.3672040E+01 6.2563770E+01 -1.041125E+01
    endloop
endfacet
facet normal  -0.6388433484 0.52323218214 0.56400998196
    outer loop
       vertex 1.2744570E+01 6.1508270E+01 -1.048259E+01
       vertex 1.3672040E+01 6.2563770E+01 -1.041125E+01
       vertex 1.2723310E+01 6.2524190E+01 -1.144914E+01
    endloop
endfacet
facet normal  -0.6463818269 0.50545856779 0.57157866488
    outer loop
       vertex 1.2723310E+01 6.2524190E+01 -1.144914E+01
       vertex 1.3672040E+01 6.2563770E+01 -1.041125E+01
       vertex 1.3637080E+01 6.3584910E+01 -1.135380E+01
    endloop
endfacet
facet normal  -0.6745907129 0.55550784152 0.48614648828
    outer loop
       vertex 1.2786560E+01 6.3482820E+01 -1.241735E+01
       vertex 1.3637080E+01 6.3584910E+01 -1.135380E+01
       vertex 1.3687880E+01 6.4514090E+01 -1.234506E+01
    endloop
endfacet
facet normal  -0.5906232516 0.78973825104 0.16576389702
    outer loop
       vertex 8.3825260E+00 6.0390480E+01 -1.735328E+01
       vertex 7.6887180E+00 5.9730860E+01 -1.668276E+01
       vertex 8.6147030E+00 6.0334510E+01 -1.625937E+01
    endloop
endfacet
facet normal  -0.5950612299 0.77515654334 0.21221325578
    outer loop
       vertex 8.6147030E+00 6.0334510E+01 -1.625937E+01
       vertex 7.7724500E+00 5.9458370E+01 -1.542081E+01
       vertex 8.8891140E+00 6.0259330E+01 -1.521529E+01
    endloop
endfacet
facet normal  -0.5989026717 0.77366159562 0.20679295273
    outer loop
       vertex 8.6147030E+00 6.0334510E+01 -1.625937E+01
       vertex 7.6887180E+00 5.9730860E+01 -1.668276E+01
       vertex 7.7724500E+00 5.9458370E+01 -1.542081E+01
    endloop
endfacet
facet normal  -0.6294687086 0.73226776746 0.25990971832
    outer loop
       vertex 8.8891140E+00 6.0259330E+01 -1.521529E+01
       vertex 8.4661150E+00 5.9590520E+01 -1.435544E+01
       vertex 9.2611570E+00 6.0233310E+01 -1.424094E+01
    endloop
endfacet
facet normal  -0.5923174411 0.75072034194 0.29253891566
    outer loop
       vertex 8.8891140E+00 6.0259330E+01 -1.521529E+01
       vertex 7.7724500E+00 5.9458370E+01 -1.542081E+01
       vertex 8.4661150E+00 5.9590520E+01 -1.435544E+01
    endloop
endfacet
facet normal  -0.5656576268 0.77858685657 0.27172404385
    outer loop
       vertex 7.7724500E+00 5.9458370E+01 -1.542081E+01
       vertex 7.7583960E+00 5.9056760E+01 -1.429931E+01
       vertex 8.4661150E+00 5.9590520E+01 -1.435544E+01
    endloop
endfacet
facet normal  -0.5818032718 0.75619697474 0.29945131203
    outer loop
       vertex 8.9915240E+00 5.9621220E+01 -1.341215E+01
       vertex 8.4661150E+00 5.9590520E+01 -1.435544E+01
       vertex 8.1560130E+00 5.8984730E+01 -1.342815E+01
    endloop
endfacet
facet normal  -0.5549608876 0.76915381063 0.31689245628
    outer loop
       vertex 7.7583960E+00 5.9056760E+01 -1.429931E+01
       vertex 8.1560130E+00 5.8984730E+01 -1.342815E+01
       vertex 8.4661150E+00 5.9590520E+01 -1.435544E+01
    endloop
endfacet
facet normal  -0.5153297704 0.80219169492 0.30153559058
    outer loop
       vertex 7.7583960E+00 5.9056760E+01 -1.429931E+01
       vertex 7.2990110E+00 5.8539300E+01 -1.370778E+01
       vertex 8.1560130E+00 5.8984730E+01 -1.342815E+01
    endloop
endfacet
facet normal  -0.5085554287 0.79973275568 0.31905939172
    outer loop
       vertex 8.8203550E+00 5.9015130E+01 -1.244544E+01
       vertex 8.1560130E+00 5.8984730E+01 -1.342815E+01
       vertex 7.6098440E+00 5.8225430E+01 -1.239549E+01
    endloop
endfacet
facet normal  -0.5164134673 0.7971000361  0.31296751146
    outer loop
       vertex 7.2990110E+00 5.8539300E+01 -1.370778E+01
       vertex 7.6098440E+00 5.8225430E+01 -1.239549E+01
       vertex 8.1560130E+00 5.8984730E+01 -1.342815E+01
    endloop
endfacet
facet normal  -0.4855064056 0.77036296713 0.41330912036
    outer loop
       vertex 7.6098440E+00 5.8225430E+01 -1.239549E+01
       vertex 8.7502890E+00 5.8409920E+01 -1.139970E+01
       vertex 8.8203550E+00 5.9015130E+01 -1.244544E+01
    endloop
endfacet
facet normal  -0.4530828107 0.81173654251 0.36851017921
    outer loop
       vertex 7.6098440E+00 5.8225430E+01 -1.239549E+01
       vertex 7.8561090E+00 5.7785940E+01 -1.112462E+01
       vertex 8.7502890E+00 5.8409920E+01 -1.139970E+01
    endloop
endfacet
facet normal  -0.5046955438 0.71077016513 0.48998793904
    outer loop
       vertex 8.7502890E+00 5.8409920E+01 -1.139970E+01
       vertex 9.7247220E+00 5.8482030E+01 -1.050062E+01
       vertex 9.7752050E+00 5.9220130E+01 -1.151930E+01
    endloop
endfacet
facet normal  -0.4613091236 0.77153726699 0.43809147232
    outer loop
       vertex 8.6866630E+00 5.7831180E+01 -1.044746E+01
       vertex 9.7247220E+00 5.8482030E+01 -1.050062E+01
       vertex 8.7502890E+00 5.8409920E+01 -1.139970E+01
    endloop
endfacet
facet normal  -0.4255436726 0.72314695056 0.54403223304
    outer loop
       vertex 8.6866630E+00 5.7831180E+01 -1.044746E+01
       vertex 9.5115860E+00 5.7614980E+01 -9.514822E+00
       vertex 9.7247220E+00 5.8482030E+01 -1.050062E+01
    endloop
endfacet
facet normal  -0.4200255376 0.85719358104 0.2979894502 
    outer loop
       vertex 6.5158310E+00 5.7990740E+01 -1.337056E+01
       vertex 5.5169740E+00 5.7470120E+01 -1.328087E+01
       vertex 6.4175810E+00 5.7581100E+01 -1.233068E+01
    endloop
endfacet
facet normal  -0.4530954457 0.84941086203 0.27056552733
    outer loop
       vertex 5.6563240E+00 5.7831900E+01 -1.431125E+01
       vertex 6.5158310E+00 5.7990740E+01 -1.337056E+01
       vertex 6.5292290E+00 5.8276890E+01 -1.424646E+01
    endloop
endfacet
facet normal  -0.4304124562 0.86827805102 0.2466542999 
    outer loop
       vertex 5.6563240E+00 5.7831900E+01 -1.431125E+01
       vertex 5.5169740E+00 5.7470120E+01 -1.328087E+01
       vertex 6.5158310E+00 5.7990740E+01 -1.337056E+01
    endloop
endfacet
facet normal  -0.4553685967 0.85941643562 0.23247114084
    outer loop
       vertex 6.0210580E+00 5.8253020E+01 -1.515363E+01
       vertex 5.6563240E+00 5.7831900E+01 -1.431125E+01
       vertex 6.5292290E+00 5.8276890E+01 -1.424646E+01
    endloop
endfacet
facet normal  -0.5362878359 0.81658155102 0.21351797947
    outer loop
       vertex 6.1784060E+00 5.8745990E+01 -1.674240E+01
       vertex 6.5893570E+00 5.8754160E+01 -1.574147E+01
       vertex 7.0106370E+00 5.9179890E+01 -1.631152E+01
    endloop
endfacet
facet normal  -0.49668124   0.84527502664 0.19702252437
    outer loop
       vertex 6.1784060E+00 5.8745990E+01 -1.674240E+01
       vertex 5.3874460E+00 5.8215130E+01 -1.645884E+01
       vertex 6.5893570E+00 5.8754160E+01 -1.574147E+01
    endloop
endfacet
facet normal  -0.5440256071 0.81199384703 0.21142878522
    outer loop
       vertex 7.0106370E+00 5.9179890E+01 -1.631152E+01
       vertex 7.7724500E+00 5.9458370E+01 -1.542081E+01
       vertex 7.6887180E+00 5.9730860E+01 -1.668276E+01
    endloop
endfacet
facet normal  -0.541330278  0.8145972373  0.20830955582
    outer loop
       vertex 7.0106370E+00 5.9179890E+01 -1.631152E+01
       vertex 6.5893570E+00 5.8754160E+01 -1.574147E+01
       vertex 7.7724500E+00 5.9458370E+01 -1.542081E+01
    endloop
endfacet
facet normal  -0.5060272987 0.83360419119 0.221450729  
    outer loop
       vertex 6.5893570E+00 5.8754160E+01 -1.574147E+01
       vertex 5.3874460E+00 5.8215130E+01 -1.645884E+01
       vertex 6.0210580E+00 5.8253020E+01 -1.515363E+01
    endloop
endfacet
facet normal  -0.4952873471 0.83027674511 0.25559923778
    outer loop
       vertex 6.5292290E+00 5.8276890E+01 -1.424646E+01
       vertex 7.0335660E+00 5.8721010E+01 -1.471184E+01
       vertex 6.0210580E+00 5.8253020E+01 -1.515363E+01
    endloop
endfacet
facet normal  -0.3935702772 0.87862390416 0.27041167115
    outer loop
       vertex 5.5169740E+00 5.7470120E+01 -1.328087E+01
       vertex 5.4226110E+00 5.7110660E+01 -1.225025E+01
       vertex 6.4175810E+00 5.7581100E+01 -1.233068E+01
    endloop
endfacet
facet normal  -0.4986937652 0.56087825379 0.66084802562
    outer loop
       vertex 1.1796650E+01 5.8396000E+01 -8.743845E+00
       vertex 1.1811610E+01 5.9417020E+01 -9.599121E+00
       vertex 1.0737010E+01 5.8456360E+01 -9.594707E+00
    endloop
endfacet
facet normal  -0.5787693714 0.54851094279 0.60345816788
    outer loop
       vertex 1.1811610E+01 5.9417020E+01 -9.599121E+00
       vertex 1.1782700E+01 6.0440570E+01 -1.055720E+01
       vertex 1.0778130E+01 5.9391750E+01 -1.056735E+01
    endloop
endfacet
facet normal  -0.6561613636 0.53976515736 0.52735741183
    outer loop
       vertex 1.0754890E+01 6.0323410E+01 -1.171613E+01
       vertex 1.1782700E+01 6.0440570E+01 -1.055720E+01
       vertex 1.1811360E+01 6.1438950E+01 -1.154341E+01
    endloop
endfacet
facet normal  -0.7091333871 0.54505989011 0.44725781762
    outer loop
       vertex 1.1069920E+01 6.1338510E+01 -1.259657E+01
       vertex 1.1811360E+01 6.1438950E+01 -1.154341E+01
       vertex 1.1860650E+01 6.2394040E+01 -1.262920E+01
    endloop
endfacet
facet normal  -0.7615561159 0.54796722037 0.34606965725
    outer loop
       vertex 1.2175220E+01 6.3360610E+01 -1.346743E+01
       vertex 1.1512590E+01 6.2611050E+01 -1.373875E+01
       vertex 1.1860650E+01 6.2394040E+01 -1.262920E+01
    endloop
endfacet
facet normal  -0.7668151129 0.57365300173 0.28795280213
    outer loop
       vertex 1.2175220E+01 6.3360610E+01 -1.346743E+01
       vertex 1.1794100E+01 6.3319490E+01 -1.440043E+01
       vertex 1.1512590E+01 6.2611050E+01 -1.373875E+01
    endloop
endfacet
facet normal  -0.7792699673 0.56428323069 0.27262199773
    outer loop
       vertex 1.1512590E+01 6.2611050E+01 -1.373875E+01
       vertex 1.1794100E+01 6.3319490E+01 -1.440043E+01
       vertex 1.1268690E+01 6.2650710E+01 -1.451801E+01
    endloop
endfacet
facet normal  -0.7678710151 0.5680023527  0.29622192944
    outer loop
       vertex 1.0919590E+01 6.2054440E+01 -1.420864E+01
       vertex 1.1167740E+01 6.1947930E+01 -1.336115E+01
       vertex 1.1512590E+01 6.2611050E+01 -1.373875E+01
    endloop
endfacet
facet normal  -0.7638227684 0.58672962731 0.26892958734
    outer loop
       vertex 1.1268690E+01 6.2650710E+01 -1.451801E+01
       vertex 1.0919590E+01 6.2054440E+01 -1.420864E+01
       vertex 1.1512590E+01 6.2611050E+01 -1.373875E+01
    endloop
endfacet
facet normal  -0.7609447354 0.61286016455 0.21299185044
    outer loop
       vertex 1.0169720E+01 6.1627130E+01 -1.556722E+01
       vertex 1.0322370E+01 6.1475150E+01 -1.458455E+01
       vertex 1.0777720E+01 6.2216880E+01 -1.509199E+01
    endloop
endfacet
facet normal  -0.7488262084 0.61998001574 0.23427353591
    outer loop
       vertex 1.0919590E+01 6.2054440E+01 -1.420864E+01
       vertex 1.0777720E+01 6.2216880E+01 -1.509199E+01
       vertex 1.0322370E+01 6.1475150E+01 -1.458455E+01
    endloop
endfacet
facet normal  -0.7107108245 0.67013022174 0.21404581239
    outer loop
       vertex 9.6725270E+00 6.0900000E+01 -1.494160E+01
       vertex 1.0322370E+01 6.1475150E+01 -1.458455E+01
       vertex 1.0169720E+01 6.1627130E+01 -1.556722E+01
    endloop
endfacet
facet normal  -0.7172783655 0.64135582226 0.27234987729
    outer loop
       vertex 9.6725270E+00 6.0900000E+01 -1.494160E+01
       vertex 9.9487130E+00 6.0796650E+01 -1.397084E+01
       vertex 1.0322370E+01 6.1475150E+01 -1.458455E+01
    endloop
endfacet
facet normal  -0.7116991106 0.64457274318 0.27930333819
    outer loop
       vertex 9.9487130E+00 6.0796650E+01 -1.397084E+01
       vertex 1.0591610E+01 6.1349370E+01 -1.360822E+01
       vertex 1.0322370E+01 6.1475150E+01 -1.458455E+01
    endloop
endfacet
facet normal  -0.6626573891 0.67167619844 0.33126465114
    outer loop
       vertex 9.9487130E+00 6.0796650E+01 -1.397084E+01
       vertex 9.6485070E+00 6.0225230E+01 -1.341275E+01
       vertex 1.0295280E+01 6.0626000E+01 -1.293156E+01
    endloop
endfacet
facet normal  -0.6709287164 0.64630885276 0.36351000592
    outer loop
       vertex 9.6485070E+00 6.0225230E+01 -1.341275E+01
       vertex 9.7206550E+00 5.9813970E+01 -1.254838E+01
       vertex 1.0295280E+01 6.0626000E+01 -1.293156E+01
    endloop
endfacet
facet normal  -0.6451485199 0.6477487866  0.40522203383
    outer loop
       vertex 9.7206550E+00 5.9813970E+01 -1.254838E+01
       vertex 1.0754890E+01 6.0323410E+01 -1.171613E+01
       vertex 1.0295280E+01 6.0626000E+01 -1.293156E+01
    endloop
endfacet
facet normal  -0.6457466733 0.64602150116 0.40702267004
    outer loop
       vertex 9.7206550E+00 5.9813970E+01 -1.254838E+01
       vertex 9.7752050E+00 5.9220130E+01 -1.151930E+01
       vertex 1.0754890E+01 6.0323410E+01 -1.171613E+01
    endloop
endfacet
facet normal  -0.70707997   0.57564805116 0.41069117006
    outer loop
       vertex 1.0754890E+01 6.0323410E+01 -1.171613E+01
       vertex 1.1069920E+01 6.1338510E+01 -1.259657E+01
       vertex 1.0295280E+01 6.0626000E+01 -1.293156E+01
    endloop
endfacet
facet normal  -0.5938188    0.6189999462  0.51402169152
    outer loop
       vertex 9.7752050E+00 5.9220130E+01 -1.151930E+01
       vertex 1.0778130E+01 5.9391750E+01 -1.056735E+01
       vertex 1.0754890E+01 6.0323410E+01 -1.171613E+01
    endloop
endfacet
facet normal  -0.6267253138 0.68206482765 0.37683279031
    outer loop
       vertex 9.6485070E+00 6.0225230E+01 -1.341275E+01
       vertex 8.9915240E+00 5.9621220E+01 -1.341215E+01
       vertex 9.7206550E+00 5.9813970E+01 -1.254838E+01
    endloop
endfacet
facet normal  -0.6003175715 0.72112700263 0.34582460782
    outer loop
       vertex 8.9915240E+00 5.9621220E+01 -1.341215E+01
       vertex 8.8203550E+00 5.9015130E+01 -1.244544E+01
       vertex 9.7206550E+00 5.9813970E+01 -1.254838E+01
    endloop
endfacet
facet normal  -0.6437663469 0.70053194969 0.30792836504
    outer loop
       vertex 9.2611570E+00 6.0233310E+01 -1.424094E+01
       vertex 8.9915240E+00 5.9621220E+01 -1.341215E+01
       vertex 9.6485070E+00 6.0225230E+01 -1.341275E+01
    endloop
endfacet
facet normal  -0.7119403043 0.61267116864 0.34318368589
    outer loop
       vertex 1.0591610E+01 6.1349370E+01 -1.360822E+01
       vertex 1.0295280E+01 6.0626000E+01 -1.293156E+01
       vertex 1.1069920E+01 6.1338510E+01 -1.259657E+01
    endloop
endfacet
facet normal  -0.7159360247 0.61036014184 0.33896328082
    outer loop
       vertex 1.0591610E+01 6.1349370E+01 -1.360822E+01
       vertex 9.9487130E+00 6.0796650E+01 -1.397084E+01
       vertex 1.0295280E+01 6.0626000E+01 -1.293156E+01
    endloop
endfacet
facet normal  -0.7422632365 0.56707511476 0.35703095378
    outer loop
       vertex 1.1167740E+01 6.1947930E+01 -1.336115E+01
       vertex 1.0591610E+01 6.1349370E+01 -1.360822E+01
       vertex 1.1069920E+01 6.1338510E+01 -1.259657E+01
    endloop
endfacet
facet normal  -0.6724918542 0.66685178866 0.32103488593
    outer loop
       vertex 9.9487130E+00 6.0796650E+01 -1.397084E+01
       vertex 9.2611570E+00 6.0233310E+01 -1.424094E+01
       vertex 9.6485070E+00 6.0225230E+01 -1.341275E+01
    endloop
endfacet
facet normal  -0.7018893176 0.6959190824  0.15181573214
    outer loop
       vertex 9.4687500E+00 6.1001530E+01 -1.594028E+01
       vertex 1.0169720E+01 6.1627130E+01 -1.556722E+01
       vertex 1.0043110E+01 6.1717330E+01 -1.656605E+01
    endloop
endfacet
facet normal  -0.7112648255 0.66980370514 0.21322604091
    outer loop
       vertex 9.4687500E+00 6.1001530E+01 -1.594028E+01
       vertex 9.6725270E+00 6.0900000E+01 -1.494160E+01
       vertex 1.0169720E+01 6.1627130E+01 -1.556722E+01
    endloop
endfacet
facet normal  -0.6816082256 0.72735215952 0.07980640815
    outer loop
       vertex 9.2940330E+00 6.1060460E+01 -1.697706E+01
       vertex 1.0043110E+01 6.1717330E+01 -1.656605E+01
       vertex 9.9605900E+00 6.1753270E+01 -1.759839E+01
    endloop
endfacet
facet normal  -0.6985080842 0.69807934271 0.15739023961
    outer loop
       vertex 9.2940330E+00 6.1060460E+01 -1.697706E+01
       vertex 9.4687500E+00 6.1001530E+01 -1.594028E+01
       vertex 1.0043110E+01 6.1717330E+01 -1.656605E+01
    endloop
endfacet
facet normal  -0.7453159386 0.6631706337  0.06862115058
    outer loop
       vertex 1.0552150E+01 6.2349330E+01 -1.714500E+01
       vertex 1.0043110E+01 6.1717330E+01 -1.656605E+01
       vertex 1.0783550E+01 6.2507390E+01 -1.615922E+01
    endloop
endfacet
facet normal  -0.7379717876 0.66979328149 0.08230796293
    outer loop
       vertex 1.0552150E+01 6.2349330E+01 -1.714500E+01
       vertex 9.9605900E+00 6.1753270E+01 -1.759839E+01
       vertex 1.0043110E+01 6.1717330E+01 -1.656605E+01
    endloop
endfacet
facet normal  -0.7665602201 0.63745052547 0.07773195325
    outer loop
       vertex 1.1217070E+01 6.3151700E+01 -1.716777E+01
       vertex 1.0552150E+01 6.2349330E+01 -1.714500E+01
       vertex 1.0783550E+01 6.2507390E+01 -1.615922E+01
    endloop
endfacet
facet normal  -0.7900589746 0.61093157167 0.05068955854
    outer loop
       vertex 1.1610780E+01 6.3579320E+01 -1.618517E+01
       vertex 1.1217070E+01 6.3151700E+01 -1.716777E+01
       vertex 1.0783550E+01 6.2507390E+01 -1.615922E+01
    endloop
endfacet
facet normal  -0.7899591044 0.59878084003 0.13200802591
    outer loop
       vertex 1.1610780E+01 6.3579320E+01 -1.618517E+01
       vertex 1.1363550E+01 6.3050630E+01 -1.526653E+01
       vertex 1.2198480E+01 6.4126150E+01 -1.514866E+01
    endloop
endfacet
facet normal  -0.7646371267 0.60779917175 0.21426672946
    outer loop
       vertex 1.2198480E+01 6.4126150E+01 -1.514866E+01
       vertex 1.2398040E+01 6.4036440E+01 -1.418203E+01
       vertex 1.3043330E+01 6.4901400E+01 -1.433282E+01
    endloop
endfacet
facet normal  -0.778200829  0.58991788064 0.21540743668
    outer loop
       vertex 1.2198480E+01 6.4126150E+01 -1.514866E+01
       vertex 1.1794100E+01 6.3319490E+01 -1.440043E+01
       vertex 1.2398040E+01 6.4036440E+01 -1.418203E+01
    endloop
endfacet
facet normal  -0.783578012  0.58552469358 0.2077650894 
    outer loop
       vertex 1.2198480E+01 6.4126150E+01 -1.514866E+01
       vertex 1.1363550E+01 6.3050630E+01 -1.526653E+01
       vertex 1.1794100E+01 6.3319490E+01 -1.440043E+01
    endloop
endfacet
facet normal  -0.7925043337 0.58953757881 0.15614840452
    outer loop
       vertex 1.1363550E+01 6.3050630E+01 -1.526653E+01
       vertex 1.0783550E+01 6.2507390E+01 -1.615922E+01
       vertex 1.0777720E+01 6.2216880E+01 -1.509199E+01
    endloop
endfacet
facet normal  -0.7823725063 0.60713419152 0.13885724657
    outer loop
       vertex 1.1363550E+01 6.3050630E+01 -1.526653E+01
       vertex 1.1610780E+01 6.3579320E+01 -1.618517E+01
       vertex 1.0783550E+01 6.2507390E+01 -1.615922E+01
    endloop
endfacet
facet normal  -0.7699532343 0.63809858638 0.00148696591
    outer loop
       vertex 1.1217070E+01 6.3151700E+01 -1.716777E+01
       vertex 1.0783070E+01 6.2630610E+01 -1.827937E+01
       vertex 1.0552150E+01 6.2349330E+01 -1.714500E+01
    endloop
endfacet
facet normal  -0.7192635151 0.69426066694 0.02573173612
    outer loop
       vertex 1.0783070E+01 6.2630610E+01 -1.827937E+01
       vertex 9.9605900E+00 6.1753270E+01 -1.759839E+01
       vertex 1.0552150E+01 6.2349330E+01 -1.714500E+01
    endloop
endfacet
facet normal  -0.6428982598 0.7509155401  0.15102211467
    outer loop
       vertex 9.2940330E+00 6.1060460E+01 -1.697706E+01
       vertex 8.6147030E+00 6.0334510E+01 -1.625937E+01
       vertex 9.4687500E+00 6.1001530E+01 -1.594028E+01
    endloop
endfacet
facet normal  -0.6285626286 0.75845289934 0.17221562486
    outer loop
       vertex 9.2940330E+00 6.1060460E+01 -1.697706E+01
       vertex 8.3825260E+00 6.0390480E+01 -1.735328E+01
       vertex 8.6147030E+00 6.0334510E+01 -1.625937E+01
    endloop
endfacet
facet normal  -0.6617474319 0.72022429657 0.20824816684
    outer loop
       vertex 9.4687500E+00 6.1001530E+01 -1.594028E+01
       vertex 8.8891140E+00 6.0259330E+01 -1.521529E+01
       vertex 9.6725270E+00 6.0900000E+01 -1.494160E+01
    endloop
endfacet
facet normal  -0.6504329196 0.72602076378 0.22322828606
    outer loop
       vertex 9.4687500E+00 6.1001530E+01 -1.594028E+01
       vertex 8.6147030E+00 6.0334510E+01 -1.625937E+01
       vertex 8.8891140E+00 6.0259330E+01 -1.521529E+01
    endloop
endfacet
facet normal  -0.6712538524 0.69235816711 0.26468553818
    outer loop
       vertex 9.6725270E+00 6.0900000E+01 -1.494160E+01
       vertex 9.2611570E+00 6.0233310E+01 -1.424094E+01
       vertex 9.9487130E+00 6.0796650E+01 -1.397084E+01
    endloop
endfacet
facet normal  -0.6643540986 0.69606482602 0.27226345633
    outer loop
       vertex 9.6725270E+00 6.0900000E+01 -1.494160E+01
       vertex 8.8891140E+00 6.0259330E+01 -1.521529E+01
       vertex 9.2611570E+00 6.0233310E+01 -1.424094E+01
    endloop
endfacet
facet normal  -0.7821631789 0.57828633099 0.23196051598
    outer loop
       vertex 1.1268690E+01 6.2650710E+01 -1.451801E+01
       vertex 1.0777720E+01 6.2216880E+01 -1.509199E+01
       vertex 1.0919590E+01 6.2054440E+01 -1.420864E+01
    endloop
endfacet
facet normal  -0.7512444474 0.63787958237 0.16953294261
    outer loop
       vertex 1.0783550E+01 6.2507390E+01 -1.615922E+01
       vertex 1.0169720E+01 6.1627130E+01 -1.556722E+01
       vertex 1.0777720E+01 6.2216880E+01 -1.509199E+01
    endloop
endfacet
facet normal  -0.7591919243 0.63254213624 0.15335601677
    outer loop
       vertex 1.0783550E+01 6.2507390E+01 -1.615922E+01
       vertex 1.0043110E+01 6.1717330E+01 -1.656605E+01
       vertex 1.0169720E+01 6.1627130E+01 -1.556722E+01
    endloop
endfacet
facet normal  -0.7463963415 0.59723284131 0.29360762023
    outer loop
       vertex 1.0919590E+01 6.2054440E+01 -1.420864E+01
       vertex 1.0591610E+01 6.1349370E+01 -1.360822E+01
       vertex 1.1167740E+01 6.1947930E+01 -1.336115E+01
    endloop
endfacet
facet normal  -0.7536933676 0.59260676926 0.28418924105
    outer loop
       vertex 1.0919590E+01 6.2054440E+01 -1.420864E+01
       vertex 1.0322370E+01 6.1475150E+01 -1.458455E+01
       vertex 1.0591610E+01 6.1349370E+01 -1.360822E+01
    endloop
endfacet
facet normal  -0.7735339969 0.56290728628 0.2911709853 
    outer loop
       vertex 1.2398040E+01 6.4036440E+01 -1.418203E+01
       vertex 1.1794100E+01 6.3319490E+01 -1.440043E+01
       vertex 1.2175220E+01 6.3360610E+01 -1.346743E+01
    endloop
endfacet
facet normal  -0.7563340784 0.57643368356 0.30932664008
    outer loop
       vertex 1.2398040E+01 6.4036440E+01 -1.418203E+01
       vertex 1.2175220E+01 6.3360610E+01 -1.346743E+01
       vertex 1.2942320E+01 6.4312740E+01 -1.336610E+01
    endloop
endfacet
facet normal  -0.7429582303 0.55947399496 0.36742607003
    outer loop
       vertex 1.2786560E+01 6.3482820E+01 -1.241735E+01
       vertex 1.2942320E+01 6.4312740E+01 -1.336610E+01
       vertex 1.2175220E+01 6.3360610E+01 -1.346743E+01
    endloop
endfacet
facet normal  -0.7863599265 0.58075234766 0.21062947716
    outer loop
       vertex 1.1363550E+01 6.3050630E+01 -1.526653E+01
       vertex 1.1268690E+01 6.2650710E+01 -1.451801E+01
       vertex 1.1794100E+01 6.3319490E+01 -1.440043E+01
    endloop
endfacet
facet normal  -0.7766383838 0.59122383242 0.2174562042 
    outer loop
       vertex 1.1363550E+01 6.3050630E+01 -1.526653E+01
       vertex 1.0777720E+01 6.2216880E+01 -1.509199E+01
       vertex 1.1268690E+01 6.2650710E+01 -1.451801E+01
    endloop
endfacet
facet normal  -0.7426229698 0.56009429305 0.36715869536
    outer loop
       vertex 1.2175220E+01 6.3360610E+01 -1.346743E+01
       vertex 1.1860650E+01 6.2394040E+01 -1.262920E+01
       vertex 1.2786560E+01 6.3482820E+01 -1.241735E+01
    endloop
endfacet
facet normal  -0.7165153843 0.51854247559 0.46660412031
    outer loop
       vertex 1.1860650E+01 6.2394040E+01 -1.262920E+01
       vertex 1.2723310E+01 6.2524190E+01 -1.144914E+01
       vertex 1.2786560E+01 6.3482820E+01 -1.241735E+01
    endloop
endfacet
facet normal  -0.7378740922 0.58014037708 0.34493327903
    outer loop
       vertex 1.1167740E+01 6.1947930E+01 -1.336115E+01
       vertex 1.1860650E+01 6.2394040E+01 -1.262920E+01
       vertex 1.1512590E+01 6.2611050E+01 -1.373875E+01
    endloop
endfacet
facet normal  -0.7422540672 0.56708261438 0.35703810457
    outer loop
       vertex 1.1167740E+01 6.1947930E+01 -1.336115E+01
       vertex 1.1069920E+01 6.1338510E+01 -1.259657E+01
       vertex 1.1860650E+01 6.2394040E+01 -1.262920E+01
    endloop
endfacet
facet normal  -0.7017599077 0.55041411462 0.45230226   
    outer loop
       vertex 1.1811360E+01 6.1438950E+01 -1.154341E+01
       vertex 1.2723310E+01 6.2524190E+01 -1.144914E+01
       vertex 1.1860650E+01 6.2394040E+01 -1.262920E+01
    endloop
endfacet
facet normal  -0.68817993   0.58536937936 0.42866195723
    outer loop
       vertex 1.0754890E+01 6.0323410E+01 -1.171613E+01
       vertex 1.1811360E+01 6.1438950E+01 -1.154341E+01
       vertex 1.1069920E+01 6.1338510E+01 -1.259657E+01
    endloop
endfacet
facet normal  -0.6467036609 0.54533791612 0.5332737873 
    outer loop
       vertex 1.1782700E+01 6.0440570E+01 -1.055720E+01
       vertex 1.2744570E+01 6.1508270E+01 -1.048259E+01
       vertex 1.1811360E+01 6.1438950E+01 -1.154341E+01
    endloop
endfacet
facet normal  -0.628921741  0.59757418297 0.49735554638
    outer loop
       vertex 1.0754890E+01 6.0323410E+01 -1.171613E+01
       vertex 1.0778130E+01 5.9391750E+01 -1.056735E+01
       vertex 1.1782700E+01 6.0440570E+01 -1.055720E+01
    endloop
endfacet
facet normal  -0.5941978182 0.54063971677 0.59551460895
    outer loop
       vertex 1.1811610E+01 5.9417020E+01 -9.599121E+00
       vertex 1.2793190E+01 6.0452110E+01 -9.559421E+00
       vertex 1.1782700E+01 6.0440570E+01 -1.055720E+01
    endloop
endfacet
facet normal  -0.5472110263 0.61472354347 0.56804494344
    outer loop
       vertex 1.0778130E+01 5.9391750E+01 -1.056735E+01
       vertex 1.0737010E+01 5.8456360E+01 -9.594707E+00
       vertex 1.1811610E+01 5.9417020E+01 -9.599121E+00
    endloop
endfacet
facet normal  -0.5081741724 0.63140413368 0.58573699768
    outer loop
       vertex 1.0778130E+01 5.9391750E+01 -1.056735E+01
       vertex 9.7247220E+00 5.8482030E+01 -1.050062E+01
       vertex 1.0737010E+01 5.8456360E+01 -9.594707E+00
    endloop
endfacet
facet normal  -0.5427457239 0.54399339394 0.63992051577
    outer loop
       vertex 1.1796650E+01 5.8396000E+01 -8.743845E+00
       vertex 1.2881570E+01 5.9357070E+01 -8.640676E+00
       vertex 1.1811610E+01 5.9417020E+01 -9.599121E+00
    endloop
endfacet
facet normal  -0.4562196629 0.7147841984  0.53004449709
    outer loop
       vertex 9.7247220E+00 5.8482030E+01 -1.050062E+01
       vertex 9.5115860E+00 5.7614980E+01 -9.514822E+00
       vertex 1.0737010E+01 5.8456360E+01 -9.594707E+00
    endloop
endfacet
facet normal  -0.5606502963 0.68349213324 0.4674502637 
    outer loop
       vertex 9.7752050E+00 5.9220130E+01 -1.151930E+01
       vertex 9.7247220E+00 5.8482030E+01 -1.050062E+01
       vertex 1.0778130E+01 5.9391750E+01 -1.056735E+01
    endloop
endfacet
facet normal  -0.5700029924 0.69821182112 0.43312451033
    outer loop
       vertex 8.8203550E+00 5.9015130E+01 -1.244544E+01
       vertex 9.7752050E+00 5.9220130E+01 -1.151930E+01
       vertex 9.7206550E+00 5.9813970E+01 -1.254838E+01
    endloop
endfacet
facet normal  -0.5413546662 0.74292885439 0.39369003378
    outer loop
       vertex 8.8203550E+00 5.9015130E+01 -1.244544E+01
       vertex 8.7502890E+00 5.8409920E+01 -1.139970E+01
       vertex 9.7752050E+00 5.9220130E+01 -1.151930E+01
    endloop
endfacet
facet normal  -0.4123060176 0.79050167109 0.45289166014
    outer loop
       vertex 7.8561090E+00 5.7785940E+01 -1.112462E+01
       vertex 8.6866630E+00 5.7831180E+01 -1.044746E+01
       vertex 8.7502890E+00 5.8409920E+01 -1.139970E+01
    endloop
endfacet
facet normal  -0.402093405  0.83844787966 0.36786688726
    outer loop
       vertex 7.8561090E+00 5.7785940E+01 -1.112462E+01
       vertex 7.6098440E+00 5.8225430E+01 -1.239549E+01
       vertex 7.0748940E+00 5.7584090E+01 -1.151846E+01
    endloop
endfacet
facet normal  -0.4314297823 0.83312469144 0.34608032513
    outer loop
       vertex 6.4175810E+00 5.7581100E+01 -1.233068E+01
       vertex 7.0748940E+00 5.7584090E+01 -1.151846E+01
       vertex 7.6098440E+00 5.8225430E+01 -1.239549E+01
    endloop
endfacet
facet normal  -0.453518668  0.83651990633 0.30749839681
    outer loop
       vertex 6.5158310E+00 5.7990740E+01 -1.337056E+01
       vertex 7.6098440E+00 5.8225430E+01 -1.239549E+01
       vertex 7.2990110E+00 5.8539300E+01 -1.370778E+01
    endloop
endfacet
facet normal  -0.4423439095 0.84790263609 0.29222078195
    outer loop
       vertex 6.5158310E+00 5.7990740E+01 -1.337056E+01
       vertex 6.4175810E+00 5.7581100E+01 -1.233068E+01
       vertex 7.6098440E+00 5.8225430E+01 -1.239549E+01
    endloop
endfacet
facet normal  -0.4780950506 0.83341068805 0.27722147763
    outer loop
       vertex 6.5292290E+00 5.8276890E+01 -1.424646E+01
       vertex 7.2990110E+00 5.8539300E+01 -1.370778E+01
       vertex 7.0335660E+00 5.8721010E+01 -1.471184E+01
    endloop
endfacet
facet normal  -0.4730759182 0.83957451959 0.26704644095
    outer loop
       vertex 6.5292290E+00 5.8276890E+01 -1.424646E+01
       vertex 6.5158310E+00 5.7990740E+01 -1.337056E+01
       vertex 7.2990110E+00 5.8539300E+01 -1.370778E+01
    endloop
endfacet
facet normal  -0.5692652271 0.73816598703 0.36200563087
    outer loop
       vertex 8.9915240E+00 5.9621220E+01 -1.341215E+01
       vertex 8.1560130E+00 5.8984730E+01 -1.342815E+01
       vertex 8.8203550E+00 5.9015130E+01 -1.244544E+01
    endloop
endfacet
facet normal  -0.531618507  0.79763137392 0.28489639221
    outer loop
       vertex 7.7583960E+00 5.9056760E+01 -1.429931E+01
       vertex 7.0335660E+00 5.8721010E+01 -1.471184E+01
       vertex 7.2990110E+00 5.8539300E+01 -1.370778E+01
    endloop
endfacet
facet normal  -0.530093014  0.80038437998 0.279975429  
    outer loop
       vertex 7.7583960E+00 5.9056760E+01 -1.429931E+01
       vertex 7.7724500E+00 5.9458370E+01 -1.542081E+01
       vertex 7.0335660E+00 5.8721010E+01 -1.471184E+01
    endloop
endfacet
facet normal  -0.5449910879 0.79685576603 0.26077883784
    outer loop
       vertex 6.5893570E+00 5.8754160E+01 -1.574147E+01
       vertex 7.0335660E+00 5.8721010E+01 -1.471184E+01
       vertex 7.7724500E+00 5.9458370E+01 -1.542081E+01
    endloop
endfacet
facet normal  -0.4913763411 0.83752530089 0.23895744765
    outer loop
       vertex 6.5893570E+00 5.8754160E+01 -1.574147E+01
       vertex 6.0210580E+00 5.8253020E+01 -1.515363E+01
       vertex 7.0335660E+00 5.8721010E+01 -1.471184E+01
    endloop
endfacet
facet normal  -0.6226312158 0.71246281297 0.32361568139
    outer loop
       vertex 9.2611570E+00 6.0233310E+01 -1.424094E+01
       vertex 8.4661150E+00 5.9590520E+01 -1.435544E+01
       vertex 8.9915240E+00 5.9621220E+01 -1.341215E+01
    endloop
endfacet
facet normal  -0.552604131  0.81061822903 0.19371825211
    outer loop
       vertex 6.7922160E+00 5.9246540E+01 -1.721349E+01
       vertex 7.0106370E+00 5.9179890E+01 -1.631152E+01
       vertex 7.6887180E+00 5.9730860E+01 -1.668276E+01
    endloop
endfacet
facet normal  -0.5525710418 0.4508890425  0.70097383341
    outer loop
       vertex 1.6075990E+01 6.1494060E+01 -7.585051E+00
       vertex 1.6583240E+01 6.0591550E+01 -6.604667E+00
       vertex 1.7073240E+01 6.1671560E+01 -6.913102E+00
    endloop
endfacet
facet normal  -0.5439871645 0.45799744961 0.70307631238
    outer loop
       vertex 1.6075990E+01 6.1494060E+01 -7.585051E+00
       vertex 1.5415960E+01 6.0437740E+01 -7.407625E+00
       vertex 1.6583240E+01 6.0591550E+01 -6.604667E+00
    endloop
endfacet
facet normal  -0.5522064739 0.45306299807 0.69985850708
    outer loop
       vertex 1.6075990E+01 6.1494060E+01 -7.585051E+00
       vertex 1.7073240E+01 6.1671560E+01 -6.913102E+00
       vertex 1.6827470E+01 6.2519300E+01 -7.655817E+00
    endloop
endfacet
facet normal  -0.5651358824 0.46143735263 0.683883765  
    outer loop
       vertex 1.6075990E+01 6.1494060E+01 -7.585051E+00
       vertex 1.6827470E+01 6.2519300E+01 -7.655817E+00
       vertex 1.5778130E+01 6.2494060E+01 -8.505922E+00
    endloop
endfacet
facet normal  -0.5522669667 0.50031965392 0.6668443907 
    outer loop
       vertex 1.5778130E+01 6.2494060E+01 -8.505922E+00
       vertex 1.6827470E+01 6.2519300E+01 -7.655817E+00
       vertex 1.6701260E+01 6.3515640E+01 -8.507875E+00
    endloop
endfacet
facet normal  -0.5403911447 0.53252809074 0.65145317816
    outer loop
       vertex 1.5643280E+01 6.3560300E+01 -9.421994E+00
       vertex 1.6701260E+01 6.3515640E+01 -8.507875E+00
       vertex 1.6621040E+01 6.4546290E+01 -9.416920E+00
    endloop
endfacet
facet normal  -0.5318322626 0.58668140414 0.61070399909
    outer loop
       vertex 1.5583720E+01 6.4584710E+01 -1.035718E+01
       vertex 1.6621040E+01 6.4546290E+01 -9.416920E+00
       vertex 1.6595110E+01 6.5516680E+01 -1.037172E+01
    endloop
endfacet
facet normal  -0.4231779722 0.47791514536 0.76975159476
    outer loop
       vertex 1.8635480E+01 6.3421850E+01 -6.944427E+00
       vertex 1.8586030E+01 6.2510340E+01 -6.405684E+00
       vertex 1.9527430E+01 6.3173910E+01 -6.300131E+00
    endloop
endfacet
facet normal  -0.4761886314 0.46642591788 0.74544701385
    outer loop
       vertex 1.8586030E+01 6.2510340E+01 -6.405684E+00
       vertex 1.8635480E+01 6.3421850E+01 -6.944427E+00
       vertex 1.7743350E+01 6.2574400E+01 -6.984067E+00
    endloop
endfacet
facet normal  -0.5030997228 0.49653795996 0.70734766785
    outer loop
       vertex 1.7707800E+01 6.3488960E+01 -7.651347E+00
       vertex 1.7743350E+01 6.2574400E+01 -6.984067E+00
       vertex 1.8635480E+01 6.3421850E+01 -6.944427E+00
    endloop
endfacet
facet normal  -0.5363535457 0.48375376512 0.69159754822
    outer loop
       vertex 1.7707800E+01 6.3488960E+01 -7.651347E+00
       vertex 1.6827470E+01 6.2519300E+01 -7.655817E+00
       vertex 1.7743350E+01 6.2574400E+01 -6.984067E+00
    endloop
endfacet
facet normal  -0.5199404764 0.58779987185 0.61980094522
    outer loop
       vertex 1.7635770E+01 6.5477440E+01 -9.435895E+00
       vertex 1.7661710E+01 6.4504160E+01 -8.491106E+00
       vertex 1.8684360E+01 6.5436780E+01 -8.517690E+00
    endloop
endfacet
facet normal  -0.5727825876 0.55973775569 0.59884367923
    outer loop
       vertex 1.4609250E+01 6.3595650E+01 -1.036477E+01
       vertex 1.5583720E+01 6.4584710E+01 -1.035718E+01
       vertex 1.4584780E+01 6.4594160E+01 -1.132148E+01
    endloop
endfacet
facet normal  -0.5557040845 0.54267331842 0.62984017018
    outer loop
       vertex 1.4609250E+01 6.3595650E+01 -1.036477E+01
       vertex 1.5643280E+01 6.3560300E+01 -9.421994E+00
       vertex 1.5583720E+01 6.4584710E+01 -1.035718E+01
    endloop
endfacet
facet normal  -0.5675954888 0.51559831649 0.64186738285
    outer loop
       vertex 1.4609250E+01 6.3595650E+01 -1.036477E+01
       vertex 1.4692980E+01 6.2527630E+01 -9.432811E+00
       vertex 1.5643280E+01 6.3560300E+01 -9.421994E+00
    endloop
endfacet
facet normal  -0.5580611484 0.48815051096 0.67102670092
    outer loop
       vertex 1.4692980E+01 6.2527630E+01 -9.432811E+00
       vertex 1.4831560E+01 6.1310160E+01 -8.431890E+00
       vertex 1.5778130E+01 6.2494060E+01 -8.505922E+00
    endloop
endfacet
facet normal  -0.5644221862 0.48495299505 0.66801810477
    outer loop
       vertex 1.4692980E+01 6.2527630E+01 -9.432811E+00
       vertex 1.3739140E+01 6.1489680E+01 -9.485222E+00
       vertex 1.4831560E+01 6.1310160E+01 -8.431890E+00
    endloop
endfacet
facet normal  -0.5468084867 0.46699046241 0.6949247347 
    outer loop
       vertex 1.4831560E+01 6.1310160E+01 -8.431890E+00
       vertex 1.3748920E+01 6.0398080E+01 -8.670857E+00
       vertex 1.4440470E+01 6.0079490E+01 -7.912611E+00
    endloop
endfacet
facet normal  -0.5452771046 0.45857243737 0.70170093263
    outer loop
       vertex 1.4831560E+01 6.1310160E+01 -8.431890E+00
       vertex 1.5415960E+01 6.0437740E+01 -7.407625E+00
       vertex 1.6075990E+01 6.1494060E+01 -7.585051E+00
    endloop
endfacet
facet normal  -0.5357004846 0.46706712607 0.70347230973
    outer loop
       vertex 1.4831560E+01 6.1310160E+01 -8.431890E+00
       vertex 1.4440470E+01 6.0079490E+01 -7.912611E+00
       vertex 1.5415960E+01 6.0437740E+01 -7.407625E+00
    endloop
endfacet
facet normal  -0.5355528447 0.45959151798 0.708490499  
    outer loop
       vertex 1.4440470E+01 6.0079490E+01 -7.912611E+00
       vertex 1.4839780E+01 5.9470040E+01 -7.215425E+00
       vertex 1.5415960E+01 6.0437740E+01 -7.407625E+00
    endloop
endfacet
facet normal  -0.5527914939 0.5017291833  0.66534907447
    outer loop
       vertex 1.5778130E+01 6.2494060E+01 -8.505922E+00
       vertex 1.5643280E+01 6.3560300E+01 -9.421994E+00
       vertex 1.4692980E+01 6.2527630E+01 -9.432811E+00
    endloop
endfacet
facet normal  -0.5876921892 0.5053116696  0.63188448888
    outer loop
       vertex 1.4609250E+01 6.3595650E+01 -1.036477E+01
       vertex 1.3672040E+01 6.2563770E+01 -1.041125E+01
       vertex 1.4692980E+01 6.2527630E+01 -9.432811E+00
    endloop
endfacet
facet normal  -0.5255638215 0.58531982074 0.61740049965
    outer loop
       vertex 1.6621040E+01 6.4546290E+01 -9.416920E+00
       vertex 1.7661710E+01 6.4504160E+01 -8.491106E+00
       vertex 1.7635770E+01 6.5477440E+01 -9.435895E+00
    endloop
endfacet
facet normal  -0.5522126774 0.54435384348 0.6314586701 
    outer loop
       vertex 1.5643280E+01 6.3560300E+01 -9.421994E+00
       vertex 1.6621040E+01 6.4546290E+01 -9.416920E+00
       vertex 1.5583720E+01 6.4584710E+01 -1.035718E+01
    endloop
endfacet
facet normal  -0.5531126884 0.52645321762 0.64568828672
    outer loop
       vertex 1.6701260E+01 6.3515640E+01 -8.507875E+00
       vertex 1.7661710E+01 6.4504160E+01 -8.491106E+00
       vertex 1.6621040E+01 6.4546290E+01 -9.416920E+00
    endloop
endfacet
facet normal  -0.5534555836 0.50139029763 0.6650523937 
    outer loop
       vertex 1.5778130E+01 6.2494060E+01 -8.505922E+00
       vertex 1.6701260E+01 6.3515640E+01 -8.507875E+00
       vertex 1.5643280E+01 6.3560300E+01 -9.421994E+00
    endloop
endfacet
facet normal  -0.5536791642 0.49960028181 0.66621238471
    outer loop
       vertex 1.6701260E+01 6.3515640E+01 -8.507875E+00
       vertex 1.6827470E+01 6.2519300E+01 -7.655817E+00
       vertex 1.7707800E+01 6.3488960E+01 -7.651347E+00
    endloop
endfacet
facet normal  -0.5416827336 0.47640112188 0.69254731762
    outer loop
       vertex 1.4831560E+01 6.1310160E+01 -8.431890E+00
       vertex 1.6075990E+01 6.1494060E+01 -7.585051E+00
       vertex 1.5778130E+01 6.2494060E+01 -8.505922E+00
    endloop
endfacet
facet normal  -0.5146823326 0.4398572556  0.73595359308
    outer loop
       vertex 1.7854240E+01 6.1898530E+01 -6.502570E+00
       vertex 1.7743350E+01 6.2574400E+01 -6.984067E+00
       vertex 1.7073240E+01 6.1671560E+01 -6.913102E+00
    endloop
endfacet
facet normal  -0.5433494832 0.45856041389 0.70320245015
    outer loop
       vertex 1.6827470E+01 6.2519300E+01 -7.655817E+00
       vertex 1.7073240E+01 6.1671560E+01 -6.913102E+00
       vertex 1.7743350E+01 6.2574400E+01 -6.984067E+00
    endloop
endfacet
facet normal  -0.742033432  0.60420547289 0.29038273409
    outer loop
       vertex 1.2398040E+01 6.4036440E+01 -1.418203E+01
       vertex 1.2942320E+01 6.4312740E+01 -1.336610E+01
       vertex 1.3043330E+01 6.4901400E+01 -1.433282E+01
    endloop
endfacet
facet normal  -0.7042783209 0.58760641961 0.39838516838
    outer loop
       vertex 1.2786560E+01 6.3482820E+01 -1.241735E+01
       vertex 1.3687880E+01 6.4514090E+01 -1.234506E+01
       vertex 1.2942320E+01 6.4312740E+01 -1.336610E+01
    endloop
endfacet
facet normal  -0.6347815426 0.57970878114 0.51087192351
    outer loop
       vertex 1.3637080E+01 6.3584910E+01 -1.135380E+01
       vertex 1.4584780E+01 6.4594160E+01 -1.132148E+01
       vertex 1.3687880E+01 6.4514090E+01 -1.234506E+01
    endloop
endfacet
facet normal  -0.6007216238 0.54536630041 0.58455891833
    outer loop
       vertex 1.3637080E+01 6.3584910E+01 -1.135380E+01
       vertex 1.4609250E+01 6.3595650E+01 -1.036477E+01
       vertex 1.4584780E+01 6.4594160E+01 -1.132148E+01
    endloop
endfacet
facet normal  -0.6808193845 0.54224189477 0.49240094764
    outer loop
       vertex 1.2723310E+01 6.2524190E+01 -1.144914E+01
       vertex 1.3637080E+01 6.3584910E+01 -1.135380E+01
       vertex 1.2786560E+01 6.3482820E+01 -1.241735E+01
    endloop
endfacet
facet normal  -0.6091424832 0.52654368576 0.59304062436
    outer loop
       vertex 1.3637080E+01 6.3584910E+01 -1.135380E+01
       vertex 1.3672040E+01 6.2563770E+01 -1.041125E+01
       vertex 1.4609250E+01 6.3595650E+01 -1.036477E+01
    endloop
endfacet
facet normal  -0.6625120258 0.50898529224 0.54955599169
    outer loop
       vertex 1.1811360E+01 6.1438950E+01 -1.154341E+01
       vertex 1.2744570E+01 6.1508270E+01 -1.048259E+01
       vertex 1.2723310E+01 6.2524190E+01 -1.144914E+01
    endloop
endfacet
facet normal  -0.5868079417 0.50739199316 0.63103867142
    outer loop
       vertex 1.3672040E+01 6.2563770E+01 -1.041125E+01
       vertex 1.3739140E+01 6.1489680E+01 -9.485222E+00
       vertex 1.4692980E+01 6.2527630E+01 -9.432811E+00
    endloop
endfacet
facet normal  -0.60897876   0.5059288633  0.61088530439
    outer loop
       vertex 1.1782700E+01 6.0440570E+01 -1.055720E+01
       vertex 1.2793190E+01 6.0452110E+01 -9.559421E+00
       vertex 1.2744570E+01 6.1508270E+01 -1.048259E+01
    endloop
endfacet
facet normal  -0.5611900314 0.49168846613 0.66581393863
    outer loop
       vertex 1.3739140E+01 6.1489680E+01 -9.485222E+00
       vertex 1.3748920E+01 6.0398080E+01 -8.670857E+00
       vertex 1.4831560E+01 6.1310160E+01 -8.431890E+00
    endloop
endfacet
facet normal  -0.55975486   0.50563791169 0.65650955743
    outer loop
       vertex 1.1811610E+01 5.9417020E+01 -9.599121E+00
       vertex 1.2881570E+01 5.9357070E+01 -8.640676E+00
       vertex 1.2793190E+01 6.0452110E+01 -9.559421E+00
    endloop
endfacet
facet normal  -0.528586778  0.46968255618 0.70710276092
    outer loop
       vertex 1.4052010E+01 5.9147510E+01 -7.583946E+00
       vertex 1.4440470E+01 6.0079490E+01 -7.912611E+00
       vertex 1.3713430E+01 5.9570180E+01 -8.117800E+00
    endloop
endfacet
facet normal  -0.5350068592 0.48503529425 0.69174303314
    outer loop
       vertex 1.3748920E+01 6.0398080E+01 -8.670857E+00
       vertex 1.3713430E+01 5.9570180E+01 -8.117800E+00
       vertex 1.4440470E+01 6.0079490E+01 -7.912611E+00
    endloop
endfacet
facet normal  -0.5244639311 0.46916501135 0.7105081119 
    outer loop
       vertex 1.4440470E+01 6.0079490E+01 -7.912611E+00
       vertex 1.4052010E+01 5.9147510E+01 -7.583946E+00
       vertex 1.4839780E+01 5.9470040E+01 -7.215425E+00
    endloop
endfacet
facet normal  -0.522975265  0.47497893571 0.70773715658
    outer loop
       vertex 1.3713430E+01 5.9570180E+01 -8.117800E+00
       vertex 1.3400380E+01 5.8936940E+01 -7.924143E+00
       vertex 1.4052010E+01 5.9147510E+01 -7.583946E+00
    endloop
endfacet
facet normal  -0.5167890306 0.50953357704 0.68797138872
    outer loop
       vertex 1.1796650E+01 5.8396000E+01 -8.743845E+00
       vertex 1.2735890E+01 5.8329070E+01 -7.988738E+00
       vertex 1.2881570E+01 5.9357070E+01 -8.640676E+00
    endloop
endfacet
facet normal  -0.4568095803 0.86757390538 0.19657193597
    outer loop
       vertex 5.3874460E+00 5.8215130E+01 -1.645884E+01
       vertex 4.7476780E+00 5.7673210E+01 -1.555381E+01
       vertex 6.0210580E+00 5.8253020E+01 -1.515363E+01
    endloop
endfacet
facet normal  -0.4619833409 0.85697747955 0.2283878111 
    outer loop
       vertex 4.7476780E+00 5.7673210E+01 -1.555381E+01
       vertex 5.6563240E+00 5.7831900E+01 -1.431125E+01
       vertex 6.0210580E+00 5.8253020E+01 -1.515363E+01
    endloop
endfacet
facet normal  -0.4229562677 0.88462849626 0.1963171394 
    outer loop
       vertex 4.7476780E+00 5.7673210E+01 -1.555381E+01
       vertex 4.5640180E+00 5.7302750E+01 -1.428016E+01
       vertex 5.6563240E+00 5.7831900E+01 -1.431125E+01
    endloop
endfacet
facet normal  -0.4162756228 0.87402632902 0.25058448074
    outer loop
       vertex 4.5640180E+00 5.7302750E+01 -1.428016E+01
       vertex 5.5169740E+00 5.7470120E+01 -1.328087E+01
       vertex 5.6563240E+00 5.7831900E+01 -1.431125E+01
    endloop
endfacet
facet normal  -0.4182824239 0.88657272569 0.19755661444
    outer loop
       vertex 3.6283210E+00 5.7090850E+01 -1.531035E+01
       vertex 4.5640180E+00 5.7302750E+01 -1.428016E+01
       vertex 4.7476780E+00 5.7673210E+01 -1.555381E+01
    endloop
endfacet
facet normal  -0.3802225286 0.91131720226 0.15789802286
    outer loop
       vertex 3.6283210E+00 5.7090850E+01 -1.531035E+01
       vertex 3.3507020E+00 5.6773240E+01 -1.414576E+01
       vertex 4.5640180E+00 5.7302750E+01 -1.428016E+01
    endloop
endfacet
facet normal  -0.3874167585 0.89539646554 0.21948445207
    outer loop
       vertex 4.4748350E+00 5.6990610E+01 -1.316419E+01
       vertex 5.5169740E+00 5.7470120E+01 -1.328087E+01
       vertex 4.5640180E+00 5.7302750E+01 -1.428016E+01
    endloop
endfacet
endsolid
