solid S192803_PCL_AL_Region_Fem
facet normal  0.55863998318 0.48707335602 -0.6713277255
    outer loop
       vertex -1.803769E+00 4.9481050E+01 -3.560146E+01
       vertex -9.481994E-01 4.8577340E+01 -3.554518E+01
       vertex -1.925220E+00 4.8578470E+01 -3.635738E+01
    endloop
endfacet
facet normal  0.5859331063  0.0423860693  -0.8092501567
    outer loop
       vertex -8.638440E+00 4.2717350E+01 -4.215437E+01
       vertex -7.655210E+00 4.2899830E+01 -4.143291E+01
       vertex -7.848414E+00 4.2098300E+01 -4.161478E+01
    endloop
endfacet
facet normal  0.60539544782 0.23535052037 -0.7603331403
    outer loop
       vertex -8.676208E+00 4.8110590E+01 -4.130346E+01
       vertex -7.676136E+00 4.8532120E+01 -4.037670E+01
       vertex -7.611832E+00 4.7431310E+01 -4.066624E+01
    endloop
endfacet
facet normal  0.60516746858 0.23590953189 -0.7603413889
    outer loop
       vertex -8.676208E+00 4.8110590E+01 -4.130346E+01
       vertex -8.619707E+00 4.9047780E+01 -4.096771E+01
       vertex -7.676136E+00 4.8532120E+01 -4.037670E+01
    endloop
endfacet
facet normal  0.61523947422 0.28206261888 -0.7361528838
    outer loop
       vertex -8.619707E+00 4.9047780E+01 -4.096771E+01
       vertex -8.134331E+00 4.9573170E+01 -4.036075E+01
       vertex -7.676136E+00 4.8532120E+01 -4.037670E+01
    endloop
endfacet
facet normal  0.64028969975 0.30549227589 -0.7047719984
    outer loop
       vertex -8.494304E+00 5.0432270E+01 -4.031540E+01
       vertex -7.726146E+00 5.0218650E+01 -3.971012E+01
       vertex -8.134331E+00 4.9573170E+01 -4.036075E+01
    endloop
endfacet
facet normal  0.63569037338 0.37663963968 -0.6738251487
    outer loop
       vertex -8.494304E+00 5.0432270E+01 -4.031540E+01
       vertex -8.172065E+00 5.0871280E+01 -3.976601E+01
       vertex -7.726146E+00 5.0218650E+01 -3.971012E+01
    endloop
endfacet
facet normal  0.67912599147 0.32508799859 -0.6581076514
    outer loop
       vertex -8.745840E+00 5.1309380E+01 -4.014170E+01
       vertex -8.172065E+00 5.0871280E+01 -3.976601E+01
       vertex -8.494304E+00 5.0432270E+01 -4.031540E+01
    endloop
endfacet
facet normal  0.68815205722 0.36206492377 -0.6287732   
    outer loop
       vertex -8.745840E+00 5.1309380E+01 -4.014170E+01
       vertex -8.329681E+00 5.1530020E+01 -3.955919E+01
       vertex -8.172065E+00 5.0871280E+01 -3.976601E+01
    endloop
endfacet
facet normal  0.7038891398  0.33124739858 -0.62834325  
    outer loop
       vertex -8.812038E+00 5.2278880E+01 -3.970476E+01
       vertex -8.329681E+00 5.1530020E+01 -3.955919E+01
       vertex -8.745840E+00 5.1309380E+01 -4.014170E+01
    endloop
endfacet
facet normal  0.70995164056 0.33709866722 -0.6183309442
    outer loop
       vertex -8.812038E+00 5.2278880E+01 -3.970476E+01
       vertex -8.193318E+00 5.2133040E+01 -3.907387E+01
       vertex -8.329681E+00 5.1530020E+01 -3.955919E+01
    endloop
endfacet
facet normal  0.70404198028 0.3732026007  -0.6041892988
    outer loop
       vertex -8.583370E+00 5.3253510E+01 -3.883628E+01
       vertex -8.193318E+00 5.2133040E+01 -3.907387E+01
       vertex -8.812038E+00 5.2278880E+01 -3.970476E+01
    endloop
endfacet
facet normal  0.67598368319 0.3704052566  -0.6370604414
    outer loop
       vertex -8.583370E+00 5.3253510E+01 -3.883628E+01
       vertex -7.598161E+00 5.2355320E+01 -3.831311E+01
       vertex -8.193318E+00 5.2133040E+01 -3.907387E+01
    endloop
endfacet
facet normal  0.70169370129 0.44608408226 -0.5555492247
    outer loop
       vertex -8.583370E+00 5.3253510E+01 -3.883628E+01
       vertex -7.662214E+00 5.3491270E+01 -3.748189E+01
       vertex -7.598161E+00 5.2355320E+01 -3.831311E+01
    endloop
endfacet
facet normal  0.7152031947  0.41836419971 -0.5598712233
    outer loop
       vertex -8.766054E+00 5.4457200E+01 -3.817019E+01
       vertex -7.662214E+00 5.3491270E+01 -3.748189E+01
       vertex -8.583370E+00 5.3253510E+01 -3.883628E+01
    endloop
endfacet
facet normal  0.73542287008 0.53076096536 -0.4212433973
    outer loop
       vertex -7.654227E+00 5.4096440E+01 -3.670544E+01
       vertex -7.662214E+00 5.3491270E+01 -3.748189E+01
       vertex -8.309382E+00 5.4604100E+01 -3.720959E+01
    endloop
endfacet
facet normal  0.73139859681 0.53026983689 -0.4288006444
    outer loop
       vertex -8.766054E+00 5.4457200E+01 -3.817019E+01
       vertex -8.309382E+00 5.4604100E+01 -3.720959E+01
       vertex -7.662214E+00 5.3491270E+01 -3.748189E+01
    endloop
endfacet
facet normal  0.78012010186 0.54018618551 -0.3156129143
    outer loop
       vertex -8.764384E+00 5.5517950E+01 -3.677015E+01
       vertex -8.309382E+00 5.4604100E+01 -3.720959E+01
       vertex -9.074020E+00 5.5428970E+01 -3.768779E+01
    endloop
endfacet
facet normal  0.77165950947 0.46170762718 -0.4374559046
    outer loop
       vertex -8.766054E+00 5.4457200E+01 -3.817019E+01
       vertex -9.074020E+00 5.5428970E+01 -3.768779E+01
       vertex -8.309382E+00 5.4604100E+01 -3.720959E+01
    endloop
endfacet
facet normal  0.82999864872 0.45395306348 -0.3240815627
    outer loop
       vertex -9.393167E+00 5.6309250E+01 -3.727211E+01
       vertex -8.764384E+00 5.5517950E+01 -3.677015E+01
       vertex -9.074020E+00 5.5428970E+01 -3.768779E+01
    endloop
endfacet
facet normal  0.83767708116 0.49219782685 -0.2367243269
    outer loop
       vertex -8.557917E+00 5.5633250E+01 -3.579981E+01
       vertex -8.764384E+00 5.5517950E+01 -3.677015E+01
       vertex -9.229674E+00 5.6582610E+01 -3.620299E+01
    endloop
endfacet
facet normal  0.82925810467 0.49776678839 -0.2540850649
    outer loop
       vertex -9.393167E+00 5.6309250E+01 -3.727211E+01
       vertex -9.229674E+00 5.6582610E+01 -3.620299E+01
       vertex -8.764384E+00 5.5517950E+01 -3.677015E+01
    endloop
endfacet
facet normal  0.82319923536 0.54616442474 -0.1550723704
    outer loop
       vertex -8.417164E+00 5.5701210E+01 -3.481327E+01
       vertex -8.557917E+00 5.5633250E+01 -3.579981E+01
       vertex -9.010051E+00 5.6510470E+01 -3.511039E+01
    endloop
endfacet
facet normal  0.83477757195 0.53440294794 -0.1325137525
    outer loop
       vertex -9.229674E+00 5.6582610E+01 -3.620299E+01
       vertex -9.010051E+00 5.6510470E+01 -3.511039E+01
       vertex -8.557917E+00 5.5633250E+01 -3.579981E+01
    endloop
endfacet
facet normal  0.75541197656 0.60766232178 -0.2451514804
    outer loop
       vertex -8.557917E+00 5.5633250E+01 -3.579981E+01
       vertex -7.867058E+00 5.4956930E+01 -3.534740E+01
       vertex -8.039214E+00 5.4780550E+01 -3.631508E+01
    endloop
endfacet
facet normal  0.7401985932  0.65527210491 -0.1507465129
    outer loop
       vertex -8.557917E+00 5.5633250E+01 -3.579981E+01
       vertex -8.417164E+00 5.5701210E+01 -3.481327E+01
       vertex -7.867058E+00 5.4956930E+01 -3.534740E+01
    endloop
endfacet
facet normal  0.67168063251 0.69296104039 -0.2620116876
    outer loop
       vertex -7.267551E+00 5.4186630E+01 -3.584780E+01
       vertex -7.867058E+00 5.4956930E+01 -3.534740E+01
       vertex -7.151932E+00 5.4469280E+01 -3.480386E+01
    endloop
endfacet
facet normal  0.68048429468 0.68994318333 -0.2468188171
    outer loop
       vertex -7.267551E+00 5.4186630E+01 -3.584780E+01
       vertex -8.039214E+00 5.4780550E+01 -3.631508E+01
       vertex -7.867058E+00 5.4956930E+01 -3.534740E+01
    endloop
endfacet
facet normal  0.6418556207  0.75352601026 -0.1421967441
    outer loop
       vertex -7.151932E+00 5.4469280E+01 -3.480386E+01
       vertex -7.770182E+00 5.5079020E+01 -3.436343E+01
       vertex -7.084742E+00 5.4598380E+01 -3.381645E+01
    endloop
endfacet
facet normal  0.63483390001 0.75665642841 -0.1563872397
    outer loop
       vertex -7.151932E+00 5.4469280E+01 -3.480386E+01
       vertex -7.867058E+00 5.4956930E+01 -3.534740E+01
       vertex -7.770182E+00 5.5079020E+01 -3.436343E+01
    endloop
endfacet
facet normal  0.61035298388 0.7908546082  -0.0449246452
    outer loop
       vertex -7.084742E+00 5.4598380E+01 -3.381645E+01
       vertex -7.711834E+00 5.5105670E+01 -3.340587E+01
       vertex -7.050738E+00 5.4627330E+01 -3.284483E+01
    endloop
endfacet
facet normal  0.60423180638 0.79462616945 -0.0589336489
    outer loop
       vertex -7.084742E+00 5.4598380E+01 -3.381645E+01
       vertex -7.770182E+00 5.5079020E+01 -3.436343E+01
       vertex -7.711834E+00 5.5105670E+01 -3.340587E+01
    endloop
endfacet
facet normal  0.71575500668 0.6955066314  -0.062970597 
    outer loop
       vertex -8.318885E+00 5.5689580E+01 -3.385666E+01
       vertex -7.711834E+00 5.5105670E+01 -3.340587E+01
       vertex -7.770182E+00 5.5079020E+01 -3.436343E+01
    endloop
endfacet
facet normal  0.69686674138 0.71713749228 -0.0095164025
    outer loop
       vertex -8.318885E+00 5.5689580E+01 -3.385666E+01
       vertex -8.201238E+00 5.5586130E+01 -3.303740E+01
       vertex -7.711834E+00 5.5105670E+01 -3.340587E+01
    endloop
endfacet
facet normal  0.81134270578 0.58442621845 -0.0130003448
    outer loop
       vertex -8.897913E+00 5.6488070E+01 -3.409755E+01
       vertex -8.715280E+00 5.6256470E+01 -3.311105E+01
       vertex -8.318885E+00 5.5689580E+01 -3.385666E+01
    endloop
endfacet
facet normal  0.79497264969 0.60547240647 -0.0377047907
    outer loop
       vertex -8.318885E+00 5.5689580E+01 -3.385666E+01
       vertex -8.715280E+00 5.6256470E+01 -3.311105E+01
       vertex -8.201238E+00 5.5586130E+01 -3.303740E+01
    endloop
endfacet
facet normal  0.78880453356 0.61159894337 0.06110761252
    outer loop
       vertex -8.715280E+00 5.6256470E+01 -3.311105E+01
       vertex -8.369143E+00 5.5720920E+01 -3.221906E+01
       vertex -8.201238E+00 5.5586130E+01 -3.303740E+01
    endloop
endfacet
facet normal  0.82967071439 0.55809870255 0.01312798135
    outer loop
       vertex -8.715280E+00 5.6256470E+01 -3.311105E+01
       vertex -8.927238E+00 5.6549880E+01 -3.218908E+01
       vertex -8.369143E+00 5.5720920E+01 -3.221906E+01
    endloop
endfacet
facet normal  0.82922799142 0.55633845638 0.05355800776
    outer loop
       vertex -8.927238E+00 5.6549880E+01 -3.218908E+01
       vertex -8.547978E+00 5.5911140E+01 -3.142612E+01
       vertex -8.369143E+00 5.5720920E+01 -3.221906E+01
    endloop
endfacet
facet normal  0.84521479526 0.53375897104 0.0267078771 
    outer loop
       vertex -8.927238E+00 5.6549880E+01 -3.218908E+01
       vertex -9.003872E+00 5.6622300E+01 -3.121119E+01
       vertex -8.547978E+00 5.5911140E+01 -3.142612E+01
    endloop
endfacet
facet normal  0.73199488932 0.68130812522 0.00164939901
    outer loop
       vertex -7.922297E+00 5.5238180E+01 -3.112430E+01
       vertex -8.369143E+00 5.5720920E+01 -3.221906E+01
       vertex -8.547978E+00 5.5911140E+01 -3.142612E+01
    endloop
endfacet
facet normal  0.69461285697 0.71861001642 0.03335600738
    outer loop
       vertex -7.922297E+00 5.5238180E+01 -3.112430E+01
       vertex -7.728898E+00 5.5111400E+01 -3.242038E+01
       vertex -8.369143E+00 5.5720920E+01 -3.221906E+01
    endloop
endfacet
facet normal  0.5932403975  0.80496592428 0.00978220461
    outer loop
       vertex -7.093082E+00 5.4634260E+01 -3.171607E+01
       vertex -7.728898E+00 5.5111400E+01 -3.242038E+01
       vertex -7.922297E+00 5.5238180E+01 -3.112430E+01
    endloop
endfacet
facet normal  0.52319477234 0.85102204826 0.04504113202
    outer loop
       vertex -7.093082E+00 5.4634260E+01 -3.171607E+01
       vertex -6.347832E+00 5.4146550E+01 -3.115789E+01
       vertex -6.312582E+00 5.4186880E+01 -3.232936E+01
    endloop
endfacet
facet normal  0.92045262378 0.38773084263 -0.0493128893
    outer loop
       vertex -9.831375E+00 5.8412790E+01 -3.420708E+01
       vertex -9.335351E+00 5.7353210E+01 -3.327964E+01
       vertex -9.423554E+00 5.7410820E+01 -3.447303E+01
    endloop
endfacet
facet normal  0.9159525413  0.39992999072 -0.032968843 
    outer loop
       vertex -9.831375E+00 5.8412790E+01 -3.420708E+01
       vertex -9.851551E+00 5.8545520E+01 -3.315753E+01
       vertex -9.335351E+00 5.7353210E+01 -3.327964E+01
    endloop
endfacet
facet normal  0.91658710069 0.38304567674 -0.1146477055
    outer loop
       vertex -9.459318E+00 5.7302930E+01 -3.536443E+01
       vertex -9.723138E+00 5.7698840E+01 -3.615086E+01
       vertex -9.809169E+00 5.8185260E+01 -3.521350E+01
    endloop
endfacet
facet normal  0.72359598956 0.21431618713 -0.6561077776
    outer loop
       vertex -9.593865E+00 5.0396480E+01 -4.146624E+01
       vertex -9.547115E+00 4.9223110E+01 -4.179796E+01
       vertex -1.000876E+01 5.0050700E+01 -4.203676E+01
    endloop
endfacet
facet normal  0.73602807754 0.24123551256 -0.6325093648
    outer loop
       vertex -9.732401E+00 5.1409760E+01 -4.124099E+01
       vertex -9.593865E+00 5.0396480E+01 -4.146624E+01
       vertex -1.015464E+01 5.0901950E+01 -4.192601E+01
    endloop
endfacet
facet normal  0.75393137609 0.24861061807 -0.6080955852
    outer loop
       vertex -9.882567E+00 5.2492910E+01 -4.098434E+01
       vertex -9.732401E+00 5.1409760E+01 -4.124099E+01
       vertex -1.028077E+01 5.1895900E+01 -4.172212E+01
    endloop
endfacet
facet normal  0.79178549881 0.26106800806 -0.5521949104
    outer loop
       vertex -9.882567E+00 5.2492910E+01 -4.098434E+01
       vertex -1.019689E+01 5.3547230E+01 -4.093658E+01
       vertex -9.478751E+00 5.3277210E+01 -4.003451E+01
    endloop
endfacet
facet normal  0.78866884248 0.29445559398 -0.5397197051
    outer loop
       vertex -9.478751E+00 5.3277210E+01 -4.003451E+01
       vertex -1.019689E+01 5.3547230E+01 -4.093658E+01
       vertex -1.008590E+01 5.4502220E+01 -4.025338E+01
    endloop
endfacet
facet normal  0.8072366393  0.30852431145 -0.5031716978
    outer loop
       vertex -1.006859E+01 5.5448760E+01 -3.964523E+01
       vertex -9.429768E+00 5.4446720E+01 -3.923478E+01
       vertex -1.008590E+01 5.4502220E+01 -4.025338E+01
    endloop
endfacet
facet normal  0.82991511362 0.35169663009 -0.4330708771
    outer loop
       vertex -1.006859E+01 5.5448760E+01 -3.964523E+01
       vertex -9.528554E+00 5.5430440E+01 -3.862521E+01
       vertex -9.429768E+00 5.4446720E+01 -3.923478E+01
    endloop
endfacet
facet normal  0.8319644407  0.34531776717 -0.4342704331
    outer loop
       vertex -1.006859E+01 5.5448760E+01 -3.964523E+01
       vertex -1.011117E+01 5.6404450E+01 -3.896687E+01
       vertex -9.528554E+00 5.5430440E+01 -3.862521E+01
    endloop
endfacet
facet normal  0.81842178051 0.41620403899 -0.3961817602
    outer loop
       vertex -9.074020E+00 5.5428970E+01 -3.768779E+01
       vertex -9.528554E+00 5.5430440E+01 -3.862521E+01
       vertex -9.618132E+00 5.6144710E+01 -3.805989E+01
    endloop
endfacet
facet normal  0.85234128146 0.38609615554 -0.3527663513
    outer loop
       vertex -1.011117E+01 5.6404450E+01 -3.896687E+01
       vertex -9.618132E+00 5.6144710E+01 -3.805989E+01
       vertex -9.528554E+00 5.5430440E+01 -3.862521E+01
    endloop
endfacet
facet normal  0.78216815863 0.38305224699 -0.4914101624
    outer loop
       vertex -9.528554E+00 5.5430440E+01 -3.862521E+01
       vertex -8.766054E+00 5.4457200E+01 -3.817019E+01
       vertex -9.429768E+00 5.4446720E+01 -3.923478E+01
    endloop
endfacet
facet normal  0.80459406891 0.44830262929 -0.3894266771
    outer loop
       vertex -9.528554E+00 5.5430440E+01 -3.862521E+01
       vertex -9.074020E+00 5.5428970E+01 -3.768779E+01
       vertex -8.766054E+00 5.4457200E+01 -3.817019E+01
    endloop
endfacet
facet normal  0.86102638516 0.35170711668 -0.3673359064
    outer loop
       vertex -9.912007E+00 5.6897870E+01 -3.802761E+01
       vertex -9.618132E+00 5.6144710E+01 -3.805989E+01
       vertex -1.011117E+01 5.6404450E+01 -3.896687E+01
    endloop
endfacet
facet normal  0.80685446975 0.31005776476 -0.5028419704
    outer loop
       vertex -9.429768E+00 5.4446720E+01 -3.923478E+01
       vertex -9.478751E+00 5.3277210E+01 -4.003451E+01
       vertex -1.008590E+01 5.4502220E+01 -4.025338E+01
    endloop
endfacet
facet normal  0.75399034064 0.34897717923 -0.5565190874
    outer loop
       vertex -9.429768E+00 5.4446720E+01 -3.923478E+01
       vertex -8.583370E+00 5.3253510E+01 -3.883628E+01
       vertex -9.478751E+00 5.3277210E+01 -4.003451E+01
    endloop
endfacet
facet normal  0.74426622299 0.29993570735 -0.5967464795
    outer loop
       vertex -9.311991E+00 5.1931230E+01 -4.050304E+01
       vertex -9.478751E+00 5.3277210E+01 -4.003451E+01
       vertex -8.812038E+00 5.2278880E+01 -3.970476E+01
    endloop
endfacet
facet normal  0.75568493276 0.24836128077 -0.6060172907
    outer loop
       vertex -9.882567E+00 5.2492910E+01 -4.098434E+01
       vertex -9.311991E+00 5.1931230E+01 -4.050304E+01
       vertex -9.732401E+00 5.1409760E+01 -4.124099E+01
    endloop
endfacet
facet normal  0.72067162345 0.24287747428 -0.6493403912
    outer loop
       vertex -9.732401E+00 5.1409760E+01 -4.124099E+01
       vertex -9.155431E+00 5.0883900E+01 -4.079733E+01
       vertex -9.593865E+00 5.0396480E+01 -4.146624E+01
    endloop
endfacet
facet normal  0.73338183987 0.28327743009 -0.617984607 
    outer loop
       vertex -9.732401E+00 5.1409760E+01 -4.124099E+01
       vertex -9.311991E+00 5.1931230E+01 -4.050304E+01
       vertex -9.155431E+00 5.0883900E+01 -4.079733E+01
    endloop
endfacet
facet normal  0.69082034194 0.22205048365 -0.688084906 
    outer loop
       vertex -9.593865E+00 5.0396480E+01 -4.146624E+01
       vertex -8.948583E+00 4.9916240E+01 -4.097337E+01
       vertex -9.547115E+00 4.9223110E+01 -4.179796E+01
    endloop
endfacet
facet normal  0.70326114586 0.26997632159 -0.6576751071
    outer loop
       vertex -9.593865E+00 5.0396480E+01 -4.146624E+01
       vertex -9.155431E+00 5.0883900E+01 -4.079733E+01
       vertex -8.948583E+00 4.9916240E+01 -4.097337E+01
    endloop
endfacet
facet normal  0.87636066579 0.35585820922 -0.3245873047
    outer loop
       vertex -9.912007E+00 5.6897870E+01 -3.802761E+01
       vertex -9.393167E+00 5.6309250E+01 -3.727211E+01
       vertex -9.618132E+00 5.6144710E+01 -3.805989E+01
    endloop
endfacet
facet normal  0.87418541616 0.37573826962 -0.3076046341
    outer loop
       vertex -9.912007E+00 5.6897870E+01 -3.802761E+01
       vertex -9.741084E+00 5.7257160E+01 -3.710299E+01
       vertex -9.393167E+00 5.6309250E+01 -3.727211E+01
    endloop
endfacet
facet normal  0.89179570054 0.40377847283 -0.2041160782
    outer loop
       vertex -9.723138E+00 5.7698840E+01 -3.615086E+01
       vertex -9.229674E+00 5.6582610E+01 -3.620299E+01
       vertex -9.741084E+00 5.7257160E+01 -3.710299E+01
    endloop
endfacet
facet normal  0.89891034526 0.37140036288 -0.2324262499
    outer loop
       vertex -9.393167E+00 5.6309250E+01 -3.727211E+01
       vertex -9.741084E+00 5.7257160E+01 -3.710299E+01
       vertex -9.229674E+00 5.6582610E+01 -3.620299E+01
    endloop
endfacet
facet normal  0.87995291149 0.45172807589 -0.1470531163
    outer loop
       vertex -9.010051E+00 5.6510470E+01 -3.511039E+01
       vertex -9.229674E+00 5.6582610E+01 -3.620299E+01
       vertex -9.459318E+00 5.7302930E+01 -3.536443E+01
    endloop
endfacet
facet normal  0.90827047686 0.40620844498 -0.1001970064
    outer loop
       vertex -9.723138E+00 5.7698840E+01 -3.615086E+01
       vertex -9.459318E+00 5.7302930E+01 -3.536443E+01
       vertex -9.229674E+00 5.6582610E+01 -3.620299E+01
    endloop
endfacet
facet normal  0.88044317451 0.46606960636 -0.0871718904
    outer loop
       vertex -8.897913E+00 5.6488070E+01 -3.409755E+01
       vertex -9.010051E+00 5.6510470E+01 -3.511039E+01
       vertex -9.423554E+00 5.7410820E+01 -3.447303E+01
    endloop
endfacet
facet normal  0.87859982205 0.46861921874 -0.0919694543
    outer loop
       vertex -9.459318E+00 5.7302930E+01 -3.536443E+01
       vertex -9.423554E+00 5.7410820E+01 -3.447303E+01
       vertex -9.010051E+00 5.6510470E+01 -3.511039E+01
    endloop
endfacet
facet normal  0.92145104095 0.37954486214 -0.0829076399
    outer loop
       vertex -9.809169E+00 5.8185260E+01 -3.521350E+01
       vertex -9.423554E+00 5.7410820E+01 -3.447303E+01
       vertex -9.459318E+00 5.7302930E+01 -3.536443E+01
    endloop
endfacet
facet normal  0.91759618197 0.39160452092 -0.0682872318
    outer loop
       vertex -9.809169E+00 5.8185260E+01 -3.521350E+01
       vertex -9.831375E+00 5.8412790E+01 -3.420708E+01
       vertex -9.423554E+00 5.7410820E+01 -3.447303E+01
    endloop
endfacet
facet normal  0.87263006197 0.48607252681 -0.0474370491
    outer loop
       vertex -8.715280E+00 5.6256470E+01 -3.311105E+01
       vertex -8.897913E+00 5.6488070E+01 -3.409755E+01
       vertex -9.335351E+00 5.7353210E+01 -3.327964E+01
    endloop
endfacet
facet normal  0.87532180645 0.48176200237 -0.0414380046
    outer loop
       vertex -9.423554E+00 5.7410820E+01 -3.447303E+01
       vertex -9.335351E+00 5.7353210E+01 -3.327964E+01
       vertex -8.897913E+00 5.6488070E+01 -3.409755E+01
    endloop
endfacet
facet normal  0.86702707003 0.49654604697 0.04130475836
    outer loop
       vertex -9.335351E+00 5.7353210E+01 -3.327964E+01
       vertex -8.927238E+00 5.6549880E+01 -3.218908E+01
       vertex -8.715280E+00 5.6256470E+01 -3.311105E+01
    endloop
endfacet
facet normal  0.8914541936  0.45311079485 1.6821589E-04
    outer loop
       vertex -9.335351E+00 5.7353210E+01 -3.327964E+01
       vertex -9.469176E+00 5.7616030E+01 -3.201770E+01
       vertex -8.927238E+00 5.6549880E+01 -3.218908E+01
    endloop
endfacet
facet normal  0.89321695017 0.44811644518 0.03681211056
    outer loop
       vertex -9.469176E+00 5.7616030E+01 -3.201770E+01
       vertex -9.003872E+00 5.6622300E+01 -3.121119E+01
       vertex -8.927238E+00 5.6549880E+01 -3.218908E+01
    endloop
endfacet
facet normal  0.91814044012 0.39597498768 0.01489769572
    outer loop
       vertex -9.469176E+00 5.7616030E+01 -3.201770E+01
       vertex -9.335351E+00 5.7353210E+01 -3.327964E+01
       vertex -9.851551E+00 5.8545520E+01 -3.315753E+01
    endloop
endfacet
facet normal  0.49710271649 0.86767421614 -0.0055085298
    outer loop
       vertex -4.853412E+00 5.3425480E+01 -3.244717E+01
       vertex -4.265833E+00 5.3091700E+01 -3.199790E+01
       vertex -4.283956E+00 5.3097650E+01 -3.269615E+01
    endloop
endfacet
facet normal  0.51556771821 0.85278969239 -0.0833046727
    outer loop
       vertex -4.871741E+00 5.3406290E+01 -3.317437E+01
       vertex -4.283956E+00 5.3097650E+01 -3.269615E+01
       vertex -4.331880E+00 5.3067940E+01 -3.329689E+01
    endloop
endfacet
facet normal  0.48697124197 0.87270421934 -0.0353037539
    outer loop
       vertex -4.871741E+00 5.3406290E+01 -3.317437E+01
       vertex -4.853412E+00 5.3425480E+01 -3.244717E+01
       vertex -4.283956E+00 5.3097650E+01 -3.269615E+01
    endloop
endfacet
facet normal  0.5459936392  0.81754894127 -0.1830428217
    outer loop
       vertex -4.823596E+00 5.3254840E+01 -3.392884E+01
       vertex -4.331880E+00 5.3067940E+01 -3.329689E+01
       vertex -3.939265E+00 5.2688850E+01 -3.381895E+01
    endloop
endfacet
facet normal  0.50302905018 0.85299770001 -0.1391283524
    outer loop
       vertex -4.823596E+00 5.3254840E+01 -3.392884E+01
       vertex -4.871741E+00 5.3406290E+01 -3.317437E+01
       vertex -4.331880E+00 5.3067940E+01 -3.329689E+01
    endloop
endfacet
facet normal  0.5759424636  0.75264928247 -0.3190757531
    outer loop
       vertex -4.757088E+00 5.2893670E+01 -3.481201E+01
       vertex -3.939265E+00 5.2688850E+01 -3.381895E+01
       vertex -3.778426E+00 5.2135320E+01 -3.483432E+01
    endloop
endfacet
facet normal  0.58405951133 0.670224108   -0.4579018806
    outer loop
       vertex -4.695675E+00 5.2271560E+01 -3.580487E+01
       vertex -3.778426E+00 5.2135320E+01 -3.483432E+01
       vertex -3.678984E+00 5.1388370E+01 -3.580078E+01
    endloop
endfacet
facet normal  0.59323901283 0.55628366317 -0.5819071745
    outer loop
       vertex -4.605988E+00 5.1422750E+01 -3.671297E+01
       vertex -3.678984E+00 5.1388370E+01 -3.580078E+01
       vertex -3.636819E+00 5.0473300E+01 -3.663257E+01
    endloop
endfacet
facet normal  0.58359646821 0.37366061002 -0.7209666503
    outer loop
       vertex -4.724421E+00 4.9400820E+01 -3.816765E+01
       vertex -4.540691E+00 5.0467020E+01 -3.746634E+01
       vertex -3.699802E+00 4.9500010E+01 -3.728685E+01
    endloop
endfacet
facet normal  0.6164383366  0.41142560455 -0.67136633  
    outer loop
       vertex -4.540691E+00 5.0467020E+01 -3.746634E+01
       vertex -3.636819E+00 5.0473300E+01 -3.663257E+01
       vertex -3.699802E+00 4.9500010E+01 -3.728685E+01
    endloop
endfacet
facet normal  0.57553516722 0.39809183507 -0.7143403686
    outer loop
       vertex -3.808639E+00 4.8669590E+01 -3.783732E+01
       vertex -4.724421E+00 4.9400820E+01 -3.816765E+01
       vertex -3.699802E+00 4.9500010E+01 -3.728685E+01
    endloop
endfacet
facet normal  0.56571667317 0.34193020129 -0.7503654997
    outer loop
       vertex -4.359403E+00 4.8175790E+01 -3.847757E+01
       vertex -3.808639E+00 4.8669590E+01 -3.783732E+01
       vertex -3.393611E+00 4.7746960E+01 -3.794485E+01
    endloop
endfacet
facet normal  0.55517294669 0.3556377443  -0.7518675376
    outer loop
       vertex -4.359403E+00 4.8175790E+01 -3.847757E+01
       vertex -4.724421E+00 4.9400820E+01 -3.816765E+01
       vertex -3.808639E+00 4.8669590E+01 -3.783732E+01
    endloop
endfacet
facet normal  0.55936088197 0.29967248849 -0.7728594978
    outer loop
       vertex -3.393611E+00 4.7746960E+01 -3.794485E+01
       vertex -4.004013E+00 4.7089960E+01 -3.864138E+01
       vertex -4.359403E+00 4.8175790E+01 -3.847757E+01
    endloop
endfacet
facet normal  0.56029664706 0.29854645324 -0.7726174231
    outer loop
       vertex -3.393611E+00 4.7746960E+01 -3.794485E+01
       vertex -3.008847E+00 4.6515550E+01 -3.814165E+01
       vertex -4.004013E+00 4.7089960E+01 -3.864138E+01
    endloop
endfacet
facet normal  0.54324670885 0.24167143274 -0.804038514 
    outer loop
       vertex -3.008847E+00 4.6515550E+01 -3.814165E+01
       vertex -3.796649E+00 4.5932550E+01 -3.884916E+01
       vertex -4.004013E+00 4.7089960E+01 -3.864138E+01
    endloop
endfacet
facet normal  0.49864383833 0.14677560795 -0.8542899059
    outer loop
       vertex -4.645420E+00 4.5729090E+01 -3.943811E+01
       vertex -3.796117E+00 4.4810500E+01 -3.910020E+01
       vertex -4.759366E+00 4.4585150E+01 -3.970116E+01
    endloop
endfacet
facet normal  0.52981344152 0.18541266156 -0.8275988534
    outer loop
       vertex -4.645420E+00 4.5729090E+01 -3.943811E+01
       vertex -3.796649E+00 4.5932550E+01 -3.884916E+01
       vertex -3.796117E+00 4.4810500E+01 -3.910020E+01
    endloop
endfacet
facet normal  0.47894130961 0.10663017098 -0.8713467901
    outer loop
       vertex -4.759366E+00 4.4585150E+01 -3.970116E+01
       vertex -3.757030E+00 4.3773700E+01 -3.924952E+01
       vertex -4.577001E+00 4.3378700E+01 -3.974856E+01
    endloop
endfacet
facet normal  0.49985733688 0.14189593273 -0.8544051656
    outer loop
       vertex -4.759366E+00 4.4585150E+01 -3.970116E+01
       vertex -3.796117E+00 4.4810500E+01 -3.910020E+01
       vertex -3.757030E+00 4.3773700E+01 -3.924952E+01
    endloop
endfacet
facet normal  0.46122623673 0.08237997103 -0.883449998 
    outer loop
       vertex -4.577001E+00 4.3378700E+01 -3.974856E+01
       vertex -3.665954E+00 4.2744650E+01 -3.933205E+01
       vertex -4.504605E+00 4.2308800E+01 -3.981053E+01
    endloop
endfacet
facet normal  0.47664666185 0.11211345149 -0.8719165864
    outer loop
       vertex -4.577001E+00 4.3378700E+01 -3.974856E+01
       vertex -3.757030E+00 4.3773700E+01 -3.924952E+01
       vertex -3.665954E+00 4.2744650E+01 -3.933205E+01
    endloop
endfacet
facet normal  0.45602945655 0.03345491164 -0.889335653 
    outer loop
       vertex -5.504339E+00 4.1665850E+01 -4.033638E+01
       vertex -6.550832E+00 4.0923540E+01 -4.090092E+01
       vertex -6.724206E+00 4.2061880E+01 -4.094700E+01
    endloop
endfacet
facet normal  0.46072297638 0.02520329441 -0.8871860757
    outer loop
       vertex -5.504339E+00 4.1665850E+01 -4.033638E+01
       vertex -5.460158E+00 4.0637850E+01 -4.034264E+01
       vertex -6.550832E+00 4.0923540E+01 -4.090092E+01
    endloop
endfacet
facet normal  0.44265138353 0.0761447356  -0.8934549412
    outer loop
       vertex -5.521948E+00 4.2755290E+01 -4.029226E+01
       vertex -6.724206E+00 4.2061880E+01 -4.094700E+01
       vertex -6.588039E+00 4.3213510E+01 -4.078139E+01
    endloop
endfacet
facet normal  0.45841574254 0.04335866664 -0.8876795779
    outer loop
       vertex -5.521948E+00 4.2755290E+01 -4.029226E+01
       vertex -5.504339E+00 4.1665850E+01 -4.033638E+01
       vertex -6.724206E+00 4.2061880E+01 -4.094700E+01
    endloop
endfacet
facet normal  0.44580092266 0.08611398626 -0.8909803133
    outer loop
       vertex -6.588039E+00 4.3213510E+01 -4.078139E+01
       vertex -5.600655E+00 4.3827510E+01 -4.022801E+01
       vertex -5.521948E+00 4.2755290E+01 -4.029226E+01
    endloop
endfacet
facet normal  0.44173750685 0.09377469484 -0.8922299489
    outer loop
       vertex -6.588039E+00 4.3213510E+01 -4.078139E+01
       vertex -6.644623E+00 4.4192320E+01 -4.070653E+01
       vertex -5.600655E+00 4.3827510E+01 -4.022801E+01
    endloop
endfacet
facet normal  0.44895786366 0.10223294777 -0.887685339 
    outer loop
       vertex -6.793554E+00 4.4993790E+01 -4.068955E+01
       vertex -5.896388E+00 4.4815070E+01 -4.025638E+01
       vertex -6.644623E+00 4.4192320E+01 -4.070653E+01
    endloop
endfacet
facet normal  0.44512575401 0.10775908388 -0.8889606532
    outer loop
       vertex -6.644623E+00 4.4192320E+01 -4.070653E+01
       vertex -5.896388E+00 4.4815070E+01 -4.025638E+01
       vertex -5.600655E+00 4.3827510E+01 -4.022801E+01
    endloop
endfacet
facet normal  0.45654540667 0.18006443486 -0.871288179 
    outer loop
       vertex -6.555668E+00 4.5664250E+01 -4.042634E+01
       vertex -5.896388E+00 4.4815070E+01 -4.025638E+01
       vertex -6.793554E+00 4.4993790E+01 -4.068955E+01
    endloop
endfacet
facet normal  0.43650328052 0.16175127263 -0.8850431695
    outer loop
       vertex -6.555668E+00 4.5664250E+01 -4.042634E+01
       vertex -5.584619E+00 4.5644490E+01 -3.995103E+01
       vertex -5.896388E+00 4.4815070E+01 -4.025638E+01
    endloop
endfacet
facet normal  0.43480563035 0.1891468469  -0.8804359909
    outer loop
       vertex -6.347057E+00 4.6299240E+01 -4.018690E+01
       vertex -5.584619E+00 4.5644490E+01 -3.995103E+01
       vertex -6.555668E+00 4.5664250E+01 -4.042634E+01
    endloop
endfacet
facet normal  0.4433839606  0.20169054061 -0.8733450574
    outer loop
       vertex -6.347057E+00 4.6299240E+01 -4.018690E+01
       vertex -5.698365E+00 4.6688990E+01 -3.976756E+01
       vertex -5.584619E+00 4.5644490E+01 -3.995103E+01
    endloop
endfacet
facet normal  0.45088501608 0.18829211629 -0.8724957199
    outer loop
       vertex -6.347057E+00 4.6299240E+01 -4.018690E+01
       vertex -6.701781E+00 4.6931990E+01 -4.023366E+01
       vertex -5.698365E+00 4.6688990E+01 -3.976756E+01
    endloop
endfacet
facet normal  0.45540121394 0.23162133536 -0.8596285776
    outer loop
       vertex -6.635012E+00 4.7666200E+01 -4.000046E+01
       vertex -5.698365E+00 4.6688990E+01 -3.976756E+01
       vertex -6.701781E+00 4.6931990E+01 -4.023366E+01
    endloop
endfacet
facet normal  0.46655512581 0.24460800137 -0.8499960237
    outer loop
       vertex -6.635012E+00 4.7666200E+01 -4.000046E+01
       vertex -5.621801E+00 4.7721200E+01 -3.942849E+01
       vertex -5.698365E+00 4.6688990E+01 -3.976756E+01
    endloop
endfacet
facet normal  0.45728459136 0.29622078848 -0.8385368489
    outer loop
       vertex -6.546042E+00 4.8619810E+01 -3.961507E+01
       vertex -5.621801E+00 4.7721200E+01 -3.942849E+01
       vertex -6.635012E+00 4.7666200E+01 -4.000046E+01
    endloop
endfacet
facet normal  0.47548370374 0.31880304211 -0.8199267454
    outer loop
       vertex -6.546042E+00 4.8619810E+01 -3.961507E+01
       vertex -5.501137E+00 4.8758870E+01 -3.895505E+01
       vertex -5.621801E+00 4.7721200E+01 -3.942849E+01
    endloop
endfacet
facet normal  0.4588685808  0.37504062737 -0.8054713858
    outer loop
       vertex -6.452975E+00 4.9409990E+01 -3.919413E+01
       vertex -5.501137E+00 4.8758870E+01 -3.895505E+01
       vertex -6.546042E+00 4.8619810E+01 -3.961507E+01
    endloop
endfacet
facet normal  0.47123356623 0.40028597744 -0.7859453304
    outer loop
       vertex -6.452975E+00 4.9409990E+01 -3.919413E+01
       vertex -5.943841E+00 4.9861970E+01 -3.865867E+01
       vertex -5.501137E+00 4.8758870E+01 -3.895505E+01
    endloop
endfacet
facet normal  0.46181589592 0.44540363518 -0.7670343408
    outer loop
       vertex -5.534318E+00 5.0546620E+01 -3.801454E+01
       vertex -5.943841E+00 4.9861970E+01 -3.865867E+01
       vertex -6.493358E+00 5.0750240E+01 -3.847372E+01
    endloop
endfacet
facet normal  0.45858249206 0.49382578471 -0.7388086304
    outer loop
       vertex -6.150061E+00 5.1274880E+01 -3.790996E+01
       vertex -5.534318E+00 5.0546620E+01 -3.801454E+01
       vertex -6.493358E+00 5.0750240E+01 -3.847372E+01
    endloop
endfacet
facet normal  0.48558707761 0.5122851462  -0.7083566327
    outer loop
       vertex -6.150061E+00 5.1274880E+01 -3.790996E+01
       vertex -5.484322E+00 5.1366760E+01 -3.738714E+01
       vertex -5.534318E+00 5.0546620E+01 -3.801454E+01
    endloop
endfacet
facet normal  0.4741824006  0.53649192739 -0.6980884348
    outer loop
       vertex -6.150061E+00 5.1274880E+01 -3.790996E+01
       vertex -6.205637E+00 5.1868050E+01 -3.749185E+01
       vertex -5.484322E+00 5.1366760E+01 -3.738714E+01
    endloop
endfacet
facet normal  0.51959792274 0.62249673186 -0.5852485092
    outer loop
       vertex -6.607603E+00 5.3097670E+01 -3.664256E+01
       vertex -5.728838E+00 5.2275470E+01 -3.673690E+01
       vertex -6.766884E+00 5.2488410E+01 -3.743201E+01
    endloop
endfacet
facet normal  0.56368179286 0.65952075724 -0.4972878514
    outer loop
       vertex -6.607603E+00 5.3097670E+01 -3.664256E+01
       vertex -5.787877E+00 5.3105090E+01 -3.570355E+01
       vertex -5.728838E+00 5.2275470E+01 -3.673690E+01
    endloop
endfacet
facet normal  0.53475134754 0.70065637152 -0.4723575397
    outer loop
       vertex -5.787877E+00 5.3105090E+01 -3.570355E+01
       vertex -6.607603E+00 5.3097670E+01 -3.664256E+01
       vertex -6.645219E+00 5.3579640E+01 -3.597023E+01
    endloop
endfacet
facet normal  0.62258586253 0.65208931915 -0.4326272803
    outer loop
       vertex -7.124016E+00 5.3659730E+01 -3.653854E+01
       vertex -6.645219E+00 5.3579640E+01 -3.597023E+01
       vertex -6.607603E+00 5.3097670E+01 -3.664256E+01
    endloop
endfacet
facet normal  0.5368239362  0.76217443552 -0.3618151342
    outer loop
       vertex -5.633289E+00 5.3502990E+01 -3.463600E+01
       vertex -5.787877E+00 5.3105090E+01 -3.570355E+01
       vertex -6.482781E+00 5.3838750E+01 -3.518910E+01
    endloop
endfacet
facet normal  0.5351710394  0.76223346078 -0.3641319951
    outer loop
       vertex -6.645219E+00 5.3579640E+01 -3.597023E+01
       vertex -6.482781E+00 5.3838750E+01 -3.518910E+01
       vertex -5.787877E+00 5.3105090E+01 -3.570355E+01
    endloop
endfacet
facet normal  0.50729769787 0.8342757927  -0.215946631 
    outer loop
       vertex -5.591926E+00 5.3710510E+01 -3.373711E+01
       vertex -5.633289E+00 5.3502990E+01 -3.463600E+01
       vertex -6.391709E+00 5.4068010E+01 -3.423480E+01
    endloop
endfacet
facet normal  0.4912324163  0.83512277303 -0.2475089234
    outer loop
       vertex -6.482781E+00 5.3838750E+01 -3.518910E+01
       vertex -6.391709E+00 5.4068010E+01 -3.423480E+01
       vertex -5.633289E+00 5.3502990E+01 -3.463600E+01
    endloop
endfacet
facet normal  0.4696492819  0.87364671524 -0.1271651247
    outer loop
       vertex -6.391709E+00 5.4068010E+01 -3.423480E+01
       vertex -6.345170E+00 5.4179460E+01 -3.329724E+01
       vertex -5.591926E+00 5.3710510E+01 -3.373711E+01
    endloop
endfacet
facet normal  0.48863249916 0.86797798596 -0.088614314 
    outer loop
       vertex -5.591926E+00 5.3710510E+01 -3.373711E+01
       vertex -6.345170E+00 5.4179460E+01 -3.329724E+01
       vertex -5.568977E+00 5.3784680E+01 -3.288407E+01
    endloop
endfacet
facet normal  0.46266518297 0.88625076959 -0.0223718991
    outer loop
       vertex -6.312582E+00 5.4186880E+01 -3.232936E+01
       vertex -5.568977E+00 5.3784680E+01 -3.288407E+01
       vertex -6.345170E+00 5.4179460E+01 -3.329724E+01
    endloop
endfacet
facet normal  0.47689301908 0.87895909847 0.0019878568 
    outer loop
       vertex -5.568977E+00 5.3784680E+01 -3.288407E+01
       vertex -6.312582E+00 5.4186880E+01 -3.232936E+01
       vertex -5.532227E+00 5.3762760E+01 -3.200827E+01
    endloop
endfacet
facet normal  0.50525842602 0.81142288907 -0.2937802206
    outer loop
       vertex -5.633289E+00 5.3502990E+01 -3.463600E+01
       vertex -4.823596E+00 5.3254840E+01 -3.392884E+01
       vertex -4.757088E+00 5.2893670E+01 -3.481201E+01
    endloop
endfacet
facet normal  0.4563971013  0.86213996348 -0.2200371998
    outer loop
       vertex -5.633289E+00 5.3502990E+01 -3.463600E+01
       vertex -5.591926E+00 5.3710510E+01 -3.373711E+01
       vertex -4.823596E+00 5.3254840E+01 -3.392884E+01
    endloop
endfacet
facet normal  0.48044365134 0.79675708487 -0.3665406466
    outer loop
       vertex -5.633289E+00 5.3502990E+01 -3.463600E+01
       vertex -4.757088E+00 5.2893670E+01 -3.481201E+01
       vertex -5.787877E+00 5.3105090E+01 -3.570355E+01
    endloop
endfacet
facet normal  0.52242055846 0.73672974672 -0.4293087938
    outer loop
       vertex -5.787877E+00 5.3105090E+01 -3.570355E+01
       vertex -4.757088E+00 5.2893670E+01 -3.481201E+01
       vertex -4.695675E+00 5.2271560E+01 -3.580487E+01
    endloop
endfacet
facet normal  0.59641278975 0.69313414034 -0.4047923513
    outer loop
       vertex -6.645219E+00 5.3579640E+01 -3.597023E+01
       vertex -7.124016E+00 5.3659730E+01 -3.653854E+01
       vertex -7.267551E+00 5.4186630E+01 -3.584780E+01
    endloop
endfacet
facet normal  0.65760603679 0.6586209267  -0.3657496074
    outer loop
       vertex -7.654227E+00 5.4096440E+01 -3.670544E+01
       vertex -7.267551E+00 5.4186630E+01 -3.584780E+01
       vertex -7.124016E+00 5.3659730E+01 -3.653854E+01
    endloop
endfacet
facet normal  0.48215778183 0.69640059285 -0.5315544071
    outer loop
       vertex -5.787877E+00 5.3105090E+01 -3.570355E+01
       vertex -4.695675E+00 5.2271560E+01 -3.580487E+01
       vertex -5.728838E+00 5.2275470E+01 -3.673690E+01
    endloop
endfacet
facet normal  0.46542354481 0.59446117681 -0.6557414378
    outer loop
       vertex -5.728838E+00 5.2275470E+01 -3.673690E+01
       vertex -4.605988E+00 5.1422750E+01 -3.671297E+01
       vertex -5.484322E+00 5.1366760E+01 -3.738714E+01
    endloop
endfacet
facet normal  0.50831425102 0.65360542887 -0.5607286024
    outer loop
       vertex -5.728838E+00 5.2275470E+01 -3.673690E+01
       vertex -4.695675E+00 5.2271560E+01 -3.580487E+01
       vertex -4.605988E+00 5.1422750E+01 -3.671297E+01
    endloop
endfacet
facet normal  0.59231720962 0.49727636272 -0.6339373331
    outer loop
       vertex -7.662214E+00 5.3491270E+01 -3.748189E+01
       vertex -6.766884E+00 5.2488410E+01 -3.743201E+01
       vertex -7.598161E+00 5.2355320E+01 -3.831311E+01
    endloop
endfacet
facet normal  0.63776212117 0.54216783506 -0.5470955268
    outer loop
       vertex -7.662214E+00 5.3491270E+01 -3.748189E+01
       vertex -6.607603E+00 5.3097670E+01 -3.664256E+01
       vertex -6.766884E+00 5.2488410E+01 -3.743201E+01
    endloop
endfacet
facet normal  0.60864436734 0.64478753817 -0.4623862722
    outer loop
       vertex -7.662214E+00 5.3491270E+01 -3.748189E+01
       vertex -7.124016E+00 5.3659730E+01 -3.653854E+01
       vertex -6.607603E+00 5.3097670E+01 -3.664256E+01
    endloop
endfacet
facet normal  0.53970267603 0.54977352511 -0.6375500706
    outer loop
       vertex -5.728838E+00 5.2275470E+01 -3.673690E+01
       vertex -6.205637E+00 5.1868050E+01 -3.749185E+01
       vertex -6.766884E+00 5.2488410E+01 -3.743201E+01
    endloop
endfacet
facet normal  0.50119051183 0.58869304956 -0.6342306869
    outer loop
       vertex -5.728838E+00 5.2275470E+01 -3.673690E+01
       vertex -5.484322E+00 5.1366760E+01 -3.738714E+01
       vertex -6.205637E+00 5.1868050E+01 -3.749185E+01
    endloop
endfacet
facet normal  0.59456640432 0.49273813298 -0.6353738452
    outer loop
       vertex -6.766884E+00 5.2488410E+01 -3.743201E+01
       vertex -6.816440E+00 5.1678920E+01 -3.810615E+01
       vertex -7.598161E+00 5.2355320E+01 -3.831311E+01
    endloop
endfacet
facet normal  0.51405138182 0.53011489604 -0.6743362469
    outer loop
       vertex -6.766884E+00 5.2488410E+01 -3.743201E+01
       vertex -6.205637E+00 5.1868050E+01 -3.749185E+01
       vertex -6.816440E+00 5.1678920E+01 -3.810615E+01
    endloop
endfacet
facet normal  0.48033910512 0.56297323182 -0.6725589077
    outer loop
       vertex -4.540691E+00 5.0467020E+01 -3.746634E+01
       vertex -5.484322E+00 5.1366760E+01 -3.738714E+01
       vertex -4.605988E+00 5.1422750E+01 -3.671297E+01
    endloop
endfacet
facet normal  0.44234332649 0.52775137991 -0.7251281697
    outer loop
       vertex -4.540691E+00 5.0467020E+01 -3.746634E+01
       vertex -5.534318E+00 5.0546620E+01 -3.801454E+01
       vertex -5.484322E+00 5.1366760E+01 -3.738714E+01
    endloop
endfacet
facet normal  0.51727231083 0.52491605851 -0.6759382279
    outer loop
       vertex -6.150061E+00 5.1274880E+01 -3.790996E+01
       vertex -6.816440E+00 5.1678920E+01 -3.810615E+01
       vertex -6.205637E+00 5.1868050E+01 -3.749185E+01
    endloop
endfacet
facet normal  0.54394277973 0.39305930277 -0.7413707823
    outer loop
       vertex -7.530794E+00 5.1151360E+01 -3.902222E+01
       vertex -6.493358E+00 5.0750240E+01 -3.847372E+01
       vertex -6.919306E+00 5.0144440E+01 -3.910742E+01
    endloop
endfacet
facet normal  0.54759979911 0.46566264479 -0.6951926073
    outer loop
       vertex -7.530794E+00 5.1151360E+01 -3.902222E+01
       vertex -6.816440E+00 5.1678920E+01 -3.810615E+01
       vertex -6.493358E+00 5.0750240E+01 -3.847372E+01
    endloop
endfacet
facet normal  0.496938046   0.46330253764 -0.733759727 
    outer loop
       vertex -6.493358E+00 5.0750240E+01 -3.847372E+01
       vertex -6.816440E+00 5.1678920E+01 -3.810615E+01
       vertex -6.150061E+00 5.1274880E+01 -3.790996E+01
    endloop
endfacet
facet normal  0.56631991325 0.44156936148 -0.6959154078
    outer loop
       vertex -7.530794E+00 5.1151360E+01 -3.902222E+01
       vertex -7.598161E+00 5.2355320E+01 -3.831311E+01
       vertex -6.816440E+00 5.1678920E+01 -3.810615E+01
    endloop
endfacet
facet normal  0.65651139702 0.40975005911 -0.6333227255
    outer loop
       vertex -7.530794E+00 5.1151360E+01 -3.902222E+01
       vertex -8.193318E+00 5.2133040E+01 -3.907387E+01
       vertex -7.598161E+00 5.2355320E+01 -3.831311E+01
    endloop
endfacet
facet normal  0.46223973746 0.43033537231 -0.7753359868
    outer loop
       vertex -5.534318E+00 5.0546620E+01 -3.801454E+01
       vertex -4.540691E+00 5.0467020E+01 -3.746634E+01
       vertex -4.724421E+00 4.9400820E+01 -3.816765E+01
    endloop
endfacet
facet normal  0.47322501889 0.43672792795 -0.765066532 
    outer loop
       vertex -5.943841E+00 4.9861970E+01 -3.865867E+01
       vertex -5.534318E+00 5.0546620E+01 -3.801454E+01
       vertex -4.724421E+00 4.9400820E+01 -3.816765E+01
    endloop
endfacet
facet normal  0.47750533759 0.45224974558 -0.7532986262
    outer loop
       vertex -5.943841E+00 4.9861970E+01 -3.865867E+01
       vertex -6.919306E+00 5.0144440E+01 -3.910742E+01
       vertex -6.493358E+00 5.0750240E+01 -3.847372E+01
    endloop
endfacet
facet normal  0.50127263305 0.40834369243 -0.7628769076
    outer loop
       vertex -6.452975E+00 4.9409990E+01 -3.919413E+01
       vertex -7.254253E+00 4.9418930E+01 -3.971585E+01
       vertex -6.919306E+00 5.0144440E+01 -3.910742E+01
    endloop
endfacet
facet normal  0.47588357655 0.39493546144 -0.7858503693
    outer loop
       vertex -5.943841E+00 4.9861970E+01 -3.865867E+01
       vertex -6.452975E+00 4.9409990E+01 -3.919413E+01
       vertex -6.919306E+00 5.0144440E+01 -3.910742E+01
    endloop
endfacet
facet normal  0.58133324898 0.34829771572 -0.735350498 
    outer loop
       vertex -7.726146E+00 5.0218650E+01 -3.971012E+01
       vertex -6.919306E+00 5.0144440E+01 -3.910742E+01
       vertex -7.254253E+00 4.9418930E+01 -3.971585E+01
    endloop
endfacet
facet normal  0.57042270684 0.40678553876 -0.7135428936
    outer loop
       vertex -7.726146E+00 5.0218650E+01 -3.971012E+01
       vertex -7.530794E+00 5.1151360E+01 -3.902222E+01
       vertex -6.919306E+00 5.0144440E+01 -3.910742E+01
    endloop
endfacet
facet normal  0.51271166156 0.35584654463 -0.781344987 
    outer loop
       vertex -6.452975E+00 4.9409990E+01 -3.919413E+01
       vertex -6.546042E+00 4.8619810E+01 -3.961507E+01
       vertex -7.254253E+00 4.9418930E+01 -3.971585E+01
    endloop
endfacet
facet normal  0.47849422526 0.31782637569 -0.8185534016
    outer loop
       vertex -5.501137E+00 4.8758870E+01 -3.895505E+01
       vertex -4.816042E+00 4.7689560E+01 -3.896976E+01
       vertex -5.621801E+00 4.7721200E+01 -3.942849E+01
    endloop
endfacet
facet normal  0.50365144826 0.33364615757 -0.7968785731
    outer loop
       vertex -5.501137E+00 4.8758870E+01 -3.895505E+01
       vertex -4.359403E+00 4.8175790E+01 -3.847757E+01
       vertex -4.816042E+00 4.7689560E+01 -3.896976E+01
    endloop
endfacet
facet normal  0.50447262092 0.24707476699 -0.8273218444
    outer loop
       vertex -7.676136E+00 4.8532120E+01 -4.037670E+01
       vertex -6.635012E+00 4.7666200E+01 -4.000046E+01
       vertex -7.611832E+00 4.7431310E+01 -4.066624E+01
    endloop
endfacet
facet normal  0.52207884029 0.27725819742 -0.8065739746
    outer loop
       vertex -7.676136E+00 4.8532120E+01 -4.037670E+01
       vertex -6.546042E+00 4.8619810E+01 -3.961507E+01
       vertex -6.635012E+00 4.7666200E+01 -4.000046E+01
    endloop
endfacet
facet normal  0.50286369312 0.18503605346 -0.8443279961
    outer loop
       vertex -7.611832E+00 4.7431310E+01 -4.066624E+01
       vertex -6.701781E+00 4.6931990E+01 -4.023366E+01
       vertex -7.263484E+00 4.6500820E+01 -4.066269E+01
    endloop
endfacet
facet normal  0.51362871509 0.21695669207 -0.8301297108
    outer loop
       vertex -7.611832E+00 4.7431310E+01 -4.066624E+01
       vertex -6.635012E+00 4.7666200E+01 -4.000046E+01
       vertex -6.701781E+00 4.6931990E+01 -4.023366E+01
    endloop
endfacet
facet normal  0.46176034421 0.2457175872  -0.8522911778
    outer loop
       vertex -5.621801E+00 4.7721200E+01 -3.942849E+01
       vertex -4.706396E+00 4.6782170E+01 -3.920326E+01
       vertex -5.698365E+00 4.6688990E+01 -3.976756E+01
    endloop
endfacet
facet normal  0.48409168856 0.27247066618 -0.8315136638
    outer loop
       vertex -5.621801E+00 4.7721200E+01 -3.942849E+01
       vertex -4.816042E+00 4.7689560E+01 -3.896976E+01
       vertex -4.706396E+00 4.6782170E+01 -3.920326E+01
    endloop
endfacet
facet normal  0.45536399124 0.20189998452 -0.8671101612
    outer loop
       vertex -5.698365E+00 4.6688990E+01 -3.976756E+01
       vertex -4.645420E+00 4.5729090E+01 -3.943811E+01
       vertex -5.584619E+00 4.5644490E+01 -3.995103E+01
    endloop
endfacet
facet normal  0.46699018861 0.21814643931 -0.8569319079
    outer loop
       vertex -5.698365E+00 4.6688990E+01 -3.976756E+01
       vertex -4.706396E+00 4.6782170E+01 -3.920326E+01
       vertex -4.645420E+00 4.5729090E+01 -3.943811E+01
    endloop
endfacet
facet normal  0.50087701872 0.18490523839 -0.8455366727
    outer loop
       vertex -7.263484E+00 4.6500820E+01 -4.066269E+01
       vertex -6.555668E+00 4.5664250E+01 -4.042634E+01
       vertex -7.586998E+00 4.5735800E+01 -4.102163E+01
    endloop
endfacet
facet normal  0.48286616206 0.16561082595 -0.8598914605
    outer loop
       vertex -7.263484E+00 4.6500820E+01 -4.066269E+01
       vertex -6.347057E+00 4.6299240E+01 -4.018690E+01
       vertex -6.555668E+00 4.5664250E+01 -4.042634E+01
    endloop
endfacet
facet normal  0.48649762889 0.21006311525 -0.8480527959
    outer loop
       vertex -7.263484E+00 4.6500820E+01 -4.066269E+01
       vertex -6.701781E+00 4.6931990E+01 -4.023366E+01
       vertex -6.347057E+00 4.6299240E+01 -4.018690E+01
    endloop
endfacet
facet normal  0.50287150475 0.15735619232 -0.8499172186
    outer loop
       vertex -7.586998E+00 4.5735800E+01 -4.102163E+01
       vertex -6.793554E+00 4.4993790E+01 -4.068955E+01
       vertex -7.626069E+00 4.4828810E+01 -4.121267E+01
    endloop
endfacet
facet normal  0.50188401991 0.15592083029 -0.8507650235
    outer loop
       vertex -7.586998E+00 4.5735800E+01 -4.102163E+01
       vertex -6.555668E+00 4.5664250E+01 -4.042634E+01
       vertex -6.793554E+00 4.4993790E+01 -4.068955E+01
    endloop
endfacet
facet normal  0.50730351639 0.10175722272 -0.8557386341
    outer loop
       vertex -7.626069E+00 4.4828810E+01 -4.121267E+01
       vertex -6.644623E+00 4.4192320E+01 -4.070653E+01
       vertex -7.602654E+00 4.3877170E+01 -4.131195E+01
    endloop
endfacet
facet normal  0.51243320163 0.11325564692 -0.8512258057
    outer loop
       vertex -7.626069E+00 4.4828810E+01 -4.121267E+01
       vertex -6.793554E+00 4.4993790E+01 -4.068955E+01
       vertex -6.644623E+00 4.4192320E+01 -4.070653E+01
    endloop
endfacet
facet normal  0.5022867091  0.07955517659 -0.8610337018
    outer loop
       vertex -7.602654E+00 4.3877170E+01 -4.131195E+01
       vertex -6.588039E+00 4.3213510E+01 -4.078139E+01
       vertex -7.655210E+00 4.2899830E+01 -4.143291E+01
    endloop
endfacet
facet normal  0.51110631526 0.0711589403  -0.8565668332
    outer loop
       vertex -7.655210E+00 4.2899830E+01 -4.143291E+01
       vertex -6.724206E+00 4.2061880E+01 -4.094700E+01
       vertex -7.848414E+00 4.2098300E+01 -4.161478E+01
    endloop
endfacet
facet normal  0.50628499812 0.06381012437 -0.8600021911
    outer loop
       vertex -7.655210E+00 4.2899830E+01 -4.143291E+01
       vertex -6.588039E+00 4.3213510E+01 -4.078139E+01
       vertex -6.724206E+00 4.2061880E+01 -4.094700E+01
    endloop
endfacet
facet normal  0.51119295632 0.03079501146 -0.8589140985
    outer loop
       vertex -6.724206E+00 4.2061880E+01 -4.094700E+01
       vertex -7.652398E+00 4.1270450E+01 -4.152780E+01
       vertex -7.848414E+00 4.2098300E+01 -4.161478E+01
    endloop
endfacet
facet normal  0.50409080693 0.0418556678  -0.862635822 
    outer loop
       vertex -6.724206E+00 4.2061880E+01 -4.094700E+01
       vertex -6.550832E+00 4.0923540E+01 -4.090092E+01
       vertex -7.652398E+00 4.1270450E+01 -4.152780E+01
    endloop
endfacet
facet normal  0.50931728883 0.09485964528 -0.8553347573
    outer loop
       vertex -7.602654E+00 4.3877170E+01 -4.131195E+01
       vertex -6.644623E+00 4.4192320E+01 -4.070653E+01
       vertex -6.588039E+00 4.3213510E+01 -4.078139E+01
    endloop
endfacet
facet normal  0.46597512309 0.17975474672 -0.8663460138
    outer loop
       vertex -2.346164E+00 4.4415560E+01 -3.832708E+01
       vertex -3.039590E+00 4.4060490E+01 -3.877372E+01
       vertex -3.078189E+00 4.5095070E+01 -3.857982E+01
    endloop
endfacet
facet normal  0.44119562138 0.02442429504 -0.8970785236
    outer loop
       vertex -4.473852E+00 4.1251630E+01 -3.984085E+01
       vertex -5.460158E+00 4.0637850E+01 -4.034264E+01
       vertex -5.504339E+00 4.1665850E+01 -4.033638E+01
    endloop
endfacet
facet normal  0.44306385849 0.04342471702 -0.8954377205
    outer loop
       vertex -4.504605E+00 4.2308800E+01 -3.981053E+01
       vertex -5.504339E+00 4.1665850E+01 -4.033638E+01
       vertex -5.521948E+00 4.2755290E+01 -4.029226E+01
    endloop
endfacet
facet normal  0.44560887466 0.03861427533 -0.8943945821
    outer loop
       vertex -4.504605E+00 4.2308800E+01 -3.981053E+01
       vertex -4.473852E+00 4.1251630E+01 -3.984085E+01
       vertex -5.504339E+00 4.1665850E+01 -4.033638E+01
    endloop
endfacet
facet normal  0.49071402119 0.11272343939 -0.8639983655
    outer loop
       vertex -3.757030E+00 4.3773700E+01 -3.924952E+01
       vertex -2.972755E+00 4.3096100E+01 -3.889249E+01
       vertex -3.665954E+00 4.2744650E+01 -3.933205E+01
    endloop
endfacet
facet normal  0.50781831704 0.13987943756 -0.8500319405
    outer loop
       vertex -3.757030E+00 4.3773700E+01 -3.924952E+01
       vertex -3.039590E+00 4.4060490E+01 -3.877372E+01
       vertex -2.972755E+00 4.3096100E+01 -3.889249E+01
    endloop
endfacet
facet normal  0.4533944896  0.08643939456 -0.8871085998
    outer loop
       vertex -4.577001E+00 4.3378700E+01 -3.974856E+01
       vertex -5.521948E+00 4.2755290E+01 -4.029226E+01
       vertex -5.600655E+00 4.3827510E+01 -4.022801E+01
    endloop
endfacet
facet normal  0.45574729531 0.08217476619 -0.8863079096
    outer loop
       vertex -4.577001E+00 4.3378700E+01 -3.974856E+01
       vertex -4.504605E+00 4.2308800E+01 -3.981053E+01
       vertex -5.521948E+00 4.2755290E+01 -4.029226E+01
    endloop
endfacet
facet normal  0.50720643717 0.141555805   -0.850119747 
    outer loop
       vertex -3.796117E+00 4.4810500E+01 -3.910020E+01
       vertex -3.039590E+00 4.4060490E+01 -3.877372E+01
       vertex -3.757030E+00 4.3773700E+01 -3.924952E+01
    endloop
endfacet
facet normal  0.53134662775 0.1751656976  -0.8288472354
    outer loop
       vertex -3.796117E+00 4.4810500E+01 -3.910020E+01
       vertex -3.078189E+00 4.5095070E+01 -3.857982E+01
       vertex -3.039590E+00 4.4060490E+01 -3.877372E+01
    endloop
endfacet
facet normal  0.45406559914 0.11057640522 -0.8840799117
    outer loop
       vertex -4.759366E+00 4.4585150E+01 -3.970116E+01
       vertex -5.600655E+00 4.3827510E+01 -4.022801E+01
       vertex -5.896388E+00 4.4815070E+01 -4.025638E+01
    endloop
endfacet
facet normal  0.45889343049 0.10403323588 -0.8823796832
    outer loop
       vertex -4.759366E+00 4.4585150E+01 -3.970116E+01
       vertex -4.577001E+00 4.3378700E+01 -3.974856E+01
       vertex -5.600655E+00 4.3827510E+01 -4.022801E+01
    endloop
endfacet
facet normal  0.52733772662 0.18574811986 -0.8291034664
    outer loop
       vertex -3.796649E+00 4.5932550E+01 -3.884916E+01
       vertex -3.078189E+00 4.5095070E+01 -3.857982E+01
       vertex -3.796117E+00 4.4810500E+01 -3.910020E+01
    endloop
endfacet
facet normal  0.45818115605 0.15029569926 -0.8760600613
    outer loop
       vertex -5.584619E+00 4.5644490E+01 -3.995103E+01
       vertex -4.759366E+00 4.4585150E+01 -3.970116E+01
       vertex -5.896388E+00 4.4815070E+01 -4.025638E+01
    endloop
endfacet
facet normal  0.46277651329 0.15462438048 -0.8728855593
    outer loop
       vertex -5.584619E+00 4.5644490E+01 -3.995103E+01
       vertex -4.645420E+00 4.5729090E+01 -3.943811E+01
       vertex -4.759366E+00 4.4585150E+01 -3.970116E+01
    endloop
endfacet
facet normal  0.49429827536 0.21966407252 -0.8410807989
    outer loop
       vertex -2.346164E+00 4.4415560E+01 -3.832708E+01
       vertex -3.078189E+00 4.5095070E+01 -3.857982E+01
       vertex -2.336991E+00 4.5484750E+01 -3.804245E+01
    endloop
endfacet
facet normal  0.55668105783 0.21993247946 -0.8010842055
    outer loop
       vertex -3.796649E+00 4.5932550E+01 -3.884916E+01
       vertex -3.008847E+00 4.6515550E+01 -3.814165E+01
       vertex -3.078189E+00 4.5095070E+01 -3.857982E+01
    endloop
endfacet
facet normal  0.51090046106 0.35487644107 -0.7829709001
    outer loop
       vertex -1.925679E+00 4.6381520E+01 -3.747884E+01
       vertex -2.238787E+00 4.7531140E+01 -3.716209E+01
       vertex -1.236382E+00 4.6872720E+01 -3.680643E+01
    endloop
endfacet
facet normal  0.57271089245 0.41452938239 -0.7072252999
    outer loop
       vertex -2.743150E+00 4.9513220E+01 -3.647185E+01
       vertex -1.925220E+00 4.8578470E+01 -3.635738E+01
       vertex -2.933712E+00 4.8587370E+01 -3.716884E+01
    endloop
endfacet
facet normal  0.61280476052 0.4572967868  -0.6444765118
    outer loop
       vertex -2.743150E+00 4.9513220E+01 -3.647185E+01
       vertex -1.803769E+00 4.9481050E+01 -3.560146E+01
       vertex -1.925220E+00 4.8578470E+01 -3.635738E+01
    endloop
endfacet
facet normal  0.59629507472 0.50387121473 -0.6249367831
    outer loop
       vertex -2.725429E+00 5.0437000E+01 -3.571012E+01
       vertex -1.803769E+00 4.9481050E+01 -3.560146E+01
       vertex -2.743150E+00 4.9513220E+01 -3.647185E+01
    endloop
endfacet
facet normal  0.64270311483 0.56025368273 -0.5225404455
    outer loop
       vertex -2.725429E+00 5.0437000E+01 -3.571012E+01
       vertex -1.849943E+00 5.0334170E+01 -3.474356E+01
       vertex -1.803769E+00 4.9481050E+01 -3.560146E+01
    endloop
endfacet
facet normal  0.61992105354 0.60727755354 -0.4969022644
    outer loop
       vertex -2.799535E+00 5.1260190E+01 -3.479653E+01
       vertex -1.849943E+00 5.0334170E+01 -3.474356E+01
       vertex -2.725429E+00 5.0437000E+01 -3.571012E+01
    endloop
endfacet
facet normal  0.6523747031  0.64634106445 -0.3957909488
    outer loop
       vertex -2.799535E+00 5.1260190E+01 -3.479653E+01
       vertex -1.954502E+00 5.1095710E+01 -3.367228E+01
       vertex -1.849943E+00 5.0334170E+01 -3.474356E+01
    endloop
endfacet
facet normal  0.62144302476 0.69285300591 -0.3657366254
    outer loop
       vertex -2.965953E+00 5.1909270E+01 -3.384968E+01
       vertex -1.954502E+00 5.1095710E+01 -3.367228E+01
       vertex -2.799535E+00 5.1260190E+01 -3.479653E+01
    endloop
endfacet
facet normal  0.58227647321 0.37849880656 -0.719508695 
    outer loop
       vertex -1.925220E+00 4.8578470E+01 -3.635738E+01
       vertex -2.238787E+00 4.7531140E+01 -3.716209E+01
       vertex -2.933712E+00 4.8587370E+01 -3.716884E+01
    endloop
endfacet
facet normal  0.54210226044 0.40388087486 -0.7368889863
    outer loop
       vertex -1.925220E+00 4.8578470E+01 -3.635738E+01
       vertex -1.191433E+00 4.7742310E+01 -3.627585E+01
       vertex -2.238787E+00 4.7531140E+01 -3.716209E+01
    endloop
endfacet
facet normal  0.5892718164  0.34994450441 -0.7282153323
    outer loop
       vertex -2.933712E+00 4.8587370E+01 -3.716884E+01
       vertex -3.393611E+00 4.7746960E+01 -3.794485E+01
       vertex -3.808639E+00 4.8669590E+01 -3.783732E+01
    endloop
endfacet
facet normal  0.5677615729  0.36884404658 -0.7359353678
    outer loop
       vertex -2.933712E+00 4.8587370E+01 -3.716884E+01
       vertex -2.238787E+00 4.7531140E+01 -3.716209E+01
       vertex -3.393611E+00 4.7746960E+01 -3.794485E+01
    endloop
endfacet
facet normal  0.51945999945 0.35556375365 -0.7770043282
    outer loop
       vertex -1.925679E+00 4.6381520E+01 -3.747884E+01
       vertex -3.008847E+00 4.6515550E+01 -3.814165E+01
       vertex -2.238787E+00 4.7531140E+01 -3.716209E+01
    endloop
endfacet
facet normal  0.52162687037 0.21436806111 -0.8258036949
    outer loop
       vertex -4.706396E+00 4.6782170E+01 -3.920326E+01
       vertex -3.796649E+00 4.5932550E+01 -3.884916E+01
       vertex -4.645420E+00 4.5729090E+01 -3.943811E+01
    endloop
endfacet
facet normal  0.53947077957 0.24146187963 -0.8066395965
    outer loop
       vertex -4.706396E+00 4.6782170E+01 -3.920326E+01
       vertex -4.004013E+00 4.7089960E+01 -3.864138E+01
       vertex -3.796649E+00 4.5932550E+01 -3.884916E+01
    endloop
endfacet
facet normal  0.48608695349 0.23584113314 -0.8414858487
    outer loop
       vertex -3.008847E+00 4.6515550E+01 -3.814165E+01
       vertex -2.336991E+00 4.5484750E+01 -3.804245E+01
       vertex -3.078189E+00 4.5095070E+01 -3.857982E+01
    endloop
endfacet
facet normal  0.52689596989 0.26572742492 -0.8073224712
    outer loop
       vertex -3.008847E+00 4.6515550E+01 -3.814165E+01
       vertex -1.925679E+00 4.6381520E+01 -3.747884E+01
       vertex -2.336991E+00 4.5484750E+01 -3.804245E+01
    endloop
endfacet
facet normal  0.5260886362  0.27100415228 -0.8060939748
    outer loop
       vertex -4.816042E+00 4.7689560E+01 -3.896976E+01
       vertex -4.004013E+00 4.7089960E+01 -3.864138E+01
       vertex -4.706396E+00 4.6782170E+01 -3.920326E+01
    endloop
endfacet
facet normal  0.5373666097  0.29506660311 -0.7900460914
    outer loop
       vertex -4.816042E+00 4.7689560E+01 -3.896976E+01
       vertex -4.359403E+00 4.8175790E+01 -3.847757E+01
       vertex -4.004013E+00 4.7089960E+01 -3.864138E+01
    endloop
endfacet
facet normal  0.57296676866 0.3008656269  -0.7623574992
    outer loop
       vertex -3.393611E+00 4.7746960E+01 -3.794485E+01
       vertex -2.238787E+00 4.7531140E+01 -3.716209E+01
       vertex -3.008847E+00 4.6515550E+01 -3.814165E+01
    endloop
endfacet
facet normal  0.5080244288  0.35043501424 -0.7868331974
    outer loop
       vertex -4.359403E+00 4.8175790E+01 -3.847757E+01
       vertex -5.501137E+00 4.8758870E+01 -3.895505E+01
       vertex -4.724421E+00 4.9400820E+01 -3.816765E+01
    endloop
endfacet
facet normal  0.4684231846  0.39969026488 -0.7879260196
    outer loop
       vertex -5.501137E+00 4.8758870E+01 -3.895505E+01
       vertex -5.943841E+00 4.9861970E+01 -3.865867E+01
       vertex -4.724421E+00 4.9400820E+01 -3.816765E+01
    endloop
endfacet
facet normal  0.5807897658  0.39552531964 -0.711507533 
    outer loop
       vertex -3.699802E+00 4.9500010E+01 -3.728685E+01
       vertex -2.933712E+00 4.8587370E+01 -3.716884E+01
       vertex -3.808639E+00 4.8669590E+01 -3.783732E+01
    endloop
endfacet
facet normal  0.58977494504 0.40470551702 -0.6988411541
    outer loop
       vertex -3.699802E+00 4.9500010E+01 -3.728685E+01
       vertex -2.743150E+00 4.9513220E+01 -3.647185E+01
       vertex -2.933712E+00 4.8587370E+01 -3.716884E+01
    endloop
endfacet
facet normal  0.58299836037 0.42695429859 -0.6912473788
    outer loop
       vertex -3.636819E+00 5.0473300E+01 -3.663257E+01
       vertex -2.743150E+00 4.9513220E+01 -3.647185E+01
       vertex -3.699802E+00 4.9500010E+01 -3.728685E+01
    endloop
endfacet
facet normal  0.63108739535 0.48625778344 -0.6043856943
    outer loop
       vertex -3.636819E+00 5.0473300E+01 -3.663257E+01
       vertex -2.725429E+00 5.0437000E+01 -3.571012E+01
       vertex -2.743150E+00 4.9513220E+01 -3.647185E+01
    endloop
endfacet
facet normal  0.57238083792 0.53138481642 -0.624508089 
    outer loop
       vertex -4.605988E+00 5.1422750E+01 -3.671297E+01
       vertex -3.636819E+00 5.0473300E+01 -3.663257E+01
       vertex -4.540691E+00 5.0467020E+01 -3.746634E+01
    endloop
endfacet
facet normal  0.60439613894 0.55094542675 -0.5754688905
    outer loop
       vertex -3.678984E+00 5.1388370E+01 -3.580078E+01
       vertex -2.725429E+00 5.0437000E+01 -3.571012E+01
       vertex -3.636819E+00 5.0473300E+01 -3.663257E+01
    endloop
endfacet
facet normal  0.64041407976 0.59568668412 -0.4847960198
    outer loop
       vertex -3.678984E+00 5.1388370E+01 -3.580078E+01
       vertex -2.799535E+00 5.1260190E+01 -3.479653E+01
       vertex -2.725429E+00 5.0437000E+01 -3.571012E+01
    endloop
endfacet
facet normal  0.55371422811 0.6349173734  -0.5387768393
    outer loop
       vertex -4.695675E+00 5.2271560E+01 -3.580487E+01
       vertex -3.678984E+00 5.1388370E+01 -3.580078E+01
       vertex -4.605988E+00 5.1422750E+01 -3.671297E+01
    endloop
endfacet
facet normal  0.60587141394 0.65842490977 -0.4465383163
    outer loop
       vertex -3.778426E+00 5.2135320E+01 -3.483432E+01
       vertex -2.799535E+00 5.1260190E+01 -3.479653E+01
       vertex -3.678984E+00 5.1388370E+01 -3.580078E+01
    endloop
endfacet
facet normal  0.6292078502  0.68821371892 -0.3611915812
    outer loop
       vertex -3.778426E+00 5.2135320E+01 -3.483432E+01
       vertex -2.965953E+00 5.1909270E+01 -3.384968E+01
       vertex -2.799535E+00 5.1260190E+01 -3.479653E+01
    endloop
endfacet
facet normal  0.55027420449 0.72245311676 -0.4186404113
    outer loop
       vertex -4.757088E+00 5.2893670E+01 -3.481201E+01
       vertex -3.778426E+00 5.2135320E+01 -3.483432E+01
       vertex -4.695675E+00 5.2271560E+01 -3.580487E+01
    endloop
endfacet
facet normal  0.58756774717 0.74594399236 -0.3135788621
    outer loop
       vertex -3.939265E+00 5.2688850E+01 -3.381895E+01
       vertex -2.965953E+00 5.1909270E+01 -3.384968E+01
       vertex -3.778426E+00 5.2135320E+01 -3.483432E+01
    endloop
endfacet
facet normal  0.60601411613 0.76518150579 -0.2173572043
    outer loop
       vertex -3.939265E+00 5.2688850E+01 -3.381895E+01
       vertex -3.239499E+00 5.2363440E+01 -3.301350E+01
       vertex -2.965953E+00 5.1909270E+01 -3.384968E+01
    endloop
endfacet
facet normal  0.57272950633 0.80107851075 -0.1739371501
    outer loop
       vertex -3.939265E+00 5.2688850E+01 -3.381895E+01
       vertex -3.872176E+00 5.2812790E+01 -3.302723E+01
       vertex -3.239499E+00 5.2363440E+01 -3.301350E+01
    endloop
endfacet
facet normal  0.54173764453 0.79151309128 -0.2828910582
    outer loop
       vertex -4.823596E+00 5.3254840E+01 -3.392884E+01
       vertex -3.939265E+00 5.2688850E+01 -3.381895E+01
       vertex -4.757088E+00 5.2893670E+01 -3.481201E+01
    endloop
endfacet
facet normal  0.55408147905 0.81399371138 -0.1743787614
    outer loop
       vertex -4.331880E+00 5.3067940E+01 -3.329689E+01
       vertex -3.872176E+00 5.2812790E+01 -3.302723E+01
       vertex -3.939265E+00 5.2688850E+01 -3.381895E+01
    endloop
endfacet
facet normal  0.478105965   0.86651145239 -0.1434314788
    outer loop
       vertex -5.591926E+00 5.3710510E+01 -3.373711E+01
       vertex -4.871741E+00 5.3406290E+01 -3.317437E+01
       vertex -4.823596E+00 5.3254840E+01 -3.392884E+01
    endloop
endfacet
facet normal  0.44605424444 0.89052680474 -0.0894294194
    outer loop
       vertex -5.591926E+00 5.3710510E+01 -3.373711E+01
       vertex -5.568977E+00 5.3784680E+01 -3.288407E+01
       vertex -4.871741E+00 5.3406290E+01 -3.317437E+01
    endloop
endfacet
facet normal  0.52061776757 0.84969160016 -0.0835543219
    outer loop
       vertex -4.331880E+00 5.3067940E+01 -3.329689E+01
       vertex -4.283956E+00 5.3097650E+01 -3.269615E+01
       vertex -3.872176E+00 5.2812790E+01 -3.302723E+01
    endloop
endfacet
facet normal  0.46537339899 0.88441946913 -0.035068535 
    outer loop
       vertex -5.568977E+00 5.3784680E+01 -3.288407E+01
       vertex -4.853412E+00 5.3425480E+01 -3.244717E+01
       vertex -4.871741E+00 5.3406290E+01 -3.317437E+01
    endloop
endfacet
facet normal  0.44685035788 0.89460131236 0.00363999785
    outer loop
       vertex -5.568977E+00 5.3784680E+01 -3.288407E+01
       vertex -5.532227E+00 5.3762760E+01 -3.200827E+01
       vertex -4.853412E+00 5.3425480E+01 -3.244717E+01
    endloop
endfacet
facet normal  0.46092648877 0.88688474305 0.03134046101
    outer loop
       vertex -5.532227E+00 5.3762760E+01 -3.200827E+01
       vertex -4.866559E+00 5.3409340E+01 -3.179708E+01
       vertex -4.853412E+00 5.3425480E+01 -3.244717E+01
    endloop
endfacet
facet normal  0.52465655017 0.85097027782 -0.0241886464
    outer loop
       vertex -7.050738E+00 5.4627330E+01 -3.284483E+01
       vertex -6.312582E+00 5.4186880E+01 -3.232936E+01
       vertex -6.345170E+00 5.4179460E+01 -3.329724E+01
    endloop
endfacet
facet normal  0.50530518704 0.86283260964 0.01365853933
    outer loop
       vertex -7.050738E+00 5.4627330E+01 -3.284483E+01
       vertex -7.093082E+00 5.4634260E+01 -3.171607E+01
       vertex -6.312582E+00 5.4186880E+01 -3.232936E+01
    endloop
endfacet
facet normal  0.46288752456 0.88530400778 0.0444066821 
    outer loop
       vertex -6.312582E+00 5.4186880E+01 -3.232936E+01
       vertex -6.347832E+00 5.4146550E+01 -3.115789E+01
       vertex -5.532227E+00 5.3762760E+01 -3.200827E+01
    endloop
endfacet
facet normal  0.72552320132 0.68758395278 0.02905842799
    outer loop
       vertex -7.922297E+00 5.5238180E+01 -3.112430E+01
       vertex -8.547978E+00 5.5911140E+01 -3.142612E+01
       vertex -8.592000E+00 5.5917060E+01 -3.046707E+01
    endloop
endfacet
facet normal  0.84618304955 0.5317046128  0.03555912507
    outer loop
       vertex -9.003872E+00 5.6622300E+01 -3.121119E+01
       vertex -8.592000E+00 5.5917060E+01 -3.046707E+01
       vertex -8.547978E+00 5.5911140E+01 -3.142612E+01
    endloop
endfacet
facet normal  0.70361388018 0.71053689147 0.00805192428
    outer loop
       vertex -8.201238E+00 5.5586130E+01 -3.303740E+01
       vertex -7.728898E+00 5.5111400E+01 -3.242038E+01
       vertex -7.711834E+00 5.5105670E+01 -3.340587E+01
    endloop
endfacet
facet normal  0.69320202423 0.7203575612  0.02357832955
    outer loop
       vertex -8.201238E+00 5.5586130E+01 -3.303740E+01
       vertex -8.369143E+00 5.5720920E+01 -3.221906E+01
       vertex -7.728898E+00 5.5111400E+01 -3.242038E+01
    endloop
endfacet
facet normal  0.58795556428 0.80871264415 0.0170913319 
    outer loop
       vertex -7.050738E+00 5.4627330E+01 -3.284483E+01
       vertex -7.728898E+00 5.5111400E+01 -3.242038E+01
       vertex -7.093082E+00 5.4634260E+01 -3.171607E+01
    endloop
endfacet
facet normal  0.58319398072 0.81231514187 0.00537504827
    outer loop
       vertex -7.050738E+00 5.4627330E+01 -3.284483E+01
       vertex -7.711834E+00 5.5105670E+01 -3.340587E+01
       vertex -7.728898E+00 5.5111400E+01 -3.242038E+01
    endloop
endfacet
facet normal  0.55413060117 0.82294069808 -0.1253310986
    outer loop
       vertex -7.084742E+00 5.4598380E+01 -3.381645E+01
       vertex -6.345170E+00 5.4179460E+01 -3.329724E+01
       vertex -6.391709E+00 5.4068010E+01 -3.423480E+01
    endloop
endfacet
facet normal  0.51535899556 0.85586775597 -0.0435372253
    outer loop
       vertex -7.084742E+00 5.4598380E+01 -3.381645E+01
       vertex -7.050738E+00 5.4627330E+01 -3.284483E+01
       vertex -6.345170E+00 5.4179460E+01 -3.329724E+01
    endloop
endfacet
facet normal  0.58819390654 0.77180387938 -0.241550616 
    outer loop
       vertex -7.151932E+00 5.4469280E+01 -3.480386E+01
       vertex -6.391709E+00 5.4068010E+01 -3.423480E+01
       vertex -6.482781E+00 5.3838750E+01 -3.518910E+01
    endloop
endfacet
facet normal  0.54460266995 0.82605388698 -0.1450617375
    outer loop
       vertex -7.151932E+00 5.4469280E+01 -3.480386E+01
       vertex -7.084742E+00 5.4598380E+01 -3.381645E+01
       vertex -6.391709E+00 5.4068010E+01 -3.423480E+01
    endloop
endfacet
facet normal  0.61393339568 0.70218219193 -0.3605911189
    outer loop
       vertex -7.267551E+00 5.4186630E+01 -3.584780E+01
       vertex -6.482781E+00 5.3838750E+01 -3.518910E+01
       vertex -6.645219E+00 5.3579640E+01 -3.597023E+01
    endloop
endfacet
facet normal  0.57191571035 0.77362239374 -0.2728017818
    outer loop
       vertex -7.267551E+00 5.4186630E+01 -3.584780E+01
       vertex -7.151932E+00 5.4469280E+01 -3.480386E+01
       vertex -6.482781E+00 5.3838750E+01 -3.518910E+01
    endloop
endfacet
facet normal  0.73846362774 0.6564356698  -0.1541547337
    outer loop
       vertex -8.417164E+00 5.5701210E+01 -3.481327E+01
       vertex -7.770182E+00 5.5079020E+01 -3.436343E+01
       vertex -7.867058E+00 5.4956930E+01 -3.534740E+01
    endloop
endfacet
facet normal  0.71479788459 0.69630654058 -0.0649706529
    outer loop
       vertex -8.417164E+00 5.5701210E+01 -3.481327E+01
       vertex -8.318885E+00 5.5689580E+01 -3.385666E+01
       vertex -7.770182E+00 5.5079020E+01 -3.436343E+01
    endloop
endfacet
facet normal  0.81805282491 0.56994988018 -0.0771149125
    outer loop
       vertex -8.318885E+00 5.5689580E+01 -3.385666E+01
       vertex -8.417164E+00 5.5701210E+01 -3.481327E+01
       vertex -8.897913E+00 5.6488070E+01 -3.409755E+01
    endloop
endfacet
facet normal  0.81764575235 0.57042550886 -0.0779112476
    outer loop
       vertex -9.010051E+00 5.6510470E+01 -3.511039E+01
       vertex -8.897913E+00 5.6488070E+01 -3.409755E+01
       vertex -8.417164E+00 5.5701210E+01 -3.481327E+01
    endloop
endfacet
facet normal  0.82614319047 0.45588815141 -0.3311395812
    outer loop
       vertex -9.393167E+00 5.6309250E+01 -3.727211E+01
       vertex -9.074020E+00 5.5428970E+01 -3.768779E+01
       vertex -9.618132E+00 5.6144710E+01 -3.805989E+01
    endloop
endfacet
facet normal  0.76687915568 0.54488969573 -0.3391040844
    outer loop
       vertex -8.764384E+00 5.5517950E+01 -3.677015E+01
       vertex -8.039214E+00 5.4780550E+01 -3.631508E+01
       vertex -8.309382E+00 5.4604100E+01 -3.720959E+01
    endloop
endfacet
facet normal  0.7614807496  0.60453032626 -0.2338592581
    outer loop
       vertex -8.764384E+00 5.5517950E+01 -3.677015E+01
       vertex -8.557917E+00 5.5633250E+01 -3.579981E+01
       vertex -8.039214E+00 5.4780550E+01 -3.631508E+01
    endloop
endfacet
facet normal  0.69750525639 0.60848169191 -0.3784659138
    outer loop
       vertex -7.654227E+00 5.4096440E+01 -3.670544E+01
       vertex -8.039214E+00 5.4780550E+01 -3.631508E+01
       vertex -7.267551E+00 5.4186630E+01 -3.584780E+01
    endloop
endfacet
facet normal  0.7249509823  0.60050014413 -0.3374102105
    outer loop
       vertex -7.654227E+00 5.4096440E+01 -3.670544E+01
       vertex -8.309382E+00 5.4604100E+01 -3.720959E+01
       vertex -8.039214E+00 5.4780550E+01 -3.631508E+01
    endloop
endfacet
facet normal  0.64380494859 0.60030243817 -0.4745020241
    outer loop
       vertex -7.654227E+00 5.4096440E+01 -3.670544E+01
       vertex -7.124016E+00 5.3659730E+01 -3.653854E+01
       vertex -7.662214E+00 5.3491270E+01 -3.748189E+01
    endloop
endfacet
facet normal  0.77984021609 0.38952173681 -0.4900225035
    outer loop
       vertex -9.429768E+00 5.4446720E+01 -3.923478E+01
       vertex -8.766054E+00 5.4457200E+01 -3.817019E+01
       vertex -8.583370E+00 5.3253510E+01 -3.883628E+01
    endloop
endfacet
facet normal  0.76127264889 0.32261058498 -0.5624823237
    outer loop
       vertex -9.478751E+00 5.3277210E+01 -4.003451E+01
       vertex -8.583370E+00 5.3253510E+01 -3.883628E+01
       vertex -8.812038E+00 5.2278880E+01 -3.970476E+01
    endloop
endfacet
facet normal  0.76843653184 0.29320334946 -0.5688032106
    outer loop
       vertex -9.478751E+00 5.3277210E+01 -4.003451E+01
       vertex -9.311991E+00 5.1931230E+01 -4.050304E+01
       vertex -9.882567E+00 5.2492910E+01 -4.098434E+01
    endloop
endfacet
facet normal  0.73393675406 0.3201012074  -0.599059311 
    outer loop
       vertex -8.812038E+00 5.2278880E+01 -3.970476E+01
       vertex -8.745840E+00 5.1309380E+01 -4.014170E+01
       vertex -9.311991E+00 5.1931230E+01 -4.050304E+01
    endloop
endfacet
facet normal  0.63395751732 0.39279955057 -0.6661879459
    outer loop
       vertex -7.530794E+00 5.1151360E+01 -3.902222E+01
       vertex -8.329681E+00 5.1530020E+01 -3.955919E+01
       vertex -8.193318E+00 5.2133040E+01 -3.907387E+01
    endloop
endfacet
facet normal  0.63236188693 0.36571427546 -0.6829139863
    outer loop
       vertex -7.530794E+00 5.1151360E+01 -3.902222E+01
       vertex -8.172065E+00 5.0871280E+01 -3.976601E+01
       vertex -8.329681E+00 5.1530020E+01 -3.955919E+01
    endloop
endfacet
facet normal  0.71848010206 0.28560735892 -0.6342040519
    outer loop
       vertex -8.745840E+00 5.1309380E+01 -4.014170E+01
       vertex -9.155431E+00 5.0883900E+01 -4.079733E+01
       vertex -9.311991E+00 5.1931230E+01 -4.050304E+01
    endloop
endfacet
facet normal  0.69212170737 0.3260129217  -0.6439589405
    outer loop
       vertex -8.745840E+00 5.1309380E+01 -4.014170E+01
       vertex -8.494304E+00 5.0432270E+01 -4.031540E+01
       vertex -9.155431E+00 5.0883900E+01 -4.079733E+01
    endloop
endfacet
facet normal  0.62935836826 0.371567852   -0.6825286629
    outer loop
       vertex -7.726146E+00 5.0218650E+01 -3.971012E+01
       vertex -8.172065E+00 5.0871280E+01 -3.976601E+01
       vertex -7.530794E+00 5.1151360E+01 -3.902222E+01
    endloop
endfacet
facet normal  0.59229284818 0.35467946788 -0.7234581239
    outer loop
       vertex -7.726146E+00 5.0218650E+01 -3.971012E+01
       vertex -7.254253E+00 4.9418930E+01 -3.971585E+01
       vertex -8.134331E+00 4.9573170E+01 -4.036075E+01
    endloop
endfacet
facet normal  0.68065891795 0.26943458902 -0.6812550474
    outer loop
       vertex -8.494304E+00 5.0432270E+01 -4.031540E+01
       vertex -8.948583E+00 4.9916240E+01 -4.097337E+01
       vertex -9.155431E+00 5.0883900E+01 -4.079733E+01
    endloop
endfacet
facet normal  0.65151954488 0.30955529589 -0.6926021956
    outer loop
       vertex -8.494304E+00 5.0432270E+01 -4.031540E+01
       vertex -8.134331E+00 4.9573170E+01 -4.036075E+01
       vertex -8.948583E+00 4.9916240E+01 -4.097337E+01
    endloop
endfacet
facet normal  0.50519071475 0.34813059641 -0.7896755217
    outer loop
       vertex -6.546042E+00 4.8619810E+01 -3.961507E+01
       vertex -7.676136E+00 4.8532120E+01 -4.037670E+01
       vertex -7.254253E+00 4.9418930E+01 -3.971585E+01
    endloop
endfacet
facet normal  0.59916183023 0.2752266634  -0.7518346793
    outer loop
       vertex -8.134331E+00 4.9573170E+01 -4.036075E+01
       vertex -7.254253E+00 4.9418930E+01 -3.971585E+01
       vertex -7.676136E+00 4.8532120E+01 -4.037670E+01
    endloop
endfacet
facet normal  0.64618237715 0.2399803923  -0.7244706666
    outer loop
       vertex -8.619707E+00 4.9047780E+01 -4.096771E+01
       vertex -8.948583E+00 4.9916240E+01 -4.097337E+01
       vertex -8.134331E+00 4.9573170E+01 -4.036075E+01
    endloop
endfacet
facet normal  0.67164506545 0.24979865985 -0.6974908857
    outer loop
       vertex -9.547115E+00 4.9223110E+01 -4.179796E+01
       vertex -8.948583E+00 4.9916240E+01 -4.097337E+01
       vertex -8.619707E+00 4.9047780E+01 -4.096771E+01
    endloop
endfacet
facet normal  0.67374633054 0.21289181603 -0.7076319359
    outer loop
       vertex -8.676208E+00 4.8110590E+01 -4.130346E+01
       vertex -9.547115E+00 4.9223110E+01 -4.179796E+01
       vertex -8.619707E+00 4.9047780E+01 -4.096771E+01
    endloop
endfacet
facet normal  0.66547550576 0.20149359738 -0.7187090381
    outer loop
       vertex -9.847908E+00 4.7769680E+01 -4.248395E+01
       vertex -9.547115E+00 4.9223110E+01 -4.179796E+01
       vertex -8.676208E+00 4.8110590E+01 -4.130346E+01
    endloop
endfacet
facet normal  0.58237637164 0.21503355746 -0.7839632204
    outer loop
       vertex -7.263484E+00 4.6500820E+01 -4.066269E+01
       vertex -8.531619E+00 4.6814900E+01 -4.151859E+01
       vertex -7.611832E+00 4.7431310E+01 -4.066624E+01
    endloop
endfacet
facet normal  0.59270728101 0.19585511626 -0.7812418655
    outer loop
       vertex -8.676208E+00 4.8110590E+01 -4.130346E+01
       vertex -7.611832E+00 4.7431310E+01 -4.066624E+01
       vertex -8.531619E+00 4.6814900E+01 -4.151859E+01
    endloop
endfacet
facet normal  0.66772098117 0.19384682089 -0.718729505 
    outer loop
       vertex -9.847908E+00 4.7769680E+01 -4.248395E+01
       vertex -8.676208E+00 4.8110590E+01 -4.130346E+01
       vertex -8.531619E+00 4.6814900E+01 -4.151859E+01
    endloop
endfacet
facet normal  0.59409588866 0.15670731585 -0.7889821875
    outer loop
       vertex -8.531619E+00 4.6814900E+01 -4.151859E+01
       vertex -7.586998E+00 4.5735800E+01 -4.102163E+01
       vertex -8.648241E+00 4.5676670E+01 -4.183248E+01
    endloop
endfacet
facet normal  0.57697676697 0.13402769085 -0.8056887665
    outer loop
       vertex -8.531619E+00 4.6814900E+01 -4.151859E+01
       vertex -7.263484E+00 4.6500820E+01 -4.066269E+01
       vertex -7.586998E+00 4.5735800E+01 -4.102163E+01
    endloop
endfacet
facet normal  0.65179071085 0.13882805313 -0.7455840938
    outer loop
       vertex -9.752007E+00 4.6419600E+01 -4.265906E+01
       vertex -8.531619E+00 4.6814900E+01 -4.151859E+01
       vertex -8.648241E+00 4.5676670E+01 -4.183248E+01
    endloop
endfacet
facet normal  0.58504391899 0.11885978173 -0.8022443301
    outer loop
       vertex -8.648241E+00 4.5676670E+01 -4.183248E+01
       vertex -7.626069E+00 4.4828810E+01 -4.121267E+01
       vertex -8.621939E+00 4.4673080E+01 -4.196199E+01
    endloop
endfacet
facet normal  0.59610928982 0.14081588661 -0.790458475 
    outer loop
       vertex -8.648241E+00 4.5676670E+01 -4.183248E+01
       vertex -7.586998E+00 4.5735800E+01 -4.102163E+01
       vertex -7.626069E+00 4.4828810E+01 -4.121267E+01
    endloop
endfacet
facet normal  0.58214640055 0.08510950089 -0.808617302 
    outer loop
       vertex -8.621939E+00 4.4673080E+01 -4.196199E+01
       vertex -7.602654E+00 4.3877170E+01 -4.131195E+01
       vertex -8.602913E+00 4.3674560E+01 -4.205339E+01
    endloop
endfacet
facet normal  0.58848377225 0.09820291604 -0.80252292  
    outer loop
       vertex -8.621939E+00 4.4673080E+01 -4.196199E+01
       vertex -7.626069E+00 4.4828810E+01 -4.121267E+01
       vertex -7.602654E+00 4.3877170E+01 -4.131195E+01
    endloop
endfacet
facet normal  0.58509184886 0.06854671113 -0.8080648964
    outer loop
       vertex -7.602654E+00 4.3877170E+01 -4.131195E+01
       vertex -7.655210E+00 4.2899830E+01 -4.143291E+01
       vertex -8.602913E+00 4.3674560E+01 -4.205339E+01
    endloop
endfacet
endsolid
