solid S192803_PCL_PM_Region_Fem_2
facet normal  0.71543815911 0.69386173664 0.08187875748
    outer loop
       vertex -7.914864E+00 5.5250765E+01 -3.112506E+01
       vertex -8.609360E+00 5.5887194E+01 -3.044998E+01
       vertex -8.173453E+00 5.5335394E+01 -2.958274E+01
    endloop
endfacet
facet normal  0.81378936788 0.58102933515 -0.0123197573
    outer loop
       vertex -9.505558E+00 5.6701581E+01 -2.623150E+01
       vertex -1.014314E+01 5.7594860E+01 -2.621798E+01
       vertex -9.819304E+00 5.7163499E+01 -2.517097E+01
    endloop
endfacet
facet normal  0.80837804051 0.58861565126 -0.0075205523
    outer loop
       vertex -9.819304E+00 5.7163499E+01 -2.517097E+01
       vertex -1.014314E+01 5.7594860E+01 -2.621798E+01
       vertex -1.046502E+01 5.8050185E+01 -2.517949E+01
    endloop
endfacet
facet normal  0.75835225667 0.64763082438 -0.0740011494
    outer loop
       vertex -8.791341E+00 5.5869702E+01 -2.619261E+01
       vertex -9.505558E+00 5.6701581E+01 -2.623150E+01
       vertex -8.957453E+00 5.6166511E+01 -2.529733E+01
    endloop
endfacet
facet normal  0.75092453203 0.65726747465 -0.0641234275
    outer loop
       vertex -8.957453E+00 5.6166511E+01 -2.529733E+01
       vertex -9.505558E+00 5.6701581E+01 -2.623150E+01
       vertex -9.819304E+00 5.7163499E+01 -2.517097E+01
    endloop
endfacet
facet normal  0.80836376318 0.58868302166 5.7130880E-04
    outer loop
       vertex -9.819304E+00 5.7163499E+01 -2.517097E+01
       vertex -1.046502E+01 5.8050185E+01 -2.517949E+01
       vertex -1.041766E+01 5.7983990E+01 -2.398634E+01
    endloop
endfacet
facet normal  0.68681332453 0.72589968849 -0.0368388313
    outer loop
       vertex -8.539133E+00 5.5545006E+01 -2.788855E+01
       vertex -8.791341E+00 5.5869702E+01 -2.619261E+01
       vertex -7.924008E+00 5.5027207E+01 -2.662343E+01
    endloop
endfacet
facet normal  0.67103372896 0.73950536074 0.05334375347
    outer loop
       vertex -8.173453E+00 5.5335394E+01 -2.958274E+01
       vertex -8.539133E+00 5.5545006E+01 -2.788855E+01
       vertex -7.593517E+00 5.4732948E+01 -2.852629E+01
    endloop
endfacet
facet normal  0.62768144418 0.77394015764 0.08386081931
    outer loop
       vertex -7.224769E+00 5.4666338E+01 -3.050882E+01
       vertex -8.173453E+00 5.5335394E+01 -2.958274E+01
       vertex -7.255513E+00 5.4580482E+01 -2.948635E+01
    endloop
endfacet
facet normal  0.6260285571  0.77367633083 0.09753553613
    outer loop
       vertex -7.255513E+00 5.4580482E+01 -2.948635E+01
       vertex -8.173453E+00 5.5335394E+01 -2.958274E+01
       vertex -7.593517E+00 5.4732948E+01 -2.852629E+01
    endloop
endfacet
facet normal  0.8518590277  0.52140094329 0.04977201276
    outer loop
       vertex -9.012681E+00 5.6618837E+01 -3.121158E+01
       vertex -9.162316E+00 5.6773022E+01 -3.026576E+01
       vertex -8.609360E+00 5.5887194E+01 -3.044998E+01
    endloop
endfacet
facet normal  0.88005834208 0.47016773301 0.0666304537 
    outer loop
       vertex -1.075065E+01 5.8738833E+01 -2.626616E+01
       vertex -1.046502E+01 5.8050185E+01 -2.517949E+01
       vertex -1.014314E+01 5.7594860E+01 -2.621798E+01
    endloop
endfacet
facet normal  0.9334028144  0.29314406742 0.20694381318
    outer loop
       vertex -1.043632E+01 5.9779310E+01 -3.028366E+01
       vertex -1.077379E+01 6.0852879E+01 -3.028227E+01
       vertex -1.079214E+01 6.0182630E+01 -2.925007E+01
    endloop
endfacet
facet normal  0.75876968706 0.65135596556 -0.0019920136
    outer loop
       vertex -9.505558E+00 5.6701581E+01 -2.623150E+01
       vertex -8.791341E+00 5.5869702E+01 -2.619261E+01
       vertex -9.201243E+00 5.6344051E+01 -2.722204E+01
    endloop
endfacet
facet normal  0.76624497311 0.64248472732 -0.0090562873
    outer loop
       vertex -9.201243E+00 5.6344051E+01 -2.722204E+01
       vertex -8.791341E+00 5.5869702E+01 -2.619261E+01
       vertex -8.539133E+00 5.5545006E+01 -2.788855E+01
    endloop
endfacet
facet normal  0.81248690654 0.57886674347 0.06912539338
    outer loop
       vertex -1.014314E+01 5.7594860E+01 -2.621798E+01
       vertex -9.505558E+00 5.6701581E+01 -2.623150E+01
       vertex -9.879667E+00 5.7357932E+01 -2.733069E+01
    endloop
endfacet
facet normal  0.8273617349  0.5592259212  0.05233477506
    outer loop
       vertex -9.879667E+00 5.7357932E+01 -2.733069E+01
       vertex -9.505558E+00 5.6701581E+01 -2.623150E+01
       vertex -9.201243E+00 5.6344051E+01 -2.722204E+01
    endloop
endfacet
facet normal  0.87766252333 0.47003480716 0.09367910764
    outer loop
       vertex -1.075065E+01 5.8738833E+01 -2.626616E+01
       vertex -1.014314E+01 5.7594860E+01 -2.621798E+01
       vertex -1.049756E+01 5.8476962E+01 -2.732345E+01
    endloop
endfacet
facet normal  0.87095484514 0.48023721615 0.10397054363
    outer loop
       vertex -1.049756E+01 5.8476962E+01 -2.732345E+01
       vertex -1.014314E+01 5.7594860E+01 -2.621798E+01
       vertex -9.879667E+00 5.7357932E+01 -2.733069E+01
    endloop
endfacet
facet normal  0.90922398982 0.39898718457 0.11883165774
    outer loop
       vertex -1.105797E+01 5.9693582E+01 -2.712040E+01
       vertex -1.075065E+01 5.8738833E+01 -2.626616E+01
       vertex -1.049756E+01 5.8476962E+01 -2.732345E+01
    endloop
endfacet
facet normal  0.9066850024  0.39140912537 0.15722977773
    outer loop
       vertex -1.073652E+01 5.9417701E+01 -2.828731E+01
       vertex -1.105797E+01 5.9693582E+01 -2.712040E+01
       vertex -1.049756E+01 5.8476962E+01 -2.732345E+01
    endloop
endfacet
facet normal  0.92339146381 0.3290664894  0.19764475738
    outer loop
       vertex -1.005988E+01 5.8714073E+01 -3.026879E+01
       vertex -1.043632E+01 5.9779310E+01 -3.028366E+01
       vertex -1.040723E+01 5.9074065E+01 -2.924536E+01
    endloop
endfacet
facet normal  0.92663540496 0.32256105147 0.19313517116
    outer loop
       vertex -1.040723E+01 5.9074065E+01 -2.924536E+01
       vertex -1.043632E+01 5.9779310E+01 -3.028366E+01
       vertex -1.079214E+01 6.0182630E+01 -2.925007E+01
    endloop
endfacet
facet normal  0.92485850663 0.32198341833 0.20239422184
    outer loop
       vertex -1.040723E+01 5.9074065E+01 -2.924536E+01
       vertex -1.079214E+01 6.0182630E+01 -2.925007E+01
       vertex -1.073652E+01 5.9417701E+01 -2.828731E+01
    endloop
endfacet
facet normal  0.90273052961 0.39593574273 0.16826312295
    outer loop
       vertex -1.040723E+01 5.9074065E+01 -2.924536E+01
       vertex -1.073652E+01 5.9417701E+01 -2.828731E+01
       vertex -1.012057E+01 5.8042262E+01 -2.835536E+01
    endloop
endfacet
facet normal  0.90343974517 0.39651293394 0.16301570499
    outer loop
       vertex -1.012057E+01 5.8042262E+01 -2.835536E+01
       vertex -1.073652E+01 5.9417701E+01 -2.828731E+01
       vertex -1.049756E+01 5.8476962E+01 -2.732345E+01
    endloop
endfacet
facet normal  0.90231348077 0.39768971346 0.16635286059
    outer loop
       vertex -1.005988E+01 5.8714073E+01 -3.026879E+01
       vertex -1.040723E+01 5.9074065E+01 -2.924536E+01
       vertex -9.968524E+00 5.8144665E+01 -2.940307E+01
    endloop
endfacet
facet normal  0.90200424946 0.39697538285 0.16970232575
    outer loop
       vertex -9.968524E+00 5.8144665E+01 -2.940307E+01
       vertex -1.040723E+01 5.9074065E+01 -2.924536E+01
       vertex -1.012057E+01 5.8042262E+01 -2.835536E+01
    endloop
endfacet
facet normal  0.90881401352 0.3861060758  0.15804805301
    outer loop
       vertex -9.648509E+00 5.7728062E+01 -3.022548E+01
       vertex -1.005988E+01 5.8714073E+01 -3.026879E+01
       vertex -9.968524E+00 5.8144665E+01 -2.940307E+01
    endloop
endfacet
facet normal  0.8870053476  0.44661099538 0.11730358962
    outer loop
       vertex -9.162316E+00 5.6773022E+01 -3.026576E+01
       vertex -9.648509E+00 5.7728062E+01 -3.022548E+01
       vertex -9.513018E+00 5.7191163E+01 -2.920588E+01
    endloop
endfacet
facet normal  0.88630255144 0.44781323596 0.11803005131
    outer loop
       vertex -9.513018E+00 5.7191163E+01 -2.920588E+01
       vertex -9.648509E+00 5.7728062E+01 -3.022548E+01
       vertex -9.968524E+00 5.8144665E+01 -2.940307E+01
    endloop
endfacet
facet normal  0.75912686781 0.65015040334 0.03210687792
    outer loop
       vertex -8.173453E+00 5.5335394E+01 -2.958274E+01
       vertex -8.609360E+00 5.5887194E+01 -3.044998E+01
       vertex -8.883283E+00 5.6142777E+01 -2.914886E+01
    endloop
endfacet
facet normal  0.85291928153 0.51615650449 0.07817392184
    outer loop
       vertex -8.883283E+00 5.6142777E+01 -2.914886E+01
       vertex -8.609360E+00 5.5887194E+01 -3.044998E+01
       vertex -9.162316E+00 5.6773022E+01 -3.026576E+01
    endloop
endfacet
facet normal  0.85271272231 0.51646359022 0.07839880859
    outer loop
       vertex -8.883283E+00 5.6142777E+01 -2.914886E+01
       vertex -9.162316E+00 5.6773022E+01 -3.026576E+01
       vertex -9.513018E+00 5.7191163E+01 -2.920588E+01
    endloop
endfacet
facet normal  0.77116700293 0.63045878383 0.08844871671
    outer loop
       vertex -8.539133E+00 5.5545006E+01 -2.788855E+01
       vertex -8.173453E+00 5.5335394E+01 -2.958274E+01
       vertex -8.883283E+00 5.6142777E+01 -2.914886E+01
    endloop
endfacet
facet normal  0.80028421319 0.59383766276 0.08307832687
    outer loop
       vertex -9.201243E+00 5.6344051E+01 -2.722204E+01
       vertex -8.539133E+00 5.5545006E+01 -2.788855E+01
       vertex -9.383576E+00 5.6731305E+01 -2.823370E+01
    endloop
endfacet
facet normal  0.8048290351  0.59043812263 0.06027476752
    outer loop
       vertex -9.383576E+00 5.6731305E+01 -2.823370E+01
       vertex -8.539133E+00 5.5545006E+01 -2.788855E+01
       vertex -8.883283E+00 5.6142777E+01 -2.914886E+01
    endloop
endfacet
facet normal  0.84666239699 0.51570113651 0.13120641498
    outer loop
       vertex -9.383576E+00 5.6731305E+01 -2.823370E+01
       vertex -8.883283E+00 5.6142777E+01 -2.914886E+01
       vertex -9.513018E+00 5.7191163E+01 -2.920588E+01
    endloop
endfacet
facet normal  0.82607059465 0.55976063916 0.06538653908
    outer loop
       vertex -9.879667E+00 5.7357932E+01 -2.733069E+01
       vertex -9.201243E+00 5.6344051E+01 -2.722204E+01
       vertex -9.383576E+00 5.6731305E+01 -2.823370E+01
    endloop
endfacet
facet normal  0.86984593654 0.47954860066 0.11576349286
    outer loop
       vertex -1.012057E+01 5.8042262E+01 -2.835536E+01
       vertex -1.049756E+01 5.8476962E+01 -2.732345E+01
       vertex -9.879667E+00 5.7357932E+01 -2.733069E+01
    endloop
endfacet
facet normal  0.85931469817 0.49502228642 0.1285736577 
    outer loop
       vertex -1.012057E+01 5.8042262E+01 -2.835536E+01
       vertex -9.879667E+00 5.7357932E+01 -2.733069E+01
       vertex -9.383576E+00 5.6731305E+01 -2.823370E+01
    endloop
endfacet
facet normal  0.86066634476 0.49494224589 0.11952245074
    outer loop
       vertex -9.383576E+00 5.6731305E+01 -2.823370E+01
       vertex -9.513018E+00 5.7191163E+01 -2.920588E+01
       vertex -1.012057E+01 5.8042262E+01 -2.835536E+01
    endloop
endfacet
facet normal  0.87475141074 0.45330179248 0.1712526039 
    outer loop
       vertex -1.012057E+01 5.8042262E+01 -2.835536E+01
       vertex -9.513018E+00 5.7191163E+01 -2.920588E+01
       vertex -9.968524E+00 5.8144665E+01 -2.940307E+01
    endloop
endfacet
facet normal  0.93689787196 0.27292012944 0.21848794125
    outer loop
       vertex -1.352835E+01 6.4258700E+01 -2.272301E+01
       vertex -1.372853E+01 6.5581265E+01 -2.351671E+01
       vertex -1.392076E+01 6.5290249E+01 -2.232890E+01
    endloop
endfacet
facet normal  0.94207806971 0.25705103884 0.21543832991
    outer loop
       vertex -1.392076E+01 6.5290249E+01 -2.232890E+01
       vertex -1.372853E+01 6.5581265E+01 -2.351671E+01
       vertex -1.407170E+01 6.6462084E+01 -2.306703E+01
    endloop
endfacet
facet normal  0.93749899695 0.2753048736  0.21284467878
    outer loop
       vertex -1.379486E+01 6.4236878E+01 -2.152094E+01
       vertex -1.352835E+01 6.4258700E+01 -2.272301E+01
       vertex -1.392076E+01 6.5290249E+01 -2.232890E+01
    endloop
endfacet
facet normal  0.93190971798 0.27150975322 0.24047189324
    outer loop
       vertex -1.392076E+01 6.5290249E+01 -2.232890E+01
       vertex -1.407170E+01 6.6462084E+01 -2.306703E+01
       vertex -1.429088E+01 6.6221339E+01 -2.194582E+01
    endloop
endfacet
facet normal  0.9335564271  0.26647699836 0.23971317604
    outer loop
       vertex -1.429088E+01 6.6221339E+01 -2.194582E+01
       vertex -1.407170E+01 6.6462084E+01 -2.306703E+01
       vertex -1.446920E+01 6.7181862E+01 -2.231911E+01
    endloop
endfacet
facet normal  0.90565699757 0.40470098293 0.12650105599
    outer loop
       vertex -1.075065E+01 5.8738833E+01 -2.626616E+01
       vertex -1.105797E+01 5.9693582E+01 -2.712040E+01
       vertex -1.115146E+01 5.9516068E+01 -2.588319E+01
    endloop
endfacet
facet normal  0.90455999731 0.40706719988 0.12675766662
    outer loop
       vertex -1.115146E+01 5.9516068E+01 -2.588319E+01
       vertex -1.105797E+01 5.9693582E+01 -2.712040E+01
       vertex -1.152690E+01 6.0473441E+01 -2.627851E+01
    endloop
endfacet
facet normal  0.89479341124 0.41689289046 0.1598282487 
    outer loop
       vertex -1.115146E+01 5.9516068E+01 -2.588319E+01
       vertex -1.152690E+01 6.0473441E+01 -2.627851E+01
       vertex -1.153900E+01 6.0123735E+01 -2.529858E+01
    endloop
endfacet
facet normal  0.86956738741 0.4872553974  0.08021680901
    outer loop
       vertex -1.046502E+01 5.8050185E+01 -2.517949E+01
       vertex -1.075065E+01 5.8738833E+01 -2.626616E+01
       vertex -1.103939E+01 5.8977694E+01 -2.458709E+01
    endloop
endfacet
facet normal  0.90313300932 0.41854527712 0.09576334623
    outer loop
       vertex -1.103939E+01 5.8977694E+01 -2.458709E+01
       vertex -1.075065E+01 5.8738833E+01 -2.626616E+01
       vertex -1.115146E+01 5.9516068E+01 -2.588319E+01
    endloop
endfacet
facet normal  0.84892159702 0.5285006712  -0.0043775157
    outer loop
       vertex -1.041766E+01 5.7983990E+01 -2.398634E+01
       vertex -1.046502E+01 5.8050185E+01 -2.517949E+01
       vertex -1.103939E+01 5.8977694E+01 -2.458709E+01
    endloop
endfacet
facet normal  0.81938948694 0.56632501437 0.08875160162
    outer loop
       vertex -1.154126E+01 5.9454373E+01 -2.299535E+01
       vertex -1.041766E+01 5.7983990E+01 -2.398634E+01
       vertex -1.103939E+01 5.8977694E+01 -2.458709E+01
    endloop
endfacet
facet normal  0.86669769959 0.48195030935 0.12868176573
    outer loop
       vertex -1.205515E+01 6.0450968E+01 -2.326672E+01
       vertex -1.154126E+01 5.9454373E+01 -2.299535E+01
       vertex -1.159672E+01 5.9856585E+01 -2.412816E+01
    endloop
endfacet
facet normal  0.86652042862 0.48223925595 0.12879303864
    outer loop
       vertex -1.159672E+01 5.9856585E+01 -2.412816E+01
       vertex -1.154126E+01 5.9454373E+01 -2.299535E+01
       vertex -1.103939E+01 5.8977694E+01 -2.458709E+01
    endloop
endfacet
facet normal  0.86778315273 0.47935120736 0.13105273685
    outer loop
       vertex -1.203839E+01 6.0737429E+01 -2.442546E+01
       vertex -1.205515E+01 6.0450968E+01 -2.326672E+01
       vertex -1.159672E+01 5.9856585E+01 -2.412816E+01
    endloop
endfacet
facet normal  0.86176680488 0.48371139498 0.15290932073
    outer loop
       vertex -1.153900E+01 6.0123735E+01 -2.529858E+01
       vertex -1.203839E+01 6.0737429E+01 -2.442546E+01
       vertex -1.159672E+01 5.9856585E+01 -2.412816E+01
    endloop
endfacet
facet normal  0.8685609982  0.47214422876 0.15060418208
    outer loop
       vertex -1.159672E+01 5.9856585E+01 -2.412816E+01
       vertex -1.103939E+01 5.8977694E+01 -2.458709E+01
       vertex -1.153900E+01 6.0123735E+01 -2.529858E+01
    endloop
endfacet
facet normal  0.88333891727 0.45500463374 0.11261944994
    outer loop
       vertex -1.153900E+01 6.0123735E+01 -2.529858E+01
       vertex -1.103939E+01 5.8977694E+01 -2.458709E+01
       vertex -1.115146E+01 5.9516068E+01 -2.588319E+01
    endloop
endfacet
facet normal  0.93831780702 0.23706724989 0.25171176385
    outer loop
       vertex -1.383503E+01 6.6597644E+01 -2.407694E+01
       vertex -1.407170E+01 6.6462084E+01 -2.306703E+01
       vertex -1.372853E+01 6.5581265E+01 -2.351671E+01
    endloop
endfacet
facet normal  0.89794605514 0.34873137185 0.26847590645
    outer loop
       vertex -1.203839E+01 6.0737429E+01 -2.442546E+01
       vertex -1.153900E+01 6.0123735E+01 -2.529858E+01
       vertex -1.204140E+01 6.1483531E+01 -2.538452E+01
    endloop
endfacet
facet normal  0.92638260984 0.35090803539 0.13667044629
    outer loop
       vertex -1.204140E+01 6.1483531E+01 -2.538452E+01
       vertex -1.153900E+01 6.0123735E+01 -2.529858E+01
       vertex -1.152690E+01 6.0473441E+01 -2.627851E+01
    endloop
endfacet
facet normal  0.9175898328  0.37385904582 0.13512332366
    outer loop
       vertex -1.245674E+01 6.1085622E+01 -2.229557E+01
       vertex -1.205515E+01 6.0450968E+01 -2.326672E+01
       vertex -1.253622E+01 6.1692225E+01 -2.343418E+01
    endloop
endfacet
facet normal  0.91370884154 0.38165729134 0.1395487902 
    outer loop
       vertex -1.289906E+01 6.2097894E+01 -2.216791E+01
       vertex -1.245674E+01 6.1085622E+01 -2.229557E+01
       vertex -1.253622E+01 6.1692225E+01 -2.343418E+01
    endloop
endfacet
facet normal  0.9223779678  0.37168095318 0.10522430116
    outer loop
       vertex -1.253622E+01 6.1692225E+01 -2.343418E+01
       vertex -1.205515E+01 6.0450968E+01 -2.326672E+01
       vertex -1.203839E+01 6.0737429E+01 -2.442546E+01
    endloop
endfacet
facet normal  0.93685361083 0.29734730621 0.18409207305
    outer loop
       vertex -1.253622E+01 6.1692225E+01 -2.343418E+01
       vertex -1.203839E+01 6.0737429E+01 -2.442546E+01
       vertex -1.259459E+01 6.2501986E+01 -2.444507E+01
    endloop
endfacet
facet normal  0.9281970853  0.29509169253 0.22665185601
    outer loop
       vertex -1.259459E+01 6.2501986E+01 -2.444507E+01
       vertex -1.203839E+01 6.0737429E+01 -2.442546E+01
       vertex -1.204140E+01 6.1483531E+01 -2.538452E+01
    endloop
endfacet
facet normal  0.91631816616 0.27940432535 0.28686972888
    outer loop
       vertex -1.426247E+01 6.9444268E+01 -2.534536E+01
       vertex -1.428707E+01 6.8562455E+01 -2.440793E+01
       vertex -1.382710E+01 6.8316217E+01 -2.563732E+01
    endloop
endfacet
facet normal  0.91938935165 0.26469297693 0.29096537258
    outer loop
       vertex -1.382710E+01 6.8316217E+01 -2.563732E+01
       vertex -1.428707E+01 6.8562455E+01 -2.440793E+01
       vertex -1.391454E+01 6.7567680E+01 -2.468008E+01
    endloop
endfacet
facet normal  0.91797824642 0.2821417217  0.27876869978
    outer loop
       vertex -1.381962E+01 6.9146105E+01 -2.650190E+01
       vertex -1.426247E+01 6.9444268E+01 -2.534536E+01
       vertex -1.382710E+01 6.8316217E+01 -2.563732E+01
    endloop
endfacet
facet normal  0.93813883898 0.29536341068 0.1807096412 
    outer loop
       vertex -1.352835E+01 6.4258700E+01 -2.272301E+01
       vertex -1.332899E+01 6.3045093E+01 -2.177442E+01
       vertex -1.304093E+01 6.2972327E+01 -2.315090E+01
    endloop
endfacet
facet normal  0.92188260029 0.34588199519 0.17463709996
    outer loop
       vertex -1.304093E+01 6.2972327E+01 -2.315090E+01
       vertex -1.332899E+01 6.3045093E+01 -2.177442E+01
       vertex -1.289906E+01 6.2097894E+01 -2.216791E+01
    endloop
endfacet
facet normal  0.92985820511 0.33113030203 0.16036346675
    outer loop
       vertex -1.304093E+01 6.2972327E+01 -2.315090E+01
       vertex -1.289906E+01 6.2097894E+01 -2.216791E+01
       vertex -1.253622E+01 6.1692225E+01 -2.343418E+01
    endloop
endfacet
facet normal  0.93865478099 0.28137124657 0.19939263711
    outer loop
       vertex -1.079214E+01 6.0182630E+01 -2.925007E+01
       vertex -1.077379E+01 6.0852879E+01 -3.028227E+01
       vertex -1.118831E+01 6.1376186E+01 -2.906934E+01
    endloop
endfacet
facet normal  0.94247215729 0.2602383056  0.20981481603
    outer loop
       vertex -1.118831E+01 6.1376186E+01 -2.906934E+01
       vertex -1.077379E+01 6.0852879E+01 -3.028227E+01
       vertex -1.116440E+01 6.2048617E+01 -3.001075E+01
    endloop
endfacet
facet normal  0.9282960714  0.31539368594 0.19695996215
    outer loop
       vertex -1.073652E+01 5.9417701E+01 -2.828731E+01
       vertex -1.079214E+01 6.0182630E+01 -2.925007E+01
       vertex -1.113463E+01 6.0524133E+01 -2.818269E+01
    endloop
endfacet
facet normal  0.93676558367 0.27893471777 0.2113425288 
    outer loop
       vertex -1.113463E+01 6.0524133E+01 -2.818269E+01
       vertex -1.079214E+01 6.0182630E+01 -2.925007E+01
       vertex -1.118831E+01 6.1376186E+01 -2.906934E+01
    endloop
endfacet
facet normal  0.93069122834 0.31774009861 0.18125966793
    outer loop
       vertex -1.105797E+01 5.9693582E+01 -2.712040E+01
       vertex -1.073652E+01 5.9417701E+01 -2.828731E+01
       vertex -1.113463E+01 6.0524133E+01 -2.818269E+01
    endloop
endfacet
facet normal  0.92186616722 0.32268638671 0.21456063378
    outer loop
       vertex -1.152690E+01 6.0473441E+01 -2.627851E+01
       vertex -1.105797E+01 5.9693582E+01 -2.712040E+01
       vertex -1.143589E+01 6.0839325E+01 -2.721981E+01
    endloop
endfacet
facet normal  0.92839956421 0.32227385558 0.1849697575 
    outer loop
       vertex -1.143589E+01 6.0839325E+01 -2.721981E+01
       vertex -1.105797E+01 5.9693582E+01 -2.712040E+01
       vertex -1.113463E+01 6.0524133E+01 -2.818269E+01
    endloop
endfacet
facet normal  0.93368560424 0.29146725947 0.20803372102
    outer loop
       vertex -1.204140E+01 6.1483531E+01 -2.538452E+01
       vertex -1.152690E+01 6.0473441E+01 -2.627851E+01
       vertex -1.185804E+01 6.1728720E+01 -2.655101E+01
    endloop
endfacet
facet normal  0.93491173264 0.29078996518 0.20342381455
    outer loop
       vertex -1.185804E+01 6.1728720E+01 -2.655101E+01
       vertex -1.152690E+01 6.0473441E+01 -2.627851E+01
       vertex -1.143589E+01 6.0839325E+01 -2.721981E+01
    endloop
endfacet
facet normal  0.93656980156 0.27337348378 0.21932611601
    outer loop
       vertex -1.372853E+01 6.5581265E+01 -2.351671E+01
       vertex -1.352835E+01 6.4258700E+01 -2.272301E+01
       vertex -1.317984E+01 6.4033847E+01 -2.393096E+01
    endloop
endfacet
facet normal  0.93455097138 0.281879143   0.21716038   
    outer loop
       vertex -1.317984E+01 6.4033847E+01 -2.393096E+01
       vertex -1.352835E+01 6.4258700E+01 -2.272301E+01
       vertex -1.304093E+01 6.2972327E+01 -2.315090E+01
    endloop
endfacet
facet normal  0.93099162248 0.24614316851 0.2695702867 
    outer loop
       vertex -1.383503E+01 6.6597644E+01 -2.407694E+01
       vertex -1.372853E+01 6.5581265E+01 -2.351671E+01
       vertex -1.330545E+01 6.5211157E+01 -2.463992E+01
    endloop
endfacet
facet normal  0.92901573519 0.2585369862  0.26474212082
    outer loop
       vertex -1.330545E+01 6.5211157E+01 -2.463992E+01
       vertex -1.372853E+01 6.5581265E+01 -2.351671E+01
       vertex -1.317984E+01 6.4033847E+01 -2.393096E+01
    endloop
endfacet
facet normal  0.9281498078  0.24841880047 0.27717509603
    outer loop
       vertex -1.391454E+01 6.7567680E+01 -2.468008E+01
       vertex -1.383503E+01 6.6597644E+01 -2.407694E+01
       vertex -1.338311E+01 6.6280692E+01 -2.530617E+01
    endloop
endfacet
facet normal  0.9293093138  0.24151701658 0.2793809764 
    outer loop
       vertex -1.338311E+01 6.6280692E+01 -2.530617E+01
       vertex -1.383503E+01 6.6597644E+01 -2.407694E+01
       vertex -1.330545E+01 6.5211157E+01 -2.463992E+01
    endloop
endfacet
facet normal  0.92537502688 0.25293675423 0.28231907125
    outer loop
       vertex -1.382710E+01 6.8316217E+01 -2.563732E+01
       vertex -1.391454E+01 6.7567680E+01 -2.468008E+01
       vertex -1.339451E+01 6.7170838E+01 -2.602910E+01
    endloop
endfacet
facet normal  0.92683099718 0.24378973571 0.285571125  
    outer loop
       vertex -1.339451E+01 6.7170838E+01 -2.602910E+01
       vertex -1.391454E+01 6.7567680E+01 -2.468008E+01
       vertex -1.338311E+01 6.6280692E+01 -2.530617E+01
    endloop
endfacet
facet normal  0.92544618616 0.31998173275 0.20288185537
    outer loop
       vertex -1.304093E+01 6.2972327E+01 -2.315090E+01
       vertex -1.253622E+01 6.1692225E+01 -2.343418E+01
       vertex -1.259459E+01 6.2501986E+01 -2.444507E+01
    endloop
endfacet
facet normal  0.93370097313 0.28319261316 0.21909914793
    outer loop
       vertex -1.317984E+01 6.4033847E+01 -2.393096E+01
       vertex -1.304093E+01 6.2972327E+01 -2.315090E+01
       vertex -1.259459E+01 6.2501986E+01 -2.444507E+01
    endloop
endfacet
facet normal  0.92313771495 0.27334456044 0.27036921149
    outer loop
       vertex -1.381962E+01 6.9146105E+01 -2.650190E+01
       vertex -1.382710E+01 6.8316217E+01 -2.563732E+01
       vertex -1.337782E+01 6.8002101E+01 -2.685375E+01
    endloop
endfacet
facet normal  0.92651922256 0.25544845763 0.27623941741
    outer loop
       vertex -1.337782E+01 6.8002101E+01 -2.685375E+01
       vertex -1.382710E+01 6.8316217E+01 -2.563732E+01
       vertex -1.339451E+01 6.7170838E+01 -2.602910E+01
    endloop
endfacet
facet normal  0.94533231334 0.25353633094 0.20510033217
    outer loop
       vertex -1.118831E+01 6.1376186E+01 -2.906934E+01
       vertex -1.116440E+01 6.2048617E+01 -3.001075E+01
       vertex -1.162397E+01 6.2661657E+01 -2.865036E+01
    endloop
endfacet
facet normal  0.93876944722 0.27505855413 0.20749630544
    outer loop
       vertex -1.113463E+01 6.0524133E+01 -2.818269E+01
       vertex -1.118831E+01 6.1376186E+01 -2.906934E+01
       vertex -1.155339E+01 6.1725694E+01 -2.788091E+01
    endloop
endfacet
facet normal  0.94388644575 0.2492822604  0.21664886839
    outer loop
       vertex -1.155339E+01 6.1725694E+01 -2.788091E+01
       vertex -1.118831E+01 6.1376186E+01 -2.906934E+01
       vertex -1.162397E+01 6.2661657E+01 -2.865036E+01
    endloop
endfacet
facet normal  0.93930298513 0.27626262299 0.20344253552
    outer loop
       vertex -1.143589E+01 6.0839325E+01 -2.721981E+01
       vertex -1.113463E+01 6.0524133E+01 -2.818269E+01
       vertex -1.155339E+01 6.1725694E+01 -2.788091E+01
    endloop
endfacet
facet normal  0.93498101264 0.28321833895 0.2135365975 
    outer loop
       vertex -1.185804E+01 6.1728720E+01 -2.655101E+01
       vertex -1.143589E+01 6.0839325E+01 -2.721981E+01
       vertex -1.155339E+01 6.1725694E+01 -2.788091E+01
    endloop
endfacet
facet normal  0.92833150996 0.29198305199 0.23010107553
    outer loop
       vertex -1.259459E+01 6.2501986E+01 -2.444507E+01
       vertex -1.204140E+01 6.1483531E+01 -2.538452E+01
       vertex -1.233851E+01 6.2725455E+01 -2.576177E+01
    endloop
endfacet
facet normal  0.93531678016 0.28672615851 0.20729358595
    outer loop
       vertex -1.233851E+01 6.2725455E+01 -2.576177E+01
       vertex -1.204140E+01 6.1483531E+01 -2.538452E+01
       vertex -1.185804E+01 6.1728720E+01 -2.655101E+01
    endloop
endfacet
facet normal  0.93623600138 0.2677568632  0.22752672794
    outer loop
       vertex -1.282206E+01 6.3858678E+01 -2.510566E+01
       vertex -1.259459E+01 6.2501986E+01 -2.444507E+01
       vertex -1.233851E+01 6.2725455E+01 -2.576177E+01
    endloop
endfacet
facet normal  0.93338968018 0.24251398331 0.26451970214
    outer loop
       vertex -1.330545E+01 6.5211157E+01 -2.463992E+01
       vertex -1.282206E+01 6.3858678E+01 -2.510566E+01
       vertex -1.290614E+01 6.4997951E+01 -2.585345E+01
    endloop
endfacet
facet normal  0.93444156942 0.25450797099 0.24908762722
    outer loop
       vertex -1.246676E+01 6.3803059E+01 -2.638172E+01
       vertex -1.282206E+01 6.3858678E+01 -2.510566E+01
       vertex -1.233851E+01 6.2725455E+01 -2.576177E+01
    endloop
endfacet
facet normal  0.93499750829 0.2339402754  0.26655507319
    outer loop
       vertex -1.338311E+01 6.6280692E+01 -2.530617E+01
       vertex -1.330545E+01 6.5211157E+01 -2.463992E+01
       vertex -1.290614E+01 6.4997951E+01 -2.585345E+01
    endloop
endfacet
facet normal  0.93914144526 0.23424785814 0.2512793003 
    outer loop
       vertex -1.290614E+01 6.4997951E+01 -2.585345E+01
       vertex -1.282206E+01 6.3858678E+01 -2.510566E+01
       vertex -1.246676E+01 6.3803059E+01 -2.638172E+01
    endloop
endfacet
facet normal  0.93402592484 0.23232032576 0.27133528699
    outer loop
       vertex -1.339451E+01 6.7170838E+01 -2.602910E+01
       vertex -1.338311E+01 6.6280692E+01 -2.530617E+01
       vertex -1.292649E+01 6.5941752E+01 -2.658782E+01
    endloop
endfacet
facet normal  0.93415754947 0.2314728766  0.27160629625
    outer loop
       vertex -1.292649E+01 6.5941752E+01 -2.658782E+01
       vertex -1.338311E+01 6.6280692E+01 -2.530617E+01
       vertex -1.290614E+01 6.4997951E+01 -2.585345E+01
    endloop
endfacet
facet normal  0.93350897348 0.24290605294 0.26373783552
    outer loop
       vertex -1.337782E+01 6.8002101E+01 -2.685375E+01
       vertex -1.339451E+01 6.7170838E+01 -2.602910E+01
       vertex -1.293611E+01 6.6806414E+01 -2.731596E+01
    endloop
endfacet
facet normal  0.93568695557 0.24904839966 0.24992962169
    outer loop
       vertex -1.298376E+01 6.7726395E+01 -2.805429E+01
       vertex -1.337782E+01 6.8002101E+01 -2.685375E+01
       vertex -1.293611E+01 6.6806414E+01 -2.731596E+01
    endloop
endfacet
facet normal  0.9347968922  0.23481777689 0.26648711412
    outer loop
       vertex -1.293611E+01 6.6806414E+01 -2.731596E+01
       vertex -1.339451E+01 6.7170838E+01 -2.602910E+01
       vertex -1.292649E+01 6.5941752E+01 -2.658782E+01
    endloop
endfacet
facet normal  0.95096315878 0.22993443601 0.2068797375 
    outer loop
       vertex -1.162397E+01 6.2661657E+01 -2.865036E+01
       vertex -1.150229E+01 6.3160406E+01 -2.976403E+01
       vertex -1.198713E+01 6.4121091E+01 -2.860311E+01
    endloop
endfacet
facet normal  0.9411125217  0.25421117133 0.2228988602 
    outer loop
       vertex -1.155339E+01 6.1725694E+01 -2.788091E+01
       vertex -1.162397E+01 6.2661657E+01 -2.865036E+01
       vertex -1.199225E+01 6.2702713E+01 -2.714224E+01
    endloop
endfacet
facet normal  0.94612747296 0.22798498909 0.22992531323
    outer loop
       vertex -1.208747E+01 6.3584801E+01 -2.765846E+01
       vertex -1.162397E+01 6.2661657E+01 -2.865036E+01
       vertex -1.198713E+01 6.4121091E+01 -2.860311E+01
    endloop
endfacet
facet normal  0.9412947777  0.26023835493 0.21503520663
    outer loop
       vertex -1.185804E+01 6.1728720E+01 -2.655101E+01
       vertex -1.155339E+01 6.1725694E+01 -2.788091E+01
       vertex -1.199225E+01 6.2702713E+01 -2.714224E+01
    endloop
endfacet
facet normal  0.93534095291 0.26861299159 0.23018332379
    outer loop
       vertex -1.233851E+01 6.2725455E+01 -2.576177E+01
       vertex -1.185804E+01 6.1728720E+01 -2.655101E+01
       vertex -1.199225E+01 6.2702713E+01 -2.714224E+01
    endloop
endfacet
facet normal  0.94121514871 0.24550494725 0.23203742094
    outer loop
       vertex -1.246676E+01 6.3803059E+01 -2.638172E+01
       vertex -1.233851E+01 6.2725455E+01 -2.576177E+01
       vertex -1.199225E+01 6.2702713E+01 -2.714224E+01
    endloop
endfacet
facet normal  0.94429787178 0.22247947792 0.24249620873
    outer loop
       vertex -1.247604E+01 6.4708214E+01 -2.717603E+01
       vertex -1.246676E+01 6.3803059E+01 -2.638172E+01
       vertex -1.208747E+01 6.3584801E+01 -2.765846E+01
    endloop
endfacet
facet normal  0.93870384228 0.2327611492  0.2542780838 
    outer loop
       vertex -1.290614E+01 6.4997951E+01 -2.585345E+01
       vertex -1.246676E+01 6.3803059E+01 -2.638172E+01
       vertex -1.247604E+01 6.4708214E+01 -2.717603E+01
    endloop
endfacet
facet normal  0.94598402383 0.22837302605 0.23013037095
    outer loop
       vertex -1.247604E+01 6.4708214E+01 -2.717603E+01
       vertex -1.208747E+01 6.3584801E+01 -2.765846E+01
       vertex -1.198713E+01 6.4121091E+01 -2.860311E+01
    endloop
endfacet
facet normal  0.94071658769 0.22069696762 0.25757552316
    outer loop
       vertex -1.292649E+01 6.5941752E+01 -2.658782E+01
       vertex -1.290614E+01 6.4997951E+01 -2.585345E+01
       vertex -1.247604E+01 6.4708214E+01 -2.717603E+01
    endloop
endfacet
facet normal  0.94226938569 0.22176859834 0.2508925937 
    outer loop
       vertex -1.293611E+01 6.6806414E+01 -2.731596E+01
       vertex -1.292649E+01 6.5941752E+01 -2.658782E+01
       vertex -1.248223E+01 6.5516116E+01 -2.788007E+01
    endloop
endfacet
facet normal  0.9441574317  0.22821630573 0.23766375822
    outer loop
       vertex -1.256446E+01 6.6527842E+01 -2.852491E+01
       vertex -1.293611E+01 6.6806414E+01 -2.731596E+01
       vertex -1.248223E+01 6.5516116E+01 -2.788007E+01
    endloop
endfacet
facet normal  0.94081415021 0.24100782218 0.23829386146
    outer loop
       vertex -1.246676E+01 6.3803059E+01 -2.638172E+01
       vertex -1.199225E+01 6.2702713E+01 -2.714224E+01
       vertex -1.208747E+01 6.3584801E+01 -2.765846E+01
    endloop
endfacet
facet normal  0.9460249099  0.23359119379 0.22465979622
    outer loop
       vertex -1.162397E+01 6.2661657E+01 -2.865036E+01
       vertex -1.208747E+01 6.3584801E+01 -2.765846E+01
       vertex -1.199225E+01 6.2702713E+01 -2.714224E+01
    endloop
endfacet
facet normal  0.94939265423 0.22154868984 0.22264268709
    outer loop
       vertex -1.198713E+01 6.4121091E+01 -2.860311E+01
       vertex -1.216554E+01 6.5323336E+01 -2.903866E+01
       vertex -1.248223E+01 6.5516116E+01 -2.788007E+01
    endloop
endfacet
facet normal  0.94184723692 0.22484973375 0.24973261607
    outer loop
       vertex -1.292649E+01 6.5941752E+01 -2.658782E+01
       vertex -1.247604E+01 6.4708214E+01 -2.717603E+01
       vertex -1.248223E+01 6.5516116E+01 -2.788007E+01
    endloop
endfacet
facet normal  0.94777759755 0.21363306395 0.23680907829
    outer loop
       vertex -1.198713E+01 6.4121091E+01 -2.860311E+01
       vertex -1.248223E+01 6.5516116E+01 -2.788007E+01
       vertex -1.247604E+01 6.4708214E+01 -2.717603E+01
    endloop
endfacet
facet normal  0.93616550582 0.2492032595  0.24797556564
    outer loop
       vertex -1.330545E+01 6.5211157E+01 -2.463992E+01
       vertex -1.317984E+01 6.4033847E+01 -2.393096E+01
       vertex -1.282206E+01 6.3858678E+01 -2.510566E+01
    endloop
endfacet
facet normal  0.93059900011 0.27413292946 0.24256264753
    outer loop
       vertex -1.259459E+01 6.2501986E+01 -2.444507E+01
       vertex -1.282206E+01 6.3858678E+01 -2.510566E+01
       vertex -1.317984E+01 6.4033847E+01 -2.393096E+01
    endloop
endfacet
facet normal  0.88985368397 0.44978044863 0.07653737102
    outer loop
       vertex -9.648509E+00 5.7728062E+01 -3.022548E+01
       vertex -9.162316E+00 5.6773022E+01 -3.026576E+01
       vertex -9.445708E+00 5.7466189E+01 -3.104441E+01
    endloop
endfacet
facet normal  0.89379312818 0.4431134804  0.06916854419
    outer loop
       vertex -9.445708E+00 5.7466189E+01 -3.104441E+01
       vertex -9.162316E+00 5.6773022E+01 -3.026576E+01
       vertex -9.012681E+00 5.6618837E+01 -3.121158E+01
    endloop
endfacet
facet normal  0.91725355056 0.38685030559 0.09483019062
    outer loop
       vertex -1.005988E+01 5.8714073E+01 -3.026879E+01
       vertex -9.648509E+00 5.7728062E+01 -3.022548E+01
       vertex -9.846667E+00 5.8448920E+01 -3.124946E+01
    endloop
endfacet
facet normal  0.91372376488 0.39374523647 0.1003671772 
    outer loop
       vertex -9.846667E+00 5.8448920E+01 -3.124946E+01
       vertex -9.648509E+00 5.7728062E+01 -3.022548E+01
       vertex -9.445708E+00 5.7466189E+01 -3.104441E+01
    endloop
endfacet
facet normal  0.92874238252 0.27012871569 0.25390562   
    outer loop
       vertex -1.407170E+01 6.6462084E+01 -2.306703E+01
       vertex -1.383503E+01 6.6597644E+01 -2.407694E+01
       vertex -1.443629E+01 6.7976600E+01 -2.334469E+01
    endloop
endfacet
facet normal  0.9334905504  0.26833545615 0.23788962834
    outer loop
       vertex -1.446920E+01 6.7181862E+01 -2.231911E+01
       vertex -1.407170E+01 6.6462084E+01 -2.306703E+01
       vertex -1.443629E+01 6.7976600E+01 -2.334469E+01
    endloop
endfacet
facet normal  0.92185294482 0.29145060802 0.25542844636
    outer loop
       vertex -1.504014E+01 6.8950294E+01 -2.227640E+01
       vertex -1.446920E+01 6.7181862E+01 -2.231911E+01
       vertex -1.443629E+01 6.7976600E+01 -2.334469E+01
    endloop
endfacet
facet normal  0.92496546453 0.25245521127 0.28408670459
    outer loop
       vertex -1.443629E+01 6.7976600E+01 -2.334469E+01
       vertex -1.383503E+01 6.6597644E+01 -2.407694E+01
       vertex -1.391454E+01 6.7567680E+01 -2.468008E+01
    endloop
endfacet
facet normal  0.92211305517 0.26931186342 0.27781042764
    outer loop
       vertex -1.443629E+01 6.7976600E+01 -2.334469E+01
       vertex -1.391454E+01 6.7567680E+01 -2.468008E+01
       vertex -1.428707E+01 6.8562455E+01 -2.440793E+01
    endloop
endfacet
facet normal  0.91782085476 0.27892116985 0.2825028488 
    outer loop
       vertex -1.503865E+01 6.9619668E+01 -2.300994E+01
       vertex -1.443629E+01 6.7976600E+01 -2.334469E+01
       vertex -1.428707E+01 6.8562455E+01 -2.440793E+01
    endloop
endfacet
facet normal  0.92218158547 0.28475463126 0.2617172585 
    outer loop
       vertex -1.503865E+01 6.9619668E+01 -2.300994E+01
       vertex -1.504014E+01 6.8950294E+01 -2.227640E+01
       vertex -1.443629E+01 6.7976600E+01 -2.334469E+01
    endloop
endfacet
endsolid
