solid S192803_LCL_Region_Fem
facet normal  0.85093330899 0.49304281664 0.18116645556
    outer loop
       vertex 3.7907450E+01 6.6082220E+01 -1.440770E+01
       vertex 3.8346090E+01 6.5696160E+01 -1.541732E+01
       vertex 3.7765150E+01 6.6653480E+01 -1.529400E+01
    endloop
endfacet
facet normal  0.84644313619 0.50272115506 0.17551483542
    outer loop
       vertex 3.7907450E+01 6.6082220E+01 -1.440770E+01
       vertex 3.8344950E+01 6.5374960E+01 -1.449182E+01
       vertex 3.8346090E+01 6.5696160E+01 -1.541732E+01
    endloop
endfacet
facet normal  0.85829304829 0.4682277795  0.20998997538
    outer loop
       vertex 3.8748500E+01 6.4848060E+01 -1.496639E+01
       vertex 3.8344950E+01 6.5374960E+01 -1.449182E+01
       vertex 3.8567470E+01 6.4776050E+01 -1.406590E+01
    endloop
endfacet
facet normal  0.85098621967 0.49583132906 0.17312927843
    outer loop
       vertex 3.8748500E+01 6.4848060E+01 -1.496639E+01
       vertex 3.8346090E+01 6.5696160E+01 -1.541732E+01
       vertex 3.8344950E+01 6.5374960E+01 -1.449182E+01
    endloop
endfacet
facet normal  0.86478674035 0.48311701228 0.13690086251
    outer loop
       vertex 3.8878940E+01 6.4889530E+01 -1.593671E+01
       vertex 3.8346090E+01 6.5696160E+01 -1.541732E+01
       vertex 3.8748500E+01 6.4848060E+01 -1.496639E+01
    endloop
endfacet
facet normal  0.85835948997 0.50346373772 0.09870790633
    outer loop
       vertex 3.8878940E+01 6.4889530E+01 -1.593671E+01
       vertex 3.8496620E+01 6.5664610E+01 -1.656540E+01
       vertex 3.8346090E+01 6.5696160E+01 -1.541732E+01
    endloop
endfacet
facet normal  0.86789189595 0.49071804434 0.07719752525
    outer loop
       vertex 3.8966070E+01 6.4899210E+01 -1.697780E+01
       vertex 3.8496620E+01 6.5664610E+01 -1.656540E+01
       vertex 3.8878940E+01 6.4889530E+01 -1.593671E+01
    endloop
endfacet
facet normal  0.86261777882 0.50365013062 0.04719230429
    outer loop
       vertex 3.8966070E+01 6.4899210E+01 -1.697780E+01
       vertex 3.8545960E+01 6.5674970E+01 -1.757784E+01
       vertex 3.8496620E+01 6.5664610E+01 -1.656540E+01
    endloop
endfacet
facet normal  0.86504734268 0.49945855544 0.0472678149 
    outer loop
       vertex 3.8081250E+01 6.6449650E+01 -1.725890E+01
       vertex 3.8496620E+01 6.5664610E+01 -1.656540E+01
       vertex 3.8545960E+01 6.5674970E+01 -1.757784E+01
    endloop
endfacet
facet normal  0.86076001691 0.50580695622 0.05702206876
    outer loop
       vertex 3.8081250E+01 6.6449650E+01 -1.725890E+01
       vertex 3.8001310E+01 6.6476720E+01 -1.629231E+01
       vertex 3.8496620E+01 6.5664610E+01 -1.656540E+01
    endloop
endfacet
facet normal  0.85752146542 0.51132515239 0.0565996897 
    outer loop
       vertex 3.7655350E+01 6.7133890E+01 -1.698771E+01
       vertex 3.8001310E+01 6.6476720E+01 -1.629231E+01
       vertex 3.8081250E+01 6.6449650E+01 -1.725890E+01
    endloop
endfacet
facet normal  0.85221714157 0.51895172171 0.06644587382
    outer loop
       vertex 3.7655350E+01 6.7133890E+01 -1.698771E+01
       vertex 3.7469130E+01 6.7332890E+01 -1.615352E+01
       vertex 3.8001310E+01 6.6476720E+01 -1.629231E+01
    endloop
endfacet
facet normal  0.85202054932 0.51161221321 0.11096813427
    outer loop
       vertex 3.7469130E+01 6.7332890E+01 -1.615352E+01
       vertex 3.7765150E+01 6.6653480E+01 -1.529400E+01
       vertex 3.8001310E+01 6.6476720E+01 -1.629231E+01
    endloop
endfacet
facet normal  0.83896360591 0.52868619414 0.12896114173
    outer loop
       vertex 3.7469130E+01 6.7332890E+01 -1.615352E+01
       vertex 3.7196330E+01 6.7517520E+01 -1.513571E+01
       vertex 3.7765150E+01 6.6653480E+01 -1.529400E+01
    endloop
endfacet
facet normal  0.9427114963  0.27613512182 -0.1872015738
    outer loop
       vertex 4.0019520E+01 6.1201030E+01 -2.297730E+01
       vertex 4.0338190E+01 6.0726190E+01 -2.207296E+01
       vertex 4.0283020E+01 6.0270920E+01 -2.302234E+01
    endloop
endfacet
facet normal  0.93703406915 0.30506226857 -0.1700122512
    outer loop
       vertex 4.0019520E+01 6.1201030E+01 -2.297730E+01
       vertex 4.0005730E+01 6.1732700E+01 -2.209930E+01
       vertex 4.0338190E+01 6.0726190E+01 -2.207296E+01
    endloop
endfacet
facet normal  0.94620152623 0.24357130378 -0.2130157077
    outer loop
       vertex 4.0559570E+01 5.9303660E+01 -2.289993E+01
       vertex 4.0283020E+01 6.0270920E+01 -2.302234E+01
       vertex 4.0687760E+01 5.9669510E+01 -2.191219E+01
    endloop
endfacet
facet normal  0.94036308148 0.28218728986 -0.1899673878
    outer loop
       vertex 4.0687760E+01 5.9669510E+01 -2.191219E+01
       vertex 4.0283020E+01 6.0270920E+01 -2.302234E+01
       vertex 4.0338190E+01 6.0726190E+01 -2.207296E+01
    endloop
endfacet
facet normal  0.9398879581  0.2815278687  -0.1932684283
    outer loop
       vertex 4.0687760E+01 5.9669510E+01 -2.191219E+01
       vertex 4.0338190E+01 6.0726190E+01 -2.207296E+01
       vertex 4.0631480E+01 6.0453070E+01 -2.104450E+01
    endloop
endfacet
facet normal  0.93543743186 0.31300249898 -0.164274912 
    outer loop
       vertex 4.0559640E+01 6.1155490E+01 -2.011522E+01
       vertex 4.0631480E+01 6.0453070E+01 -2.104450E+01
       vertex 4.0284730E+01 6.1444670E+01 -2.112966E+01
    endloop
endfacet
facet normal  0.92514610579 0.34807472627 -0.1514881773
    outer loop
       vertex 4.0559640E+01 6.1155490E+01 -2.011522E+01
       vertex 4.0284730E+01 6.1444670E+01 -2.112966E+01
       vertex 4.0152150E+01 6.2211990E+01 -2.017626E+01
    endloop
endfacet
facet normal  0.9264415086  0.34556930591 -0.1492916138
    outer loop
       vertex 3.9889490E+01 6.2467540E+01 -2.121469E+01
       vertex 4.0152150E+01 6.2211990E+01 -2.017626E+01
       vertex 4.0284730E+01 6.1444670E+01 -2.112966E+01
    endloop
endfacet
facet normal  0.92721877465 0.34991248991 -0.1335162662
    outer loop
       vertex 4.0152150E+01 6.2211990E+01 -2.017626E+01
       vertex 4.0476900E+01 6.1746740E+01 -1.914030E+01
       vertex 4.0559640E+01 6.1155490E+01 -2.011522E+01
    endloop
endfacet
facet normal  0.91637051015 0.383440644   -0.1150580752
    outer loop
       vertex 4.0152150E+01 6.2211990E+01 -2.017626E+01
       vertex 4.0015820E+01 6.2826810E+01 -1.921311E+01
       vertex 4.0476900E+01 6.1746740E+01 -1.914030E+01
    endloop
endfacet
facet normal  0.90231305983 0.4282075559  -0.0496933711
    outer loop
       vertex 4.0015820E+01 6.2826810E+01 -1.921311E+01
       vertex 3.9778980E+01 6.3430460E+01 -1.831191E+01
       vertex 4.0291980E+01 6.2361350E+01 -1.820957E+01
    endloop
endfacet
facet normal  0.9011386395  0.43045998026 -0.0515107542
    outer loop
       vertex 3.9570160E+01 6.3752510E+01 -1.927377E+01
       vertex 3.9778980E+01 6.3430460E+01 -1.831191E+01
       vertex 4.0015820E+01 6.2826810E+01 -1.921311E+01
    endloop
endfacet
facet normal  0.90612203952 0.41812422626 0.06414811698
    outer loop
       vertex 3.9828130E+01 6.3187400E+01 -1.634568E+01
       vertex 4.0284420E+01 6.2206850E+01 -1.639966E+01
       vertex 4.0003530E+01 6.2955890E+01 -1.731428E+01
    endloop
endfacet
facet normal  0.91418463493 0.34860283896 0.20674262726
    outer loop
       vertex 4.0062810E+01 6.2382410E+01 -1.542506E+01
       vertex 4.0156300E+01 6.1663390E+01 -1.462607E+01
       vertex 4.0418270E+01 6.1439900E+01 -1.540762E+01
    endloop
endfacet
facet normal  0.91353901778 0.34967506863 0.20778308248
    outer loop
       vertex 4.0062810E+01 6.2382410E+01 -1.542506E+01
       vertex 3.9794780E+01 6.2491170E+01 -1.442967E+01
       vertex 4.0156300E+01 6.1663390E+01 -1.462607E+01
    endloop
endfacet
facet normal  0.90423260386 0.33084752781 0.27000613227
    outer loop
       vertex 3.9794780E+01 6.2491170E+01 -1.442967E+01
       vertex 3.9918790E+01 6.1437570E+01 -1.355396E+01
       vertex 4.0156300E+01 6.1663390E+01 -1.462607E+01
    endloop
endfacet
facet normal  0.89462099147 0.34315637845 0.28617648672
    outer loop
       vertex 3.9794780E+01 6.2491170E+01 -1.442967E+01
       vertex 3.9335550E+01 6.2739460E+01 -1.329179E+01
       vertex 3.9918790E+01 6.1437570E+01 -1.355396E+01
    endloop
endfacet
facet normal  0.89620938464 0.29759593352 0.3290066857 
    outer loop
       vertex 3.9918790E+01 6.1437570E+01 -1.355396E+01
       vertex 3.9390910E+01 6.1775290E+01 -1.242150E+01
       vertex 3.9752040E+01 6.0601880E+01 -1.234383E+01
    endloop
endfacet
facet normal  0.96844402402 -0.0343815631 0.24684829443
    outer loop
       vertex 4.1983390E+01 5.1893380E+01 -1.439859E+01
       vertex 4.1711670E+01 5.1144170E+01 -1.343692E+01
       vertex 4.1949250E+01 5.0923340E+01 -1.439976E+01
    endloop
endfacet
facet normal  0.96663024946 -0.0230897376 0.25513295524
    outer loop
       vertex 4.1983390E+01 5.1893380E+01 -1.439859E+01
       vertex 4.1735860E+01 5.2118630E+01 -1.344038E+01
       vertex 4.1711670E+01 5.1144170E+01 -1.343692E+01
    endloop
endfacet
facet normal  0.96863910862 0.00800222012 0.24834299211
    outer loop
       vertex 4.1975170E+01 5.2869760E+01 -1.439799E+01
       vertex 4.1735860E+01 5.2118630E+01 -1.344038E+01
       vertex 4.1983390E+01 5.1893380E+01 -1.439859E+01
    endloop
endfacet
facet normal  0.96607402726 0.02043685895 0.25745544984
    outer loop
       vertex 4.1975170E+01 5.2869760E+01 -1.439799E+01
       vertex 4.1712060E+01 5.3115440E+01 -1.343020E+01
       vertex 4.1735860E+01 5.2118630E+01 -1.344038E+01
    endloop
endfacet
facet normal  0.96690525144 0.0497838904  0.25023149083
    outer loop
       vertex 4.1911920E+01 5.3862720E+01 -1.435114E+01
       vertex 4.1712060E+01 5.3115440E+01 -1.343020E+01
       vertex 4.1975170E+01 5.2869760E+01 -1.439799E+01
    endloop
endfacet
facet normal  0.96236072304 0.0671616051  0.26334607941
    outer loop
       vertex 4.1911920E+01 5.3862720E+01 -1.435114E+01
       vertex 4.1632340E+01 5.4208580E+01 -1.341766E+01
       vertex 4.1712060E+01 5.3115440E+01 -1.343020E+01
    endloop
endfacet
facet normal  0.96274191293 0.09827763623 0.2519315687 
    outer loop
       vertex 4.1792120E+01 5.4766570E+01 -1.424592E+01
       vertex 4.1632340E+01 5.4208580E+01 -1.341766E+01
       vertex 4.1911920E+01 5.3862720E+01 -1.435114E+01
    endloop
endfacet
facet normal  0.955929931   0.14006101526 0.25803270919
    outer loop
       vertex 4.1451620E+01 5.5576560E+01 -1.342414E+01
       vertex 4.1792120E+01 5.4766570E+01 -1.424592E+01
       vertex 4.1787430E+01 5.5571530E+01 -1.466548E+01
    endloop
endfacet
facet normal  0.95442148986 0.12736454209 0.26992201301
    outer loop
       vertex 4.1451620E+01 5.5576560E+01 -1.342414E+01
       vertex 4.1632340E+01 5.4208580E+01 -1.341766E+01
       vertex 4.1792120E+01 5.4766570E+01 -1.424592E+01
    endloop
endfacet
facet normal  0.95281689781 0.1613609647  0.25710425572
    outer loop
       vertex 4.1566370E+01 5.6543040E+01 -1.445597E+01
       vertex 4.1451620E+01 5.5576560E+01 -1.342414E+01
       vertex 4.1787430E+01 5.5571530E+01 -1.466548E+01
    endloop
endfacet
facet normal  0.95928253128 0.16956427658 0.22588709856
    outer loop
       vertex 4.1566370E+01 5.6543040E+01 -1.445597E+01
       vertex 4.1787430E+01 5.5571530E+01 -1.466548E+01
       vertex 4.1838920E+01 5.6258720E+01 -1.539999E+01
    endloop
endfacet
facet normal  0.96962094806 0.14099861718 0.19988648536
    outer loop
       vertex 4.1838920E+01 5.6258720E+01 -1.539999E+01
       vertex 4.1787430E+01 5.5571530E+01 -1.466548E+01
       vertex 4.1968990E+01 5.5441600E+01 -1.545455E+01
    endloop
endfacet
facet normal  0.95632565476 0.19563659366 0.21718095051
    outer loop
       vertex 4.1639740E+01 5.7235020E+01 -1.540238E+01
       vertex 4.1566370E+01 5.6543040E+01 -1.445597E+01
       vertex 4.1838920E+01 5.6258720E+01 -1.539999E+01
    endloop
endfacet
facet normal  0.97420287003 0.17256130738 0.14543508251
    outer loop
       vertex 4.1639740E+01 5.7235020E+01 -1.540238E+01
       vertex 4.1879670E+01 5.6624510E+01 -1.628518E+01
       vertex 4.1726450E+01 5.7584850E+01 -1.639829E+01
    endloop
endfacet
facet normal  0.97184719356 0.19858196861 0.12679997677
    outer loop
       vertex 4.1639740E+01 5.7235020E+01 -1.540238E+01
       vertex 4.1838920E+01 5.6258720E+01 -1.539999E+01
       vertex 4.1879670E+01 5.6624510E+01 -1.628518E+01
    endloop
endfacet
facet normal  0.95929279917 0.23185938104 0.16124066759
    outer loop
       vertex 4.1591220E+01 5.8440920E+01 -1.682475E+01
       vertex 4.1387830E+01 5.8390250E+01 -1.554183E+01
       vertex 4.1726450E+01 5.7584850E+01 -1.639829E+01
    endloop
endfacet
facet normal  0.98189057607 0.18174494444 0.05347589922
    outer loop
       vertex 4.1591220E+01 5.8440920E+01 -1.682475E+01
       vertex 4.1726450E+01 5.7584850E+01 -1.639829E+01
       vertex 4.1744850E+01 5.7743670E+01 -1.727591E+01
    endloop
endfacet
facet normal  0.97080213296 0.2348768774  -0.0487449598
    outer loop
       vertex 4.1459430E+01 5.8926810E+01 -1.848426E+01
       vertex 4.1462170E+01 5.9122440E+01 -1.748705E+01
       vertex 4.1642090E+01 5.8301060E+01 -1.786158E+01
    endloop
endfacet
facet normal  0.97853655756 0.20506622717 0.02034816908
    outer loop
       vertex 4.1642090E+01 5.8301060E+01 -1.786158E+01
       vertex 4.1462170E+01 5.9122440E+01 -1.748705E+01
       vertex 4.1591220E+01 5.8440920E+01 -1.682475E+01
    endloop
endfacet
facet normal  0.98034315677 0.18612405029 -0.0654609263
    outer loop
       vertex 4.1626170E+01 5.8062950E+01 -1.875249E+01
       vertex 4.1781110E+01 5.7490780E+01 -1.805895E+01
       vertex 4.1769780E+01 5.7291960E+01 -1.879393E+01
    endloop
endfacet
facet normal  0.98055464582 0.18451422186 -0.0668362812
    outer loop
       vertex 4.1626170E+01 5.8062950E+01 -1.875249E+01
       vertex 4.1642090E+01 5.8301060E+01 -1.786158E+01
       vertex 4.1781110E+01 5.7490780E+01 -1.805895E+01
    endloop
endfacet
facet normal  0.9746827525  0.21105330444 -0.0738243501
    outer loop
       vertex 4.1626170E+01 5.8062950E+01 -1.875249E+01
       vertex 4.1459430E+01 5.8926810E+01 -1.848426E+01
       vertex 4.1642090E+01 5.8301060E+01 -1.786158E+01
    endloop
endfacet
facet normal  0.985431624   0.16458320227 -0.0428588841
    outer loop
       vertex 4.1769780E+01 5.7291960E+01 -1.879393E+01
       vertex 4.1910230E+01 5.6620790E+01 -1.814201E+01
       vertex 4.1876120E+01 5.6583430E+01 -1.906975E+01
    endloop
endfacet
facet normal  0.98680276019 0.15183036106 -0.0562836916
    outer loop
       vertex 4.1769780E+01 5.7291960E+01 -1.879393E+01
       vertex 4.1781110E+01 5.7490780E+01 -1.805895E+01
       vertex 4.1910230E+01 5.6620790E+01 -1.814201E+01
    endloop
endfacet
facet normal  0.98824417008 0.15044785352 -0.0271827827
    outer loop
       vertex 4.1876120E+01 5.6583430E+01 -1.906975E+01
       vertex 4.2050030E+01 5.5576110E+01 -1.832235E+01
       vertex 4.1986450E+01 5.5813140E+01 -1.932195E+01
    endloop
endfacet
facet normal  0.98931128594 0.13964034077 -0.0419970801
    outer loop
       vertex 4.1876120E+01 5.6583430E+01 -1.906975E+01
       vertex 4.1910230E+01 5.6620790E+01 -1.814201E+01
       vertex 4.2050030E+01 5.5576110E+01 -1.832235E+01
    endloop
endfacet
facet normal  0.98801628879 0.15200535694 -0.0267989655
    outer loop
       vertex 4.2050030E+01 5.5576110E+01 -1.832235E+01
       vertex 4.2123410E+01 5.4939840E+01 -1.922596E+01
       vertex 4.1986450E+01 5.5813140E+01 -1.932195E+01
    endloop
endfacet
facet normal  0.99339887793 0.11471119837 -1.014647E-04
    outer loop
       vertex 4.2123410E+01 5.4939840E+01 -1.922596E+01
       vertex 4.2050030E+01 5.5576110E+01 -1.832235E+01
       vertex 4.2185760E+01 5.4400760E+01 -1.824131E+01
    endloop
endfacet
facet normal  0.99695736365 0.07748247128 -0.0085136185
    outer loop
       vertex 4.2267130E+01 5.3354580E+01 -1.823405E+01
       vertex 4.2221860E+01 5.3817180E+01 -1.932511E+01
       vertex 4.2185760E+01 5.4400760E+01 -1.824131E+01
    endloop
endfacet
facet normal  0.9959589529  0.0886237999  -0.0145460038
    outer loop
       vertex 4.2123410E+01 5.4939840E+01 -1.922596E+01
       vertex 4.2185760E+01 5.4400760E+01 -1.824131E+01
       vertex 4.2221860E+01 5.3817180E+01 -1.932511E+01
    endloop
endfacet
facet normal  0.99886812162 0.04687488172 -0.0080759563
    outer loop
       vertex 4.2314330E+01 5.2351220E+01 -1.821991E+01
       vertex 4.2289040E+01 5.2722190E+01 -1.919468E+01
       vertex 4.2267130E+01 5.3354580E+01 -1.823405E+01
    endloop
endfacet
facet normal  0.99810770996 0.05929788394 -0.0162714561
    outer loop
       vertex 4.2221860E+01 5.3817180E+01 -1.932511E+01
       vertex 4.2267130E+01 5.3354580E+01 -1.823405E+01
       vertex 4.2289040E+01 5.2722190E+01 -1.919468E+01
    endloop
endfacet
facet normal  0.99964740409 0.0070844508  -0.0255905853
    outer loop
       vertex 4.2322100E+01 5.1366420E+01 -1.818902E+01
       vertex 4.2293250E+01 5.1700840E+01 -1.922341E+01
       vertex 4.2314330E+01 5.2351220E+01 -1.821991E+01
    endloop
endfacet
facet normal  0.99969778383 0.00479896139 -0.0241103914
    outer loop
       vertex 4.2289040E+01 5.2722190E+01 -1.919468E+01
       vertex 4.2314330E+01 5.2351220E+01 -1.821991E+01
       vertex 4.2293250E+01 5.1700840E+01 -1.922341E+01
    endloop
endfacet
facet normal  0.99926915012 -0.0282600884 -0.0257397169
    outer loop
       vertex 4.2302150E+01 5.0514680E+01 -1.802838E+01
       vertex 4.2276410E+01 5.0564210E+01 -1.908204E+01
       vertex 4.2322100E+01 5.1366420E+01 -1.818902E+01
    endloop
endfacet
facet normal  0.99923970234 -0.0190362573 -0.0340240824
    outer loop
       vertex 4.2293250E+01 5.1700840E+01 -1.922341E+01
       vertex 4.2322100E+01 5.1366420E+01 -1.818902E+01
       vertex 4.2276410E+01 5.0564210E+01 -1.908204E+01
    endloop
endfacet
facet normal  0.99874893673 -0.042471892  -0.0263950709
    outer loop
       vertex 4.2276410E+01 5.0564210E+01 -1.908204E+01
       vertex 4.2302150E+01 5.0514680E+01 -1.802838E+01
       vertex 4.2263640E+01 4.9708750E+01 -1.818873E+01
    endloop
endfacet
facet normal  0.98453538521 -0.0436816196 -0.1696525608
    outer loop
       vertex 4.2153780E+01 4.9780270E+01 -2.011500E+01
       vertex 4.1980090E+01 4.9832680E+01 -2.113646E+01
       vertex 4.2153140E+01 5.0903850E+01 -2.040801E+01
    endloop
endfacet
facet normal  0.98236901014 -0.0158164747 -0.1862819558
    outer loop
       vertex 4.2018400E+01 5.1765750E+01 -2.119175E+01
       vertex 4.2218650E+01 5.2074330E+01 -2.016192E+01
       vertex 4.2153140E+01 5.0903850E+01 -2.040801E+01
    endloop
endfacet
facet normal  0.98210665276 -0.0096520048 -0.1880780726
    outer loop
       vertex 4.2094390E+01 5.2766640E+01 -2.084631E+01
       vertex 4.2218650E+01 5.2074330E+01 -2.016192E+01
       vertex 4.2018400E+01 5.1765750E+01 -2.119175E+01
    endloop
endfacet
facet normal  0.98762759351 0.0240804722  -0.154957631 
    outer loop
       vertex 4.2094390E+01 5.2766640E+01 -2.084631E+01
       vertex 4.2222370E+01 5.2962040E+01 -2.000026E+01
       vertex 4.2218650E+01 5.2074330E+01 -2.016192E+01
    endloop
endfacet
facet normal  0.97009674388 0.06684263203 -0.233333174 
    outer loop
       vertex 4.1915760E+01 5.3627380E+01 -2.134240E+01
       vertex 4.2134910E+01 5.3726730E+01 -2.040281E+01
       vertex 4.2094390E+01 5.2766640E+01 -2.084631E+01
    endloop
endfacet
facet normal  0.98722070462 0.03058048514 -0.1563972963
    outer loop
       vertex 4.2094390E+01 5.2766640E+01 -2.084631E+01
       vertex 4.2134910E+01 5.3726730E+01 -2.040281E+01
       vertex 4.2222370E+01 5.2962040E+01 -2.000026E+01
    endloop
endfacet
facet normal  0.9684550441  0.0836524727  -0.2347276962
    outer loop
       vertex 4.1907620E+01 5.4570120E+01 -2.104001E+01
       vertex 4.2134910E+01 5.3726730E+01 -2.040281E+01
       vertex 4.1915760E+01 5.3627380E+01 -2.134240E+01
    endloop
endfacet
facet normal  0.97306932832 0.10863262956 -0.2033101918
    outer loop
       vertex 4.1907620E+01 5.4570120E+01 -2.104001E+01
       vertex 4.2087860E+01 5.4669120E+01 -2.012446E+01
       vertex 4.2134910E+01 5.3726730E+01 -2.040281E+01
    endloop
endfacet
facet normal  0.9691231433  0.13624352771 -0.205518939 
    outer loop
       vertex 4.1850370E+01 5.5356110E+01 -2.078892E+01
       vertex 4.2087860E+01 5.4669120E+01 -2.012446E+01
       vertex 4.1907620E+01 5.4570120E+01 -2.104001E+01
    endloop
endfacet
facet normal  0.97029885924 0.15959837321 -0.1817924174
    outer loop
       vertex 4.1850370E+01 5.5356110E+01 -2.078892E+01
       vertex 4.1945660E+01 5.5598490E+01 -2.006753E+01
       vertex 4.2087860E+01 5.4669120E+01 -2.012446E+01
    endloop
endfacet
facet normal  0.96507776759 0.18183656234 -0.1885745664
    outer loop
       vertex 4.1651620E+01 5.6246840E+01 -2.094717E+01
       vertex 4.1945660E+01 5.5598490E+01 -2.006753E+01
       vertex 4.1850370E+01 5.5356110E+01 -2.078892E+01
    endloop
endfacet
facet normal  0.96458952743 0.19175110605 -0.1811037186
    outer loop
       vertex 4.1651620E+01 5.6246840E+01 -2.094717E+01
       vertex 4.1762340E+01 5.6567400E+01 -2.001805E+01
       vertex 4.1945660E+01 5.5598490E+01 -2.006753E+01
    endloop
endfacet
facet normal  0.96482170948 0.19084861005 -0.1808200126
    outer loop
       vertex 4.1399560E+01 5.7509240E+01 -2.095970E+01
       vertex 4.1762340E+01 5.6567400E+01 -2.001805E+01
       vertex 4.1651620E+01 5.6246840E+01 -2.094717E+01
    endloop
endfacet
facet normal  0.96422737271 0.21104940134 -0.1603861712
    outer loop
       vertex 4.1399560E+01 5.7509240E+01 -2.095970E+01
       vertex 4.1589840E+01 5.7626700E+01 -1.966119E+01
       vertex 4.1762340E+01 5.6567400E+01 -2.001805E+01
    endloop
endfacet
facet normal  0.95672052672 0.21002864202 -0.2014294002
    outer loop
       vertex 4.1399560E+01 5.7509240E+01 -2.095970E+01
       vertex 4.1071700E+01 5.7940770E+01 -2.206697E+01
       vertex 4.1053360E+01 5.8678130E+01 -2.138524E+01
    endloop
endfacet
facet normal  0.95344289856 0.21717197401 -0.209243812 
    outer loop
       vertex 4.1053360E+01 5.8678130E+01 -2.138524E+01
       vertex 4.1071700E+01 5.7940770E+01 -2.206697E+01
       vertex 4.0852530E+01 5.8792790E+01 -2.218134E+01
    endloop
endfacet
facet normal  0.95917612383 0.18905723613 -0.2103295627
    outer loop
       vertex 4.1297820E+01 5.6750180E+01 -2.210596E+01
       vertex 4.1071700E+01 5.7940770E+01 -2.206697E+01
       vertex 4.1399560E+01 5.7509240E+01 -2.095970E+01
    endloop
endfacet
facet normal  0.9540872393  0.18881744198 -0.2325199204
    outer loop
       vertex 4.1297820E+01 5.6750180E+01 -2.210596E+01
       vertex 4.0917670E+01 5.7653390E+01 -2.293236E+01
       vertex 4.1071700E+01 5.7940770E+01 -2.206697E+01
    endloop
endfacet
facet normal  0.95177792108 0.16251027012 -0.2602099173
    outer loop
       vertex 4.1297820E+01 5.6750180E+01 -2.210596E+01
       vertex 4.0991940E+01 5.6697880E+01 -2.325745E+01
       vertex 4.0917670E+01 5.7653390E+01 -2.293236E+01
    endloop
endfacet
facet normal  0.95261412721 0.15754045759 -0.2602063198
    outer loop
       vertex 4.1297820E+01 5.6750180E+01 -2.210596E+01
       vertex 4.1262690E+01 5.5868680E+01 -2.276827E+01
       vertex 4.0991940E+01 5.6697880E+01 -2.325745E+01
    endloop
endfacet
facet normal  0.94581997674 0.22461860656 -0.234459065 
    outer loop
       vertex 4.0568870E+01 5.8583320E+01 -2.355252E+01
       vertex 4.0559570E+01 5.9303660E+01 -2.289993E+01
       vertex 4.0800860E+01 5.8457510E+01 -2.273719E+01
    endloop
endfacet
facet normal  0.95363479193 0.20873678062 -0.2168170658
    outer loop
       vertex 4.0568870E+01 5.8583320E+01 -2.355252E+01
       vertex 4.0240140E+01 5.9666140E+01 -2.395592E+01
       vertex 4.0559570E+01 5.9303660E+01 -2.289993E+01
    endloop
endfacet
facet normal  0.94756819988 0.22694202775 -0.224970715 
    outer loop
       vertex 4.0559570E+01 5.9303660E+01 -2.289993E+01
       vertex 4.0852530E+01 5.8792790E+01 -2.218134E+01
       vertex 4.0800860E+01 5.8457510E+01 -2.273719E+01
    endloop
endfacet
facet normal  0.94632124458 0.24320951249 -0.2128972406
    outer loop
       vertex 4.0559570E+01 5.9303660E+01 -2.289993E+01
       vertex 4.0687760E+01 5.9669510E+01 -2.191219E+01
       vertex 4.0852530E+01 5.8792790E+01 -2.218134E+01
    endloop
endfacet
facet normal  0.95014953621 0.19315895242 -0.2447559559
    outer loop
       vertex 4.0568870E+01 5.8583320E+01 -2.355252E+01
       vertex 4.0917670E+01 5.7653390E+01 -2.293236E+01
       vertex 4.0661790E+01 5.7634020E+01 -2.394098E+01
    endloop
endfacet
facet normal  0.95065186085 0.19639281489 -0.2401893039
    outer loop
       vertex 4.0568870E+01 5.8583320E+01 -2.355252E+01
       vertex 4.0800860E+01 5.8457510E+01 -2.273719E+01
       vertex 4.0917670E+01 5.7653390E+01 -2.293236E+01
    endloop
endfacet
facet normal  0.95812096338 0.11605151786 -0.2617943176
    outer loop
       vertex 4.1653680E+01 5.4387770E+01 -2.202133E+01
       vertex 4.1349660E+01 5.4963190E+01 -2.287891E+01
       vertex 4.1583680E+01 5.5460690E+01 -2.180190E+01
    endloop
endfacet
facet normal  0.95616966573 0.12423590915 -0.2651509178
    outer loop
       vertex 4.1262690E+01 5.5868680E+01 -2.276827E+01
       vertex 4.1583680E+01 5.5460690E+01 -2.180190E+01
       vertex 4.1349660E+01 5.4963190E+01 -2.287891E+01
    endloop
endfacet
facet normal  0.95539999758 0.15211041118 -0.2531269789
    outer loop
       vertex 4.1297820E+01 5.6750180E+01 -2.210596E+01
       vertex 4.1583680E+01 5.5460690E+01 -2.180190E+01
       vertex 4.1262690E+01 5.5868680E+01 -2.276827E+01
    endloop
endfacet
facet normal  0.95640418839 0.15792163408 -0.2456660048
    outer loop
       vertex 4.0661790E+01 5.7634020E+01 -2.394098E+01
       vertex 4.0917670E+01 5.7653390E+01 -2.293236E+01
       vertex 4.0991940E+01 5.6697880E+01 -2.325745E+01
    endloop
endfacet
facet normal  0.94868747286 0.24110607835 -0.2045970132
    outer loop
       vertex 4.0687760E+01 5.9669510E+01 -2.191219E+01
       vertex 4.1053360E+01 5.8678130E+01 -2.138524E+01
       vertex 4.0852530E+01 5.8792790E+01 -2.218134E+01
    endloop
endfacet
facet normal  0.94956467399 0.24858591677 -0.1911333877
    outer loop
       vertex 4.0687760E+01 5.9669510E+01 -2.191219E+01
       vertex 4.0944220E+01 5.9518200E+01 -2.083487E+01
       vertex 4.1053360E+01 5.8678130E+01 -2.138524E+01
    endloop
endfacet
facet normal  0.95463687307 0.23973670757 -0.1766203601
    outer loop
       vertex 4.0944220E+01 5.9518200E+01 -2.083487E+01
       vertex 4.1256630E+01 5.8600200E+01 -2.039234E+01
       vertex 4.1053360E+01 5.8678130E+01 -2.138524E+01
    endloop
endfacet
facet normal  0.95532600434 0.24652225214 -0.1630306862
    outer loop
       vertex 4.0944220E+01 5.9518200E+01 -2.083487E+01
       vertex 4.1119430E+01 5.9386680E+01 -2.000705E+01
       vertex 4.1256630E+01 5.8600200E+01 -2.039234E+01
    endloop
endfacet
facet normal  0.95739764688 0.24325324484 -0.155620065 
    outer loop
       vertex 4.1119430E+01 5.9386680E+01 -2.000705E+01
       vertex 4.1388790E+01 5.8717070E+01 -1.939659E+01
       vertex 4.1256630E+01 5.8600200E+01 -2.039234E+01
    endloop
endfacet
facet normal  0.95702108942 0.24819425998 -0.1500341418
    outer loop
       vertex 4.1119430E+01 5.9386680E+01 -2.000705E+01
       vertex 4.1183190E+01 5.9627940E+01 -1.920124E+01
       vertex 4.1388790E+01 5.8717070E+01 -1.939659E+01
    endloop
endfacet
facet normal  0.9670010142  0.21243291899 -0.1406459863
    outer loop
       vertex 4.1589840E+01 5.7626700E+01 -1.966119E+01
       vertex 4.1388790E+01 5.8717070E+01 -1.939659E+01
       vertex 4.1626170E+01 5.8062950E+01 -1.875249E+01
    endloop
endfacet
facet normal  0.96450772786 0.21503216092 -0.1532514687
    outer loop
       vertex 4.1589840E+01 5.7626700E+01 -1.966119E+01
       vertex 4.1256630E+01 5.8600200E+01 -2.039234E+01
       vertex 4.1388790E+01 5.8717070E+01 -1.939659E+01
    endloop
endfacet
facet normal  0.95070275895 0.26827199832 -0.1555454887
    outer loop
       vertex 4.0885140E+01 6.0185700E+01 -2.006096E+01
       vertex 4.1183190E+01 5.9627940E+01 -1.920124E+01
       vertex 4.1119430E+01 5.9386680E+01 -2.000705E+01
    endloop
endfacet
facet normal  0.94538807826 0.29649714802 -0.1353913686
    outer loop
       vertex 4.0885140E+01 6.0185700E+01 -2.006096E+01
       vertex 4.0895280E+01 6.0625060E+01 -1.902799E+01
       vertex 4.1183190E+01 5.9627940E+01 -1.920124E+01
    endloop
endfacet
facet normal  0.94099735392 0.30798977715 -0.1402365041
    outer loop
       vertex 4.0559640E+01 6.1155490E+01 -2.011522E+01
       vertex 4.0895280E+01 6.0625060E+01 -1.902799E+01
       vertex 4.0885140E+01 6.0185700E+01 -2.006096E+01
    endloop
endfacet
facet normal  0.93368094124 0.33580075157 -0.1244096267
    outer loop
       vertex 4.0559640E+01 6.1155490E+01 -2.011522E+01
       vertex 4.0476900E+01 6.1746740E+01 -1.914030E+01
       vertex 4.0895280E+01 6.0625060E+01 -1.902799E+01
    endloop
endfacet
facet normal  0.93800790077 0.33456182223 -0.0906066509
    outer loop
       vertex 4.1037280E+01 6.0493950E+01 -1.804205E+01
       vertex 4.0895280E+01 6.0625060E+01 -1.902799E+01
       vertex 4.0737730E+01 6.1298280E+01 -1.817319E+01
    endloop
endfacet
facet normal  0.93578904007 0.33953826028 -0.0949349372
    outer loop
       vertex 4.0476900E+01 6.1746740E+01 -1.914030E+01
       vertex 4.0737730E+01 6.1298280E+01 -1.817319E+01
       vertex 4.0895280E+01 6.0625060E+01 -1.902799E+01
    endloop
endfacet
facet normal  0.92227449973 0.38646979062 -0.0071307843
    outer loop
       vertex 4.0291980E+01 6.2361350E+01 -1.820957E+01
       vertex 4.0539700E+01 6.1787010E+01 -1.729792E+01
       vertex 4.0737730E+01 6.1298280E+01 -1.817319E+01
    endloop
endfacet
facet normal  0.90873944426 0.41706391199 0.01582137013
    outer loop
       vertex 4.0291980E+01 6.2361350E+01 -1.820957E+01
       vertex 4.0003530E+01 6.2955890E+01 -1.731428E+01
       vertex 4.0539700E+01 6.1787010E+01 -1.729792E+01
    endloop
endfacet
facet normal  0.92934346535 0.3691934288  0.00411528098
    outer loop
       vertex 4.0737730E+01 6.1298280E+01 -1.817319E+01
       vertex 4.0539700E+01 6.1787010E+01 -1.729792E+01
       vertex 4.0927880E+01 6.0809270E+01 -1.724382E+01
    endloop
endfacet
facet normal  0.93755607628 0.3477212226  -0.0088631361
    outer loop
       vertex 4.1037280E+01 6.0493950E+01 -1.804205E+01
       vertex 4.0737730E+01 6.1298280E+01 -1.817319E+01
       vertex 4.0927880E+01 6.0809270E+01 -1.724382E+01
    endloop
endfacet
facet normal  0.95337158187 0.30117037872 -0.0194686892
    outer loop
       vertex 4.1037280E+01 6.0493950E+01 -1.804205E+01
       vertex 4.1224550E+01 5.9948990E+01 -1.730178E+01
       vertex 4.1255260E+01 5.9789380E+01 -1.826701E+01
    endloop
endfacet
facet normal  0.94538201734 0.32596348637 8.0426215E-04
    outer loop
       vertex 4.1037280E+01 6.0493950E+01 -1.804205E+01
       vertex 4.0927880E+01 6.0809270E+01 -1.724382E+01
       vertex 4.1224550E+01 5.9948990E+01 -1.730178E+01
    endloop
endfacet
facet normal  0.94287726455 0.31859394345 0.09736715666
    outer loop
       vertex 4.0927880E+01 6.0809270E+01 -1.724382E+01
       vertex 4.1018220E+01 6.0254310E+01 -1.630277E+01
       vertex 4.1224550E+01 5.9948990E+01 -1.730178E+01
    endloop
endfacet
facet normal  0.94660649575 0.30581604419 0.10204258581
    outer loop
       vertex 4.1224550E+01 5.9948990E+01 -1.730178E+01
       vertex 4.1018220E+01 6.0254310E+01 -1.630277E+01
       vertex 4.1328890E+01 5.9333110E+01 -1.642394E+01
    endloop
endfacet
facet normal  0.9356482895  0.2888712711  0.20276998564
    outer loop
       vertex 4.1018220E+01 6.0254310E+01 -1.630277E+01
       vertex 4.1043250E+01 5.9492870E+01 -1.533350E+01
       vertex 4.1328890E+01 5.9333110E+01 -1.642394E+01
    endloop
endfacet
facet normal  0.93440611827 0.29143634915 0.20481713924
    outer loop
       vertex 4.1018220E+01 6.0254310E+01 -1.630277E+01
       vertex 4.0732780E+01 6.0480480E+01 -1.532237E+01
       vertex 4.1043250E+01 5.9492870E+01 -1.533350E+01
    endloop
endfacet
facet normal  0.96409214513 0.21106230679 0.16118014255
    outer loop
       vertex 4.1328890E+01 5.9333110E+01 -1.642394E+01
       vertex 4.1387830E+01 5.8390250E+01 -1.554183E+01
       vertex 4.1591220E+01 5.8440920E+01 -1.682475E+01
    endloop
endfacet
facet normal  0.94381704618 0.25530751958 0.20982719979
    outer loop
       vertex 4.1328890E+01 5.9333110E+01 -1.642394E+01
       vertex 4.1043250E+01 5.9492870E+01 -1.533350E+01
       vertex 4.1387830E+01 5.8390250E+01 -1.554183E+01
    endloop
endfacet
facet normal  0.94426945155 0.25599566159 0.20693338087
    outer loop
       vertex 4.1043250E+01 5.9492870E+01 -1.533350E+01
       vertex 4.1073910E+01 5.8609600E+01 -1.438072E+01
       vertex 4.1387830E+01 5.8390250E+01 -1.554183E+01
    endloop
endfacet
facet normal  0.92877702006 0.28623394477 0.23546417112
    outer loop
       vertex 4.1043250E+01 5.9492870E+01 -1.533350E+01
       vertex 4.0714980E+01 5.9631520E+01 -1.420720E+01
       vertex 4.1073910E+01 5.8609600E+01 -1.438072E+01
    endloop
endfacet
facet normal  0.95100296145 0.23204108459 0.20432890735
    outer loop
       vertex 4.1387830E+01 5.8390250E+01 -1.554183E+01
       vertex 4.1340660E+01 5.7607890E+01 -1.443382E+01
       vertex 4.1639740E+01 5.7235020E+01 -1.540238E+01
    endloop
endfacet
facet normal  0.94737370866 0.24111765135 0.21058331924
    outer loop
       vertex 4.1387830E+01 5.8390250E+01 -1.554183E+01
       vertex 4.1073910E+01 5.8609600E+01 -1.438072E+01
       vertex 4.1340660E+01 5.7607890E+01 -1.443382E+01
    endloop
endfacet
facet normal  0.93418732445 0.23451593177 0.26887975114
    outer loop
       vertex 4.1073910E+01 5.8609600E+01 -1.438072E+01
       vertex 4.1048790E+01 5.7840560E+01 -1.362269E+01
       vertex 4.1340660E+01 5.7607890E+01 -1.443382E+01
    endloop
endfacet
facet normal  0.92068483916 0.25832532653 0.29258751273
    outer loop
       vertex 4.1073910E+01 5.8609600E+01 -1.438072E+01
       vertex 4.0767220E+01 5.8584740E+01 -1.339371E+01
       vertex 4.1048790E+01 5.7840560E+01 -1.362269E+01
    endloop
endfacet
facet normal  0.94462349865 0.19473206515 0.26413229376
    outer loop
       vertex 4.1340660E+01 5.7607890E+01 -1.443382E+01
       vertex 4.1214790E+01 5.6920150E+01 -1.347663E+01
       vertex 4.1566370E+01 5.6543040E+01 -1.445597E+01
    endloop
endfacet
facet normal  0.93723521358 0.21286275601 0.27618762017
    outer loop
       vertex 4.1340660E+01 5.7607890E+01 -1.443382E+01
       vertex 4.1048790E+01 5.7840560E+01 -1.362269E+01
       vertex 4.1214790E+01 5.6920150E+01 -1.347663E+01
    endloop
endfacet
facet normal  0.92635921934 0.21891403636 0.30648856654
    outer loop
       vertex 4.0810150E+01 5.7621810E+01 -1.275478E+01
       vertex 4.0958380E+01 5.6575750E+01 -1.245564E+01
       vertex 4.1214790E+01 5.6920150E+01 -1.347663E+01
    endloop
endfacet
facet normal  0.92614917915 0.21608890017 0.30911694418
    outer loop
       vertex 4.1048790E+01 5.7840560E+01 -1.362269E+01
       vertex 4.0810150E+01 5.7621810E+01 -1.275478E+01
       vertex 4.1214790E+01 5.6920150E+01 -1.347663E+01
    endloop
endfacet
facet normal  0.91576413375 0.2496531391  0.3147210852 
    outer loop
       vertex 4.0767220E+01 5.8584740E+01 -1.339371E+01
       vertex 4.0810150E+01 5.7621810E+01 -1.275478E+01
       vertex 4.1048790E+01 5.7840560E+01 -1.362269E+01
    endloop
endfacet
facet normal  0.90815239993 0.30051203086 0.29146481402
    outer loop
       vertex 4.0263100E+01 6.0204240E+01 -1.338972E+01
       vertex 4.0714980E+01 5.9631520E+01 -1.420720E+01
       vertex 4.0402880E+01 6.0769000E+01 -1.440754E+01
    endloop
endfacet
facet normal  0.90927884488 0.28639044365 0.3019809531 
    outer loop
       vertex 4.0263100E+01 6.0204240E+01 -1.338972E+01
       vertex 4.0479880E+01 5.9304230E+01 -1.318891E+01
       vertex 4.0714980E+01 5.9631520E+01 -1.420720E+01
    endloop
endfacet
facet normal  0.90088353949 0.28920916927 0.3236771612 
    outer loop
       vertex 4.0263100E+01 6.0204240E+01 -1.338972E+01
       vertex 4.0134190E+01 5.9544430E+01 -1.244138E+01
       vertex 4.0479880E+01 5.9304230E+01 -1.318891E+01
    endloop
endfacet
facet normal  0.89804142242 0.29438571464 0.32689242059
    outer loop
       vertex 4.0263100E+01 6.0204240E+01 -1.338972E+01
       vertex 3.9752040E+01 6.0601880E+01 -1.234383E+01
       vertex 4.0134190E+01 5.9544430E+01 -1.244138E+01
    endloop
endfacet
facet normal  0.90578555875 0.26840865402 0.32788613267
    outer loop
       vertex 4.0479880E+01 5.9304230E+01 -1.318891E+01
       vertex 4.0402620E+01 5.8516560E+01 -1.233069E+01
       vertex 4.0767220E+01 5.8584740E+01 -1.339371E+01
    endloop
endfacet
facet normal  0.90380644883 0.27164046187 0.33067410319
    outer loop
       vertex 4.0479880E+01 5.9304230E+01 -1.318891E+01
       vertex 4.0134190E+01 5.9544430E+01 -1.244138E+01
       vertex 4.0402620E+01 5.8516560E+01 -1.233069E+01
    endloop
endfacet
facet normal  0.90860994361 0.25828133133 0.32820530809
    outer loop
       vertex 4.0767220E+01 5.8584740E+01 -1.339371E+01
       vertex 4.0402620E+01 5.8516560E+01 -1.233069E+01
       vertex 4.0810150E+01 5.7621810E+01 -1.275478E+01
    endloop
endfacet
facet normal  0.91685790533 0.27248948671 0.29175513888
    outer loop
       vertex 4.0714980E+01 5.9631520E+01 -1.420720E+01
       vertex 4.0767220E+01 5.8584740E+01 -1.339371E+01
       vertex 4.1073910E+01 5.8609600E+01 -1.438072E+01
    endloop
endfacet
facet normal  0.91220007495 0.27884275129 0.30022948442
    outer loop
       vertex 4.0714980E+01 5.9631520E+01 -1.420720E+01
       vertex 4.0479880E+01 5.9304230E+01 -1.318891E+01
       vertex 4.0767220E+01 5.8584740E+01 -1.339371E+01
    endloop
endfacet
facet normal  0.92803471254 0.28909442817 0.23489568731
    outer loop
       vertex 4.0732780E+01 6.0480480E+01 -1.532237E+01
       vertex 4.0714980E+01 5.9631520E+01 -1.420720E+01
       vertex 4.1043250E+01 5.9492870E+01 -1.533350E+01
    endloop
endfacet
facet normal  0.92454282048 0.29595611656 0.24006363776
    outer loop
       vertex 4.0732780E+01 6.0480480E+01 -1.532237E+01
       vertex 4.0402880E+01 6.0769000E+01 -1.440754E+01
       vertex 4.0714980E+01 5.9631520E+01 -1.420720E+01
    endloop
endfacet
facet normal  0.9473738392  0.29510511737 -0.1240797263
    outer loop
       vertex 4.0895280E+01 6.0625060E+01 -1.902799E+01
       vertex 4.1255260E+01 5.9789380E+01 -1.826701E+01
       vertex 4.1183190E+01 5.9627940E+01 -1.920124E+01
    endloop
endfacet
facet normal  0.94241226176 0.32126049694 -0.0930097951
    outer loop
       vertex 4.0895280E+01 6.0625060E+01 -1.902799E+01
       vertex 4.1037280E+01 6.0493950E+01 -1.804205E+01
       vertex 4.1255260E+01 5.9789380E+01 -1.826701E+01
    endloop
endfacet
facet normal  0.95235258394 0.19521948317 -0.23433717  
    outer loop
       vertex 4.0800860E+01 5.8457510E+01 -2.273719E+01
       vertex 4.1071700E+01 5.7940770E+01 -2.206697E+01
       vertex 4.0917670E+01 5.7653390E+01 -2.293236E+01
    endloop
endfacet
facet normal  0.95175385111 0.21550056805 -0.2184584905
    outer loop
       vertex 4.0800860E+01 5.8457510E+01 -2.273719E+01
       vertex 4.0852530E+01 5.8792790E+01 -2.218134E+01
       vertex 4.1071700E+01 5.7940770E+01 -2.206697E+01
    endloop
endfacet
facet normal  0.96452631258 0.20973629307 -0.1603111965
    outer loop
       vertex 4.1399560E+01 5.7509240E+01 -2.095970E+01
       vertex 4.1256630E+01 5.8600200E+01 -2.039234E+01
       vertex 4.1589840E+01 5.7626700E+01 -1.966119E+01
    endloop
endfacet
facet normal  0.95916462491 0.21885011866 -0.1791866286
    outer loop
       vertex 4.1399560E+01 5.7509240E+01 -2.095970E+01
       vertex 4.1053360E+01 5.8678130E+01 -2.138524E+01
       vertex 4.1256630E+01 5.8600200E+01 -2.039234E+01
    endloop
endfacet
facet normal  0.9590598992  0.18940309591 -0.2105482771
    outer loop
       vertex 4.1297820E+01 5.6750180E+01 -2.210596E+01
       vertex 4.1399560E+01 5.7509240E+01 -2.095970E+01
       vertex 4.1651620E+01 5.6246840E+01 -2.094717E+01
    endloop
endfacet
facet normal  0.95687617389 0.17190556147 -0.2341718723
    outer loop
       vertex 4.1850370E+01 5.5356110E+01 -2.078892E+01
       vertex 4.1583680E+01 5.5460690E+01 -2.180190E+01
       vertex 4.1651620E+01 5.6246840E+01 -2.094717E+01
    endloop
endfacet
facet normal  0.96134063144 0.16032487799 -0.2238752417
    outer loop
       vertex 4.1297820E+01 5.6750180E+01 -2.210596E+01
       vertex 4.1651620E+01 5.6246840E+01 -2.094717E+01
       vertex 4.1583680E+01 5.5460690E+01 -2.180190E+01
    endloop
endfacet
facet normal  0.95590487746 0.11741782744 -0.2691819441
    outer loop
       vertex 4.1583680E+01 5.5460690E+01 -2.180190E+01
       vertex 4.1907620E+01 5.4570120E+01 -2.104001E+01
       vertex 4.1653680E+01 5.4387770E+01 -2.202133E+01
    endloop
endfacet
facet normal  0.96030394658 0.1459004907  -0.2377590734
    outer loop
       vertex 4.1583680E+01 5.5460690E+01 -2.180190E+01
       vertex 4.1850370E+01 5.5356110E+01 -2.078892E+01
       vertex 4.1907620E+01 5.4570120E+01 -2.104001E+01
    endloop
endfacet
facet normal  0.95580444423 0.07580043614 -0.2840636518
    outer loop
       vertex 4.1653680E+01 5.4387770E+01 -2.202133E+01
       vertex 4.1915760E+01 5.3627380E+01 -2.134240E+01
       vertex 4.1662290E+01 5.3542290E+01 -2.221797E+01
    endloop
endfacet
facet normal  0.9595183683  0.09350115276 -0.2656727975
    outer loop
       vertex 4.1653680E+01 5.4387770E+01 -2.202133E+01
       vertex 4.1907620E+01 5.4570120E+01 -2.104001E+01
       vertex 4.1915760E+01 5.3627380E+01 -2.134240E+01
    endloop
endfacet
facet normal  0.95906374245 0.03723463352 -0.2807317581
    outer loop
       vertex 4.2094390E+01 5.2766640E+01 -2.084631E+01
       vertex 4.1779470E+01 5.2615480E+01 -2.194222E+01
       vertex 4.1915760E+01 5.3627380E+01 -2.134240E+01
    endloop
endfacet
facet normal  0.95890102203 0.03756006705 -0.2812437934
    outer loop
       vertex 4.1662290E+01 5.3542290E+01 -2.221797E+01
       vertex 4.1915760E+01 5.3627380E+01 -2.134240E+01
       vertex 4.1779470E+01 5.2615480E+01 -2.194222E+01
    endloop
endfacet
facet normal  0.95997829102 0.02343987216 -0.2790918364
    outer loop
       vertex 4.1779470E+01 5.2615480E+01 -2.194222E+01
       vertex 4.2094390E+01 5.2766640E+01 -2.084631E+01
       vertex 4.2018400E+01 5.1765750E+01 -2.119175E+01
    endloop
endfacet
facet normal  0.97879909788 -0.0310775685 -0.2024512552
    outer loop
       vertex 4.2153140E+01 5.0903850E+01 -2.040801E+01
       vertex 4.1886010E+01 5.0770670E+01 -2.167907E+01
       vertex 4.2018400E+01 5.1765750E+01 -2.119175E+01
    endloop
endfacet
facet normal  0.97884480664 -0.019635694  -0.2036597261
    outer loop
       vertex 4.1886010E+01 5.0770670E+01 -2.167907E+01
       vertex 4.2153140E+01 5.0903850E+01 -2.040801E+01
       vertex 4.1980090E+01 4.9832680E+01 -2.113646E+01
    endloop
endfacet
facet normal  0.99589485367 -0.0684811553 0.05919266681
    outer loop
       vertex 4.2301310E+01 5.0706080E+01 -1.722555E+01
       vertex 4.2251370E+01 5.0789230E+01 -1.628913E+01
       vertex 4.2186700E+01 4.9834480E+01 -1.630565E+01
    endloop
endfacet
facet normal  0.99835645437 -0.016943617  0.0547476379 
    outer loop
       vertex 4.2318290E+01 5.1667160E+01 -1.723775E+01
       vertex 4.2251370E+01 5.0789230E+01 -1.628913E+01
       vertex 4.2301310E+01 5.0706080E+01 -1.722555E+01
    endloop
endfacet
facet normal  0.9986343344  -0.0296166377 0.04303859806
    outer loop
       vertex 4.2318290E+01 5.1667160E+01 -1.723775E+01
       vertex 4.2279340E+01 5.1760650E+01 -1.626965E+01
       vertex 4.2251370E+01 5.0789230E+01 -1.628913E+01
    endloop
endfacet
facet normal  0.99911294406 0.01691519656 0.03856424692
    outer loop
       vertex 4.2301730E+01 5.2646980E+01 -1.723849E+01
       vertex 4.2279340E+01 5.1760650E+01 -1.626965E+01
       vertex 4.2318290E+01 5.1667160E+01 -1.723775E+01
    endloop
endfacet
facet normal  0.99952485761 0.00744525427 0.02991031933
    outer loop
       vertex 4.2301730E+01 5.2646980E+01 -1.723849E+01
       vertex 4.2272050E+01 5.2736560E+01 -1.626896E+01
       vertex 4.2279340E+01 5.1760650E+01 -1.626965E+01
    endloop
endfacet
facet normal  0.99798143009 0.05830832089 0.02516356323
    outer loop
       vertex 4.2243020E+01 5.3646580E+01 -1.722631E+01
       vertex 4.2272050E+01 5.2736560E+01 -1.626896E+01
       vertex 4.2301730E+01 5.2646980E+01 -1.723849E+01
    endloop
endfacet
facet normal  0.99826820011 0.05467701928 0.02170309211
    outer loop
       vertex 4.2243020E+01 5.3646580E+01 -1.722631E+01
       vertex 4.2216850E+01 5.3724260E+01 -1.621828E+01
       vertex 4.2272050E+01 5.2736560E+01 -1.626896E+01
    endloop
endfacet
facet normal  0.99565852544 0.09115785533 0.01882408401
    outer loop
       vertex 4.2136060E+01 5.4787730E+01 -1.709505E+01
       vertex 4.2216850E+01 5.3724260E+01 -1.621828E+01
       vertex 4.2243020E+01 5.3646580E+01 -1.722631E+01
    endloop
endfacet
facet normal  0.99466416777 0.09912741643 0.02858231399
    outer loop
       vertex 4.2136060E+01 5.4787730E+01 -1.709505E+01
       vertex 4.2113450E+01 5.4684700E+01 -1.595090E+01
       vertex 4.2216850E+01 5.3724260E+01 -1.621828E+01
    endloop
endfacet
facet normal  0.9922385779  0.12420125167 0.00605422267
    outer loop
       vertex 4.1989330E+01 5.5965750E+01 -1.721404E+01
       vertex 4.2022820E+01 5.5650330E+01 -1.623200E+01
       vertex 4.2136060E+01 5.4787730E+01 -1.709505E+01
    endloop
endfacet
facet normal  0.99439614522 0.1017166654  0.02881017776
    outer loop
       vertex 4.2136060E+01 5.4787730E+01 -1.709505E+01
       vertex 4.2022820E+01 5.5650330E+01 -1.623200E+01
       vertex 4.2113450E+01 5.4684700E+01 -1.595090E+01
    endloop
endfacet
facet normal  0.9912081567  0.12995643138 0.02485389373
    outer loop
       vertex 4.1861060E+01 5.6946310E+01 -1.722562E+01
       vertex 4.1879670E+01 5.6624510E+01 -1.628518E+01
       vertex 4.1989330E+01 5.5965750E+01 -1.721404E+01
    endloop
endfacet
facet normal  0.98918570992 0.1460746994  0.01318383392
    outer loop
       vertex 4.1989330E+01 5.5965750E+01 -1.721404E+01
       vertex 4.1879670E+01 5.6624510E+01 -1.628518E+01
       vertex 4.2022820E+01 5.5650330E+01 -1.623200E+01
    endloop
endfacet
facet normal  0.98734867609 0.12211319999 0.1011481992 
    outer loop
       vertex 4.2022820E+01 5.5650330E+01 -1.623200E+01
       vertex 4.1968990E+01 5.5441600E+01 -1.545455E+01
       vertex 4.2113450E+01 5.4684700E+01 -1.595090E+01
    endloop
endfacet
facet normal  0.98592883758 0.1006449962  0.13347251386
    outer loop
       vertex 4.2113450E+01 5.4684700E+01 -1.595090E+01
       vertex 4.1968990E+01 5.5441600E+01 -1.545455E+01
       vertex 4.1991630E+01 5.4685210E+01 -1.505143E+01
    endloop
endfacet
facet normal  0.99199005353 0.07946053263 0.09819245111
    outer loop
       vertex 4.2113450E+01 5.4684700E+01 -1.595090E+01
       vertex 4.2120010E+01 5.3747970E+01 -1.525914E+01
       vertex 4.2216850E+01 5.3724260E+01 -1.621828E+01
    endloop
endfacet
facet normal  0.98543932494 0.10541745695 0.13340351058
    outer loop
       vertex 4.2113450E+01 5.4684700E+01 -1.595090E+01
       vertex 4.1991630E+01 5.4685210E+01 -1.505143E+01
       vertex 4.2120010E+01 5.3747970E+01 -1.525914E+01
    endloop
endfacet
facet normal  0.99405867194 0.05061085695 0.09636336393
    outer loop
       vertex 4.2216850E+01 5.3724260E+01 -1.621828E+01
       vertex 4.2178860E+01 5.2769410E+01 -1.532489E+01
       vertex 4.2272050E+01 5.2736560E+01 -1.626896E+01
    endloop
endfacet
facet normal  0.99366801628 0.05310582336 0.09901335741
    outer loop
       vertex 4.2216850E+01 5.3724260E+01 -1.621828E+01
       vertex 4.2120010E+01 5.3747970E+01 -1.525914E+01
       vertex 4.2178860E+01 5.2769410E+01 -1.532489E+01
    endloop
endfacet
facet normal  0.99513139073 -0.0052979958 0.09841466572
    outer loop
       vertex 4.2272050E+01 5.2736560E+01 -1.626896E+01
       vertex 4.2178860E+01 5.2769410E+01 -1.532489E+01
       vertex 4.2173550E+01 5.1798030E+01 -1.532349E+01
    endloop
endfacet
facet normal  0.99381247698 0.00734537176 0.11082782187
    outer loop
       vertex 4.2279340E+01 5.1760650E+01 -1.626965E+01
       vertex 4.2272050E+01 5.2736560E+01 -1.626896E+01
       vertex 4.2173550E+01 5.1798030E+01 -1.532349E+01
    endloop
endfacet
facet normal  0.9923667502  -0.0309668659 0.11937037452
    outer loop
       vertex 4.2279340E+01 5.1760650E+01 -1.626965E+01
       vertex 4.2138890E+01 5.0834120E+01 -1.534240E+01
       vertex 4.2251370E+01 5.0789230E+01 -1.628913E+01
    endloop
endfacet
facet normal  0.99292636889 -0.0379107161 0.11251668125
    outer loop
       vertex 4.2279340E+01 5.1760650E+01 -1.626965E+01
       vertex 4.2173550E+01 5.1798030E+01 -1.532349E+01
       vertex 4.2138890E+01 5.0834120E+01 -1.534240E+01
    endloop
endfacet
facet normal  0.9983376861  -0.0558200017 0.0143524183 
    outer loop
       vertex 4.2302150E+01 5.0514680E+01 -1.802838E+01
       vertex 4.2301310E+01 5.0706080E+01 -1.722555E+01
       vertex 4.2249200E+01 4.9771640E+01 -1.723510E+01
    endloop
endfacet
facet normal  0.9947729375  -0.025236258  -0.0989440958
    outer loop
       vertex 4.2153140E+01 5.0903850E+01 -2.040801E+01
       vertex 4.2276410E+01 5.0564210E+01 -1.908204E+01
       vertex 4.2153780E+01 4.9780270E+01 -2.011500E+01
    endloop
endfacet
facet normal  0.99973298059 -0.0222200045 0.00634341587
    outer loop
       vertex 4.2322100E+01 5.1366420E+01 -1.818902E+01
       vertex 4.2301310E+01 5.0706080E+01 -1.722555E+01
       vertex 4.2302150E+01 5.0514680E+01 -1.802838E+01
    endloop
endfacet
facet normal  0.99980049825 -0.017542865  0.00955047579
    outer loop
       vertex 4.2322100E+01 5.1366420E+01 -1.818902E+01
       vertex 4.2318290E+01 5.1667160E+01 -1.723775E+01
       vertex 4.2301310E+01 5.0706080E+01 -1.722555E+01
    endloop
endfacet
facet normal  0.9946771198  -0.0271014953 -0.0994129584
    outer loop
       vertex 4.2276410E+01 5.0564210E+01 -1.908204E+01
       vertex 4.2153140E+01 5.0903850E+01 -2.040801E+01
       vertex 4.2293250E+01 5.1700840E+01 -1.922341E+01
    endloop
endfacet
facet normal  0.99497303894 -0.036043346  -0.0934319485
    outer loop
       vertex 4.2218650E+01 5.2074330E+01 -2.016192E+01
       vertex 4.2293250E+01 5.1700840E+01 -1.922341E+01
       vertex 4.2153140E+01 5.0903850E+01 -2.040801E+01
    endloop
endfacet
facet normal  0.99996738583 0.00793659179 0.00149592137
    outer loop
       vertex 4.2314330E+01 5.2351220E+01 -1.821991E+01
       vertex 4.2318290E+01 5.1667160E+01 -1.723775E+01
       vertex 4.2322100E+01 5.1366420E+01 -1.818902E+01
    endloop
endfacet
facet normal  0.99982714221 0.01690398916 0.00774214725
    outer loop
       vertex 4.2314330E+01 5.2351220E+01 -1.821991E+01
       vertex 4.2301730E+01 5.2646980E+01 -1.723849E+01
       vertex 4.2318290E+01 5.1667160E+01 -1.723775E+01
    endloop
endfacet
facet normal  0.9970301325  0.00626888092 -0.076756863 
    outer loop
       vertex 4.2293250E+01 5.1700840E+01 -1.922341E+01
       vertex 4.2218650E+01 5.2074330E+01 -2.016192E+01
       vertex 4.2289040E+01 5.2722190E+01 -1.919468E+01
    endloop
endfacet
facet normal  0.99678725629 0.0102880507  -0.0794312389
    outer loop
       vertex 4.2222370E+01 5.2962040E+01 -2.000026E+01
       vertex 4.2289040E+01 5.2722190E+01 -1.919468E+01
       vertex 4.2218650E+01 5.2074330E+01 -2.016192E+01
    endloop
endfacet
facet normal  0.99889535658 0.04697121926 -0.0013308536
    outer loop
       vertex 4.2267130E+01 5.3354580E+01 -1.823405E+01
       vertex 4.2301730E+01 5.2646980E+01 -1.723849E+01
       vertex 4.2314330E+01 5.2351220E+01 -1.821991E+01
    endloop
endfacet
facet normal  0.99826067512 0.05854703231 0.00691878008
    outer loop
       vertex 4.2267130E+01 5.3354580E+01 -1.823405E+01
       vertex 4.2243020E+01 5.3646580E+01 -1.722631E+01
       vertex 4.2301730E+01 5.2646980E+01 -1.723849E+01
    endloop
endfacet
facet normal  0.99635940818 0.05319317128 -0.06662144  
    outer loop
       vertex 4.2289040E+01 5.2722190E+01 -1.919468E+01
       vertex 4.2222370E+01 5.2962040E+01 -2.000026E+01
       vertex 4.2221860E+01 5.3817180E+01 -1.932511E+01
    endloop
endfacet
facet normal  0.99394696812 0.06844170364 -0.0859369407
    outer loop
       vertex 4.2134910E+01 5.3726730E+01 -2.040281E+01
       vertex 4.2221860E+01 5.3817180E+01 -1.932511E+01
       vertex 4.2222370E+01 5.2962040E+01 -2.000026E+01
    endloop
endfacet
facet normal  0.99698723844 0.07755345935 0.00138106276
    outer loop
       vertex 4.2243020E+01 5.3646580E+01 -1.722631E+01
       vertex 4.2267130E+01 5.3354580E+01 -1.823405E+01
       vertex 4.2185760E+01 5.4400760E+01 -1.824131E+01
    endloop
endfacet
facet normal  0.99569149197 0.09193017372 0.01213655526
    outer loop
       vertex 4.2185760E+01 5.4400760E+01 -1.824131E+01
       vertex 4.2136060E+01 5.4787730E+01 -1.709505E+01
       vertex 4.2243020E+01 5.3646580E+01 -1.722631E+01
    endloop
endfacet
facet normal  0.99341847997 0.07513381568 -0.0864559622
    outer loop
       vertex 4.2087860E+01 5.4669120E+01 -2.012446E+01
       vertex 4.2221860E+01 5.3817180E+01 -1.932511E+01
       vertex 4.2134910E+01 5.3726730E+01 -2.040281E+01
    endloop
endfacet
facet normal  0.99338038818 0.09306058482 -0.0673433882
    outer loop
       vertex 4.2087860E+01 5.4669120E+01 -2.012446E+01
       vertex 4.2123410E+01 5.4939840E+01 -1.922596E+01
       vertex 4.2221860E+01 5.3817180E+01 -1.932511E+01
    endloop
endfacet
facet normal  0.99335573718 0.115005908   0.00424506126
    outer loop
       vertex 4.2050030E+01 5.5576110E+01 -1.832235E+01
       vertex 4.2136060E+01 5.4787730E+01 -1.709505E+01
       vertex 4.2185760E+01 5.4400760E+01 -1.824131E+01
    endloop
endfacet
facet normal  0.99214618016 0.12464071876 0.01051895542
    outer loop
       vertex 4.2050030E+01 5.5576110E+01 -1.832235E+01
       vertex 4.1989330E+01 5.5965750E+01 -1.721404E+01
       vertex 4.2136060E+01 5.4787730E+01 -1.709505E+01
    endloop
endfacet
facet normal  0.98404359307 0.15582648329 -0.0858854705
    outer loop
       vertex 4.1945660E+01 5.5598490E+01 -2.006753E+01
       vertex 4.2123410E+01 5.4939840E+01 -1.922596E+01
       vertex 4.2087860E+01 5.4669120E+01 -2.012446E+01
    endloop
endfacet
facet normal  0.98497484183 0.14399430059 -0.0953425527
    outer loop
       vertex 4.1945660E+01 5.5598490E+01 -2.006753E+01
       vertex 4.1986450E+01 5.5813140E+01 -1.932195E+01
       vertex 4.2123410E+01 5.4939840E+01 -1.922596E+01
    endloop
endfacet
facet normal  0.99131554831 0.13125194911 0.00814920404
    outer loop
       vertex 4.1910230E+01 5.6620790E+01 -1.814201E+01
       vertex 4.1989330E+01 5.5965750E+01 -1.721404E+01
       vertex 4.2050030E+01 5.5576110E+01 -1.832235E+01
    endloop
endfacet
facet normal  0.9915164814  0.12978707516 0.00709804416
    outer loop
       vertex 4.1910230E+01 5.6620790E+01 -1.814201E+01
       vertex 4.1861060E+01 5.6946310E+01 -1.722562E+01
       vertex 4.1989330E+01 5.5965750E+01 -1.721404E+01
    endloop
endfacet
facet normal  0.97578416998 0.19014233413 -0.1081256046
    outer loop
       vertex 4.1762340E+01 5.6567400E+01 -2.001805E+01
       vertex 4.1986450E+01 5.5813140E+01 -1.932195E+01
       vertex 4.1945660E+01 5.5598490E+01 -2.006753E+01
    endloop
endfacet
facet normal  0.97644251635 0.17920756711 -0.1201859399
    outer loop
       vertex 4.1762340E+01 5.6567400E+01 -2.001805E+01
       vertex 4.1876120E+01 5.6583430E+01 -1.906975E+01
       vertex 4.1986450E+01 5.5813140E+01 -1.932195E+01
    endloop
endfacet
facet normal  0.98917792093 0.1467178318  9.5842356E-04
    outer loop
       vertex 4.1781110E+01 5.7490780E+01 -1.805895E+01
       vertex 4.1861060E+01 5.6946310E+01 -1.722562E+01
       vertex 4.1910230E+01 5.6620790E+01 -1.814201E+01
    endloop
endfacet
facet normal  0.98955206186 0.14417409638 -7.394635E-04
    outer loop
       vertex 4.1781110E+01 5.7490780E+01 -1.805895E+01
       vertex 4.1744850E+01 5.7743670E+01 -1.727591E+01
       vertex 4.1861060E+01 5.6946310E+01 -1.722562E+01
    endloop
endfacet
facet normal  0.97265043485 0.19883677742 -0.120062765 
    outer loop
       vertex 4.1589840E+01 5.7626700E+01 -1.966119E+01
       vertex 4.1876120E+01 5.6583430E+01 -1.906975E+01
       vertex 4.1762340E+01 5.6567400E+01 -2.001805E+01
    endloop
endfacet
facet normal  0.97257846201 0.19519535644 -0.1264512082
    outer loop
       vertex 4.1589840E+01 5.7626700E+01 -1.966119E+01
       vertex 4.1769780E+01 5.7291960E+01 -1.879393E+01
       vertex 4.1876120E+01 5.6583430E+01 -1.906975E+01
    endloop
endfacet
facet normal  0.97356160772 0.18829319721 -0.1293192478
    outer loop
       vertex 4.1589840E+01 5.7626700E+01 -1.966119E+01
       vertex 4.1626170E+01 5.8062950E+01 -1.875249E+01
       vertex 4.1769780E+01 5.7291960E+01 -1.879393E+01
    endloop
endfacet
facet normal  0.96590609169 0.22577500458 -0.1266928148
    outer loop
       vertex 4.1626170E+01 5.8062950E+01 -1.875249E+01
       vertex 4.1388790E+01 5.8717070E+01 -1.939659E+01
       vertex 4.1459430E+01 5.8926810E+01 -1.848426E+01
    endloop
endfacet
facet normal  0.95917339076 0.2568514895  -0.118379554 
    outer loop
       vertex 4.1459430E+01 5.8926810E+01 -1.848426E+01
       vertex 4.1183190E+01 5.9627940E+01 -1.920124E+01
       vertex 4.1255260E+01 5.9789380E+01 -1.826701E+01
    endloop
endfacet
facet normal  0.96070714053 0.24487578663 -0.1306814419
    outer loop
       vertex 4.1459430E+01 5.8926810E+01 -1.848426E+01
       vertex 4.1388790E+01 5.8717070E+01 -1.939659E+01
       vertex 4.1183190E+01 5.9627940E+01 -1.920124E+01
    endloop
endfacet
facet normal  0.9689838581  0.24198516441 -0.0501344486
    outer loop
       vertex 4.1459430E+01 5.8926810E+01 -1.848426E+01
       vertex 4.1255260E+01 5.9789380E+01 -1.826701E+01
       vertex 4.1462170E+01 5.9122440E+01 -1.748705E+01
    endloop
endfacet
facet normal  0.96001687148 0.2795029896  -0.0156743512
    outer loop
       vertex 4.1462170E+01 5.9122440E+01 -1.748705E+01
       vertex 4.1255260E+01 5.9789380E+01 -1.826701E+01
       vertex 4.1224550E+01 5.9948990E+01 -1.730178E+01
    endloop
endfacet
facet normal  0.96515272056 0.2518453131  0.07109264562
    outer loop
       vertex 4.1462170E+01 5.9122440E+01 -1.748705E+01
       vertex 4.1328890E+01 5.9333110E+01 -1.642394E+01
       vertex 4.1591220E+01 5.8440920E+01 -1.682475E+01
    endloop
endfacet
facet normal  0.96278409441 0.26133803405 0.06891458125
    outer loop
       vertex 4.1462170E+01 5.9122440E+01 -1.748705E+01
       vertex 4.1224550E+01 5.9948990E+01 -1.730178E+01
       vertex 4.1328890E+01 5.9333110E+01 -1.642394E+01
    endloop
endfacet
facet normal  0.98515442074 0.17139432332 -0.0097341274
    outer loop
       vertex 4.1642090E+01 5.8301060E+01 -1.786158E+01
       vertex 4.1744850E+01 5.7743670E+01 -1.727591E+01
       vertex 4.1781110E+01 5.7490780E+01 -1.805895E+01
    endloop
endfacet
facet normal  0.97910227521 0.2023073204  0.02074807915
    outer loop
       vertex 4.1642090E+01 5.8301060E+01 -1.786158E+01
       vertex 4.1591220E+01 5.8440920E+01 -1.682475E+01
       vertex 4.1744850E+01 5.7743670E+01 -1.727591E+01
    endloop
endfacet
facet normal  0.95950735411 0.22902614872 0.16398981864
    outer loop
       vertex 4.1726450E+01 5.7584850E+01 -1.639829E+01
       vertex 4.1387830E+01 5.8390250E+01 -1.554183E+01
       vertex 4.1639740E+01 5.7235020E+01 -1.540238E+01
    endloop
endfacet
facet normal  0.98621437332 0.16156089203 0.0357671362 
    outer loop
       vertex 4.1879670E+01 5.6624510E+01 -1.628518E+01
       vertex 4.1861060E+01 5.6946310E+01 -1.722562E+01
       vertex 4.1726450E+01 5.7584850E+01 -1.639829E+01
    endloop
endfacet
facet normal  0.98800732998 0.14697964727 0.04731278053
    outer loop
       vertex 4.1744850E+01 5.7743670E+01 -1.727591E+01
       vertex 4.1726450E+01 5.7584850E+01 -1.639829E+01
       vertex 4.1861060E+01 5.6946310E+01 -1.722562E+01
    endloop
endfacet
facet normal  0.95546993747 0.19797359496 0.21882334036
    outer loop
       vertex 4.1639740E+01 5.7235020E+01 -1.540238E+01
       vertex 4.1340660E+01 5.7607890E+01 -1.443382E+01
       vertex 4.1566370E+01 5.6543040E+01 -1.445597E+01
    endloop
endfacet
facet normal  0.98287275247 0.14923539767 0.10812006537
    outer loop
       vertex 4.1968990E+01 5.5441600E+01 -1.545455E+01
       vertex 4.2022820E+01 5.5650330E+01 -1.623200E+01
       vertex 4.1838920E+01 5.6258720E+01 -1.539999E+01
    endloop
endfacet
facet normal  0.98279935437 0.15027634604 0.10734267028
    outer loop
       vertex 4.1879670E+01 5.6624510E+01 -1.628518E+01
       vertex 4.1838920E+01 5.6258720E+01 -1.539999E+01
       vertex 4.2022820E+01 5.5650330E+01 -1.623200E+01
    endloop
endfacet
facet normal  0.94600800286 0.17734934738 0.27132281052
    outer loop
       vertex 4.1566370E+01 5.6543040E+01 -1.445597E+01
       vertex 4.1214790E+01 5.6920150E+01 -1.347663E+01
       vertex 4.1451620E+01 5.5576560E+01 -1.342414E+01
    endloop
endfacet
facet normal  0.95276660185 0.12717373724 0.27579456659
    outer loop
       vertex 4.1451620E+01 5.5576560E+01 -1.342414E+01
       vertex 4.1300690E+01 5.4519360E+01 -1.241524E+01
       vertex 4.1632340E+01 5.4208580E+01 -1.341766E+01
    endloop
endfacet
facet normal  0.96604629377 0.12382277936 0.22676524778
    outer loop
       vertex 4.1792120E+01 5.4766570E+01 -1.424592E+01
       vertex 4.1991630E+01 5.4685210E+01 -1.505143E+01
       vertex 4.1787430E+01 5.5571530E+01 -1.466548E+01
    endloop
endfacet
facet normal  0.97013359679 0.13606365928 0.20081704359
    outer loop
       vertex 4.1968990E+01 5.5441600E+01 -1.545455E+01
       vertex 4.1787430E+01 5.5571530E+01 -1.466548E+01
       vertex 4.1991630E+01 5.4685210E+01 -1.505143E+01
    endloop
endfacet
facet normal  0.95344825867 0.10111078402 0.2841003826 
    outer loop
       vertex 4.1300690E+01 5.4519360E+01 -1.241524E+01
       vertex 4.1423110E+01 5.3439740E+01 -1.244185E+01
       vertex 4.1632340E+01 5.4208580E+01 -1.341766E+01
    endloop
endfacet
facet normal  0.97341288823 0.08631332885 0.2121729443 
    outer loop
       vertex 4.1991630E+01 5.4685210E+01 -1.505143E+01
       vertex 4.1911920E+01 5.3862720E+01 -1.435114E+01
       vertex 4.2120010E+01 5.3747970E+01 -1.525914E+01
    endloop
endfacet
facet normal  0.96799428179 0.10158586294 0.22949375346
    outer loop
       vertex 4.1991630E+01 5.4685210E+01 -1.505143E+01
       vertex 4.1792120E+01 5.4766570E+01 -1.424592E+01
       vertex 4.1911920E+01 5.3862720E+01 -1.435114E+01
    endloop
endfacet
facet normal  0.96337701394 0.06727900101 0.25957323635
    outer loop
       vertex 4.1423110E+01 5.3439740E+01 -1.244185E+01
       vertex 4.1712060E+01 5.3115440E+01 -1.343020E+01
       vertex 4.1632340E+01 5.4208580E+01 -1.341766E+01
    endloop
endfacet
facet normal  0.9626200965  0.04239615913 0.26751657052
    outer loop
       vertex 4.1423110E+01 5.3439740E+01 -1.244185E+01
       vertex 4.1473430E+01 5.2442650E+01 -1.246490E+01
       vertex 4.1712060E+01 5.3115440E+01 -1.343020E+01
    endloop
endfacet
facet normal  0.97672340322 0.04464258427 0.2098057036 
    outer loop
       vertex 4.2120010E+01 5.3747970E+01 -1.525914E+01
       vertex 4.1975170E+01 5.2869760E+01 -1.439799E+01
       vertex 4.2178860E+01 5.2769410E+01 -1.532489E+01
    endloop
endfacet
facet normal  0.97482616317 0.05186342774 0.21685049335
    outer loop
       vertex 4.2120010E+01 5.3747970E+01 -1.525914E+01
       vertex 4.1911920E+01 5.3862720E+01 -1.435114E+01
       vertex 4.1975170E+01 5.2869760E+01 -1.439799E+01
    endloop
endfacet
facet normal  0.9671499624  0.02050418706 0.25337823219
    outer loop
       vertex 4.1473430E+01 5.2442650E+01 -1.246490E+01
       vertex 4.1735860E+01 5.2118630E+01 -1.344038E+01
       vertex 4.1712060E+01 5.3115440E+01 -1.343020E+01
    endloop
endfacet
facet normal  0.97939587461 -0.00506285   0.20188632529
    outer loop
       vertex 4.1983390E+01 5.1893380E+01 -1.439859E+01
       vertex 4.2173550E+01 5.1798030E+01 -1.532349E+01
       vertex 4.2178860E+01 5.2769410E+01 -1.532489E+01
    endloop
endfacet
facet normal  0.97684617892 0.00809254772 0.21378974109
    outer loop
       vertex 4.2178860E+01 5.2769410E+01 -1.532489E+01
       vertex 4.1975170E+01 5.2869760E+01 -1.439799E+01
       vertex 4.1983390E+01 5.1893380E+01 -1.439859E+01
    endloop
endfacet
facet normal  0.96830175771 -0.0231540446 0.24870785318
    outer loop
       vertex 4.1469460E+01 5.1499030E+01 -1.246088E+01
       vertex 4.1711670E+01 5.1144170E+01 -1.343692E+01
       vertex 4.1735860E+01 5.2118630E+01 -1.344038E+01
    endloop
endfacet
facet normal  0.97888398101 -0.0391345021 0.20063559623
    outer loop
       vertex 4.2173550E+01 5.1798030E+01 -1.532349E+01
       vertex 4.1949250E+01 5.0923340E+01 -1.439976E+01
       vertex 4.2138890E+01 5.0834120E+01 -1.534240E+01
    endloop
endfacet
facet normal  0.97821134101 -0.0346744762 0.20469551294
    outer loop
       vertex 4.2173550E+01 5.1798030E+01 -1.532349E+01
       vertex 4.1983390E+01 5.1893380E+01 -1.439859E+01
       vertex 4.1949250E+01 5.0923340E+01 -1.439976E+01
    endloop
endfacet
facet normal  0.94167642295 0.15205499719 0.3002079151 
    outer loop
       vertex 4.1451620E+01 5.5576560E+01 -1.342414E+01
       vertex 4.1031530E+01 5.5555980E+01 -1.209600E+01
       vertex 4.1300690E+01 5.4519360E+01 -1.241524E+01
    endloop
endfacet
facet normal  0.93880368365 0.17702334395 0.29548329776
    outer loop
       vertex 4.1214790E+01 5.6920150E+01 -1.347663E+01
       vertex 4.0958380E+01 5.6575750E+01 -1.245564E+01
       vertex 4.1451620E+01 5.5576560E+01 -1.342414E+01
    endloop
endfacet
facet normal  0.93830684602 0.17291828902 0.29946540375
    outer loop
       vertex 4.1451620E+01 5.5576560E+01 -1.342414E+01
       vertex 4.0958380E+01 5.6575750E+01 -1.245564E+01
       vertex 4.1031530E+01 5.5555980E+01 -1.209600E+01
    endloop
endfacet
facet normal  0.88283127236 0.28457403714 0.37366637783
    outer loop
       vertex 3.9752040E+01 6.0601880E+01 -1.234383E+01
       vertex 3.9692290E+01 5.9689500E+01 -1.150782E+01
       vertex 4.0134190E+01 5.9544430E+01 -1.244138E+01
    endloop
endfacet
facet normal  0.85973274554 0.44258802656 0.25490281481
    outer loop
       vertex 3.8834450E+01 6.3959930E+01 -1.350709E+01
       vertex 3.9340580E+01 6.3482220E+01 -1.438471E+01
       vertex 3.8968860E+01 6.4243800E+01 -1.445331E+01
    endloop
endfacet
facet normal  0.85229069187 0.45521940809 0.25763514327
    outer loop
       vertex 3.8567470E+01 6.4776050E+01 -1.406590E+01
       vertex 3.8834450E+01 6.3959930E+01 -1.350709E+01
       vertex 3.8968860E+01 6.4243800E+01 -1.445331E+01
    endloop
endfacet
facet normal  0.87653583323 0.44438057923 0.18496170919
    outer loop
       vertex 3.9180830E+01 6.4157600E+01 -1.525029E+01
       vertex 3.9340580E+01 6.3482220E+01 -1.438471E+01
       vertex 3.9630250E+01 6.3312430E+01 -1.534953E+01
    endloop
endfacet
facet normal  0.8764754054  0.44446703376 0.18504031892
    outer loop
       vertex 3.9180830E+01 6.4157600E+01 -1.525029E+01
       vertex 3.8968860E+01 6.4243800E+01 -1.445331E+01
       vertex 3.9340580E+01 6.3482220E+01 -1.438471E+01
    endloop
endfacet
facet normal  0.89493753414 0.4002234378  0.19725113391
    outer loop
       vertex 3.9630250E+01 6.3312430E+01 -1.534953E+01
       vertex 3.9794780E+01 6.2491170E+01 -1.442967E+01
       vertex 4.0062810E+01 6.2382410E+01 -1.542506E+01
    endloop
endfacet
facet normal  0.89445165373 0.40094705252 0.1979840908 
    outer loop
       vertex 3.9630250E+01 6.3312430E+01 -1.534953E+01
       vertex 3.9340580E+01 6.3482220E+01 -1.438471E+01
       vertex 3.9794780E+01 6.2491170E+01 -1.442967E+01
    endloop
endfacet
facet normal  0.90159574912 0.41235254477 0.13073057788
    outer loop
       vertex 4.0062810E+01 6.2382410E+01 -1.542506E+01
       vertex 4.0284420E+01 6.2206850E+01 -1.639966E+01
       vertex 3.9828130E+01 6.3187400E+01 -1.634568E+01
    endloop
endfacet
facet normal  0.90320024096 0.4096910621  0.1279943685 
    outer loop
       vertex 3.9828130E+01 6.3187400E+01 -1.634568E+01
       vertex 3.9630250E+01 6.3312430E+01 -1.534953E+01
       vertex 4.0062810E+01 6.2382410E+01 -1.542506E+01
    endloop
endfacet
facet normal  0.88332906252 0.45351570758 0.11854648996
    outer loop
       vertex 3.9348620E+01 6.4098210E+01 -1.625712E+01
       vertex 3.9630250E+01 6.3312430E+01 -1.534953E+01
       vertex 3.9828130E+01 6.3187400E+01 -1.634568E+01
    endloop
endfacet
facet normal  0.88231273229 0.45505719678 0.12019646458
    outer loop
       vertex 3.9348620E+01 6.4098210E+01 -1.625712E+01
       vertex 3.9180830E+01 6.4157600E+01 -1.525029E+01
       vertex 3.9630250E+01 6.3312430E+01 -1.534953E+01
    endloop
endfacet
facet normal  0.89806278442 0.2942528128  0.32695338718
    outer loop
       vertex 3.9918790E+01 6.1437570E+01 -1.355396E+01
       vertex 3.9752040E+01 6.0601880E+01 -1.234383E+01
       vertex 4.0263100E+01 6.0204240E+01 -1.338972E+01
    endloop
endfacet
facet normal  0.87994036379 0.39103833712 0.26980358609
    outer loop
       vertex 3.9340580E+01 6.3482220E+01 -1.438471E+01
       vertex 3.9335550E+01 6.2739460E+01 -1.329179E+01
       vertex 3.9794780E+01 6.2491170E+01 -1.442967E+01
    endloop
endfacet
facet normal  0.86961393516 0.40648447204 0.28025341704
    outer loop
       vertex 3.9340580E+01 6.3482220E+01 -1.438471E+01
       vertex 3.8834450E+01 6.3959930E+01 -1.350709E+01
       vertex 3.9335550E+01 6.2739460E+01 -1.329179E+01
    endloop
endfacet
facet normal  0.88837027451 0.33469488714 0.31428901968
    outer loop
       vertex 3.9335550E+01 6.2739460E+01 -1.329179E+01
       vertex 3.9390910E+01 6.1775290E+01 -1.242150E+01
       vertex 3.9918790E+01 6.1437570E+01 -1.355396E+01
    endloop
endfacet
facet normal  0.90991770481 0.31639666417 0.26822177647
    outer loop
       vertex 3.9918790E+01 6.1437570E+01 -1.355396E+01
       vertex 4.0402880E+01 6.0769000E+01 -1.440754E+01
       vertex 4.0156300E+01 6.1663390E+01 -1.462607E+01
    endloop
endfacet
facet normal  0.91183097756 0.2928734013  0.28773154012
    outer loop
       vertex 3.9918790E+01 6.1437570E+01 -1.355396E+01
       vertex 4.0263100E+01 6.0204240E+01 -1.338972E+01
       vertex 4.0402880E+01 6.0769000E+01 -1.440754E+01
    endloop
endfacet
facet normal  0.91857620138 0.32154368816 0.22984216076
    outer loop
       vertex 4.0418270E+01 6.1439900E+01 -1.540762E+01
       vertex 4.0402880E+01 6.0769000E+01 -1.440754E+01
       vertex 4.0732780E+01 6.0480480E+01 -1.532237E+01
    endloop
endfacet
facet normal  0.92484320975 0.30912156639 0.22160526746
    outer loop
       vertex 4.0418270E+01 6.1439900E+01 -1.540762E+01
       vertex 4.0156300E+01 6.1663390E+01 -1.462607E+01
       vertex 4.0402880E+01 6.0769000E+01 -1.440754E+01
    endloop
endfacet
facet normal  0.92213632665 0.33651537398 0.1908454824 
    outer loop
       vertex 4.0679550E+01 6.1199920E+01 -1.633375E+01
       vertex 4.0732780E+01 6.0480480E+01 -1.532237E+01
       vertex 4.1018220E+01 6.0254310E+01 -1.630277E+01
    endloop
endfacet
facet normal  0.93002893393 0.32080290923 0.17925310453
    outer loop
       vertex 4.0679550E+01 6.1199920E+01 -1.633375E+01
       vertex 4.0418270E+01 6.1439900E+01 -1.540762E+01
       vertex 4.0732780E+01 6.0480480E+01 -1.532237E+01
    endloop
endfacet
facet normal  0.923685711   0.37183405381 0.09243453744
    outer loop
       vertex 4.0679550E+01 6.1199920E+01 -1.633375E+01
       vertex 4.0927880E+01 6.0809270E+01 -1.724382E+01
       vertex 4.0539700E+01 6.1787010E+01 -1.729792E+01
    endloop
endfacet
facet normal  0.93460204268 0.3383246718  0.10979725979
    outer loop
       vertex 4.0679550E+01 6.1199920E+01 -1.633375E+01
       vertex 4.1018220E+01 6.0254310E+01 -1.630277E+01
       vertex 4.0927880E+01 6.0809270E+01 -1.724382E+01
    endloop
endfacet
facet normal  0.92461174709 0.35142873939 0.14693862075
    outer loop
       vertex 4.0062810E+01 6.2382410E+01 -1.542506E+01
       vertex 4.0418270E+01 6.1439900E+01 -1.540762E+01
       vertex 4.0284420E+01 6.2206850E+01 -1.639966E+01
    endloop
endfacet
facet normal  0.9148871361  0.36963677047 0.16232740408
    outer loop
       vertex 4.0284420E+01 6.2206850E+01 -1.639966E+01
       vertex 4.0418270E+01 6.1439900E+01 -1.540762E+01
       vertex 4.0679550E+01 6.1199920E+01 -1.633375E+01
    endloop
endfacet
facet normal  0.92504835554 0.36892012889 0.0904625802 
    outer loop
       vertex 4.0284420E+01 6.2206850E+01 -1.639966E+01
       vertex 4.0679550E+01 6.1199920E+01 -1.633375E+01
       vertex 4.0539700E+01 6.1787010E+01 -1.729792E+01
    endloop
endfacet
facet normal  0.89042347998 0.45201238506 0.05320554524
    outer loop
       vertex 4.0003530E+01 6.2955890E+01 -1.731428E+01
       vertex 3.9450310E+01 6.4057420E+01 -1.741399E+01
       vertex 3.9828130E+01 6.3187400E+01 -1.634568E+01
    endloop
endfacet
facet normal  0.88563940881 0.46026710525 0.0616200405 
    outer loop
       vertex 3.9828130E+01 6.3187400E+01 -1.634568E+01
       vertex 3.9450310E+01 6.4057420E+01 -1.741399E+01
       vertex 3.9348620E+01 6.4098210E+01 -1.625712E+01
    endloop
endfacet
facet normal  0.89308580334 0.44970130395 0.01290291057
    outer loop
       vertex 3.9778980E+01 6.3430460E+01 -1.831191E+01
       vertex 3.9450310E+01 6.4057420E+01 -1.741399E+01
       vertex 4.0003530E+01 6.2955890E+01 -1.731428E+01
    endloop
endfacet
facet normal  0.88619710326 0.46330758464 8.8101241E-04
    outer loop
       vertex 3.9778980E+01 6.3430460E+01 -1.831191E+01
       vertex 3.9330590E+01 6.4288510E+01 -1.851526E+01
       vertex 3.9450310E+01 6.4057420E+01 -1.741399E+01
    endloop
endfacet
facet normal  0.88159366712 0.47199823458 0.00320509793
    outer loop
       vertex 3.8978450E+01 6.4942700E+01 -1.799488E+01
       vertex 3.9450310E+01 6.4057420E+01 -1.741399E+01
       vertex 3.9330590E+01 6.4288510E+01 -1.851526E+01
    endloop
endfacet
facet normal  0.87333438992 0.48610705893 0.03141608894
    outer loop
       vertex 3.8978450E+01 6.4942700E+01 -1.799488E+01
       vertex 3.8966070E+01 6.4899210E+01 -1.697780E+01
       vertex 3.9450310E+01 6.4057420E+01 -1.741399E+01
    endloop
endfacet
facet normal  0.88043072298 0.47285738611 -0.0353218691
    outer loop
       vertex 3.8942390E+01 6.4978640E+01 -1.895267E+01
       vertex 3.9330590E+01 6.4288510E+01 -1.851526E+01
       vertex 3.9227090E+01 6.4421330E+01 -1.931702E+01
    endloop
endfacet
facet normal  0.87546697732 0.48305020825 -0.0148346868
    outer loop
       vertex 3.8942390E+01 6.4978640E+01 -1.895267E+01
       vertex 3.8978450E+01 6.4942700E+01 -1.799488E+01
       vertex 3.9330590E+01 6.4288510E+01 -1.851526E+01
    endloop
endfacet
facet normal  0.88619217585 0.45843741985 -0.067071302 
    outer loop
       vertex 3.8903800E+01 6.4963640E+01 -1.988182E+01
       vertex 3.9227090E+01 6.4421330E+01 -1.931702E+01
       vertex 3.9248540E+01 6.4263210E+01 -2.011437E+01
    endloop
endfacet
facet normal  0.87767185096 0.4772235893  -0.0441561756
    outer loop
       vertex 3.8903800E+01 6.4963640E+01 -1.988182E+01
       vertex 3.8942390E+01 6.4978640E+01 -1.895267E+01
       vertex 3.9227090E+01 6.4421330E+01 -1.931702E+01
    endloop
endfacet
facet normal  0.90317662025 0.41958993606 -0.0906436882
    outer loop
       vertex 3.9248540E+01 6.4263210E+01 -2.011437E+01
       vertex 3.9570160E+01 6.3752510E+01 -1.927377E+01
       vertex 3.9658050E+01 6.3336600E+01 -2.032328E+01
    endloop
endfacet
facet normal  0.88956740826 0.45205248961 -0.0657143271
    outer loop
       vertex 3.9248540E+01 6.4263210E+01 -2.011437E+01
       vertex 3.9227090E+01 6.4421330E+01 -1.931702E+01
       vertex 3.9570160E+01 6.3752510E+01 -1.927377E+01
    endloop
endfacet
facet normal  0.90762449228 0.40089090697 -0.1245161103
    outer loop
       vertex 3.9177520E+01 6.4186070E+01 -2.109102E+01
       vertex 3.9658050E+01 6.3336600E+01 -2.032328E+01
       vertex 3.9465690E+01 6.3413120E+01 -2.147907E+01
    endloop
endfacet
facet normal  0.90175467003 0.42080278781 -0.0988105705
    outer loop
       vertex 3.9177520E+01 6.4186070E+01 -2.109102E+01
       vertex 3.9248540E+01 6.4263210E+01 -2.011437E+01
       vertex 3.9658050E+01 6.3336600E+01 -2.032328E+01
    endloop
endfacet
facet normal  0.91790022638 0.37563434528 -0.1278984482
    outer loop
       vertex 3.9465690E+01 6.3413120E+01 -2.147907E+01
       vertex 3.9658050E+01 6.3336600E+01 -2.032328E+01
       vertex 3.9889490E+01 6.2467540E+01 -2.121469E+01
    endloop
endfacet
facet normal  0.91339849627 0.38343641734 -0.1366737022
    outer loop
       vertex 3.9889490E+01 6.2467540E+01 -2.121469E+01
       vertex 3.9658050E+01 6.3336600E+01 -2.032328E+01
       vertex 4.0152150E+01 6.2211990E+01 -2.017626E+01
    endloop
endfacet
facet normal  0.91737479711 0.37047878222 -0.1454955448
    outer loop
       vertex 3.9889490E+01 6.2467540E+01 -2.121469E+01
       vertex 3.9630570E+01 6.2727250E+01 -2.218592E+01
       vertex 3.9465690E+01 6.3413120E+01 -2.147907E+01
    endloop
endfacet
facet normal  0.9221371993  0.36208105043 -0.1362361868
    outer loop
       vertex 3.9292770E+01 6.3518370E+01 -2.236978E+01
       vertex 3.9465690E+01 6.3413120E+01 -2.147907E+01
       vertex 3.9630570E+01 6.2727250E+01 -2.218592E+01
    endloop
endfacet
facet normal  0.92841655092 0.33649366428 -0.1575268925
    outer loop
       vertex 3.9889490E+01 6.2467540E+01 -2.121469E+01
       vertex 4.0005730E+01 6.1732700E+01 -2.209930E+01
       vertex 3.9630570E+01 6.2727250E+01 -2.218592E+01
    endloop
endfacet
facet normal  0.93565500109 0.30820144844 -0.171934831 
    outer loop
       vertex 3.9708730E+01 6.2166250E+01 -2.293839E+01
       vertex 4.0005730E+01 6.1732700E+01 -2.209930E+01
       vertex 4.0019520E+01 6.1201030E+01 -2.297730E+01
    endloop
endfacet
facet normal  0.92875838907 0.33687049836 -0.15468071  
    outer loop
       vertex 3.9708730E+01 6.2166250E+01 -2.293839E+01
       vertex 3.9630570E+01 6.2727250E+01 -2.218592E+01
       vertex 4.0005730E+01 6.1732700E+01 -2.209930E+01
    endloop
endfacet
facet normal  0.91304838314 0.39245329178 -0.1110092961
    outer loop
       vertex 3.8676650E+01 6.4849670E+01 -2.281667E+01
       vertex 3.9057960E+01 6.4166070E+01 -2.209715E+01
       vertex 3.8983470E+01 6.4027850E+01 -2.319848E+01
    endloop
endfacet
facet normal  0.90675626063 0.41216729727 -0.0889449429
    outer loop
       vertex 3.8676650E+01 6.4849670E+01 -2.281667E+01
       vertex 3.8757480E+01 6.4890370E+01 -2.180404E+01
       vertex 3.9057960E+01 6.4166070E+01 -2.209715E+01
    endloop
endfacet
facet normal  0.90012698633 0.42008817357 -0.1153140707
    outer loop
       vertex 3.8757480E+01 6.4890370E+01 -2.180404E+01
       vertex 3.9177520E+01 6.4186070E+01 -2.109102E+01
       vertex 3.9057960E+01 6.4166070E+01 -2.209715E+01
    endloop
endfacet
facet normal  0.89464641245 0.43632972174 -0.0960425459
    outer loop
       vertex 3.8757480E+01 6.4890370E+01 -2.180404E+01
       vertex 3.8845420E+01 6.4923550E+01 -2.083413E+01
       vertex 3.9177520E+01 6.4186070E+01 -2.109102E+01
    endloop
endfacet
facet normal  0.8917137143  0.44230564635 -0.095981076 
    outer loop
       vertex 3.8757480E+01 6.4890370E+01 -2.180404E+01
       vertex 3.8416380E+01 6.5639500E+01 -2.152085E+01
       vertex 3.8845420E+01 6.4923550E+01 -2.083413E+01
    endloop
endfacet
facet normal  0.89678057444 0.43626218831 -0.0738911656
    outer loop
       vertex 3.8757480E+01 6.4890370E+01 -2.180404E+01
       vertex 3.8362950E+01 6.5587420E+01 -2.247679E+01
       vertex 3.8416380E+01 6.5639500E+01 -2.152085E+01
    endloop
endfacet
facet normal  0.88836272768 0.45293517881 -0.0752421948
    outer loop
       vertex 3.8013600E+01 6.6467890E+01 -2.128970E+01
       vertex 3.8483940E+01 6.5671420E+01 -2.053104E+01
       vertex 3.8416380E+01 6.5639500E+01 -2.152085E+01
    endloop
endfacet
facet normal  0.87946793135 0.473724112   -0.0460610838
    outer loop
       vertex 3.8053260E+01 6.6499450E+01 -2.023820E+01
       vertex 3.8527030E+01 6.5687720E+01 -1.954066E+01
       vertex 3.8483940E+01 6.5671420E+01 -2.053104E+01
    endloop
endfacet
facet normal  0.8688602298  0.49485176413 -0.0142699896
    outer loop
       vertex 3.8053260E+01 6.6499450E+01 -2.023820E+01
       vertex 3.8074230E+01 6.6492080E+01 -1.921697E+01
       vertex 3.8527030E+01 6.5687720E+01 -1.954066E+01
    endloop
endfacet
facet normal  0.8678896563  0.49637733512 -0.0194186935
    outer loop
       vertex 3.8074230E+01 6.6492080E+01 -1.921697E+01
       vertex 3.8547650E+01 6.5689980E+01 -1.856131E+01
       vertex 3.8527030E+01 6.5687720E+01 -1.954066E+01
    endloop
endfacet
facet normal  0.86029038216 0.50979826796 0.00248683465
    outer loop
       vertex 3.8074230E+01 6.6492080E+01 -1.921697E+01
       vertex 3.8079640E+01 6.6478130E+01 -1.822876E+01
       vertex 3.8547650E+01 6.5689980E+01 -1.856131E+01
    endloop
endfacet
facet normal  0.88589248809 0.45801642335 -0.0735897784
    outer loop
       vertex 3.8845420E+01 6.4923550E+01 -2.083413E+01
       vertex 3.8483940E+01 6.5671420E+01 -2.053104E+01
       vertex 3.8903800E+01 6.4963640E+01 -1.988182E+01
    endloop
endfacet
facet normal  0.88550793155 0.4584939059  -0.0752266004
    outer loop
       vertex 3.8845420E+01 6.4923550E+01 -2.083413E+01
       vertex 3.8416380E+01 6.5639500E+01 -2.152085E+01
       vertex 3.8483940E+01 6.5671420E+01 -2.053104E+01
    endloop
endfacet
facet normal  0.90119007372 0.42419136465 -0.0889839153
    outer loop
       vertex 3.8676650E+01 6.4849670E+01 -2.281667E+01
       vertex 3.8362950E+01 6.5587420E+01 -2.247679E+01
       vertex 3.8757480E+01 6.4890370E+01 -2.180404E+01
    endloop
endfacet
facet normal  0.92689153262 0.35234341574 -0.1293298269
    outer loop
       vertex 3.8983470E+01 6.4027850E+01 -2.319848E+01
       vertex 3.9292770E+01 6.3518370E+01 -2.236978E+01
       vertex 3.9356430E+01 6.3093380E+01 -2.307137E+01
    endloop
endfacet
facet normal  0.91875622644 0.37926773206 -0.1097405294
    outer loop
       vertex 3.8983470E+01 6.4027850E+01 -2.319848E+01
       vertex 3.9057960E+01 6.4166070E+01 -2.209715E+01
       vertex 3.9292770E+01 6.3518370E+01 -2.236978E+01
    endloop
endfacet
facet normal  0.93107354443 0.33215148139 -0.150921994 
    outer loop
       vertex 3.9356430E+01 6.3093380E+01 -2.307137E+01
       vertex 3.9630570E+01 6.2727250E+01 -2.218592E+01
       vertex 3.9708730E+01 6.2166250E+01 -2.293839E+01
    endloop
endfacet
facet normal  0.92216134355 0.3622079543  -0.1357344993
    outer loop
       vertex 3.9356430E+01 6.3093380E+01 -2.307137E+01
       vertex 3.9292770E+01 6.3518370E+01 -2.236978E+01
       vertex 3.9630570E+01 6.2727250E+01 -2.218592E+01
    endloop
endfacet
facet normal  0.91292081718 0.38634483141 -0.1315798343
    outer loop
       vertex 3.9057960E+01 6.4166070E+01 -2.209715E+01
       vertex 3.9465690E+01 6.3413120E+01 -2.147907E+01
       vertex 3.9292770E+01 6.3518370E+01 -2.236978E+01
    endloop
endfacet
facet normal  0.91018771262 0.39760255744 -0.1160626301
    outer loop
       vertex 3.9057960E+01 6.4166070E+01 -2.209715E+01
       vertex 3.9177520E+01 6.4186070E+01 -2.109102E+01
       vertex 3.9465690E+01 6.3413120E+01 -2.147907E+01
    endloop
endfacet
facet normal  0.89384757738 0.43718461667 -0.0995294899
    outer loop
       vertex 3.8845420E+01 6.4923550E+01 -2.083413E+01
       vertex 3.9248540E+01 6.4263210E+01 -2.011437E+01
       vertex 3.9177520E+01 6.4186070E+01 -2.109102E+01
    endloop
endfacet
facet normal  0.88488159991 0.45996321265 -0.0736097626
    outer loop
       vertex 3.8845420E+01 6.4923550E+01 -2.083413E+01
       vertex 3.8903800E+01 6.4963640E+01 -1.988182E+01
       vertex 3.9248540E+01 6.4263210E+01 -2.011437E+01
    endloop
endfacet
facet normal  0.87755702292 0.47743483709 -0.0441548168
    outer loop
       vertex 3.8903800E+01 6.4963640E+01 -1.988182E+01
       vertex 3.8527030E+01 6.5687720E+01 -1.954066E+01
       vertex 3.8942390E+01 6.4978640E+01 -1.895267E+01
    endloop
endfacet
facet normal  0.87710699618 0.47808424465 -0.0460301234
    outer loop
       vertex 3.8903800E+01 6.4963640E+01 -1.988182E+01
       vertex 3.8483940E+01 6.5671420E+01 -2.053104E+01
       vertex 3.8527030E+01 6.5687720E+01 -1.954066E+01
    endloop
endfacet
facet normal  0.870928918   0.49119921232 -0.0143580504
    outer loop
       vertex 3.8942390E+01 6.4978640E+01 -1.895267E+01
       vertex 3.8547650E+01 6.5689980E+01 -1.856131E+01
       vertex 3.8978450E+01 6.4942700E+01 -1.799488E+01
    endloop
endfacet
facet normal  0.8696479984  0.49328907476 -0.0194485884
    outer loop
       vertex 3.8942390E+01 6.4978640E+01 -1.895267E+01
       vertex 3.8527030E+01 6.5687720E+01 -1.954066E+01
       vertex 3.8547650E+01 6.5689980E+01 -1.856131E+01
    endloop
endfacet
facet normal  0.88947607304 0.45516508206 -0.0407070456
    outer loop
       vertex 3.9778980E+01 6.3430460E+01 -1.831191E+01
       vertex 3.9570160E+01 6.3752510E+01 -1.927377E+01
       vertex 3.9330590E+01 6.4288510E+01 -1.851526E+01
    endloop
endfacet
facet normal  0.89011017156 0.45401359289 -0.0396930719
    outer loop
       vertex 3.9330590E+01 6.4288510E+01 -1.851526E+01
       vertex 3.9570160E+01 6.3752510E+01 -1.927377E+01
       vertex 3.9227090E+01 6.4421330E+01 -1.931702E+01
    endloop
endfacet
facet normal  0.90680446358 0.41683501345 0.06288271927
    outer loop
       vertex 4.0539700E+01 6.1787010E+01 -1.729792E+01
       vertex 4.0003530E+01 6.2955890E+01 -1.731428E+01
       vertex 4.0284420E+01 6.2206850E+01 -1.639966E+01
    endloop
endfacet
facet normal  0.90146387762 0.43284395394 0.00299814711
    outer loop
       vertex 4.0291980E+01 6.2361350E+01 -1.820957E+01
       vertex 3.9778980E+01 6.3430460E+01 -1.831191E+01
       vertex 4.0003530E+01 6.2955890E+01 -1.731428E+01
    endloop
endfacet
facet normal  0.89943323871 0.42686514715 -0.0938402645
    outer loop
       vertex 4.0015820E+01 6.2826810E+01 -1.921311E+01
       vertex 3.9658050E+01 6.3336600E+01 -2.032328E+01
       vertex 3.9570160E+01 6.3752510E+01 -1.927377E+01
    endloop
endfacet
facet normal  0.91477042356 0.38657390242 -0.1172846544
    outer loop
       vertex 4.0015820E+01 6.2826810E+01 -1.921311E+01
       vertex 4.0152150E+01 6.2211990E+01 -2.017626E+01
       vertex 3.9658050E+01 6.3336600E+01 -2.032328E+01
    endloop
endfacet
facet normal  0.91900541027 0.38738583021 -0.0732207242
    outer loop
       vertex 4.0291980E+01 6.2361350E+01 -1.820957E+01
       vertex 4.0476900E+01 6.1746740E+01 -1.914030E+01
       vertex 4.0015820E+01 6.2826810E+01 -1.921311E+01
    endloop
endfacet
facet normal  0.92077864229 0.38367674067 -0.0704191066
    outer loop
       vertex 4.0291980E+01 6.2361350E+01 -1.820957E+01
       vertex 4.0737730E+01 6.1298280E+01 -1.817319E+01
       vertex 4.0476900E+01 6.1746740E+01 -1.914030E+01
    endloop
endfacet
facet normal  0.92466646178 0.34366280747 -0.1639750262
    outer loop
       vertex 3.9889490E+01 6.2467540E+01 -2.121469E+01
       vertex 4.0284730E+01 6.1444670E+01 -2.112966E+01
       vertex 4.0005730E+01 6.1732700E+01 -2.209930E+01
    endloop
endfacet
facet normal  0.93863465191 0.30615521602 -0.1588520504
    outer loop
       vertex 4.0559640E+01 6.1155490E+01 -2.011522E+01
       vertex 4.0885140E+01 6.0185700E+01 -2.006096E+01
       vertex 4.0631480E+01 6.0453070E+01 -2.104450E+01
    endloop
endfacet
facet normal  0.94557094892 0.27862008223 -0.1681262333
    outer loop
       vertex 4.0631480E+01 6.0453070E+01 -2.104450E+01
       vertex 4.0885140E+01 6.0185700E+01 -2.006096E+01
       vertex 4.0944220E+01 5.9518200E+01 -2.083487E+01
    endloop
endfacet
facet normal  0.95029546184 0.26794906078 -0.1585617736
    outer loop
       vertex 4.0944220E+01 5.9518200E+01 -2.083487E+01
       vertex 4.0885140E+01 6.0185700E+01 -2.006096E+01
       vertex 4.1119430E+01 5.9386680E+01 -2.000705E+01
    endloop
endfacet
facet normal  0.94356890926 0.27390891974 -0.1861494485
    outer loop
       vertex 4.0687760E+01 5.9669510E+01 -2.191219E+01
       vertex 4.0631480E+01 6.0453070E+01 -2.104450E+01
       vertex 4.0944220E+01 5.9518200E+01 -2.083487E+01
    endloop
endfacet
facet normal  0.93271723645 0.31039527065 -0.1835574373
    outer loop
       vertex 4.0631480E+01 6.0453070E+01 -2.104450E+01
       vertex 4.0338190E+01 6.0726190E+01 -2.207296E+01
       vertex 4.0284730E+01 6.1444670E+01 -2.112966E+01
    endloop
endfacet
facet normal  0.93562354541 0.30436636805 -0.1788007138
    outer loop
       vertex 4.0005730E+01 6.1732700E+01 -2.209930E+01
       vertex 4.0284730E+01 6.1444670E+01 -2.112966E+01
       vertex 4.0338190E+01 6.0726190E+01 -2.207296E+01
    endloop
endfacet
facet normal  0.9396745923  0.30852033504 -0.1477391737
    outer loop
       vertex 4.0019520E+01 6.1201030E+01 -2.297730E+01
       vertex 3.9766870E+01 6.1681850E+01 -2.358016E+01
       vertex 3.9708730E+01 6.2166250E+01 -2.293839E+01
    endloop
endfacet
facet normal  0.94802499225 0.24541987271 -0.20252827  
    outer loop
       vertex 4.0559570E+01 5.9303660E+01 -2.289993E+01
       vertex 4.0240140E+01 5.9666140E+01 -2.395592E+01
       vertex 4.0283020E+01 6.0270920E+01 -2.302234E+01
    endloop
endfacet
facet normal  0.83526469262 0.51419421061 0.19477475976
    outer loop
       vertex 3.7370150E+01 6.6922040E+01 -1.430908E+01
       vertex 3.7765150E+01 6.6653480E+01 -1.529400E+01
       vertex 3.7196330E+01 6.7517520E+01 -1.513571E+01
    endloop
endfacet
facet normal  0.86252583239 0.5058349898  0.01342205465
    outer loop
       vertex 3.7595220E+01 6.7293090E+01 -1.781232E+01
       vertex 3.8081250E+01 6.6449650E+01 -1.725890E+01
       vertex 3.8079640E+01 6.6478130E+01 -1.822876E+01
    endloop
endfacet
facet normal  0.85497952432 0.51730241067 0.03752637608
    outer loop
       vertex 3.7595220E+01 6.7293090E+01 -1.781232E+01
       vertex 3.7655350E+01 6.7133890E+01 -1.698771E+01
       vertex 3.8081250E+01 6.6449650E+01 -1.725890E+01
    endloop
endfacet
facet normal  0.86150077312 0.50767238447 0.00922864835
    outer loop
       vertex 3.8079640E+01 6.6478130E+01 -1.822876E+01
       vertex 3.8545960E+01 6.5674970E+01 -1.757784E+01
       vertex 3.8547650E+01 6.5689980E+01 -1.856131E+01
    endloop
endfacet
facet normal  0.85991420795 0.51025854428 0.01355628799
    outer loop
       vertex 3.8079640E+01 6.6478130E+01 -1.822876E+01
       vertex 3.8081250E+01 6.6449650E+01 -1.725890E+01
       vertex 3.8545960E+01 6.5674970E+01 -1.757784E+01
    endloop
endfacet
facet normal  0.86841189588 0.4948272898  0.031729046  
    outer loop
       vertex 3.8978450E+01 6.4942700E+01 -1.799488E+01
       vertex 3.8545960E+01 6.5674970E+01 -1.757784E+01
       vertex 3.8966070E+01 6.4899210E+01 -1.697780E+01
    endloop
endfacet
facet normal  0.86328278943 0.50463695289 0.00918538296
    outer loop
       vertex 3.8978450E+01 6.4942700E+01 -1.799488E+01
       vertex 3.8547650E+01 6.5689980E+01 -1.856131E+01
       vertex 3.8545960E+01 6.5674970E+01 -1.757784E+01
    endloop
endfacet
facet normal  0.87845465406 0.47397949809 0.06050500924
    outer loop
       vertex 3.8966070E+01 6.4899210E+01 -1.697780E+01
       vertex 3.9348620E+01 6.4098210E+01 -1.625712E+01
       vertex 3.9450310E+01 6.4057420E+01 -1.741399E+01
    endloop
endfacet
facet normal  0.87079571458 0.48551547307 0.07739217588
    outer loop
       vertex 3.8966070E+01 6.4899210E+01 -1.697780E+01
       vertex 3.8878940E+01 6.4889530E+01 -1.593671E+01
       vertex 3.9348620E+01 6.4098210E+01 -1.625712E+01
    endloop
endfacet
facet normal  0.87415888716 0.47111365175 0.11789048787
    outer loop
       vertex 3.8878940E+01 6.4889530E+01 -1.593671E+01
       vertex 3.9180830E+01 6.4157600E+01 -1.525029E+01
       vertex 3.9348620E+01 6.4098210E+01 -1.625712E+01
    endloop
endfacet
facet normal  0.86392310912 0.48467368886 0.13685129466
    outer loop
       vertex 3.8878940E+01 6.4889530E+01 -1.593671E+01
       vertex 3.8748500E+01 6.4848060E+01 -1.496639E+01
       vertex 3.9180830E+01 6.4157600E+01 -1.525029E+01
    endloop
endfacet
facet normal  0.86530541733 0.46799286613 0.17952496204
    outer loop
       vertex 3.8748500E+01 6.4848060E+01 -1.496639E+01
       vertex 3.8968860E+01 6.4243800E+01 -1.445331E+01
       vertex 3.9180830E+01 6.4157600E+01 -1.525029E+01
    endloop
endfacet
facet normal  0.84791369463 0.48702293649 0.2094063652 
    outer loop
       vertex 3.8748500E+01 6.4848060E+01 -1.496639E+01
       vertex 3.8567470E+01 6.4776050E+01 -1.406590E+01
       vertex 3.8968860E+01 6.4243800E+01 -1.445331E+01
    endloop
endfacet
facet normal  0.86403984324 0.49344653485 0.09972796271
    outer loop
       vertex 3.8001310E+01 6.6476720E+01 -1.629231E+01
       vertex 3.8346090E+01 6.5696160E+01 -1.541732E+01
       vertex 3.8496620E+01 6.5664610E+01 -1.656540E+01
    endloop
endfacet
facet normal  0.85581294052 0.50477526986 0.11307580544
    outer loop
       vertex 3.8001310E+01 6.6476720E+01 -1.629231E+01
       vertex 3.7765150E+01 6.6653480E+01 -1.529400E+01
       vertex 3.8346090E+01 6.5696160E+01 -1.541732E+01
    endloop
endfacet
facet normal  0.83418351507 0.48995691354 0.25314044731
    outer loop
       vertex 3.8567470E+01 6.4776050E+01 -1.406590E+01
       vertex 3.8344950E+01 6.5374960E+01 -1.449182E+01
       vertex 3.8026570E+01 6.5490180E+01 -1.366566E+01
    endloop
endfacet
endsolid
