solid S192803_MCL_Super_Ant_Region_Fem
facet normal  -0.8719321705 -0.1328579249 -0.4712568957
    outer loop
       vertex -4.251780E+01 4.7639020E+01 -3.222102E+01
       vertex -4.217049E+01 4.7917670E+01 -3.294218E+01
       vertex -4.227905E+01 4.6931160E+01 -3.246320E+01
    endloop
endfacet
facet normal  -0.8823172504 -0.0938792328 -0.4611973105
    outer loop
       vertex -4.254366E+01 4.8474580E+01 -3.234163E+01
       vertex -4.217049E+01 4.7917670E+01 -3.294218E+01
       vertex -4.251780E+01 4.7639020E+01 -3.222102E+01
    endloop
endfacet
facet normal  -0.8838582448 -0.0993491304 -0.4570824361
    outer loop
       vertex -4.254366E+01 4.8474580E+01 -3.234163E+01
       vertex -4.220182E+01 4.8992100E+01 -3.311513E+01
       vertex -4.217049E+01 4.7917670E+01 -3.294218E+01
    endloop
endfacet
facet normal  -0.8970396088 -0.0615813099 -0.4376387581
    outer loop
       vertex -4.258139E+01 4.9446960E+01 -3.240112E+01
       vertex -4.220182E+01 4.8992100E+01 -3.311513E+01
       vertex -4.254366E+01 4.8474580E+01 -3.234163E+01
    endloop
endfacet
facet normal  -0.8971718633 -0.0622705805 -0.4372699653
    outer loop
       vertex -4.258139E+01 4.9446960E+01 -3.240112E+01
       vertex -4.223917E+01 5.0052950E+01 -3.318957E+01
       vertex -4.220182E+01 4.8992100E+01 -3.311513E+01
    endloop
endfacet
facet normal  -0.9130857252 -0.0145599623 -0.4075076269
    outer loop
       vertex -4.259482E+01 5.0440040E+01 -3.240651E+01
       vertex -4.223917E+01 5.0052950E+01 -3.318957E+01
       vertex -4.258139E+01 4.9446960E+01 -3.240112E+01
    endloop
endfacet
facet normal  -0.9130747382 -0.014495414  -0.407534545 
    outer loop
       vertex -4.259482E+01 5.0440040E+01 -3.240651E+01
       vertex -4.225455E+01 5.1101310E+01 -3.319240E+01
       vertex -4.223917E+01 5.0052950E+01 -3.318957E+01
    endloop
endfacet
facet normal  -0.9177142626 1.2521259E-04 -0.3972411315
    outer loop
       vertex -4.260146E+01 5.1455700E+01 -3.239085E+01
       vertex -4.225455E+01 5.1101310E+01 -3.319240E+01
       vertex -4.259482E+01 5.0440040E+01 -3.240651E+01
    endloop
endfacet
facet normal  -0.9179951404 -0.001626301  -0.3965882969
    outer loop
       vertex -4.260146E+01 5.1455700E+01 -3.239085E+01
       vertex -4.227233E+01 5.2092820E+01 -3.315531E+01
       vertex -4.225455E+01 5.1101310E+01 -3.319240E+01
    endloop
endfacet
facet normal  -0.9208464912 0.00793836519 -0.3898444842
    outer loop
       vertex -4.259997E+01 5.2481070E+01 -3.237349E+01
       vertex -4.227233E+01 5.2092820E+01 -3.315531E+01
       vertex -4.260146E+01 5.1455700E+01 -3.239085E+01
    endloop
endfacet
facet normal  -0.9208126503 0.00812032438 -0.3899206629
    outer loop
       vertex -4.259997E+01 5.2481070E+01 -3.237349E+01
       vertex -4.224714E+01 5.3051120E+01 -3.319484E+01
       vertex -4.227233E+01 5.2092820E+01 -3.315531E+01
    endloop
endfacet
facet normal  -0.9220960673 0.0135194176  -0.3867247963
    outer loop
       vertex -4.256102E+01 5.3518330E+01 -3.243010E+01
       vertex -4.224714E+01 5.3051120E+01 -3.319484E+01
       vertex -4.259997E+01 5.2481070E+01 -3.237349E+01
    endloop
endfacet
facet normal  -0.9223907235 0.01224011189 -0.3860641564
    outer loop
       vertex -4.256102E+01 5.3518330E+01 -3.243010E+01
       vertex -4.218508E+01 5.4046070E+01 -3.331157E+01
       vertex -4.224714E+01 5.3051120E+01 -3.319484E+01
    endloop
endfacet
facet normal  -0.9231279768 0.01594210496 -0.3841621894
    outer loop
       vertex -4.249646E+01 5.4523800E+01 -3.254351E+01
       vertex -4.218508E+01 5.4046070E+01 -3.331157E+01
       vertex -4.256102E+01 5.3518330E+01 -3.243010E+01
    endloop
endfacet
facet normal  -0.9237447865 0.01331326492 -0.3827771237
    outer loop
       vertex -4.249646E+01 5.4523800E+01 -3.254351E+01
       vertex -4.214017E+01 5.5069050E+01 -3.338437E+01
       vertex -4.218508E+01 5.4046070E+01 -3.331157E+01
    endloop
endfacet
facet normal  -0.924040352  0.01468511397 -0.3820127948
    outer loop
       vertex -4.245675E+01 5.5461680E+01 -3.260351E+01
       vertex -4.214017E+01 5.5069050E+01 -3.338437E+01
       vertex -4.249646E+01 5.4523800E+01 -3.254351E+01
    endloop
endfacet
facet normal  -0.9244979638 0.01228026219 -0.3809891206
    outer loop
       vertex -4.245675E+01 5.5461680E+01 -3.260351E+01
       vertex -4.212616E+01 5.6075370E+01 -3.338593E+01
       vertex -4.214017E+01 5.5069050E+01 -3.338437E+01
    endloop
endfacet
facet normal  -0.924420753  0.01198800616 -0.3811857279
    outer loop
       vertex -4.245851E+01 5.6377180E+01 -3.257045E+01
       vertex -4.212616E+01 5.6075370E+01 -3.338593E+01
       vertex -4.245675E+01 5.5461680E+01 -3.260351E+01
    endloop
endfacet
facet normal  -0.9180503666 0.01954535145 -0.3959816961
    outer loop
       vertex -4.368405E+01 5.3332370E+01 -2.979689E+01
       vertex -4.365384E+01 5.4537400E+01 -2.980745E+01
       vertex -4.328508E+01 5.3753740E+01 -3.070107E+01
    endloop
endfacet
facet normal  -0.9147831382 0.02897710917 -0.4029046255
    outer loop
       vertex -4.315225E+01 5.4806800E+01 -3.092692E+01
       vertex -4.328508E+01 5.3753740E+01 -3.070107E+01
       vertex -4.365384E+01 5.4537400E+01 -2.980745E+01
    endloop
endfacet
facet normal  -0.9188793632 0.01872340078 -0.3940940879
    outer loop
       vertex -4.366457E+01 5.2166300E+01 -2.989771E+01
       vertex -4.368405E+01 5.3332370E+01 -2.979689E+01
       vertex -4.338321E+01 5.2872590E+01 -3.052018E+01
    endloop
endfacet
facet normal  -0.918284203  0.0211027936  -0.3953590705
    outer loop
       vertex -4.328508E+01 5.3753740E+01 -3.070107E+01
       vertex -4.338321E+01 5.2872590E+01 -3.052018E+01
       vertex -4.368405E+01 5.3332370E+01 -2.979689E+01
    endloop
endfacet
facet normal  -0.9189578903 0.01892456651 -0.3939013285
    outer loop
       vertex -4.366457E+01 5.2166300E+01 -2.989771E+01
       vertex -4.338321E+01 5.2872590E+01 -3.052018E+01
       vertex -4.325979E+01 5.2217450E+01 -3.083959E+01
    endloop
endfacet
facet normal  -0.9181100044 0.02024621283 -0.3958081742
    outer loop
       vertex -4.366457E+01 5.2166300E+01 -2.989771E+01
       vertex -4.330880E+01 5.1333640E+01 -3.076554E+01
       vertex -4.372273E+01 5.0887220E+01 -2.982823E+01
    endloop
endfacet
facet normal  -0.9189552486 0.01795156722 -0.3939530331
    outer loop
       vertex -4.366457E+01 5.2166300E+01 -2.989771E+01
       vertex -4.325979E+01 5.2217450E+01 -3.083959E+01
       vertex -4.330880E+01 5.1333640E+01 -3.076554E+01
    endloop
endfacet
facet normal  -0.9183075724 0.02153529658 -0.3952814611
    outer loop
       vertex -4.372273E+01 5.0887220E+01 -2.982823E+01
       vertex -4.330880E+01 5.1333640E+01 -3.076554E+01
       vertex -4.332995E+01 5.0238300E+01 -3.077608E+01
    endloop
endfacet
facet normal  -0.900317353  -0.080889196  -0.4276512619
    outer loop
       vertex -4.287291E+01 4.7876700E+01 -3.158038E+01
       vertex -4.321847E+01 4.7245150E+01 -3.073343E+01
       vertex -4.328938E+01 4.8232760E+01 -3.077095E+01
    endloop
endfacet
facet normal  -0.9081632643 -0.036705256  -0.4170038483
    outer loop
       vertex -4.292392E+01 4.8826030E+01 -3.161908E+01
       vertex -4.328938E+01 4.8232760E+01 -3.077095E+01
       vertex -4.332273E+01 4.9211620E+01 -3.078448E+01
    endloop
endfacet
facet normal  -0.8987733036 -0.0659622029 -0.4334230456
    outer loop
       vertex -4.292392E+01 4.8826030E+01 -3.161908E+01
       vertex -4.287291E+01 4.7876700E+01 -3.158038E+01
       vertex -4.328938E+01 4.8232760E+01 -3.077095E+01
    endloop
endfacet
facet normal  -0.9205722381 0.02067232111 -0.3900248832
    outer loop
       vertex -4.417603E+01 5.1583980E+01 -2.872138E+01
       vertex -4.366457E+01 5.2166300E+01 -2.989771E+01
       vertex -4.372273E+01 5.0887220E+01 -2.982823E+01
    endloop
endfacet
facet normal  -0.9197239086 0.01540515119 -0.3922634487
    outer loop
       vertex -4.417603E+01 5.1583980E+01 -2.872138E+01
       vertex -4.406898E+01 5.2796680E+01 -2.892475E+01
       vertex -4.366457E+01 5.2166300E+01 -2.989771E+01
    endloop
endfacet
facet normal  -0.9227554566 0.01125219778 -0.3852216964
    outer loop
       vertex -4.141867E+01 5.5336580E+01 -3.510947E+01
       vertex -4.177351E+01 5.4546790E+01 -3.428256E+01
       vertex -4.177842E+01 5.5714850E+01 -3.423668E+01
    endloop
endfacet
facet normal  -0.9216596902 0.00793679307 -0.387918062 
    outer loop
       vertex -4.141867E+01 5.5336580E+01 -3.510947E+01
       vertex -4.135923E+01 5.4363670E+01 -3.527060E+01
       vertex -4.177351E+01 5.4546790E+01 -3.428256E+01
    endloop
endfacet
facet normal  -0.9205686218 0.02155956574 -0.3899853815
    outer loop
       vertex -4.135923E+01 5.4363670E+01 -3.527060E+01
       vertex -4.155798E+01 5.3597910E+01 -3.484378E+01
       vertex -4.177351E+01 5.4546790E+01 -3.428256E+01
    endloop
endfacet
facet normal  -0.9251425835 0.01423201419 -0.3793529358
    outer loop
       vertex -4.177351E+01 5.4546790E+01 -3.428256E+01
       vertex -4.155798E+01 5.3597910E+01 -3.484378E+01
       vertex -4.189904E+01 5.3469270E+01 -3.401685E+01
    endloop
endfacet
facet normal  -0.9230616097 0.0099866716  -0.3845224716
    outer loop
       vertex -4.200145E+01 5.2643010E+01 -3.379247E+01
       vertex -4.189904E+01 5.3469270E+01 -3.401685E+01
       vertex -4.170343E+01 5.2698030E+01 -3.450645E+01
    endloop
endfacet
facet normal  -0.9248135842 0.00689864896 -0.3803580458
    outer loop
       vertex -4.155798E+01 5.3597910E+01 -3.484378E+01
       vertex -4.170343E+01 5.2698030E+01 -3.450645E+01
       vertex -4.189904E+01 5.3469270E+01 -3.401685E+01
    endloop
endfacet
facet normal  -0.9230374382 0.00869605178 -0.3846118386
    outer loop
       vertex -4.170343E+01 5.2698030E+01 -3.450645E+01
       vertex -4.194602E+01 5.1838830E+01 -3.394368E+01
       vertex -4.200145E+01 5.2643010E+01 -3.379247E+01
    endloop
endfacet
facet normal  -0.9136541904 -0.0082302473 -0.40640901  
    outer loop
       vertex -4.170343E+01 5.2698030E+01 -3.450645E+01
       vertex -4.155974E+01 5.1770100E+01 -3.481069E+01
       vertex -4.194602E+01 5.1838830E+01 -3.394368E+01
    endloop
endfacet
facet normal  -0.9139036918 -0.0270076929 -0.4050316367
    outer loop
       vertex -4.155974E+01 5.1770100E+01 -3.481069E+01
       vertex -4.182599E+01 5.0715520E+01 -3.413961E+01
       vertex -4.194602E+01 5.1838830E+01 -3.394368E+01
    endloop
endfacet
facet normal  -0.9020091058 -0.045464285  -0.4293164006
    outer loop
       vertex -4.155974E+01 5.1770100E+01 -3.481069E+01
       vertex -4.132331E+01 5.0830170E+01 -3.520790E+01
       vertex -4.182599E+01 5.0715520E+01 -3.413961E+01
    endloop
endfacet
facet normal  -0.898715025  -0.0789765906 -0.4313629585
    outer loop
       vertex -4.132331E+01 5.0830170E+01 -3.520790E+01
       vertex -4.136583E+01 4.9785020E+01 -3.492796E+01
       vertex -4.182599E+01 5.0715520E+01 -3.413961E+01
    endloop
endfacet
facet normal  -0.8938014449 -0.0662245917 -0.4435462552
    outer loop
       vertex -4.182599E+01 5.0715520E+01 -3.413961E+01
       vertex -4.136583E+01 4.9785020E+01 -3.492796E+01
       vertex -4.181456E+01 4.9497340E+01 -3.398076E+01
    endloop
endfacet
facet normal  -0.9151929282 -0.0096186213 -0.4029012115
    outer loop
       vertex -4.134722E+01 5.2717570E+01 -3.531605E+01
       vertex -4.155974E+01 5.1770100E+01 -3.481069E+01
       vertex -4.170343E+01 5.2698030E+01 -3.450645E+01
    endloop
endfacet
facet normal  -0.904856143  -0.0237531611 -0.4250542881
    outer loop
       vertex -4.134722E+01 5.2717570E+01 -3.531605E+01
       vertex -4.114664E+01 5.1819170E+01 -3.569284E+01
       vertex -4.155974E+01 5.1770100E+01 -3.481069E+01
    endloop
endfacet
facet normal  -0.9152894981 -0.0030477886 -0.402785111 
    outer loop
       vertex -4.170343E+01 5.2698030E+01 -3.450645E+01
       vertex -4.155798E+01 5.3597910E+01 -3.484378E+01
       vertex -4.134722E+01 5.2717570E+01 -3.531605E+01
    endloop
endfacet
facet normal  -0.9164908022 -0.0048151335 -0.4000267789
    outer loop
       vertex -4.121335E+01 5.3537870E+01 -3.563263E+01
       vertex -4.134722E+01 5.2717570E+01 -3.531605E+01
       vertex -4.155798E+01 5.3597910E+01 -3.484378E+01
    endloop
endfacet
facet normal  -0.9158821027 0.01409242745 -0.4011999219
    outer loop
       vertex -4.155798E+01 5.3597910E+01 -3.484378E+01
       vertex -4.135923E+01 5.4363670E+01 -3.527060E+01
       vertex -4.121335E+01 5.3537870E+01 -3.563263E+01
    endloop
endfacet
facet normal  -0.9187158453 0.00975813418 -0.3947986504
    outer loop
       vertex -4.103262E+01 5.4980560E+01 -3.601539E+01
       vertex -4.098891E+01 5.4119820E+01 -3.613838E+01
       vertex -4.135923E+01 5.4363670E+01 -3.527060E+01
    endloop
endfacet
facet normal  -0.9185870732 0.00931543008 -0.3951088606
    outer loop
       vertex -4.103262E+01 5.4980560E+01 -3.601539E+01
       vertex -4.135923E+01 5.4363670E+01 -3.527060E+01
       vertex -4.141867E+01 5.5336580E+01 -3.510947E+01
    endloop
endfacet
facet normal  -0.9207929902 -0.0060650732 -0.3900044667
    outer loop
       vertex -4.103262E+01 5.4980560E+01 -3.601539E+01
       vertex -4.141867E+01 5.5336580E+01 -3.510947E+01
       vertex -4.107078E+01 5.6023240E+01 -3.594151E+01
    endloop
endfacet
facet normal  -0.9185852612 0.0109283224  -0.3950717525
    outer loop
       vertex -4.098891E+01 5.4119820E+01 -3.613838E+01
       vertex -4.121335E+01 5.3537870E+01 -3.563263E+01
       vertex -4.135923E+01 5.4363670E+01 -3.527060E+01
    endloop
endfacet
facet normal  -0.9086525602 -0.0127827137 -0.4173573134
    outer loop
       vertex -4.121335E+01 5.3537870E+01 -3.563263E+01
       vertex -4.100189E+01 5.2703930E+01 -3.606747E+01
       vertex -4.134722E+01 5.2717570E+01 -3.531605E+01
    endloop
endfacet
facet normal  -0.9089082291 -0.0131438783 -0.4167889989
    outer loop
       vertex -4.121335E+01 5.3537870E+01 -3.563263E+01
       vertex -4.091835E+01 5.3399040E+01 -3.627157E+01
       vertex -4.100189E+01 5.2703930E+01 -3.606747E+01
    endloop
endfacet
facet normal  -0.9084764082 -0.0279388923 -0.4170012397
    outer loop
       vertex -4.100189E+01 5.2703930E+01 -3.606747E+01
       vertex -4.114664E+01 5.1819170E+01 -3.569284E+01
       vertex -4.134722E+01 5.2717570E+01 -3.531605E+01
    endloop
endfacet
facet normal  -0.9035892704 -0.0473587203 -0.4257740974
    outer loop
       vertex -4.114664E+01 5.1819170E+01 -3.569284E+01
       vertex -4.132331E+01 5.0830170E+01 -3.520790E+01
       vertex -4.155974E+01 5.1770100E+01 -3.481069E+01
    endloop
endfacet
facet normal  -0.9204708539 0.01576799286 -0.3904929929
    outer loop
       vertex -4.417603E+01 5.1583980E+01 -2.872138E+01
       vertex -4.443368E+01 5.2424920E+01 -2.808009E+01
       vertex -4.406898E+01 5.2796680E+01 -2.892475E+01
    endloop
endfacet
facet normal  -0.9070992191 -0.029353114  -0.4198921307
    outer loop
       vertex -4.295008E+01 4.9798100E+01 -3.163052E+01
       vertex -4.292392E+01 4.8826030E+01 -3.161908E+01
       vertex -4.332273E+01 4.9211620E+01 -3.078448E+01
    endloop
endfacet
facet normal  -0.9147705128 0.0215451105  -0.4033989552
    outer loop
       vertex -4.294952E+01 5.0822000E+01 -3.160759E+01
       vertex -4.332995E+01 5.0238300E+01 -3.077608E+01
       vertex -4.330880E+01 5.1333640E+01 -3.076554E+01
    endloop
endfacet
facet normal  -0.9118589244 0.00968929468 -0.4103893511
    outer loop
       vertex -4.294952E+01 5.0822000E+01 -3.160759E+01
       vertex -4.295008E+01 4.9798100E+01 -3.163052E+01
       vertex -4.332995E+01 5.0238300E+01 -3.077608E+01
    endloop
endfacet
facet normal  -0.9181860014 0.01775824019 -0.3957513256
    outer loop
       vertex -4.294774E+01 5.1857090E+01 -3.157975E+01
       vertex -4.330880E+01 5.1333640E+01 -3.076554E+01
       vertex -4.325979E+01 5.2217450E+01 -3.083959E+01
    endloop
endfacet
facet normal  -0.9169867948 0.01230117176 -0.3987278512
    outer loop
       vertex -4.294774E+01 5.1857090E+01 -3.157975E+01
       vertex -4.294952E+01 5.0822000E+01 -3.160759E+01
       vertex -4.330880E+01 5.1333640E+01 -3.076554E+01
    endloop
endfacet
facet normal  -0.9195155122 0.01820070657 -0.3926320886
    outer loop
       vertex -4.298560E+01 5.2953560E+01 -3.144760E+01
       vertex -4.325979E+01 5.2217450E+01 -3.083959E+01
       vertex -4.338321E+01 5.2872590E+01 -3.052018E+01
    endloop
endfacet
facet normal  -0.9185465265 0.01588936295 -0.3949934263
    outer loop
       vertex -4.298560E+01 5.2953560E+01 -3.144760E+01
       vertex -4.294774E+01 5.1857090E+01 -3.157975E+01
       vertex -4.325979E+01 5.2217450E+01 -3.083959E+01
    endloop
endfacet
facet normal  -0.9188916052 0.01872073916 -0.3940656693
    outer loop
       vertex -4.406898E+01 5.2796680E+01 -2.892475E+01
       vertex -4.368405E+01 5.3332370E+01 -2.979689E+01
       vertex -4.366457E+01 5.2166300E+01 -2.989771E+01
    endloop
endfacet
facet normal  -0.9181160342 0.0149670722  -0.3960289565
    outer loop
       vertex -4.406898E+01 5.2796680E+01 -2.892475E+01
       vertex -4.406389E+01 5.3838680E+01 -2.889717E+01
       vertex -4.368405E+01 5.3332370E+01 -2.979689E+01
    endloop
endfacet
facet normal  -0.9195634758 0.02186656097 -0.3923325981
    outer loop
       vertex -4.338321E+01 5.2872590E+01 -3.052018E+01
       vertex -4.328508E+01 5.3753740E+01 -3.070107E+01
       vertex -4.298560E+01 5.2953560E+01 -3.144760E+01
    endloop
endfacet
facet normal  -0.920238357  0.02021752863 -0.3908357939
    outer loop
       vertex -4.286963E+01 5.4082250E+01 -3.166227E+01
       vertex -4.298560E+01 5.2953560E+01 -3.144760E+01
       vertex -4.328508E+01 5.3753740E+01 -3.070107E+01
    endloop
endfacet
facet normal  -0.9215091818 0.03325150006 -0.3869304404
    outer loop
       vertex -4.328508E+01 5.3753740E+01 -3.070107E+01
       vertex -4.315225E+01 5.4806800E+01 -3.092692E+01
       vertex -4.286963E+01 5.4082250E+01 -3.166227E+01
    endloop
endfacet
facet normal  -0.9261046868 0.02105438529 -0.376678672 
    outer loop
       vertex -4.278032E+01 5.5041340E+01 -3.182824E+01
       vertex -4.286963E+01 5.4082250E+01 -3.166227E+01
       vertex -4.315225E+01 5.4806800E+01 -3.092692E+01
    endloop
endfacet
facet normal  -0.9259631504 0.0190919235  -0.3771309355
    outer loop
       vertex -4.301063E+01 5.5777230E+01 -3.122551E+01
       vertex -4.278032E+01 5.5041340E+01 -3.182824E+01
       vertex -4.315225E+01 5.4806800E+01 -3.092692E+01
    endloop
endfacet
facet normal  -0.9237580309 0.01226718443 -0.3827801152
    outer loop
       vertex -4.177842E+01 5.5714850E+01 -3.423668E+01
       vertex -4.214017E+01 5.5069050E+01 -3.338437E+01
       vertex -4.212616E+01 5.6075370E+01 -3.338593E+01
    endloop
endfacet
facet normal  -0.9234794496 0.0111809364  -0.3834849317
    outer loop
       vertex -4.177842E+01 5.5714850E+01 -3.423668E+01
       vertex -4.177351E+01 5.4546790E+01 -3.428256E+01
       vertex -4.214017E+01 5.5069050E+01 -3.338437E+01
    endloop
endfacet
facet normal  -0.9253819381 0.01371011475 -0.3787879372
    outer loop
       vertex -4.245675E+01 5.5461680E+01 -3.260351E+01
       vertex -4.278032E+01 5.5041340E+01 -3.182824E+01
       vertex -4.271533E+01 5.5813030E+01 -3.195908E+01
    endloop
endfacet
facet normal  -0.9256085199 0.01499638313 -0.3781851086
    outer loop
       vertex -4.245675E+01 5.5461680E+01 -3.260351E+01
       vertex -4.249646E+01 5.4523800E+01 -3.254351E+01
       vertex -4.278032E+01 5.5041340E+01 -3.182824E+01
    endloop
endfacet
facet normal  -0.9230474096 0.01316282061 -0.3844609469
    outer loop
       vertex -4.177351E+01 5.4546790E+01 -3.428256E+01
       vertex -4.218508E+01 5.4046070E+01 -3.331157E+01
       vertex -4.214017E+01 5.5069050E+01 -3.338437E+01
    endloop
endfacet
facet normal  -0.9229622265 0.0126638528  -0.3846821483
    outer loop
       vertex -4.177351E+01 5.4546790E+01 -3.428256E+01
       vertex -4.189904E+01 5.3469270E+01 -3.401685E+01
       vertex -4.218508E+01 5.4046070E+01 -3.331157E+01
    endloop
endfacet
facet normal  -0.9242276862 0.02007752465 -0.3813136202
    outer loop
       vertex -4.249646E+01 5.4523800E+01 -3.254351E+01
       vertex -4.286963E+01 5.4082250E+01 -3.166227E+01
       vertex -4.278032E+01 5.5041340E+01 -3.182824E+01
    endloop
endfacet
facet normal  -0.923592233  0.01609869889 -0.383038143 
    outer loop
       vertex -4.249646E+01 5.4523800E+01 -3.254351E+01
       vertex -4.256102E+01 5.3518330E+01 -3.243010E+01
       vertex -4.286963E+01 5.4082250E+01 -3.166227E+01
    endloop
endfacet
facet normal  -0.9230244754 0.01245852228 -0.3845394688
    outer loop
       vertex -4.189904E+01 5.3469270E+01 -3.401685E+01
       vertex -4.224714E+01 5.3051120E+01 -3.319484E+01
       vertex -4.218508E+01 5.4046070E+01 -3.331157E+01
    endloop
endfacet
facet normal  -0.9225333868 0.00957468437 -0.3857984911
    outer loop
       vertex -4.189904E+01 5.3469270E+01 -3.401685E+01
       vertex -4.200145E+01 5.2643010E+01 -3.379247E+01
       vertex -4.224714E+01 5.3051120E+01 -3.319484E+01
    endloop
endfacet
facet normal  -0.9221430568 0.02128292102 -0.3862631488
    outer loop
       vertex -4.256102E+01 5.3518330E+01 -3.243010E+01
       vertex -4.298560E+01 5.2953560E+01 -3.144760E+01
       vertex -4.286963E+01 5.4082250E+01 -3.166227E+01
    endloop
endfacet
facet normal  -0.9206290652 0.01327397468 -0.3902126675
    outer loop
       vertex -4.256102E+01 5.3518330E+01 -3.243010E+01
       vertex -4.259997E+01 5.2481070E+01 -3.237349E+01
       vertex -4.298560E+01 5.2953560E+01 -3.144760E+01
    endloop
endfacet
facet normal  -0.9228361023 0.00837228987 -0.3851018476
    outer loop
       vertex -4.200145E+01 5.2643010E+01 -3.379247E+01
       vertex -4.227233E+01 5.2092820E+01 -3.315531E+01
       vertex -4.224714E+01 5.3051120E+01 -3.319484E+01
    endloop
endfacet
facet normal  -0.9229466209 0.00874307954 -0.3848286548
    outer loop
       vertex -4.200145E+01 5.2643010E+01 -3.379247E+01
       vertex -4.194602E+01 5.1838830E+01 -3.394368E+01
       vertex -4.227233E+01 5.2092820E+01 -3.315531E+01
    endloop
endfacet
facet normal  -0.9202168899 0.01536330719 -0.3911072031
    outer loop
       vertex -4.259997E+01 5.2481070E+01 -3.237349E+01
       vertex -4.294774E+01 5.1857090E+01 -3.157975E+01
       vertex -4.298560E+01 5.2953560E+01 -3.144760E+01
    endloop
endfacet
facet normal  -0.9182195378 0.00803859824 -0.3959902287
    outer loop
       vertex -4.259997E+01 5.2481070E+01 -3.237349E+01
       vertex -4.260146E+01 5.1455700E+01 -3.239085E+01
       vertex -4.294774E+01 5.1857090E+01 -3.157975E+01
    endloop
endfacet
facet normal  -0.9242386119 -0.0022911366 -0.3818085108
    outer loop
       vertex -4.194602E+01 5.1838830E+01 -3.394368E+01
       vertex -4.225455E+01 5.1101310E+01 -3.319240E+01
       vertex -4.227233E+01 5.2092820E+01 -3.315531E+01
    endloop
endfacet
facet normal  -0.9149024867 -0.0275148082 -0.4027361111
    outer loop
       vertex -4.194602E+01 5.1838830E+01 -3.394368E+01
       vertex -4.182599E+01 5.0715520E+01 -3.413961E+01
       vertex -4.225455E+01 5.1101310E+01 -3.319240E+01
    endloop
endfacet
facet normal  -0.9174146285 0.01227542613 -0.3977432756
    outer loop
       vertex -4.260146E+01 5.1455700E+01 -3.239085E+01
       vertex -4.294952E+01 5.0822000E+01 -3.160759E+01
       vertex -4.294774E+01 5.1857090E+01 -3.157975E+01
    endloop
endfacet
facet normal  -0.913920636  2.8341051E-04 -0.4058928316
    outer loop
       vertex -4.260146E+01 5.1455700E+01 -3.239085E+01
       vertex -4.259482E+01 5.0440040E+01 -3.240651E+01
       vertex -4.294952E+01 5.0822000E+01 -3.160759E+01
    endloop
endfacet
facet normal  -0.9131946768 -0.0144964478 -0.4072656814
    outer loop
       vertex -4.182599E+01 5.0715520E+01 -3.413961E+01
       vertex -4.223917E+01 5.0052950E+01 -3.318957E+01
       vertex -4.225455E+01 5.1101310E+01 -3.319240E+01
    endloop
endfacet
facet normal  -0.897625633  -0.0652634208 -0.4359001134
    outer loop
       vertex -4.182599E+01 5.0715520E+01 -3.413961E+01
       vertex -4.181456E+01 4.9497340E+01 -3.398076E+01
       vertex -4.223917E+01 5.0052950E+01 -3.318957E+01
    endloop
endfacet
facet normal  -0.9122050122 0.00967225231 -0.409619901 
    outer loop
       vertex -4.259482E+01 5.0440040E+01 -3.240651E+01
       vertex -4.295008E+01 4.9798100E+01 -3.163052E+01
       vertex -4.294952E+01 5.0822000E+01 -3.160759E+01
    endloop
endfacet
facet normal  -0.9045383102 -0.0145455217 -0.426144193 
    outer loop
       vertex -4.259482E+01 5.0440040E+01 -3.240651E+01
       vertex -4.258139E+01 4.9446960E+01 -3.240112E+01
       vertex -4.295008E+01 4.9798100E+01 -3.163052E+01
    endloop
endfacet
facet normal  -0.896987419  -0.0622904291 -0.437645373 
    outer loop
       vertex -4.181456E+01 4.9497340E+01 -3.398076E+01
       vertex -4.220182E+01 4.8992100E+01 -3.311513E+01
       vertex -4.223917E+01 5.0052950E+01 -3.318957E+01
    endloop
endfacet
facet normal  -0.8830501963 -0.106279669  -0.4570853124
    outer loop
       vertex -4.181456E+01 4.9497340E+01 -3.398076E+01
       vertex -4.175880E+01 4.8334480E+01 -3.381810E+01
       vertex -4.220182E+01 4.8992100E+01 -3.311513E+01
    endloop
endfacet
facet normal  -0.9068223444 -0.0293526964 -0.4204897798
    outer loop
       vertex -4.258139E+01 4.9446960E+01 -3.240112E+01
       vertex -4.292392E+01 4.8826030E+01 -3.161908E+01
       vertex -4.295008E+01 4.9798100E+01 -3.163052E+01
    endloop
endfacet
facet normal  -0.895306705  -0.0617290335 -0.4411523892
    outer loop
       vertex -4.258139E+01 4.9446960E+01 -3.240112E+01
       vertex -4.254366E+01 4.8474580E+01 -3.234163E+01
       vertex -4.292392E+01 4.8826030E+01 -3.161908E+01
    endloop
endfacet
facet normal  -0.8813103097 -0.100038603  -0.4618272576
    outer loop
       vertex -4.175880E+01 4.8334480E+01 -3.381810E+01
       vertex -4.217049E+01 4.7917670E+01 -3.294218E+01
       vertex -4.220182E+01 4.8992100E+01 -3.311513E+01
    endloop
endfacet
facet normal  -0.8958824492 -0.0660486613 -0.439354312 
    outer loop
       vertex -4.254366E+01 4.8474580E+01 -3.234163E+01
       vertex -4.287291E+01 4.7876700E+01 -3.158038E+01
       vertex -4.292392E+01 4.8826030E+01 -3.161908E+01
    endloop
endfacet
facet normal  -0.8850753095 -0.0932169592 -0.456017867 
    outer loop
       vertex -4.254366E+01 4.8474580E+01 -3.234163E+01
       vertex -4.251780E+01 4.7639020E+01 -3.222102E+01
       vertex -4.287291E+01 4.7876700E+01 -3.158038E+01
    endloop
endfacet
facet normal  -0.8631268239 -0.1564707798 -0.4801343363
    outer loop
       vertex -4.172222E+01 4.7007960E+01 -3.345156E+01
       vertex -4.217049E+01 4.7917670E+01 -3.294218E+01
       vertex -4.175880E+01 4.8334480E+01 -3.381810E+01
    endloop
endfacet
facet normal  -0.9243378298 -0.1384794489 -0.3555601476
    outer loop
       vertex -4.401479E+01 4.6459610E+01 -2.878653E+01
       vertex -4.424600E+01 4.5867210E+01 -2.795474E+01
       vertex -4.438528E+01 4.6710620E+01 -2.792114E+01
    endloop
endfacet
facet normal  -0.9179084194 0.02300851378 -0.3961246545
    outer loop
       vertex -4.372273E+01 5.0887220E+01 -2.982823E+01
       vertex -4.332995E+01 5.0238300E+01 -3.077608E+01
       vertex -4.373711E+01 4.9764680E+01 -2.986011E+01
    endloop
endfacet
facet normal  -0.914623136  -0.0097277757 -0.4041904124
    outer loop
       vertex -4.373711E+01 4.9764680E+01 -2.986011E+01
       vertex -4.332273E+01 4.9211620E+01 -3.078448E+01
       vertex -4.372285E+01 4.8756330E+01 -2.986811E+01
    endloop
endfacet
facet normal  -0.9131905883 -0.0030876798 -0.4075210617
    outer loop
       vertex -4.373711E+01 4.9764680E+01 -2.986011E+01
       vertex -4.332995E+01 5.0238300E+01 -3.077608E+01
       vertex -4.332273E+01 4.9211620E+01 -3.078448E+01
    endloop
endfacet
facet normal  -0.9099213699 -0.0417170276 -0.4126775863
    outer loop
       vertex -4.372285E+01 4.8756330E+01 -2.986811E+01
       vertex -4.328938E+01 4.8232760E+01 -3.077095E+01
       vertex -4.368752E+01 4.7777290E+01 -2.984704E+01
    endloop
endfacet
facet normal  -0.909013763  -0.0367085575 -0.4151463121
    outer loop
       vertex -4.372285E+01 4.8756330E+01 -2.986811E+01
       vertex -4.332273E+01 4.9211620E+01 -3.078448E+01
       vertex -4.328938E+01 4.8232760E+01 -3.077095E+01
    endloop
endfacet
facet normal  -0.9010075148 -0.0859045924 -0.4252127224
    outer loop
       vertex -4.368752E+01 4.7777290E+01 -2.984704E+01
       vertex -4.321847E+01 4.7245150E+01 -3.073343E+01
       vertex -4.363924E+01 4.6811860E+01 -2.975430E+01
    endloop
endfacet
facet normal  -0.90023878   -0.0808898327 -0.4278165189
    outer loop
       vertex -4.368752E+01 4.7777290E+01 -2.984704E+01
       vertex -4.328938E+01 4.8232760E+01 -3.077095E+01
       vertex -4.321847E+01 4.7245150E+01 -3.073343E+01
    endloop
endfacet
facet normal  -0.9201971006 -0.0548721484 -0.3875904326
    outer loop
       vertex -4.411662E+01 4.8294530E+01 -2.890152E+01
       vertex -4.368752E+01 4.7777290E+01 -2.984704E+01
       vertex -4.407483E+01 4.7335900E+01 -2.886502E+01
    endloop
endfacet
facet normal  -0.9181955198 -0.0416122679 -0.3939357899
    outer loop
       vertex -4.411662E+01 4.8294530E+01 -2.890152E+01
       vertex -4.372285E+01 4.8756330E+01 -2.986811E+01
       vertex -4.368752E+01 4.7777290E+01 -2.984704E+01
    endloop
endfacet
facet normal  -0.9222801261 -0.0213740325 -0.3859307188
    outer loop
       vertex -4.413945E+01 4.9278190E+01 -2.890144E+01
       vertex -4.372285E+01 4.8756330E+01 -2.986811E+01
       vertex -4.411662E+01 4.8294530E+01 -2.890152E+01
    endloop
endfacet
facet normal  -0.9202358906 -0.0099099067 -0.3912386731
    outer loop
       vertex -4.413945E+01 4.9278190E+01 -2.890144E+01
       vertex -4.373711E+01 4.9764680E+01 -2.986011E+01
       vertex -4.372285E+01 4.8756330E+01 -2.986811E+01
    endloop
endfacet
facet normal  -0.9224526002 0.00203979097 -0.3861049592
    outer loop
       vertex -4.415561E+01 5.0327170E+01 -2.885729E+01
       vertex -4.373711E+01 4.9764680E+01 -2.986011E+01
       vertex -4.413945E+01 4.9278190E+01 -2.890144E+01
    endloop
endfacet
facet normal  -0.9179656155 0.02300548672 -0.3959922681
    outer loop
       vertex -4.415561E+01 5.0327170E+01 -2.885729E+01
       vertex -4.372273E+01 5.0887220E+01 -2.982823E+01
       vertex -4.373711E+01 4.9764680E+01 -2.986011E+01
    endloop
endfacet
facet normal  -0.918823838  0.0276455274  -0.3936984627
    outer loop
       vertex -4.417603E+01 5.1583980E+01 -2.872138E+01
       vertex -4.372273E+01 5.0887220E+01 -2.982823E+01
       vertex -4.415561E+01 5.0327170E+01 -2.885729E+01
    endloop
endfacet
facet normal  -0.9235374662 0.01950513066 -0.3830118776
    outer loop
       vertex -4.417603E+01 5.1583980E+01 -2.872138E+01
       vertex -4.457480E+01 5.0667070E+01 -2.780654E+01
       vertex -4.467507E+01 5.1664680E+01 -2.751396E+01
    endloop
endfacet
facet normal  -0.9256058044 0.02579543187 -0.3776089122
    outer loop
       vertex -4.417603E+01 5.1583980E+01 -2.872138E+01
       vertex -4.415561E+01 5.0327170E+01 -2.885729E+01
       vertex -4.457480E+01 5.0667070E+01 -2.780654E+01
    endloop
endfacet
facet normal  -0.9286622704 0.00136024596 -0.3709238969
    outer loop
       vertex -4.415561E+01 5.0327170E+01 -2.885729E+01
       vertex -4.452865E+01 4.9629020E+01 -2.792589E+01
       vertex -4.457480E+01 5.0667070E+01 -2.780654E+01
    endloop
endfacet
facet normal  -0.9286485529 0.00130684484 -0.3709584308
    outer loop
       vertex -4.415561E+01 5.0327170E+01 -2.885729E+01
       vertex -4.413945E+01 4.9278190E+01 -2.890144E+01
       vertex -4.452865E+01 4.9629020E+01 -2.792589E+01
    endloop
endfacet
facet normal  -0.9306557337 -0.0159659124 -0.3655475276
    outer loop
       vertex -4.413945E+01 4.9278190E+01 -2.890144E+01
       vertex -4.450054E+01 4.8633160E+01 -2.795396E+01
       vertex -4.452865E+01 4.9629020E+01 -2.792589E+01
    endloop
endfacet
facet normal  -0.9292563781 -0.0215373386 -0.3688071676
    outer loop
       vertex -4.413945E+01 4.9278190E+01 -2.890144E+01
       vertex -4.411662E+01 4.8294530E+01 -2.890152E+01
       vertex -4.450054E+01 4.8633160E+01 -2.795396E+01
    endloop
endfacet
facet normal  -0.9311759922 -0.0425384289 -0.3620797614
    outer loop
       vertex -4.411662E+01 4.8294530E+01 -2.890152E+01
       vertex -4.446210E+01 4.7651680E+01 -2.793751E+01
       vertex -4.450054E+01 4.8633160E+01 -2.795396E+01
    endloop
endfacet
facet normal  -0.927881392  -0.054494422  -0.3688719023
    outer loop
       vertex -4.411662E+01 4.8294530E+01 -2.890152E+01
       vertex -4.407483E+01 4.7335900E+01 -2.886502E+01
       vertex -4.446210E+01 4.7651680E+01 -2.793751E+01
    endloop
endfacet
facet normal  -0.9293073087 -0.0821239647 -0.3600605232
    outer loop
       vertex -4.407483E+01 4.7335900E+01 -2.886502E+01
       vertex -4.438528E+01 4.6710620E+01 -2.792114E+01
       vertex -4.446210E+01 4.7651680E+01 -2.793751E+01
    endloop
endfacet
facet normal  -0.9248247021 -0.0963270247 -0.3679950744
    outer loop
       vertex -4.407483E+01 4.7335900E+01 -2.886502E+01
       vertex -4.401479E+01 4.6459610E+01 -2.878653E+01
       vertex -4.438528E+01 4.6710620E+01 -2.792114E+01
    endloop
endfacet
facet normal  -0.9407284638 -0.0793697346 -0.329742934 
    outer loop
       vertex -4.446210E+01 4.7651680E+01 -2.793751E+01
       vertex -4.473046E+01 4.6850640E+01 -2.697909E+01
       vertex -4.480432E+01 4.7855810E+01 -2.701032E+01
    endloop
endfacet
facet normal  -0.9396516088 -0.08248099   -0.332041775 
    outer loop
       vertex -4.446210E+01 4.7651680E+01 -2.793751E+01
       vertex -4.438528E+01 4.6710620E+01 -2.792114E+01
       vertex -4.473046E+01 4.6850640E+01 -2.697909E+01
    endloop
endfacet
facet normal  -0.9401226684 -0.0430450089 -0.338107225 
    outer loop
       vertex -4.450054E+01 4.8633160E+01 -2.795396E+01
       vertex -4.480432E+01 4.7855810E+01 -2.701032E+01
       vertex -4.483936E+01 4.8853050E+01 -2.703985E+01
    endloop
endfacet
facet normal  -0.9402935068 -0.0424869468 -0.3377025027
    outer loop
       vertex -4.450054E+01 4.8633160E+01 -2.795396E+01
       vertex -4.446210E+01 4.7651680E+01 -2.793751E+01
       vertex -4.480432E+01 4.7855810E+01 -2.701032E+01
    endloop
endfacet
facet normal  -0.9379058536 -0.0198923038 -0.3463190812
    outer loop
       vertex -4.452865E+01 4.9629020E+01 -2.792589E+01
       vertex -4.483936E+01 4.8853050E+01 -2.703985E+01
       vertex -4.489381E+01 4.9846660E+01 -2.694946E+01
    endloop
endfacet
facet normal  -0.9388398994 -0.0168058688 -0.3439436088
    outer loop
       vertex -4.452865E+01 4.9629020E+01 -2.792589E+01
       vertex -4.450054E+01 4.8633160E+01 -2.795396E+01
       vertex -4.483936E+01 4.8853050E+01 -2.703985E+01
    endloop
endfacet
facet normal  -0.9331416629 0.01159200591 -0.359321948 
    outer loop
       vertex -4.467507E+01 5.1664680E+01 -2.751396E+01
       vertex -4.457480E+01 5.0667070E+01 -2.780654E+01
       vertex -4.496619E+01 5.0833810E+01 -2.678474E+01
    endloop
endfacet
facet normal  -0.9342911767 -0.0090344777 -0.3563963739
    outer loop
       vertex -4.457480E+01 5.0667070E+01 -2.780654E+01
       vertex -4.489381E+01 4.9846660E+01 -2.694946E+01
       vertex -4.496619E+01 5.0833810E+01 -2.678474E+01
    endloop
endfacet
facet normal  -0.9367462854 -0.0014041584 -0.3500063215
    outer loop
       vertex -4.457480E+01 5.0667070E+01 -2.780654E+01
       vertex -4.452865E+01 4.9629020E+01 -2.792589E+01
       vertex -4.489381E+01 4.9846660E+01 -2.694946E+01
    endloop
endfacet
facet normal  -0.9497051032 -0.0425565244 -0.310240486 
    outer loop
       vertex -4.483936E+01 4.8853050E+01 -2.703985E+01
       vertex -4.480432E+01 4.7855810E+01 -2.701032E+01
       vertex -4.508067E+01 4.8150620E+01 -2.620480E+01
    endloop
endfacet
facet normal  -0.9143551005 -0.0031173036 -0.4049012628
    outer loop
       vertex -4.295008E+01 4.9798100E+01 -3.163052E+01
       vertex -4.332273E+01 4.9211620E+01 -3.078448E+01
       vertex -4.332995E+01 5.0238300E+01 -3.077608E+01
    endloop
endfacet
facet normal  -0.9152950277 -0.0977124629 -0.3907522063
    outer loop
       vertex -4.407483E+01 4.7335900E+01 -2.886502E+01
       vertex -4.363924E+01 4.6811860E+01 -2.975430E+01
       vertex -4.401479E+01 4.6459610E+01 -2.878653E+01
    endloop
endfacet
facet normal  -0.913531664  -0.0839184735 -0.3980170708
    outer loop
       vertex -4.407483E+01 4.7335900E+01 -2.886502E+01
       vertex -4.368752E+01 4.7777290E+01 -2.984704E+01
       vertex -4.363924E+01 4.6811860E+01 -2.975430E+01
    endloop
endfacet
endsolid
