solid S192803_MCL_Super_Mid_Region_Fem
facet normal  -0.968692813  0.21450508662 -0.1249872065
    outer loop
       vertex -4.512344E+01 5.6845624E+01 -2.272074E+01
       vertex -4.494287E+01 5.7889554E+01 -2.232862E+01
       vertex -4.484512E+01 5.7766235E+01 -2.329783E+01
    endloop
endfacet
facet normal  -0.9361402063 0.19100366611 -0.2952272238
    outer loop
       vertex -4.484236E+01 5.4713639E+01 -2.567445E+01
       vertex -4.526469E+01 5.4490979E+01 -2.447934E+01
       vertex -4.492540E+01 5.5375800E+01 -2.498273E+01
    endloop
endfacet
facet normal  -0.9391362387 0.20203374638 -0.27785876  
    outer loop
       vertex -4.492540E+01 5.5375800E+01 -2.498273E+01
       vertex -4.526469E+01 5.4490979E+01 -2.447934E+01
       vertex -4.515346E+01 5.5545005E+01 -2.408890E+01
    endloop
endfacet
facet normal  -0.9640270188 0.20827086697 -0.1651519091
    outer loop
       vertex -4.526695E+01 5.5821255E+01 -2.317485E+01
       vertex -4.512344E+01 5.6845624E+01 -2.272074E+01
       vertex -4.498421E+01 5.6648604E+01 -2.378192E+01
    endloop
endfacet
facet normal  -0.9637048987 0.19769771548 -0.1794114868
    outer loop
       vertex -4.515346E+01 5.5545005E+01 -2.408890E+01
       vertex -4.526695E+01 5.5821255E+01 -2.317485E+01
       vertex -4.498421E+01 5.6648604E+01 -2.378192E+01
    endloop
endfacet
facet normal  -0.9680862584 0.19083921748 -0.1624481126
    outer loop
       vertex -4.498421E+01 5.6648604E+01 -2.378192E+01
       vertex -4.512344E+01 5.6845624E+01 -2.272074E+01
       vertex -4.484512E+01 5.7766235E+01 -2.329783E+01
    endloop
endfacet
facet normal  -0.9420272039 0.19027411021 -0.276370241 
    outer loop
       vertex -4.492540E+01 5.5375800E+01 -2.498273E+01
       vertex -4.515346E+01 5.5545005E+01 -2.408890E+01
       vertex -4.478249E+01 5.6302326E+01 -2.483198E+01
    endloop
endfacet
facet normal  -0.9435522904 0.21482801114 -0.252107122 
    outer loop
       vertex -4.478249E+01 5.6302326E+01 -2.483198E+01
       vertex -4.515346E+01 5.5545005E+01 -2.408890E+01
       vertex -4.498421E+01 5.6648604E+01 -2.378192E+01
    endloop
endfacet
facet normal  -0.9505320705 0.21528257527 -0.2239245313
    outer loop
       vertex -4.498421E+01 5.6648604E+01 -2.378192E+01
       vertex -4.484512E+01 5.7766235E+01 -2.329783E+01
       vertex -4.460379E+01 5.7554125E+01 -2.452620E+01
    endloop
endfacet
facet normal  -0.9509388955 0.21368391436 -0.2237284106
    outer loop
       vertex -4.460379E+01 5.7554125E+01 -2.452620E+01
       vertex -4.484512E+01 5.7766235E+01 -2.329783E+01
       vertex -4.454036E+01 5.8723813E+01 -2.367860E+01
    endloop
endfacet
facet normal  -0.9516870665 0.21234028863 -0.2218182347
    outer loop
       vertex -4.460379E+01 5.7554125E+01 -2.452620E+01
       vertex -4.454036E+01 5.8723813E+01 -2.367860E+01
       vertex -4.434220E+01 5.8570137E+01 -2.467592E+01
    endloop
endfacet
facet normal  -0.9533977699 0.20532336516 -0.2210769279
    outer loop
       vertex -4.434220E+01 5.8570137E+01 -2.467592E+01
       vertex -4.454036E+01 5.8723813E+01 -2.367860E+01
       vertex -4.426276E+01 5.9445702E+01 -2.420531E+01
    endloop
endfacet
facet normal  -0.9490590403 0.19579018932 -0.2468868968
    outer loop
       vertex -4.478249E+01 5.6302326E+01 -2.483198E+01
       vertex -4.498421E+01 5.6648604E+01 -2.378192E+01
       vertex -4.460379E+01 5.7554125E+01 -2.452620E+01
    endloop
endfacet
facet normal  -0.942249648  0.22082436139 -0.2517979392
    outer loop
       vertex -4.434220E+01 5.8570137E+01 -2.467592E+01
       vertex -4.426276E+01 5.9445702E+01 -2.420531E+01
       vertex -4.403583E+01 5.9133027E+01 -2.532873E+01
    endloop
endfacet
facet normal  -0.9460747018 0.20741700864 -0.2488389904
    outer loop
       vertex -4.403583E+01 5.9133027E+01 -2.532873E+01
       vertex -4.426276E+01 5.9445702E+01 -2.420531E+01
       vertex -4.390156E+01 6.0260636E+01 -2.489930E+01
    endloop
endfacet
facet normal  -0.9379359192 0.21524226461 -0.2719319382
    outer loop
       vertex -4.403583E+01 5.9133027E+01 -2.532873E+01
       vertex -4.390156E+01 6.0260636E+01 -2.489930E+01
       vertex -4.362883E+01 5.9916124E+01 -2.611268E+01
    endloop
endfacet
facet normal  -0.9323440061 0.1832628807  -0.3116879383
    outer loop
       vertex -4.441621E+01 5.5070020E+01 -2.673964E+01
       vertex -4.484236E+01 5.4713639E+01 -2.567445E+01
       vertex -4.459220E+01 5.5761326E+01 -2.580675E+01
    endloop
endfacet
facet normal  -0.9380108306 0.18713393805 -0.2917474438
    outer loop
       vertex -4.459220E+01 5.5761326E+01 -2.580675E+01
       vertex -4.484236E+01 5.4713639E+01 -2.567445E+01
       vertex -4.492540E+01 5.5375800E+01 -2.498273E+01
    endloop
endfacet
facet normal  -0.9377767758 0.19175343294 -0.2894915193
    outer loop
       vertex -4.459220E+01 5.5761326E+01 -2.580675E+01
       vertex -4.492540E+01 5.5375800E+01 -2.498273E+01
       vertex -4.478249E+01 5.6302326E+01 -2.483198E+01
    endloop
endfacet
facet normal  -0.9381251254 0.1907687599  -0.2890130261
    outer loop
       vertex -4.459220E+01 5.5761326E+01 -2.580675E+01
       vertex -4.478249E+01 5.6302326E+01 -2.483198E+01
       vertex -4.439522E+01 5.6848809E+01 -2.572830E+01
    endloop
endfacet
facet normal  -0.9378696062 0.20268178063 -0.2816393039
    outer loop
       vertex -4.439522E+01 5.6848809E+01 -2.572830E+01
       vertex -4.478249E+01 5.6302326E+01 -2.483198E+01
       vertex -4.460379E+01 5.7554125E+01 -2.452620E+01
    endloop
endfacet
facet normal  -0.9406349867 0.20198515558 -0.2727779659
    outer loop
       vertex -4.420165E+01 5.7991325E+01 -2.558917E+01
       vertex -4.460379E+01 5.7554125E+01 -2.452620E+01
       vertex -4.434220E+01 5.8570137E+01 -2.467592E+01
    endloop
endfacet
facet normal  -0.9333404736 0.20308784729 -0.2960251453
    outer loop
       vertex -4.420165E+01 5.7991325E+01 -2.558917E+01
       vertex -4.403583E+01 5.9133027E+01 -2.532873E+01
       vertex -4.378688E+01 5.8593691E+01 -2.648365E+01
    endloop
endfacet
facet normal  -0.9419235048 0.19858494114 -0.2708212183
    outer loop
       vertex -4.420165E+01 5.7991325E+01 -2.558917E+01
       vertex -4.434220E+01 5.8570137E+01 -2.467592E+01
       vertex -4.403583E+01 5.9133027E+01 -2.532873E+01
    endloop
endfacet
facet normal  -0.9364172154 0.19394412108 -0.2924183246
    outer loop
       vertex -4.378688E+01 5.8593691E+01 -2.648365E+01
       vertex -4.403583E+01 5.9133027E+01 -2.532873E+01
       vertex -4.362883E+01 5.9916124E+01 -2.611268E+01
    endloop
endfacet
facet normal  -0.930806906  0.19751753445 -0.3075472766
    outer loop
       vertex -4.378688E+01 5.8593691E+01 -2.648365E+01
       vertex -4.362883E+01 5.9916124E+01 -2.611268E+01
       vertex -4.328459E+01 5.9441842E+01 -2.745913E+01
    endloop
endfacet
facet normal  -0.9330283971 0.19008029274 -0.305495487 
    outer loop
       vertex -4.328459E+01 5.9441842E+01 -2.745913E+01
       vertex -4.362883E+01 5.9916124E+01 -2.611268E+01
       vertex -4.324470E+01 6.0674299E+01 -2.681412E+01
    endloop
endfacet
facet normal  -0.9333344236 0.18971829764 -0.304784877 
    outer loop
       vertex -4.328459E+01 5.9441842E+01 -2.745913E+01
       vertex -4.324470E+01 6.0674299E+01 -2.681412E+01
       vertex -4.289543E+01 6.0819664E+01 -2.779321E+01
    endloop
endfacet
facet normal  -0.9294796953 0.1851767427  -0.319025187 
    outer loop
       vertex -4.328459E+01 5.9441842E+01 -2.745913E+01
       vertex -4.289543E+01 6.0819664E+01 -2.779321E+01
       vertex -4.277775E+01 5.9860809E+01 -2.869263E+01
    endloop
endfacet
facet normal  -0.9250620956 0.18863614358 -0.3296612272
    outer loop
       vertex -4.402263E+01 5.5481376E+01 -2.760869E+01
       vertex -4.441621E+01 5.5070020E+01 -2.673964E+01
       vertex -4.418427E+01 5.6159880E+01 -2.676687E+01
    endloop
endfacet
facet normal  -0.9295236584 0.18992457687 -0.316092429 
    outer loop
       vertex -4.418427E+01 5.6159880E+01 -2.676687E+01
       vertex -4.441621E+01 5.5070020E+01 -2.673964E+01
       vertex -4.459220E+01 5.5761326E+01 -2.580675E+01
    endloop
endfacet
facet normal  -0.9294571847 0.19111462644 -0.3155701845
    outer loop
       vertex -4.418427E+01 5.6159880E+01 -2.676687E+01
       vertex -4.459220E+01 5.5761326E+01 -2.580675E+01
       vertex -4.439522E+01 5.6848809E+01 -2.572830E+01
    endloop
endfacet
facet normal  -0.9303677422 0.18884578221 -0.3142501149
    outer loop
       vertex -4.418427E+01 5.6159880E+01 -2.676687E+01
       vertex -4.439522E+01 5.6848809E+01 -2.572830E+01
       vertex -4.397298E+01 5.7304476E+01 -2.670458E+01
    endloop
endfacet
facet normal  -0.9332260901 0.18725581097 -0.3066338632
    outer loop
       vertex -4.397298E+01 5.7304476E+01 -2.670458E+01
       vertex -4.420165E+01 5.7991325E+01 -2.558917E+01
       vertex -4.378688E+01 5.8593691E+01 -2.648365E+01
    endloop
endfacet
facet normal  -0.9263013881 0.1895154694  -0.3256526144
    outer loop
       vertex -4.397298E+01 5.7304476E+01 -2.670458E+01
       vertex -4.378688E+01 5.8593691E+01 -2.648365E+01
       vertex -4.351176E+01 5.7820170E+01 -2.771638E+01
    endloop
endfacet
facet normal  -0.9295484399 0.18115147413 -0.3211290103
    outer loop
       vertex -4.351176E+01 5.7820170E+01 -2.771638E+01
       vertex -4.378688E+01 5.8593691E+01 -2.648365E+01
       vertex -4.328459E+01 5.9441842E+01 -2.745913E+01
    endloop
endfacet
facet normal  -0.9268811527 0.18191920132 -0.3283241278
    outer loop
       vertex -4.351176E+01 5.7820170E+01 -2.771638E+01
       vertex -4.328459E+01 5.9441842E+01 -2.745913E+01
       vertex -4.302700E+01 5.8429356E+01 -2.874735E+01
    endloop
endfacet
facet normal  -0.9302030711 0.17431487715 -0.3230117182
    outer loop
       vertex -4.302700E+01 5.8429356E+01 -2.874735E+01
       vertex -4.328459E+01 5.9441842E+01 -2.745913E+01
       vertex -4.277775E+01 5.9860809E+01 -2.869263E+01
    endloop
endfacet
facet normal  -0.9266824987 0.19363161499 -0.3221278383
    outer loop
       vertex -4.322208E+01 5.6788025E+01 -2.908371E+01
       vertex -4.319872E+01 5.5381517E+01 -2.999638E+01
       vertex -4.365394E+01 5.5417918E+01 -2.866493E+01
    endloop
endfacet
facet normal  -0.9238288511 0.18953387913 -0.3325915852
    outer loop
       vertex -4.322208E+01 5.6788025E+01 -2.908371E+01
       vertex -4.365394E+01 5.5417918E+01 -2.866493E+01
       vertex -4.374880E+01 5.6476731E+01 -2.779805E+01
    endloop
endfacet
facet normal  -0.9232300596 0.1904968692  -0.3337022622
    outer loop
       vertex -4.374880E+01 5.6476731E+01 -2.779805E+01
       vertex -4.365394E+01 5.5417918E+01 -2.866493E+01
       vertex -4.402263E+01 5.5481376E+01 -2.760869E+01
    endloop
endfacet
facet normal  -0.9239166981 0.19111612255 -0.3314401344
    outer loop
       vertex -4.374880E+01 5.6476731E+01 -2.779805E+01
       vertex -4.402263E+01 5.5481376E+01 -2.760869E+01
       vertex -4.418427E+01 5.6159880E+01 -2.676687E+01
    endloop
endfacet
facet normal  -0.9241185451 0.1886731651  -0.3322760169
    outer loop
       vertex -4.374880E+01 5.6476731E+01 -2.779805E+01
       vertex -4.418427E+01 5.6159880E+01 -2.676687E+01
       vertex -4.397298E+01 5.7304476E+01 -2.670458E+01
    endloop
endfacet
facet normal  -0.9264124814 0.18345178514 -0.3287937908
    outer loop
       vertex -4.374880E+01 5.6476731E+01 -2.779805E+01
       vertex -4.397298E+01 5.7304476E+01 -2.670458E+01
       vertex -4.351176E+01 5.7820170E+01 -2.771638E+01
    endloop
endfacet
facet normal  -0.924436473  0.18343887838 -0.3343162954
    outer loop
       vertex -4.374880E+01 5.6476731E+01 -2.779805E+01
       vertex -4.351176E+01 5.7820170E+01 -2.771638E+01
       vertex -4.322208E+01 5.6788025E+01 -2.908371E+01
    endloop
endfacet
facet normal  -0.9268265991 0.17792361693 -0.3306594043
    outer loop
       vertex -4.322208E+01 5.6788025E+01 -2.908371E+01
       vertex -4.351176E+01 5.7820170E+01 -2.771638E+01
       vertex -4.302700E+01 5.8429356E+01 -2.874735E+01
    endloop
endfacet
facet normal  -0.9300808443 0.19545803942 -0.3110398334
    outer loop
       vertex -4.397298E+01 5.7304476E+01 -2.670458E+01
       vertex -4.439522E+01 5.6848809E+01 -2.572830E+01
       vertex -4.420165E+01 5.7991325E+01 -2.558917E+01
    endloop
endfacet
facet normal  -0.9413476699 0.19318147876 -0.2766685393
    outer loop
       vertex -4.460379E+01 5.7554125E+01 -2.452620E+01
       vertex -4.420165E+01 5.7991325E+01 -2.558917E+01
       vertex -4.439522E+01 5.6848809E+01 -2.572830E+01
    endloop
endfacet
facet normal  -0.9757527423 0.20117099367 -0.0862369831
    outer loop
       vertex -4.519526E+01 5.7046974E+01 -2.143841E+01
       vertex -4.494287E+01 5.7889554E+01 -2.232862E+01
       vertex -4.512344E+01 5.6845624E+01 -2.272074E+01
    endloop
endfacet
facet normal  -0.9631336118 0.19197346845 -0.1884670615
    outer loop
       vertex -4.526469E+01 5.4490979E+01 -2.447934E+01
       vertex -4.552766E+01 5.3503624E+01 -2.414120E+01
       vertex -4.547943E+01 5.4539819E+01 -2.333219E+01
    endloop
endfacet
facet normal  -0.956338376  0.20621131821 -0.2071081913
    outer loop
       vertex -4.547943E+01 5.4539819E+01 -2.333219E+01
       vertex -4.552766E+01 5.3503624E+01 -2.414120E+01
       vertex -4.576801E+01 5.3278503E+01 -2.325551E+01
    endloop
endfacet
facet normal  -0.9669627154 0.17180438822 -0.1883251422
    outer loop
       vertex -4.515346E+01 5.5545005E+01 -2.408890E+01
       vertex -4.526469E+01 5.4490979E+01 -2.447934E+01
       vertex -4.547943E+01 5.4539819E+01 -2.333219E+01
    endloop
endfacet
facet normal  -0.9675882452 0.18193971646 -0.175131172 
    outer loop
       vertex -4.526695E+01 5.5821255E+01 -2.317485E+01
       vertex -4.515346E+01 5.5545005E+01 -2.408890E+01
       vertex -4.547943E+01 5.4539819E+01 -2.333219E+01
    endloop
endfacet
facet normal  -0.9770998078 0.18414913626 -0.106607041 
    outer loop
       vertex -4.537441E+01 5.6088598E+01 -2.172816E+01
       vertex -4.512344E+01 5.6845624E+01 -2.272074E+01
       vertex -4.526695E+01 5.5821255E+01 -2.317485E+01
    endloop
endfacet
facet normal  -0.9760425037 0.17732003148 -0.126089799 
    outer loop
       vertex -4.552548E+01 5.5073170E+01 -2.222565E+01
       vertex -4.526695E+01 5.5821255E+01 -2.317485E+01
       vertex -4.547943E+01 5.4539819E+01 -2.333219E+01
    endloop
endfacet
facet normal  -0.9667764702 0.21255775186 -0.1419945729
    outer loop
       vertex -4.575952E+01 5.3973420E+01 -2.227302E+01
       vertex -4.547943E+01 5.4539819E+01 -2.333219E+01
       vertex -4.576801E+01 5.3278503E+01 -2.325551E+01
    endloop
endfacet
facet normal  -0.9575621721 0.24331924596 -0.1545005861
    outer loop
       vertex -4.454036E+01 5.8723813E+01 -2.367860E+01
       vertex -4.484512E+01 5.7766235E+01 -2.329783E+01
       vertex -4.470039E+01 5.8807028E+01 -2.255574E+01
    endloop
endfacet
facet normal  -0.9663620969 0.22421302948 -0.125987361 
    outer loop
       vertex -4.470039E+01 5.8807028E+01 -2.255574E+01
       vertex -4.484512E+01 5.7766235E+01 -2.329783E+01
       vertex -4.494287E+01 5.7889554E+01 -2.232862E+01
    endloop
endfacet
facet normal  -0.9479126211 0.0466449451  -0.3150966705
    outer loop
       vertex -4.524907E+01 4.8374611E+01 -2.699850E+01
       vertex -4.570453E+01 4.8970689E+01 -2.554009E+01
       vertex -4.545811E+01 4.9642682E+01 -2.618192E+01
    endloop
endfacet
facet normal  -0.9595464858 0.14416685363 -0.2418397399
    outer loop
       vertex -4.545811E+01 4.9642682E+01 -2.618192E+01
       vertex -4.549387E+01 5.0418430E+01 -2.557759E+01
       vertex -4.518730E+01 5.0572059E+01 -2.670240E+01
    endloop
endfacet
facet normal  -0.9618231833 0.12056312013 -0.2456841428
    outer loop
       vertex -4.518730E+01 5.0572059E+01 -2.670240E+01
       vertex -4.549387E+01 5.0418430E+01 -2.557759E+01
       vertex -4.528395E+01 5.1224569E+01 -2.600382E+01
    endloop
endfacet
facet normal  -0.9589915632 0.12844880524 -0.2526580419
    outer loop
       vertex -4.518730E+01 5.0572059E+01 -2.670240E+01
       vertex -4.528395E+01 5.1224569E+01 -2.600382E+01
       vertex -4.494270E+01 5.1732737E+01 -2.704072E+01
    endloop
endfacet
facet normal  -0.9534521684 0.03564327219 -0.2994303252
    outer loop
       vertex -4.524907E+01 4.8374611E+01 -2.699850E+01
       vertex -4.545811E+01 4.9642682E+01 -2.618192E+01
       vertex -4.503801E+01 4.9631015E+01 -2.752099E+01
    endloop
endfacet
facet normal  -0.9481724046 0.10916883685 -0.2984145712
    outer loop
       vertex -4.503801E+01 4.9631015E+01 -2.752099E+01
       vertex -4.545811E+01 4.9642682E+01 -2.618192E+01
       vertex -4.518730E+01 5.0572059E+01 -2.670240E+01
    endloop
endfacet
facet normal  -0.9527856323 0.10740421453 -0.2840138615
    outer loop
       vertex -4.461861E+01 4.9956808E+01 -2.880475E+01
       vertex -4.503801E+01 4.9631015E+01 -2.752099E+01
       vertex -4.480472E+01 5.0802128E+01 -2.786075E+01
    endloop
endfacet
facet normal  -0.9503570855 0.10426307236 -0.2931733647
    outer loop
       vertex -4.480472E+01 5.0802128E+01 -2.786075E+01
       vertex -4.503801E+01 4.9631015E+01 -2.752099E+01
       vertex -4.518730E+01 5.0572059E+01 -2.670240E+01
    endloop
endfacet
facet normal  -0.949805344  0.11540111475 -0.2907789386
    outer loop
       vertex -4.480472E+01 5.0802128E+01 -2.786075E+01
       vertex -4.518730E+01 5.0572059E+01 -2.670240E+01
       vertex -4.494270E+01 5.1732737E+01 -2.704072E+01
    endloop
endfacet
facet normal  -0.937504672  0.14123168351 -0.3180229575
    outer loop
       vertex -4.480472E+01 5.0802128E+01 -2.786075E+01
       vertex -4.494270E+01 5.1732737E+01 -2.704072E+01
       vertex -4.451632E+01 5.1938509E+01 -2.820626E+01
    endloop
endfacet
facet normal  -0.9395300055 0.1102582718  -0.3242321425
    outer loop
       vertex -4.451632E+01 5.1938509E+01 -2.820626E+01
       vertex -4.494270E+01 5.1732737E+01 -2.704072E+01
       vertex -4.469090E+01 5.3114666E+01 -2.730041E+01
    endloop
endfacet
facet normal  -0.9445051861 0.1298302616  -0.3017516472
    outer loop
       vertex -4.411187E+01 5.0649483E+01 -3.009288E+01
       vertex -4.461861E+01 4.9956808E+01 -2.880475E+01
       vertex -4.444470E+01 5.1039939E+01 -2.888309E+01
    endloop
endfacet
facet normal  -0.9443205038 0.12975655531 -0.3023607488
    outer loop
       vertex -4.444470E+01 5.1039939E+01 -2.888309E+01
       vertex -4.461861E+01 4.9956808E+01 -2.880475E+01
       vertex -4.480472E+01 5.0802128E+01 -2.786075E+01
    endloop
endfacet
facet normal  -0.9430520904 0.14889049875 -0.2974632318
    outer loop
       vertex -4.444470E+01 5.1039939E+01 -2.888309E+01
       vertex -4.480472E+01 5.0802128E+01 -2.786075E+01
       vertex -4.451632E+01 5.1938509E+01 -2.820626E+01
    endloop
endfacet
facet normal  -0.9181225671 0.14712512736 -0.367974386 
    outer loop
       vertex -4.451632E+01 5.1938509E+01 -2.820626E+01
       vertex -4.469090E+01 5.3114666E+01 -2.730041E+01
       vertex -4.412707E+01 5.3078416E+01 -2.872170E+01
    endloop
endfacet
facet normal  -0.9360336888 0.16093285697 -0.3129561454
    outer loop
       vertex -4.366277E+01 5.1837654E+01 -3.082509E+01
       vertex -4.411187E+01 5.0649483E+01 -3.009288E+01
       vertex -4.410262E+01 5.1917039E+01 -2.946872E+01
    endloop
endfacet
facet normal  -0.9375536797 0.1591435589  -0.3092998955
    outer loop
       vertex -4.410262E+01 5.1917039E+01 -2.946872E+01
       vertex -4.411187E+01 5.0649483E+01 -3.009288E+01
       vertex -4.444470E+01 5.1039939E+01 -2.888309E+01
    endloop
endfacet
facet normal  -0.9374329871 0.15870066767 -0.3098927117
    outer loop
       vertex -4.410262E+01 5.1917039E+01 -2.946872E+01
       vertex -4.444470E+01 5.1039939E+01 -2.888309E+01
       vertex -4.451632E+01 5.1938509E+01 -2.820626E+01
    endloop
endfacet
facet normal  -0.9339964917 0.17916123864 -0.3091145483
    outer loop
       vertex -4.410262E+01 5.1917039E+01 -2.946872E+01
       vertex -4.451632E+01 5.1938509E+01 -2.820626E+01
       vertex -4.412707E+01 5.3078416E+01 -2.872170E+01
    endloop
endfacet
facet normal  -0.9319198776 0.18330127689 -0.3129312762
    outer loop
       vertex -4.366277E+01 5.1837654E+01 -3.082509E+01
       vertex -4.410262E+01 5.1917039E+01 -2.946872E+01
       vertex -4.366215E+01 5.3030736E+01 -3.012811E+01
    endloop
endfacet
facet normal  -0.9316657678 0.18246482642 -0.3141742896
    outer loop
       vertex -4.366215E+01 5.3030736E+01 -3.012811E+01
       vertex -4.410262E+01 5.1917039E+01 -2.946872E+01
       vertex -4.412707E+01 5.3078416E+01 -2.872170E+01
    endloop
endfacet
facet normal  -0.9778216276 -0.1032481883 -0.1822215031
    outer loop
       vertex -4.592326E+01 4.9100008E+01 -2.443964E+01
       vertex -4.570453E+01 4.8970689E+01 -2.554009E+01
       vertex -4.571222E+01 4.7752910E+01 -2.480880E+01
    endloop
endfacet
facet normal  -0.9660745838 0.12952720151 -0.2234336646
    outer loop
       vertex -4.549387E+01 5.0418430E+01 -2.557759E+01
       vertex -4.545811E+01 4.9642682E+01 -2.618192E+01
       vertex -4.568044E+01 4.9689468E+01 -2.519351E+01
    endloop
endfacet
facet normal  -0.9645547553 0.14014185522 -0.2235942408
    outer loop
       vertex -4.568044E+01 4.9689468E+01 -2.519351E+01
       vertex -4.545811E+01 4.9642682E+01 -2.618192E+01
       vertex -4.570453E+01 4.8970689E+01 -2.554009E+01
    endloop
endfacet
facet normal  -0.9690140666 0.13287768228 -0.2082192599
    outer loop
       vertex -4.568044E+01 4.9689468E+01 -2.519351E+01
       vertex -4.570453E+01 4.8970689E+01 -2.554009E+01
       vertex -4.592326E+01 4.9100008E+01 -2.443964E+01
    endloop
endfacet
facet normal  -0.9685936295 0.12166954644 -0.2168476476
    outer loop
       vertex -4.568044E+01 4.9689468E+01 -2.519351E+01
       vertex -4.592326E+01 4.9100008E+01 -2.443964E+01
       vertex -4.574920E+01 5.0327317E+01 -2.452848E+01
    endloop
endfacet
facet normal  -0.9554401444 0.12372311327 -0.2680050779
    outer loop
       vertex -4.504941E+01 5.2640039E+01 -2.624145E+01
       vertex -4.469090E+01 5.3114666E+01 -2.730041E+01
       vertex -4.494270E+01 5.1732737E+01 -2.704072E+01
    endloop
endfacet
facet normal  -0.9589483418 0.11540827105 -0.2590347635
    outer loop
       vertex -4.504941E+01 5.2640039E+01 -2.624145E+01
       vertex -4.494270E+01 5.1732737E+01 -2.704072E+01
       vertex -4.528395E+01 5.1224569E+01 -2.600382E+01
    endloop
endfacet
facet normal  -0.9696079176 0.09439338842 -0.2257218961
    outer loop
       vertex -4.581536E+01 5.1143298E+01 -2.383577E+01
       vertex -4.590932E+01 5.2005819E+01 -2.307145E+01
       vertex -4.564633E+01 5.2311281E+01 -2.407343E+01
    endloop
endfacet
facet normal  -0.9599433325 0.116261326   -0.2549354869
    outer loop
       vertex -4.535677E+01 5.2463052E+01 -2.516482E+01
       vertex -4.504941E+01 5.2640039E+01 -2.624145E+01
       vertex -4.528395E+01 5.1224569E+01 -2.600382E+01
    endloop
endfacet
facet normal  -0.9687422912 0.0934385005  -0.2297990859
    outer loop
       vertex -4.581536E+01 5.1143298E+01 -2.383577E+01
       vertex -4.564633E+01 5.2311281E+01 -2.407343E+01
       vertex -4.554621E+01 5.1389701E+01 -2.487019E+01
    endloop
endfacet
facet normal  -0.9648088083 0.10399431438 -0.241514277 
    outer loop
       vertex -4.554621E+01 5.1389701E+01 -2.487019E+01
       vertex -4.564633E+01 5.2311281E+01 -2.407343E+01
       vertex -4.535677E+01 5.2463052E+01 -2.516482E+01
    endloop
endfacet
facet normal  -0.9654281703 0.10489460746 -0.238632708 
    outer loop
       vertex -4.554621E+01 5.1389701E+01 -2.487019E+01
       vertex -4.535677E+01 5.2463052E+01 -2.516482E+01
       vertex -4.528395E+01 5.1224569E+01 -2.600382E+01
    endloop
endfacet
facet normal  -0.9627181608 0.12342851041 -0.2407055167
    outer loop
       vertex -4.554621E+01 5.1389701E+01 -2.487019E+01
       vertex -4.528395E+01 5.1224569E+01 -2.600382E+01
       vertex -4.549387E+01 5.0418430E+01 -2.557759E+01
    endloop
endfacet
facet normal  -0.9660057323 0.12927644072 -0.2238761423
    outer loop
       vertex -4.549387E+01 5.0418430E+01 -2.557759E+01
       vertex -4.568044E+01 4.9689468E+01 -2.519351E+01
       vertex -4.574920E+01 5.0327317E+01 -2.452848E+01
    endloop
endfacet
facet normal  -0.9676906049 0.11227715595 -0.2257625599
    outer loop
       vertex -4.549387E+01 5.0418430E+01 -2.557759E+01
       vertex -4.574920E+01 5.0327317E+01 -2.452848E+01
       vertex -4.554621E+01 5.1389701E+01 -2.487019E+01
    endloop
endfacet
facet normal  -0.9678343154 0.1125462525  -0.2250112861
    outer loop
       vertex -4.554621E+01 5.1389701E+01 -2.487019E+01
       vertex -4.574920E+01 5.0327317E+01 -2.452848E+01
       vertex -4.581536E+01 5.1143298E+01 -2.383577E+01
    endloop
endfacet
facet normal  -0.9535826031 0.16850259506 -0.2495738257
    outer loop
       vertex -4.517923E+01 5.3591584E+01 -2.541309E+01
       vertex -4.552766E+01 5.3503624E+01 -2.414120E+01
       vertex -4.526469E+01 5.4490979E+01 -2.447934E+01
    endloop
endfacet
facet normal  -0.9455381003 0.2302909063  -0.230051732 
    outer loop
       vertex -4.479677E+01 5.3954605E+01 -2.662165E+01
       vertex -4.517923E+01 5.3591584E+01 -2.541309E+01
       vertex -4.484236E+01 5.4713639E+01 -2.567445E+01
    endloop
endfacet
facet normal  -0.9330827105 0.21255720861 -0.2901311572
    outer loop
       vertex -4.484236E+01 5.4713639E+01 -2.567445E+01
       vertex -4.517923E+01 5.3591584E+01 -2.541309E+01
       vertex -4.526469E+01 5.4490979E+01 -2.447934E+01
    endloop
endfacet
facet normal  -0.9050986718 0.21872030542 -0.3646338193
    outer loop
       vertex -4.412707E+01 5.3078416E+01 -2.872170E+01
       vertex -4.469090E+01 5.3114666E+01 -2.730041E+01
       vertex -4.416917E+01 5.4320516E+01 -2.787216E+01
    endloop
endfacet
facet normal  -0.8976767984 0.20294053827 -0.3911412833
    outer loop
       vertex -4.416917E+01 5.4320516E+01 -2.787216E+01
       vertex -4.469090E+01 5.3114666E+01 -2.730041E+01
       vertex -4.479677E+01 5.3954605E+01 -2.662165E+01
    endloop
endfacet
facet normal  -0.8906888962 0.264797302   -0.3695344084
    outer loop
       vertex -4.416917E+01 5.4320516E+01 -2.787216E+01
       vertex -4.479677E+01 5.3954605E+01 -2.662165E+01
       vertex -4.441621E+01 5.5070020E+01 -2.673964E+01
    endloop
endfacet
facet normal  -0.9190755953 0.28475541025 -0.2724232121
    outer loop
       vertex -4.441621E+01 5.5070020E+01 -2.673964E+01
       vertex -4.479677E+01 5.3954605E+01 -2.662165E+01
       vertex -4.484236E+01 5.4713639E+01 -2.567445E+01
    endloop
endfacet
facet normal  -0.9290486279 0.19773863652 -0.3126788745
    outer loop
       vertex -4.320022E+01 5.4200323E+01 -3.076097E+01
       vertex -4.366215E+01 5.3030736E+01 -3.012811E+01
       vertex -4.366117E+01 5.4219254E+01 -2.937938E+01
    endloop
endfacet
facet normal  -0.9285715566 0.19837574024 -0.3136908191
    outer loop
       vertex -4.366117E+01 5.4219254E+01 -2.937938E+01
       vertex -4.366215E+01 5.3030736E+01 -3.012811E+01
       vertex -4.412707E+01 5.3078416E+01 -2.872170E+01
    endloop
endfacet
facet normal  -0.926243412  0.19090106636 -0.3250075761
    outer loop
       vertex -4.366117E+01 5.4219254E+01 -2.937938E+01
       vertex -4.412707E+01 5.3078416E+01 -2.872170E+01
       vertex -4.416917E+01 5.4320516E+01 -2.787216E+01
    endloop
endfacet
facet normal  -0.9279289736 0.20338360997 -0.3123826615
    outer loop
       vertex -4.319872E+01 5.5381517E+01 -2.999638E+01
       vertex -4.320022E+01 5.4200323E+01 -3.076097E+01
       vertex -4.366117E+01 5.4219254E+01 -2.937938E+01
    endloop
endfacet
facet normal  -0.9259209964 0.19749343307 -0.3219730615
    outer loop
       vertex -4.319872E+01 5.5381517E+01 -2.999638E+01
       vertex -4.366117E+01 5.4219254E+01 -2.937938E+01
       vertex -4.365394E+01 5.5417918E+01 -2.866493E+01
    endloop
endfacet
facet normal  -0.9244879249 0.19927617865 -0.3249785859
    outer loop
       vertex -4.365394E+01 5.5417918E+01 -2.866493E+01
       vertex -4.366117E+01 5.4219254E+01 -2.937938E+01
       vertex -4.416917E+01 5.4320516E+01 -2.787216E+01
    endloop
endfacet
facet normal  -0.9228772633 0.19223159663 -0.3336833381
    outer loop
       vertex -4.365394E+01 5.5417918E+01 -2.866493E+01
       vertex -4.416917E+01 5.4320516E+01 -2.787216E+01
       vertex -4.402263E+01 5.5481376E+01 -2.760869E+01
    endloop
endfacet
facet normal  -0.9249775198 0.19129005926 -0.3283667175
    outer loop
       vertex -4.402263E+01 5.5481376E+01 -2.760869E+01
       vertex -4.416917E+01 5.4320516E+01 -2.787216E+01
       vertex -4.441621E+01 5.5070020E+01 -2.673964E+01
    endloop
endfacet
facet normal  -0.9567568109 0.10546616101 -0.2710964656
    outer loop
       vertex -4.517923E+01 5.3591584E+01 -2.541309E+01
       vertex -4.479677E+01 5.3954605E+01 -2.662165E+01
       vertex -4.504941E+01 5.2640039E+01 -2.624145E+01
    endloop
endfacet
facet normal  -0.9552748523 0.10346568363 -0.2770285344
    outer loop
       vertex -4.504941E+01 5.2640039E+01 -2.624145E+01
       vertex -4.479677E+01 5.3954605E+01 -2.662165E+01
       vertex -4.469090E+01 5.3114666E+01 -2.730041E+01
    endloop
endfacet
facet normal  -0.9698930784 0.07414672415 -0.2319691355
    outer loop
       vertex -4.590932E+01 5.2005819E+01 -2.307145E+01
       vertex -4.576801E+01 5.3278503E+01 -2.325551E+01
       vertex -4.564633E+01 5.2311281E+01 -2.407343E+01
    endloop
endfacet
facet normal  -0.9669070947 0.08251218196 -0.2414175015
    outer loop
       vertex -4.564633E+01 5.2311281E+01 -2.407343E+01
       vertex -4.576801E+01 5.3278503E+01 -2.325551E+01
       vertex -4.552766E+01 5.3503624E+01 -2.414120E+01
    endloop
endfacet
facet normal  -0.9660616736 0.08223161365 -0.2448730376
    outer loop
       vertex -4.564633E+01 5.2311281E+01 -2.407343E+01
       vertex -4.552766E+01 5.3503624E+01 -2.414120E+01
       vertex -4.535677E+01 5.2463052E+01 -2.516482E+01
    endloop
endfacet
facet normal  -0.9617745628 0.09478259746 -0.2569162306
    outer loop
       vertex -4.535677E+01 5.2463052E+01 -2.516482E+01
       vertex -4.552766E+01 5.3503624E+01 -2.414120E+01
       vertex -4.517923E+01 5.3591584E+01 -2.541309E+01
    endloop
endfacet
facet normal  -0.9612843056 0.09426136509 -0.2589348932
    outer loop
       vertex -4.535677E+01 5.2463052E+01 -2.516482E+01
       vertex -4.517923E+01 5.3591584E+01 -2.541309E+01
       vertex -4.504941E+01 5.2640039E+01 -2.624145E+01
    endloop
endfacet
endsolid
