solid S192803_MCL_Deep_Ant_Region_Fem
facet normal  -0.8327394918 -0.2538342588 -0.4920499039
    outer loop
       vertex -3.661698E+01 4.6005079E+01 -4.117989E+01
       vertex -3.749698E+01 4.6431441E+01 -3.991054E+01
       vertex -3.722347E+01 4.7509822E+01 -4.092973E+01
    endloop
endfacet
facet normal  -0.8941127213 -0.098073808  -0.4369713604
    outer loop
       vertex -4.133207E+01 4.9788202E+01 -3.491098E+01
       vertex -4.083462E+01 4.9014220E+01 -3.575512E+01
       vertex -4.131659E+01 4.8595300E+01 -3.467491E+01
    endloop
endfacet
facet normal  -0.85971429   -0.2106888074 -0.4652972878
    outer loop
       vertex -4.131659E+01 4.8595300E+01 -3.467491E+01
       vertex -4.083462E+01 4.9014220E+01 -3.575512E+01
       vertex -4.073752E+01 4.7867386E+01 -3.541524E+01
    endloop
endfacet
facet normal  -0.8867364591 -0.1007849659 -0.4511550097
    outer loop
       vertex -4.178118E+01 4.9500485E+01 -3.396398E+01
       vertex -4.133207E+01 4.9788202E+01 -3.491098E+01
       vertex -4.131659E+01 4.8595300E+01 -3.467491E+01
    endloop
endfacet
facet normal  -0.8528735016 -0.180019215  -0.4901019   
    outer loop
       vertex -4.131659E+01 4.8595300E+01 -3.467491E+01
       vertex -4.073752E+01 4.7867386E+01 -3.541524E+01
       vertex -4.127390E+01 4.7377498E+01 -3.430189E+01
    endloop
endfacet
facet normal  -0.8419958991 -0.2086995648 -0.4974810525
    outer loop
       vertex -4.127390E+01 4.7377498E+01 -3.430189E+01
       vertex -4.073752E+01 4.7867386E+01 -3.541524E+01
       vertex -4.075021E+01 4.6771891E+01 -3.493419E+01
    endloop
endfacet
facet normal  -0.8805819742 -0.0859381295 -0.4660365056
    outer loop
       vertex -4.182178E+01 4.8234457E+01 -3.365382E+01
       vertex -4.178118E+01 4.9500485E+01 -3.396398E+01
       vertex -4.131659E+01 4.8595300E+01 -3.467491E+01
    endloop
endfacet
facet normal  -0.8552319188 -0.1789577328 -0.486366626 
    outer loop
       vertex -4.182178E+01 4.8234457E+01 -3.365382E+01
       vertex -4.131659E+01 4.8595300E+01 -3.467491E+01
       vertex -4.127390E+01 4.7377498E+01 -3.430189E+01
    endloop
endfacet
facet normal  -0.8316780716 -0.2668012975 -0.4869585741
    outer loop
       vertex -3.749698E+01 4.6431441E+01 -3.991054E+01
       vertex -3.661698E+01 4.6005079E+01 -4.117989E+01
       vertex -3.693706E+01 4.4827458E+01 -3.998802E+01
    endloop
endfacet
facet normal  -0.8274099201 -0.2659506279 -0.4946342968
    outer loop
       vertex -3.832559E+01 4.6757624E+01 -3.869984E+01
       vertex -3.749698E+01 4.6431441E+01 -3.991054E+01
       vertex -3.757590E+01 4.4697089E+01 -3.884601E+01
    endloop
endfacet
facet normal  -0.8282402382 -0.2652802118 -0.4936036031
    outer loop
       vertex -3.757590E+01 4.4697089E+01 -3.884601E+01
       vertex -3.749698E+01 4.6431441E+01 -3.991054E+01
       vertex -3.693706E+01 4.4827458E+01 -3.998802E+01
    endloop
endfacet
facet normal  -0.8194708942 -0.2609006494 -0.5102923718
    outer loop
       vertex -3.915482E+01 4.6944869E+01 -3.746392E+01
       vertex -3.832559E+01 4.6757624E+01 -3.869984E+01
       vertex -3.832397E+01 4.5174858E+01 -3.789321E+01
    endloop
endfacet
facet normal  -0.8185167796 -0.261518232  -0.5115061053
    outer loop
       vertex -3.832397E+01 4.5174858E+01 -3.789321E+01
       vertex -3.832559E+01 4.6757624E+01 -3.869984E+01
       vertex -3.757590E+01 4.4697089E+01 -3.884601E+01
    endloop
endfacet
facet normal  -0.8131843523 -0.2589643232 -0.5212184652
    outer loop
       vertex -3.996845E+01 4.6958794E+01 -3.620144E+01
       vertex -3.915482E+01 4.6944869E+01 -3.746392E+01
       vertex -3.919192E+01 4.5665642E+01 -3.677047E+01
    endloop
endfacet
facet normal  -0.8156971948 -0.2572249183 -0.5181442152
    outer loop
       vertex -3.919192E+01 4.5665642E+01 -3.677047E+01
       vertex -3.915482E+01 4.6944869E+01 -3.746392E+01
       vertex -3.832397E+01 4.5174858E+01 -3.789321E+01
    endloop
endfacet
facet normal  -0.8032421944 -0.2632295299 -0.5343334088
    outer loop
       vertex -4.075021E+01 4.6771891E+01 -3.493419E+01
       vertex -3.996845E+01 4.6958794E+01 -3.620144E+01
       vertex -3.991233E+01 4.5665476E+01 -3.564869E+01
    endloop
endfacet
facet normal  -0.8128371664 -0.2583930789 -0.5220428697
    outer loop
       vertex -3.991233E+01 4.5665476E+01 -3.564869E+01
       vertex -3.996845E+01 4.6958794E+01 -3.620144E+01
       vertex -3.919192E+01 4.5665642E+01 -3.677047E+01
    endloop
endfacet
facet normal  -0.815424271  -0.2988238824 -0.4957696498
    outer loop
       vertex -3.693706E+01 4.4827458E+01 -3.998802E+01
       vertex -3.634164E+01 4.3856375E+01 -4.038201E+01
       vertex -3.674538E+01 4.2899944E+01 -3.914149E+01
    endloop
endfacet
facet normal  -0.818387732  -0.2973548108 -0.4917536339
    outer loop
       vertex -3.757590E+01 4.4697089E+01 -3.884601E+01
       vertex -3.693706E+01 4.4827458E+01 -3.998802E+01
       vertex -3.674538E+01 4.2899944E+01 -3.914149E+01
    endloop
endfacet
facet normal  -0.8176922019 -0.2967871383 -0.4932513127
    outer loop
       vertex -3.757590E+01 4.4697089E+01 -3.884601E+01
       vertex -3.674538E+01 4.2899944E+01 -3.914149E+01
       vertex -3.756740E+01 4.2855921E+01 -3.775227E+01
    endloop
endfacet
facet normal  -0.8177250303 -0.2967634324 -0.4932111515
    outer loop
       vertex -3.832397E+01 4.5174858E+01 -3.789321E+01
       vertex -3.757590E+01 4.4697089E+01 -3.884601E+01
       vertex -3.756740E+01 4.2855921E+01 -3.775227E+01
    endloop
endfacet
facet normal  -0.8138605742 -0.297531085  -0.499105419 
    outer loop
       vertex -3.919192E+01 4.5665642E+01 -3.677047E+01
       vertex -3.832397E+01 4.5174858E+01 -3.789321E+01
       vertex -3.848815E+01 4.4250378E+01 -3.707438E+01
    endloop
endfacet
facet normal  -0.8151171506 -0.2961944257 -0.497848263 
    outer loop
       vertex -3.848815E+01 4.4250378E+01 -3.707438E+01
       vertex -3.832397E+01 4.5174858E+01 -3.789321E+01
       vertex -3.756740E+01 4.2855921E+01 -3.775227E+01
    endloop
endfacet
facet normal  -0.8213835748 -0.3094203124 -0.4791535174
    outer loop
       vertex -3.848815E+01 4.4250378E+01 -3.707438E+01
       vertex -3.756740E+01 4.2855921E+01 -3.775227E+01
       vertex -3.844090E+01 4.3189936E+01 -3.647059E+01
    endloop
endfacet
facet normal  -0.811834557  -0.360451546  -0.4593466394
    outer loop
       vertex -3.844090E+01 4.3189936E+01 -3.647059E+01
       vertex -3.756740E+01 4.2855921E+01 -3.775227E+01
       vertex -3.773755E+01 4.2195595E+01 -3.693340E+01
    endloop
endfacet
facet normal  -0.8085322674 -0.352658855  -0.4710703817
    outer loop
       vertex -3.844090E+01 4.3189936E+01 -3.647059E+01
       vertex -3.773755E+01 4.2195595E+01 -3.693340E+01
       vertex -3.816539E+01 4.1881334E+01 -3.596380E+01
    endloop
endfacet
facet normal  -0.777447726  -0.3626805251 -0.513846154 
    outer loop
       vertex -3.844090E+01 4.3189936E+01 -3.647059E+01
       vertex -3.816539E+01 4.1881334E+01 -3.596380E+01
       vertex -3.908255E+01 4.2982862E+01 -3.535361E+01
    endloop
endfacet
facet normal  -0.7996632973 -0.3236128457 -0.5057799295
    outer loop
       vertex -3.848815E+01 4.4250378E+01 -3.707438E+01
       vertex -3.844090E+01 4.3189936E+01 -3.647059E+01
       vertex -3.921150E+01 4.4385664E+01 -3.601729E+01
    endloop
endfacet
facet normal  -0.8495556094 -0.1639894093 -0.5013608882
    outer loop
       vertex -4.174320E+01 4.6991035E+01 -3.338026E+01
       vertex -4.182178E+01 4.8234457E+01 -3.365382E+01
       vertex -4.127390E+01 4.7377498E+01 -3.430189E+01
    endloop
endfacet
facet normal  -0.8304005868 -0.2295979819 -0.5076609421
    outer loop
       vertex -4.136485E+01 4.4859715E+01 -3.308365E+01
       vertex -4.192220E+01 4.5977442E+01 -3.267749E+01
       vertex -4.120043E+01 4.5933389E+01 -3.383819E+01
    endloop
endfacet
facet normal  -0.8341310384 -0.2066451073 -0.5113934008
    outer loop
       vertex -4.120043E+01 4.5933389E+01 -3.383819E+01
       vertex -4.174320E+01 4.6991035E+01 -3.338026E+01
       vertex -4.127390E+01 4.7377498E+01 -3.430189E+01
    endloop
endfacet
facet normal  -0.8409246813 -0.2037582648 -0.5013264904
    outer loop
       vertex -4.120043E+01 4.5933389E+01 -3.383819E+01
       vertex -4.127390E+01 4.7377498E+01 -3.430189E+01
       vertex -4.075021E+01 4.6771891E+01 -3.493419E+01
    endloop
endfacet
facet normal  -0.8050908602 -0.2627841421 -0.5317642349
    outer loop
       vertex -4.120043E+01 4.5933389E+01 -3.383819E+01
       vertex -4.075021E+01 4.6771891E+01 -3.493419E+01
       vertex -4.049554E+01 4.5457031E+01 -3.466999E+01
    endloop
endfacet
facet normal  -0.8031428819 -0.2629779732 -0.5346064878
    outer loop
       vertex -4.049554E+01 4.5457031E+01 -3.466999E+01
       vertex -4.075021E+01 4.6771891E+01 -3.493419E+01
       vertex -3.991233E+01 4.5665476E+01 -3.564869E+01
    endloop
endfacet
facet normal  -0.8022799122 -0.2560878347 -0.5392271908
    outer loop
       vertex -4.136485E+01 4.4859715E+01 -3.308365E+01
       vertex -4.120043E+01 4.5933389E+01 -3.383819E+01
       vertex -4.062460E+01 4.4429511E+01 -3.398072E+01
    endloop
endfacet
facet normal  -0.8049019064 -0.2575290628 -0.5346136015
    outer loop
       vertex -4.062460E+01 4.4429511E+01 -3.398072E+01
       vertex -4.120043E+01 4.5933389E+01 -3.383819E+01
       vertex -4.049554E+01 4.5457031E+01 -3.466999E+01
    endloop
endfacet
facet normal  -0.804781772  -0.2918337063 -0.5168746341
    outer loop
       vertex -3.991233E+01 4.5665476E+01 -3.564869E+01
       vertex -3.919192E+01 4.5665642E+01 -3.677047E+01
       vertex -3.921150E+01 4.4385664E+01 -3.601729E+01
    endloop
endfacet
facet normal  -0.806598788  -0.290559242  -0.5147559831
    outer loop
       vertex -3.921150E+01 4.4385664E+01 -3.601729E+01
       vertex -3.919192E+01 4.5665642E+01 -3.677047E+01
       vertex -3.848815E+01 4.4250378E+01 -3.707438E+01
    endloop
endfacet
facet normal  -0.7957302223 -0.3172328746 -0.5159231693
    outer loop
       vertex -3.921150E+01 4.4385664E+01 -3.601729E+01
       vertex -3.844090E+01 4.3189936E+01 -3.647059E+01
       vertex -3.908255E+01 4.2982862E+01 -3.535361E+01
    endloop
endfacet
facet normal  -0.7951684228 -0.2859316939 -0.5347431587
    outer loop
       vertex -4.049554E+01 4.5457031E+01 -3.466999E+01
       vertex -3.991233E+01 4.5665476E+01 -3.564869E+01
       vertex -3.985302E+01 4.4276248E+01 -3.499404E+01
    endloop
endfacet
facet normal  -0.7983313241 -0.2842595815 -0.5309082663
    outer loop
       vertex -3.985302E+01 4.4276248E+01 -3.499404E+01
       vertex -3.991233E+01 4.5665476E+01 -3.564869E+01
       vertex -3.921150E+01 4.4385664E+01 -3.601729E+01
    endloop
endfacet
facet normal  -0.7846312528 -0.2743807513 -0.5559397453
    outer loop
       vertex -4.062460E+01 4.4429511E+01 -3.398072E+01
       vertex -4.049554E+01 4.5457031E+01 -3.466999E+01
       vertex -3.985302E+01 4.4276248E+01 -3.499404E+01
    endloop
endfacet
facet normal  -0.7863232178 -0.3217948664 -0.5273934595
    outer loop
       vertex -3.985302E+01 4.4276248E+01 -3.499404E+01
       vertex -3.921150E+01 4.4385664E+01 -3.601729E+01
       vertex -3.908255E+01 4.2982862E+01 -3.535361E+01
    endloop
endfacet
facet normal  -0.7775283013 -0.3112697354 -0.5464072588
    outer loop
       vertex -3.985302E+01 4.4276248E+01 -3.499404E+01
       vertex -3.908255E+01 4.2982862E+01 -3.535361E+01
       vertex -3.986838E+01 4.3081807E+01 -3.429175E+01
    endloop
endfacet
facet normal  -0.7782864317 -0.3107866947 -0.5456022916
    outer loop
       vertex -4.062460E+01 4.4429511E+01 -3.398072E+01
       vertex -3.985302E+01 4.4276248E+01 -3.499404E+01
       vertex -3.986838E+01 4.3081807E+01 -3.429175E+01
    endloop
endfacet
facet normal  -0.8139104623 -0.2256641321 -0.5353741298
    outer loop
       vertex -3.996845E+01 4.6958794E+01 -3.620144E+01
       vertex -4.075021E+01 4.6771891E+01 -3.493419E+01
       vertex -4.073752E+01 4.7867386E+01 -3.541524E+01
    endloop
endfacet
facet normal  -0.8257305682 -0.2624521428 -0.4992873936
    outer loop
       vertex -3.722347E+01 4.7509822E+01 -4.092973E+01
       vertex -3.749698E+01 4.6431441E+01 -3.991054E+01
       vertex -3.807695E+01 4.7924424E+01 -3.973617E+01
    endloop
endfacet
facet normal  -0.8276685477 -0.2636555421 -0.4954296421
    outer loop
       vertex -3.807695E+01 4.7924424E+01 -3.973617E+01
       vertex -3.749698E+01 4.6431441E+01 -3.991054E+01
       vertex -3.832559E+01 4.6757624E+01 -3.869984E+01
    endloop
endfacet
facet normal  -0.8180208412 -0.2401463628 -0.5226582324
    outer loop
       vertex -3.996845E+01 4.6958794E+01 -3.620144E+01
       vertex -4.073752E+01 4.7867386E+01 -3.541524E+01
       vertex -3.998599E+01 4.8287308E+01 -3.678441E+01
    endloop
endfacet
facet normal  -0.8237020116 -0.2241053016 -0.5208568037
    outer loop
       vertex -3.998599E+01 4.8287308E+01 -3.678441E+01
       vertex -4.073752E+01 4.7867386E+01 -3.541524E+01
       vertex -4.083462E+01 4.9014220E+01 -3.575512E+01
    endloop
endfacet
facet normal  -0.8170571923 -0.2406855696 -0.5239160249
    outer loop
       vertex -3.915482E+01 4.6944869E+01 -3.746392E+01
       vertex -3.996845E+01 4.6958794E+01 -3.620144E+01
       vertex -3.998599E+01 4.8287308E+01 -3.678441E+01
    endloop
endfacet
facet normal  -0.8255605905 -0.2418342326 -0.5098685275
    outer loop
       vertex -3.998599E+01 4.8287308E+01 -3.678441E+01
       vertex -4.083462E+01 4.9014220E+01 -3.575512E+01
       vertex -4.040027E+01 4.9573427E+01 -3.672364E+01
    endloop
endfacet
facet normal  -0.8285473033 -0.2626413662 -0.4944986138
    outer loop
       vertex -3.807695E+01 4.7924424E+01 -3.973617E+01
       vertex -3.832559E+01 4.6757624E+01 -3.869984E+01
       vertex -3.903875E+01 4.8370897E+01 -3.836178E+01
    endloop
endfacet
facet normal  -0.8203255072 -0.2554025402 -0.511698744 
    outer loop
       vertex -3.903875E+01 4.8370897E+01 -3.836178E+01
       vertex -3.832559E+01 4.6757624E+01 -3.869984E+01
       vertex -3.915482E+01 4.6944869E+01 -3.746392E+01
    endloop
endfacet
facet normal  -0.8234864909 -0.2527644667 -0.5079174379
    outer loop
       vertex -3.903875E+01 4.8370897E+01 -3.836178E+01
       vertex -3.915482E+01 4.6944869E+01 -3.746392E+01
       vertex -3.998599E+01 4.8287308E+01 -3.678441E+01
    endloop
endfacet
facet normal  -0.834206664  -0.2052377665 -0.5118365959
    outer loop
       vertex -3.903875E+01 4.8370897E+01 -3.836178E+01
       vertex -3.998599E+01 4.8287308E+01 -3.678441E+01
       vertex -3.976311E+01 4.9326365E+01 -3.756432E+01
    endloop
endfacet
facet normal  -0.8066947672 -0.2342119871 -0.5425756148
    outer loop
       vertex -3.976311E+01 4.9326365E+01 -3.756432E+01
       vertex -3.998599E+01 4.8287308E+01 -3.678441E+01
       vertex -4.040027E+01 4.9573427E+01 -3.672364E+01
    endloop
endfacet
facet normal  -0.8902448005 -0.0838991734 -0.4476886462
    outer loop
       vertex -4.067636E+01 5.0190589E+01 -3.629028E+01
       vertex -4.040027E+01 4.9573427E+01 -3.672364E+01
       vertex -4.083462E+01 4.9014220E+01 -3.575512E+01
    endloop
endfacet
facet normal  -0.8902448005 -0.0838991734 -0.4476886462
    outer loop
       vertex -4.133207E+01 4.9788202E+01 -3.491098E+01
       vertex -4.178118E+01 4.9500485E+01 -3.396398E+01
       vertex -4.183247E+01 5.0676238E+01 -3.408234E+01
    endloop
endfacet
endsolid
