solid S192803_MCL_Deep_Mid_Region_Fem
facet normal  -0.8943944422 -0.092687005  -0.437570224 
    outer loop
       vertex -4.029854E+01 5.2181980E+01 -3.744353E+01
       vertex -4.042140E+01 5.1283807E+01 -3.700217E+01
       vertex -4.072271E+01 5.1968291E+01 -3.653127E+01
    endloop
endfacet
facet normal  -0.9013939022 -0.0660725443 -0.4279292605
    outer loop
       vertex -3.958311E+01 5.4490383E+01 -3.918281E+01
       vertex -3.950934E+01 5.3126340E+01 -3.912758E+01
       vertex -4.007257E+01 5.3850134E+01 -3.805294E+01
    endloop
endfacet
facet normal  -0.8958991312 -0.0402688992 -0.4424287089
    outer loop
       vertex -4.007257E+01 5.3850134E+01 -3.805294E+01
       vertex -3.950934E+01 5.3126340E+01 -3.912758E+01
       vertex -4.029854E+01 5.2181980E+01 -3.744353E+01
    endloop
endfacet
facet normal  -0.9002206278 -0.0365663306 -0.4338959838
    outer loop
       vertex -4.007257E+01 5.3850134E+01 -3.805294E+01
       vertex -4.029854E+01 5.2181980E+01 -3.744353E+01
       vertex -4.065416E+01 5.3510251E+01 -3.681765E+01
    endloop
endfacet
facet normal  -0.9024932153 -0.0395356267 -0.4288856848
    outer loop
       vertex -4.065416E+01 5.3510251E+01 -3.681765E+01
       vertex -4.029854E+01 5.2181980E+01 -3.744353E+01
       vertex -4.072271E+01 5.1968291E+01 -3.653127E+01
    endloop
endfacet
facet normal  -0.9012532376 -0.0400645018 -0.4314364813
    outer loop
       vertex -4.065416E+01 5.3510251E+01 -3.681765E+01
       vertex -4.072271E+01 5.1968291E+01 -3.653127E+01
       vertex -4.109057E+01 5.2889661E+01 -3.584839E+01
    endloop
endfacet
facet normal  -0.895987234  -0.0293090244 -0.4431115633
    outer loop
       vertex -4.109057E+01 5.2889661E+01 -3.584839E+01
       vertex -4.072271E+01 5.1968291E+01 -3.653127E+01
       vertex -4.135031E+01 5.1794911E+01 -3.525077E+01
    endloop
endfacet
facet normal  -0.9144130116 -0.01479421   -0.4045120214
    outer loop
       vertex -3.999198E+01 5.5147359E+01 -3.828257E+01
       vertex -3.958311E+01 5.4490383E+01 -3.918281E+01
       vertex -4.007257E+01 5.3850134E+01 -3.805294E+01
    endloop
endfacet
facet normal  -0.901585986  -0.0204772331 -0.4321150227
    outer loop
       vertex -3.999198E+01 5.5147359E+01 -3.828257E+01
       vertex -4.007257E+01 5.3850134E+01 -3.805294E+01
       vertex -4.038411E+01 5.4635450E+01 -3.744016E+01
    endloop
endfacet
facet normal  -0.9022033235 -0.0217788545 -0.4307607741
    outer loop
       vertex -4.038411E+01 5.4635450E+01 -3.744016E+01
       vertex -4.007257E+01 5.3850134E+01 -3.805294E+01
       vertex -4.065416E+01 5.3510251E+01 -3.681765E+01
    endloop
endfacet
facet normal  -0.9085947525 -0.0108659811 -0.4175374308
    outer loop
       vertex -4.077122E+01 5.4932336E+01 -3.660550E+01
       vertex -4.040349E+01 5.5692537E+01 -3.742549E+01
       vertex -4.038411E+01 5.4635450E+01 -3.744016E+01
    endloop
endfacet
facet normal  -0.9088089163 -0.0125928691 -0.4170225093
    outer loop
       vertex -4.077122E+01 5.4932336E+01 -3.660550E+01
       vertex -4.038411E+01 5.4635450E+01 -3.744016E+01
       vertex -4.065416E+01 5.3510251E+01 -3.681765E+01
    endloop
endfacet
facet normal  -0.9102260441 -0.0131750244 -0.4139021229
    outer loop
       vertex -4.077122E+01 5.4932336E+01 -3.660550E+01
       vertex -4.065416E+01 5.3510251E+01 -3.681765E+01
       vertex -4.114334E+01 5.4071343E+01 -3.575975E+01
    endloop
endfacet
facet normal  -0.909519609  -0.0094452163 -0.4155536894
    outer loop
       vertex -4.114334E+01 5.4071343E+01 -3.575975E+01
       vertex -4.065416E+01 5.3510251E+01 -3.681765E+01
       vertex -4.109057E+01 5.2889661E+01 -3.584839E+01
    endloop
endfacet
facet normal  -0.8553764861 -0.0864113497 -0.5107486129
    outer loop
       vertex -3.830266E+01 5.0830166E+01 -4.070799E+01
       vertex -3.884410E+01 5.0917451E+01 -3.981598E+01
       vertex -3.849011E+01 5.1987951E+01 -4.058993E+01
    endloop
endfacet
facet normal  -0.8553764861 -0.0864113497 -0.5107486129
    outer loop
       vertex -3.849011E+01 5.1987951E+01 -4.058993E+01
       vertex -3.884410E+01 5.0917451E+01 -3.981598E+01
       vertex -3.901653E+01 5.2895145E+01 -3.986179E+01
    endloop
endfacet
facet normal  -0.8553764861 -0.0864113497 -0.5107486129
    outer loop
       vertex -3.783754E+01 5.2141043E+01 -4.170873E+01
       vertex -3.830266E+01 5.0830166E+01 -4.070799E+01
       vertex -3.849011E+01 5.1987951E+01 -4.058993E+01
    endloop
endfacet
facet normal  -0.8399158327 -0.0915049812 -0.5349469435
    outer loop
       vertex -3.901653E+01 5.2895145E+01 -3.986179E+01
       vertex -3.950934E+01 5.3126340E+01 -3.912758E+01
       vertex -3.899667E+01 5.4007708E+01 -4.008329E+01
    endloop
endfacet
facet normal  -0.852140235  -0.0670961383 -0.518994343 
    outer loop
       vertex -3.899667E+01 5.4007708E+01 -4.008329E+01
       vertex -3.950934E+01 5.3126340E+01 -3.912758E+01
       vertex -3.958311E+01 5.4490383E+01 -3.918281E+01
    endloop
endfacet
facet normal  -0.8553764861 -0.0864113497 -0.5107486129
    outer loop
       vertex -3.794539E+01 5.4049217E+01 -4.185093E+01
       vertex -3.783754E+01 5.2141043E+01 -4.170873E+01
       vertex -3.845800E+01 5.3244530E+01 -4.085631E+01
    endloop
endfacet
facet normal  -0.8553764861 -0.0864113497 -0.5107486129
    outer loop
       vertex -3.845800E+01 5.3244530E+01 -4.085631E+01
       vertex -3.783754E+01 5.2141043E+01 -4.170873E+01
       vertex -3.849011E+01 5.1987951E+01 -4.058993E+01
    endloop
endfacet
facet normal  -0.8553764861 -0.0864113497 -0.5107486129
    outer loop
       vertex -3.845800E+01 5.3244530E+01 -4.085631E+01
       vertex -3.849011E+01 5.1987951E+01 -4.058993E+01
       vertex -3.901653E+01 5.2895145E+01 -3.986179E+01
    endloop
endfacet
facet normal  -0.8553764861 -0.0864113497 -0.5107486129
    outer loop
       vertex -3.845800E+01 5.3244530E+01 -4.085631E+01
       vertex -3.901653E+01 5.2895145E+01 -3.986179E+01
       vertex -3.899667E+01 5.4007708E+01 -4.008329E+01
    endloop
endfacet
facet normal  -0.8553764861 -0.0864113497 -0.5107486129
    outer loop
       vertex -3.845800E+01 5.3244530E+01 -4.085631E+01
       vertex -3.899667E+01 5.4007708E+01 -4.008329E+01
       vertex -3.847098E+01 5.4596865E+01 -4.106336E+01
    endloop
endfacet
facet normal  -0.8414474278 -0.121836779  -0.5264238078
    outer loop
       vertex -3.950934E+01 5.3126340E+01 -3.912758E+01
       vertex -3.901653E+01 5.2895145E+01 -3.986179E+01
       vertex -3.950196E+01 5.2046801E+01 -3.888953E+01
    endloop
endfacet
facet normal  -0.859076515  -0.0865884993 -0.5044699924
    outer loop
       vertex -3.950196E+01 5.2046801E+01 -3.888953E+01
       vertex -3.901653E+01 5.2895145E+01 -3.986179E+01
       vertex -3.884410E+01 5.0917451E+01 -3.981598E+01
    endloop
endfacet
facet normal  -0.8748830985 -0.1099931967 -0.4716789805
    outer loop
       vertex -4.029854E+01 5.2181980E+01 -3.744353E+01
       vertex -3.950934E+01 5.3126340E+01 -3.912758E+01
       vertex -3.950196E+01 5.2046801E+01 -3.888953E+01
    endloop
endfacet
facet normal  -0.8694153512 -0.1169714763 -0.480036062 
    outer loop
       vertex -4.042140E+01 5.1283807E+01 -3.700217E+01
       vertex -4.029854E+01 5.2181980E+01 -3.744353E+01
       vertex -3.975243E+01 5.1140386E+01 -3.817882E+01
    endloop
endfacet
facet normal  -0.8737879045 -0.1266914362 -0.4695146195
    outer loop
       vertex -3.975243E+01 5.1140386E+01 -3.817882E+01
       vertex -4.029854E+01 5.2181980E+01 -3.744353E+01
       vertex -3.950196E+01 5.2046801E+01 -3.888953E+01
    endloop
endfacet
facet normal  -0.8708672011 -0.0534905561 -0.4885990979
    outer loop
       vertex -4.011706E+01 5.0478672E+01 -3.745647E+01
       vertex -4.042140E+01 5.1283807E+01 -3.700217E+01
       vertex -3.975243E+01 5.1140386E+01 -3.817882E+01
    endloop
endfacet
facet normal  -0.806004178  -0.150948178  -0.5723389839
    outer loop
       vertex -3.830266E+01 5.0830166E+01 -4.070799E+01
       vertex -3.783754E+01 5.2141043E+01 -4.170873E+01
       vertex -3.749124E+01 5.1175830E+01 -4.194185E+01
    endloop
endfacet
facet normal  -0.8294488805 -0.2276519472 -0.5100873901
    outer loop
       vertex -3.696476E+01 4.8666315E+01 -4.186655E+01
       vertex -3.722347E+01 4.7509822E+01 -4.092973E+01
       vertex -3.774506E+01 4.9070462E+01 -4.077809E+01
    endloop
endfacet
facet normal  -0.8277934319 -0.2268014693 -0.5131463024
    outer loop
       vertex -3.774506E+01 4.9070462E+01 -4.077809E+01
       vertex -3.722347E+01 4.7509822E+01 -4.092973E+01
       vertex -3.807695E+01 4.7924424E+01 -3.973617E+01
    endloop
endfacet
facet normal  -0.8299531657 -0.2020721275 -0.5199467262
    outer loop
       vertex -3.734214E+01 5.0054725E+01 -4.180377E+01
       vertex -3.696476E+01 4.8666315E+01 -4.186655E+01
       vertex -3.774506E+01 4.9070462E+01 -4.077809E+01
    endloop
endfacet
facet normal  -0.7988199294 -0.1770488257 -0.5749264594
    outer loop
       vertex -3.830266E+01 5.0830166E+01 -4.070799E+01
       vertex -3.749124E+01 5.1175830E+01 -4.194185E+01
       vertex -3.734214E+01 5.0054725E+01 -4.180377E+01
    endloop
endfacet
facet normal  -0.8083657643 -0.1963607246 -0.5549659962
    outer loop
       vertex -3.976311E+01 4.9326365E+01 -3.756432E+01
       vertex -4.040027E+01 4.9573427E+01 -3.672364E+01
       vertex -4.011706E+01 5.0478672E+01 -3.745647E+01
    endloop
endfacet
facet normal  -0.8323037341 -0.2075480284 -0.5139983561
    outer loop
       vertex -3.976311E+01 4.9326365E+01 -3.756432E+01
       vertex -4.011706E+01 5.0478672E+01 -3.745647E+01
       vertex -3.933773E+01 4.9952839E+01 -3.850609E+01
    endloop
endfacet
facet normal  -0.8271258715 -0.1387488857 -0.5446205462
    outer loop
       vertex -3.933773E+01 4.9952839E+01 -3.850609E+01
       vertex -4.011706E+01 5.0478672E+01 -3.745647E+01
       vertex -3.975243E+01 5.1140386E+01 -3.817882E+01
    endloop
endfacet
facet normal  -0.8339349925 -0.2043745236 -0.5126241141
    outer loop
       vertex -3.903875E+01 4.8370897E+01 -3.836178E+01
       vertex -3.976311E+01 4.9326365E+01 -3.756432E+01
       vertex -3.933773E+01 4.9952839E+01 -3.850609E+01
    endloop
endfacet
facet normal  -0.8071993872 -0.2341934318 -0.5418326179
    outer loop
       vertex -3.830266E+01 5.0830166E+01 -4.070799E+01
       vertex -3.734214E+01 5.0054725E+01 -4.180377E+01
       vertex -3.774506E+01 4.9070462E+01 -4.077809E+01
    endloop
endfacet
facet normal  -0.8412639577 -0.2329989706 -0.4878385319
    outer loop
       vertex -3.884410E+01 5.0917451E+01 -3.981598E+01
       vertex -3.830266E+01 5.0830166E+01 -4.070799E+01
       vertex -3.854828E+01 4.9506582E+01 -3.965226E+01
    endloop
endfacet
facet normal  -0.8316657046 -0.2436540029 -0.498963809 
    outer loop
       vertex -3.854828E+01 4.9506582E+01 -3.965226E+01
       vertex -3.830266E+01 5.0830166E+01 -4.070799E+01
       vertex -3.774506E+01 4.9070462E+01 -4.077809E+01
    endloop
endfacet
facet normal  -0.8746724384 -0.1254215411 -0.4682067518
    outer loop
       vertex -3.975243E+01 5.1140386E+01 -3.817882E+01
       vertex -3.950196E+01 5.2046801E+01 -3.888953E+01
       vertex -3.884410E+01 5.0917451E+01 -3.981598E+01
    endloop
endfacet
facet normal  -0.8705935836 -0.1775666779 -0.4588429875
    outer loop
       vertex -3.933773E+01 4.9952839E+01 -3.850609E+01
       vertex -3.975243E+01 5.1140386E+01 -3.817882E+01
       vertex -3.884410E+01 5.0917451E+01 -3.981598E+01
    endloop
endfacet
facet normal  -0.8408980919 -0.2329955966 -0.4884705222
    outer loop
       vertex -3.933773E+01 4.9952839E+01 -3.850609E+01
       vertex -3.884410E+01 5.0917451E+01 -3.981598E+01
       vertex -3.854828E+01 4.9506582E+01 -3.965226E+01
    endloop
endfacet
facet normal  -0.8415315034 -0.2046533117 -0.4999417474
    outer loop
       vertex -3.903875E+01 4.8370897E+01 -3.836178E+01
       vertex -3.933773E+01 4.9952839E+01 -3.850609E+01
       vertex -3.854828E+01 4.9506582E+01 -3.965226E+01
    endloop
endfacet
facet normal  -0.8313384632 -0.2206062476 -0.5101070898
    outer loop
       vertex -3.903875E+01 4.8370897E+01 -3.836178E+01
       vertex -3.854828E+01 4.9506582E+01 -3.965226E+01
       vertex -3.807695E+01 4.7924424E+01 -3.973617E+01
    endloop
endfacet
facet normal  -0.8323736489 -0.2210136962 -0.5082391708
    outer loop
       vertex -3.807695E+01 4.7924424E+01 -3.973617E+01
       vertex -3.854828E+01 4.9506582E+01 -3.965226E+01
       vertex -3.774506E+01 4.9070462E+01 -4.077809E+01
    endloop
endfacet
facet normal  -0.8902448005 -0.0838991734 -0.4476886462
    outer loop
       vertex -4.042140E+01 5.1283807E+01 -3.700217E+01
       vertex -4.011706E+01 5.0478672E+01 -3.745647E+01
       vertex -4.067636E+01 5.0190589E+01 -3.629028E+01
    endloop
endfacet
facet normal  -0.8902448005 -0.0838991734 -0.4476886462
    outer loop
       vertex -4.067636E+01 5.0190589E+01 -3.629028E+01
       vertex -4.011706E+01 5.0478672E+01 -3.745647E+01
       vertex -4.040027E+01 4.9573427E+01 -3.672364E+01
    endloop
endfacet
facet normal  -0.8902448005 -0.0838991734 -0.4476886462
    outer loop
       vertex -4.072271E+01 5.1968291E+01 -3.653127E+01
       vertex -4.042140E+01 5.1283807E+01 -3.700217E+01
       vertex -4.090697E+01 5.1008699E+01 -3.598504E+01
    endloop
endfacet
facet normal  -0.8902448005 -0.0838991734 -0.4476886462
    outer loop
       vertex -4.090697E+01 5.1008699E+01 -3.598504E+01
       vertex -4.042140E+01 5.1283807E+01 -3.700217E+01
       vertex -4.067636E+01 5.0190589E+01 -3.629028E+01
    endloop
endfacet
facet normal  -0.8902448005 -0.0838991734 -0.4476886462
    outer loop
       vertex -4.135031E+01 5.1794911E+01 -3.525077E+01
       vertex -4.072271E+01 5.1968291E+01 -3.653127E+01
       vertex -4.090697E+01 5.1008699E+01 -3.598504E+01
    endloop
endfacet
facet normal  -0.8902448005 -0.0838991734 -0.4476886462
    outer loop
       vertex -4.067636E+01 5.0190589E+01 -3.629028E+01
       vertex -4.083462E+01 4.9014220E+01 -3.575512E+01
       vertex -4.133207E+01 4.9788202E+01 -3.491098E+01
    endloop
endfacet
facet normal  -0.8902448005 -0.0838991734 -0.4476886462
    outer loop
       vertex -4.133207E+01 4.9788202E+01 -3.491098E+01
       vertex -4.183247E+01 5.0676238E+01 -3.408234E+01
       vertex -4.135031E+01 5.1794911E+01 -3.525077E+01
    endloop
endfacet
facet normal  -0.8902448005 -0.0838991734 -0.4476886462
    outer loop
       vertex -4.133207E+01 4.9788202E+01 -3.491098E+01
       vertex -4.135031E+01 5.1794911E+01 -3.525077E+01
       vertex -4.090697E+01 5.1008699E+01 -3.598504E+01
    endloop
endfacet
facet normal  -0.8902448005 -0.0838991734 -0.4476886462
    outer loop
       vertex -4.133207E+01 4.9788202E+01 -3.491098E+01
       vertex -4.090697E+01 5.1008699E+01 -3.598504E+01
       vertex -4.067636E+01 5.0190589E+01 -3.629028E+01
    endloop
endfacet
endsolid
