solid S192803_MCL_Deep_Post_Region_Fem
facet normal  -0.8233726131 0.00551660772 -0.5674743228
    outer loop
       vertex -3.810168E+01 5.6623391E+01 -4.190987E+01
       vertex -3.871233E+01 5.6745397E+01 -4.102267E+01
       vertex -3.823617E+01 5.7524977E+01 -4.170597E+01
    endloop
endfacet
facet normal  -0.8514730251 0.06385685385 -0.5204959075
    outer loop
       vertex -3.823617E+01 5.7524977E+01 -4.170597E+01
       vertex -3.871233E+01 5.6745397E+01 -4.102267E+01
       vertex -3.867935E+01 5.8072124E+01 -4.091384E+01
    endloop
endfacet
facet normal  -0.8634529216 0.02963196214 -0.5035583373
    outer loop
       vertex -3.823617E+01 5.7524977E+01 -4.170597E+01
       vertex -3.867935E+01 5.8072124E+01 -4.091384E+01
       vertex -3.797720E+01 5.8665471E+01 -4.208291E+01
    endloop
endfacet
facet normal  -0.862963224  0.02712164937 -0.504538294 
    outer loop
       vertex -3.797720E+01 5.8665471E+01 -4.208291E+01
       vertex -3.867935E+01 5.8072124E+01 -4.091384E+01
       vertex -3.866321E+01 5.9396394E+01 -4.087027E+01
    endloop
endfacet
facet normal  -0.9128870448 0.04161467559 -0.4060855356
    outer loop
       vertex -4.018088E+01 6.0627969E+01 -3.773118E+01
       vertex -4.055372E+01 6.0814936E+01 -3.687386E+01
       vertex -4.024013E+01 6.1639482E+01 -3.749431E+01
    endloop
endfacet
facet normal  -0.900236599  0.04858371923 -0.432681971 
    outer loop
       vertex -3.986591E+01 6.1419792E+01 -3.829759E+01
       vertex -4.018088E+01 6.0627969E+01 -3.773118E+01
       vertex -4.024013E+01 6.1639482E+01 -3.749431E+01
    endloop
endfacet
facet normal  -0.9085343757 -0.0446916219 -0.4154129837
    outer loop
       vertex -3.902702E+01 5.5883846E+01 -4.034987E+01
       vertex -3.915411E+01 5.4826931E+01 -3.995822E+01
       vertex -3.951017E+01 5.5845685E+01 -3.928910E+01
    endloop
endfacet
facet normal  -0.8767052845 0.00946736603 -0.4809347284
    outer loop
       vertex -3.951017E+01 5.5845685E+01 -3.928910E+01
       vertex -3.915411E+01 5.4826931E+01 -3.995822E+01
       vertex -3.958311E+01 5.4490383E+01 -3.918281E+01
    endloop
endfacet
facet normal  -0.9038244067 0.05724757356 -0.4240567854
    outer loop
       vertex -3.867935E+01 5.8072124E+01 -4.091384E+01
       vertex -3.871233E+01 5.6745397E+01 -4.102267E+01
       vertex -3.918372E+01 5.7189617E+01 -3.995798E+01
    endloop
endfacet
facet normal  -0.9122164479 0.01342576984 -0.4094885846
    outer loop
       vertex -3.918372E+01 5.7189617E+01 -3.995798E+01
       vertex -3.871233E+01 5.6745397E+01 -4.102267E+01
       vertex -3.902702E+01 5.5883846E+01 -4.034987E+01
    endloop
endfacet
facet normal  -0.9101521604 0.01502789824 -0.4140014579
    outer loop
       vertex -3.918372E+01 5.7189617E+01 -3.995798E+01
       vertex -3.902702E+01 5.5883846E+01 -4.034987E+01
       vertex -3.951017E+01 5.5845685E+01 -3.928910E+01
    endloop
endfacet
facet normal  -0.8955661155 0.05455433113 -0.4415712374
    outer loop
       vertex -3.981593E+01 6.0666412E+01 -3.850643E+01
       vertex -3.948204E+01 6.1258280E+01 -3.911049E+01
       vertex -3.951754E+01 6.0294078E+01 -3.915760E+01
    endloop
endfacet
facet normal  -0.90437173   0.05723285691 -0.4228902624
    outer loop
       vertex -4.018088E+01 6.0627969E+01 -3.773118E+01
       vertex -3.986591E+01 6.1419792E+01 -3.829759E+01
       vertex -3.981593E+01 6.0666412E+01 -3.850643E+01
    endloop
endfacet
facet normal  -0.8841040772 0.02964147397 -0.466348972 
    outer loop
       vertex -3.910892E+01 5.9884283E+01 -3.999427E+01
       vertex -3.866321E+01 5.9396394E+01 -4.087027E+01
       vertex -3.914265E+01 5.8649028E+01 -4.000884E+01
    endloop
endfacet
facet normal  -0.8829631962 0.02618676135 -0.4687112626
    outer loop
       vertex -3.914265E+01 5.8649028E+01 -4.000884E+01
       vertex -3.866321E+01 5.9396394E+01 -4.087027E+01
       vertex -3.867935E+01 5.8072124E+01 -4.091384E+01
    endloop
endfacet
facet normal  -0.8877778595 0.00894528531 -0.4601852388
    outer loop
       vertex -3.914265E+01 5.8649028E+01 -4.000884E+01
       vertex -3.867935E+01 5.8072124E+01 -4.091384E+01
       vertex -3.918372E+01 5.7189617E+01 -3.995798E+01
    endloop
endfacet
facet normal  -0.9060460102 0.01559830094 -0.4228916178
    outer loop
       vertex -3.951017E+01 5.5845685E+01 -3.928910E+01
       vertex -3.958311E+01 5.4490383E+01 -3.918281E+01
       vertex -3.999198E+01 5.5147359E+01 -3.828257E+01
    endloop
endfacet
facet normal  -0.8911166829 0.03511656002 -0.4524134001
    outer loop
       vertex -3.951754E+01 6.0294078E+01 -3.915760E+01
       vertex -3.910892E+01 5.9884283E+01 -3.999427E+01
       vertex -3.956925E+01 5.9214475E+01 -3.913956E+01
    endloop
endfacet
facet normal  -0.8895632524 0.0296666288  -0.4558476841
    outer loop
       vertex -3.956925E+01 5.9214475E+01 -3.913956E+01
       vertex -3.910892E+01 5.9884283E+01 -3.999427E+01
       vertex -3.914265E+01 5.8649028E+01 -4.000884E+01
    endloop
endfacet
facet normal  -0.9150150395 0.04465794298 -0.4009403268
    outer loop
       vertex -4.073343E+01 5.9726651E+01 -3.658494E+01
       vertex -4.055372E+01 6.0814936E+01 -3.687386E+01
       vertex -4.037908E+01 5.9989070E+01 -3.736441E+01
    endloop
endfacet
facet normal  -0.9119672389 0.04908921696 -0.4073156074
    outer loop
       vertex -4.037908E+01 5.9989070E+01 -3.736441E+01
       vertex -4.055372E+01 6.0814936E+01 -3.687386E+01
       vertex -4.018088E+01 6.0627969E+01 -3.773118E+01
    endloop
endfacet
facet normal  -0.9075431918 0.0416472572  -0.4178885747
    outer loop
       vertex -4.037908E+01 5.9989070E+01 -3.736441E+01
       vertex -4.018088E+01 6.0627969E+01 -3.773118E+01
       vertex -3.999143E+01 5.9770644E+01 -3.822804E+01
    endloop
endfacet
facet normal  -0.9046924606 0.04559783796 -0.4236182112
    outer loop
       vertex -3.999143E+01 5.9770644E+01 -3.822804E+01
       vertex -4.018088E+01 6.0627969E+01 -3.773118E+01
       vertex -3.981593E+01 6.0666412E+01 -3.850643E+01
    endloop
endfacet
facet normal  -0.8992863821 0.04086251712 -0.4354471927
    outer loop
       vertex -3.999143E+01 5.9770644E+01 -3.822804E+01
       vertex -3.981593E+01 6.0666412E+01 -3.850643E+01
       vertex -3.951754E+01 6.0294078E+01 -3.915760E+01
    endloop
endfacet
facet normal  -0.89833168   0.03570531031 -0.4378645036
    outer loop
       vertex -3.999143E+01 5.9770644E+01 -3.822804E+01
       vertex -3.951754E+01 6.0294078E+01 -3.915760E+01
       vertex -3.956925E+01 5.9214475E+01 -3.913956E+01
    endloop
endfacet
facet normal  -0.8932794641 0.01663373076 -0.4491938535
    outer loop
       vertex -3.956925E+01 5.9214475E+01 -3.913956E+01
       vertex -3.914265E+01 5.8649028E+01 -4.000884E+01
       vertex -3.960286E+01 5.8040875E+01 -3.911618E+01
    endloop
endfacet
facet normal  -0.8913571754 0.00928922913 -0.4532064608
    outer loop
       vertex -3.960286E+01 5.8040875E+01 -3.911618E+01
       vertex -3.914265E+01 5.8649028E+01 -4.000884E+01
       vertex -3.918372E+01 5.7189617E+01 -3.995798E+01
    endloop
endfacet
facet normal  -0.9011519127 0.02521426879 -0.4327695354
    outer loop
       vertex -3.999143E+01 5.9770644E+01 -3.822804E+01
       vertex -3.956925E+01 5.9214475E+01 -3.913956E+01
       vertex -4.000883E+01 5.8598290E+01 -3.826014E+01
    endloop
endfacet
facet normal  -0.8990748705 0.01703341945 -0.4374634154
    outer loop
       vertex -4.000883E+01 5.8598290E+01 -3.826014E+01
       vertex -3.956925E+01 5.9214475E+01 -3.913956E+01
       vertex -3.960286E+01 5.8040875E+01 -3.911618E+01
    endloop
endfacet
facet normal  -0.8944221185 0.00186000654 -0.4472198725
    outer loop
       vertex -3.960286E+01 5.8040875E+01 -3.911618E+01
       vertex -3.918372E+01 5.7189617E+01 -3.995798E+01
       vertex -3.966735E+01 5.6997062E+01 -3.899154E+01
    endloop
endfacet
facet normal  -0.8937707662 -0.0061125726 -0.4484823897
    outer loop
       vertex -3.966735E+01 5.6997062E+01 -3.899154E+01
       vertex -3.918372E+01 5.7189617E+01 -3.995798E+01
       vertex -3.951017E+01 5.5845685E+01 -3.928910E+01
    endloop
endfacet
facet normal  -0.8985877582 -0.0092994964 -0.4386952931
    outer loop
       vertex -3.966735E+01 5.6997062E+01 -3.899154E+01
       vertex -3.951017E+01 5.5845685E+01 -3.928910E+01
       vertex -4.000685E+01 5.6345254E+01 -3.828233E+01
    endloop
endfacet
facet normal  -0.8989166156 -0.0110681193 -0.4379799253
    outer loop
       vertex -4.000685E+01 5.6345254E+01 -3.828233E+01
       vertex -3.951017E+01 5.5845685E+01 -3.928910E+01
       vertex -3.999198E+01 5.5147359E+01 -3.828257E+01
    endloop
endfacet
facet normal  -0.9012346668 0.0089720723  -0.4332384763
    outer loop
       vertex -4.000883E+01 5.8598290E+01 -3.826014E+01
       vertex -3.960286E+01 5.8040875E+01 -3.911618E+01
       vertex -4.002524E+01 5.7481809E+01 -3.824910E+01
    endloop
endfacet
facet normal  -0.899893084  0.00352617166 -0.4360963236
    outer loop
       vertex -4.002524E+01 5.7481809E+01 -3.824910E+01
       vertex -3.960286E+01 5.8040875E+01 -3.911618E+01
       vertex -3.966735E+01 5.6997062E+01 -3.899154E+01
    endloop
endfacet
facet normal  -0.9012904404 -0.0019245504 -0.4332110781
    outer loop
       vertex -4.002524E+01 5.7481809E+01 -3.824910E+01
       vertex -3.966735E+01 5.6997062E+01 -3.899154E+01
       vertex -4.000685E+01 5.6345254E+01 -3.828233E+01
    endloop
endfacet
facet normal  -0.9088370786 0.03167419337 -0.4159470038
    outer loop
       vertex -4.037908E+01 5.9989070E+01 -3.736441E+01
       vertex -3.999143E+01 5.9770644E+01 -3.822804E+01
       vertex -4.041023E+01 5.9093571E+01 -3.736454E+01
    endloop
endfacet
facet normal  -0.9070266216 0.0249609783  -0.4203327934
    outer loop
       vertex -4.041023E+01 5.9093571E+01 -3.736454E+01
       vertex -3.999143E+01 5.9770644E+01 -3.822804E+01
       vertex -4.000883E+01 5.8598290E+01 -3.826014E+01
    endloop
endfacet
facet normal  -0.9138786342 0.03184786206 -0.4047364028
    outer loop
       vertex -4.073343E+01 5.9726651E+01 -3.658494E+01
       vertex -4.037908E+01 5.9989070E+01 -3.736441E+01
       vertex -4.041023E+01 5.9093571E+01 -3.736454E+01
    endloop
endfacet
facet normal  -0.9089993425 0.01638685418 -0.416475289 
    outer loop
       vertex -4.041023E+01 5.9093571E+01 -3.736454E+01
       vertex -4.000883E+01 5.8598290E+01 -3.826014E+01
       vertex -4.043515E+01 5.7991090E+01 -3.735352E+01
    endloop
endfacet
facet normal  -0.9072562776 0.0091866965  -0.4204778845
    outer loop
       vertex -4.043515E+01 5.7991090E+01 -3.735352E+01
       vertex -4.000883E+01 5.8598290E+01 -3.826014E+01
       vertex -4.002524E+01 5.7481809E+01 -3.824910E+01
    endloop
endfacet
facet normal  -0.9082321545 0.00481572566 -0.4184389588
    outer loop
       vertex -4.043515E+01 5.7991090E+01 -3.735352E+01
       vertex -4.002524E+01 5.7481809E+01 -3.824910E+01
       vertex -4.042373E+01 5.6847249E+01 -3.739148E+01
    endloop
endfacet
facet normal  -0.9062292959 -0.0023093913 -0.4227802384
    outer loop
       vertex -4.042373E+01 5.6847249E+01 -3.739148E+01
       vertex -4.002524E+01 5.7481809E+01 -3.824910E+01
       vertex -4.000685E+01 5.6345254E+01 -3.828233E+01
    endloop
endfacet
facet normal  -0.9064729865 -0.0034532902 -0.4222496886
    outer loop
       vertex -4.042373E+01 5.6847249E+01 -3.739148E+01
       vertex -4.000685E+01 5.6345254E+01 -3.828233E+01
       vertex -4.040349E+01 5.5692537E+01 -3.742549E+01
    endloop
endfacet
facet normal  -0.9041668676 -0.0111354901 -0.4270342802
    outer loop
       vertex -4.040349E+01 5.5692537E+01 -3.742549E+01
       vertex -4.000685E+01 5.6345254E+01 -3.828233E+01
       vertex -3.999198E+01 5.5147359E+01 -3.828257E+01
    endloop
endfacet
facet normal  -0.9040520969 -0.0106474038 -0.4272896429
    outer loop
       vertex -4.040349E+01 5.5692537E+01 -3.742549E+01
       vertex -3.999198E+01 5.5147359E+01 -3.828257E+01
       vertex -4.038411E+01 5.4635450E+01 -3.744016E+01
    endloop
endfacet
facet normal  -0.9149110376 0.01665213956 -0.4033119133
    outer loop
       vertex -4.088730E+01 5.8604952E+01 -3.630248E+01
       vertex -4.041023E+01 5.9093571E+01 -3.736454E+01
       vertex -4.043515E+01 5.7991090E+01 -3.735352E+01
    endloop
endfacet
facet normal  -0.9138854662 0.00434480686 -0.4059488605
    outer loop
       vertex -4.084514E+01 5.7341691E+01 -3.643750E+01
       vertex -4.043515E+01 5.7991090E+01 -3.735352E+01
       vertex -4.042373E+01 5.6847249E+01 -3.739148E+01
    endloop
endfacet
facet normal  -0.9140542283 0.00348358036 -0.4055770363
    outer loop
       vertex -4.084514E+01 5.7341691E+01 -3.643750E+01
       vertex -4.042373E+01 5.6847249E+01 -3.739148E+01
       vertex -4.081254E+01 5.6162113E+01 -3.652110E+01
    endloop
endfacet
facet normal  -0.9118886291 -0.0038967459 -0.410419229 
    outer loop
       vertex -4.081254E+01 5.6162113E+01 -3.652110E+01
       vertex -4.042373E+01 5.6847249E+01 -3.739148E+01
       vertex -4.040349E+01 5.5692537E+01 -3.742549E+01
    endloop
endfacet
facet normal  -0.9116059855 -0.0024202973 -0.4110579879
    outer loop
       vertex -4.081254E+01 5.6162113E+01 -3.652110E+01
       vertex -4.040349E+01 5.5692537E+01 -3.742549E+01
       vertex -4.077122E+01 5.4932336E+01 -3.660550E+01
    endloop
endfacet
facet normal  -0.8262075853 -0.0757742461 -0.5582466208
    outer loop
       vertex -3.871233E+01 5.6745397E+01 -4.102267E+01
       vertex -3.810168E+01 5.6623391E+01 -4.190987E+01
       vertex -3.854143E+01 5.5750398E+01 -4.114054E+01
    endloop
endfacet
facet normal  -0.8531693163 -0.0292072093 -0.5208157607
    outer loop
       vertex -3.854143E+01 5.5750398E+01 -4.114054E+01
       vertex -3.810168E+01 5.6623391E+01 -4.190987E+01
       vertex -3.807081E+01 5.5703674E+01 -4.190886E+01
    endloop
endfacet
facet normal  -0.8553764861 -0.0864113497 -0.5107486129
    outer loop
       vertex -3.902702E+01 5.5883846E+01 -4.034987E+01
       vertex -3.871233E+01 5.6745397E+01 -4.102267E+01
       vertex -3.854143E+01 5.5750398E+01 -4.114054E+01
    endloop
endfacet
facet normal  -0.8553764861 -0.0864113497 -0.5107486129
    outer loop
       vertex -3.915411E+01 5.4826931E+01 -3.995822E+01
       vertex -3.902702E+01 5.5883846E+01 -4.034987E+01
       vertex -3.883136E+01 5.4998838E+01 -4.052783E+01
    endloop
endfacet
facet normal  -0.8553764861 -0.0864113497 -0.5107486129
    outer loop
       vertex -3.883136E+01 5.4998838E+01 -4.052783E+01
       vertex -3.902702E+01 5.5883846E+01 -4.034987E+01
       vertex -3.854143E+01 5.5750398E+01 -4.114054E+01
    endloop
endfacet
facet normal  -0.8553764861 -0.0864113497 -0.5107486129
    outer loop
       vertex -3.899667E+01 5.4007708E+01 -4.008329E+01
       vertex -3.958311E+01 5.4490383E+01 -3.918281E+01
       vertex -3.915411E+01 5.4826931E+01 -3.995822E+01
    endloop
endfacet
facet normal  -0.8553764861 -0.0864113497 -0.5107486129
    outer loop
       vertex -3.899667E+01 5.4007708E+01 -4.008329E+01
       vertex -3.915411E+01 5.4826931E+01 -3.995822E+01
       vertex -3.883136E+01 5.4998838E+01 -4.052783E+01
    endloop
endfacet
facet normal  -0.8518771572 -0.0865848434 -0.5165349686
    outer loop
       vertex -3.854143E+01 5.5750398E+01 -4.114054E+01
       vertex -3.807081E+01 5.5703674E+01 -4.190886E+01
       vertex -3.847098E+01 5.4596865E+01 -4.106336E+01
    endloop
endfacet
facet normal  -0.8545419788 -0.0827307525 -0.51275104  
    outer loop
       vertex -3.847098E+01 5.4596865E+01 -4.106336E+01
       vertex -3.807081E+01 5.5703674E+01 -4.190886E+01
       vertex -3.794539E+01 5.4049217E+01 -4.185093E+01
    endloop
endfacet
facet normal  -0.8553764861 -0.0864113497 -0.5107486129
    outer loop
       vertex -3.883136E+01 5.4998838E+01 -4.052783E+01
       vertex -3.854143E+01 5.5750398E+01 -4.114054E+01
       vertex -3.847098E+01 5.4596865E+01 -4.106336E+01
    endloop
endfacet
facet normal  -0.8553764861 -0.0864113497 -0.5107486129
    outer loop
       vertex -3.847098E+01 5.4596865E+01 -4.106336E+01
       vertex -3.794539E+01 5.4049217E+01 -4.185093E+01
       vertex -3.845800E+01 5.3244530E+01 -4.085631E+01
    endloop
endfacet
facet normal  -0.8553764861 -0.0864113497 -0.5107486129
    outer loop
       vertex -3.847098E+01 5.4596865E+01 -4.106336E+01
       vertex -3.899667E+01 5.4007708E+01 -4.008329E+01
       vertex -3.883136E+01 5.4998838E+01 -4.052783E+01
    endloop
endfacet
endsolid
