solid S192803_MCL_Super_Post_Region_Fem
facet normal  -0.9467586127 0.3059615268  -0.1001782082
    outer loop
       vertex -4.238139E+01 6.5893881E+01 -2.426567E+01
       vertex -4.254401E+01 6.5195731E+01 -2.486106E+01
       vertex -4.274556E+01 6.4974682E+01 -2.363138E+01
    endloop
endfacet
facet normal  -0.9450676061 0.31155562943 -0.0988954479
    outer loop
       vertex -4.274556E+01 6.4974682E+01 -2.363138E+01
       vertex -4.254401E+01 6.5195731E+01 -2.486106E+01
       vertex -4.289541E+01 6.4252766E+01 -2.447366E+01
    endloop
endfacet
facet normal  -0.946918012  0.30717571079 -0.0948122418
    outer loop
       vertex -4.274556E+01 6.4974682E+01 -2.363138E+01
       vertex -4.289541E+01 6.4252766E+01 -2.447366E+01
       vertex -4.313269E+01 6.3908318E+01 -2.321981E+01
    endloop
endfacet
facet normal  -0.944419776  0.31690164187 -0.0874336099
    outer loop
       vertex -4.221419E+01 6.6688788E+01 -2.319058E+01
       vertex -4.196506E+01 6.7060810E+01 -2.453317E+01
       vertex -4.238139E+01 6.5893881E+01 -2.426567E+01
    endloop
endfacet
facet normal  -0.9468075495 0.3109938107  -0.0826940985
    outer loop
       vertex -4.221419E+01 6.6688788E+01 -2.319058E+01
       vertex -4.238139E+01 6.5893881E+01 -2.426567E+01
       vertex -4.256225E+01 6.5734859E+01 -2.279292E+01
    endloop
endfacet
facet normal  -0.9446082037 0.31787344872 -0.0816811614
    outer loop
       vertex -4.256225E+01 6.5734859E+01 -2.279292E+01
       vertex -4.238139E+01 6.5893881E+01 -2.426567E+01
       vertex -4.274556E+01 6.4974682E+01 -2.363138E+01
    endloop
endfacet
facet normal  -0.9604271956 0.27754083937 -0.0234666655
    outer loop
       vertex -4.442237E+01 6.0104364E+01 -2.212414E+01
       vertex -4.413491E+01 6.1280423E+01 -1.997979E+01
       vertex -4.388836E+01 6.2038262E+01 -2.110759E+01
    endloop
endfacet
facet normal  -0.9531541121 0.29598424635 -0.0623743895
    outer loop
       vertex -4.391558E+01 6.1518022E+01 -2.316026E+01
       vertex -4.442237E+01 6.0104364E+01 -2.212414E+01
       vertex -4.388836E+01 6.2038262E+01 -2.110759E+01
    endloop
endfacet
facet normal  -0.9486704814 0.30934148098 -0.0658191906
    outer loop
       vertex -4.351917E+01 6.2708670E+01 -2.327796E+01
       vertex -4.391558E+01 6.1518022E+01 -2.316026E+01
       vertex -4.388836E+01 6.2038262E+01 -2.110759E+01
    endloop
endfacet
facet normal  -0.948065892  0.31134100582 -0.0650987129
    outer loop
       vertex -4.351917E+01 6.2708670E+01 -2.327796E+01
       vertex -4.388836E+01 6.2038262E+01 -2.110759E+01
       vertex -4.355240E+01 6.3040874E+01 -2.120516E+01
    endloop
endfacet
facet normal  -0.9511708769 0.30202956076 -0.0636561658
    outer loop
       vertex -4.327032E+01 6.3795990E+01 -2.183742E+01
       vertex -4.351917E+01 6.2708670E+01 -2.327796E+01
       vertex -4.355240E+01 6.3040874E+01 -2.120516E+01
    endloop
endfacet
facet normal  -0.9485499878 0.30894421593 -0.0693281477
    outer loop
       vertex -4.313269E+01 6.3908318E+01 -2.321981E+01
       vertex -4.351917E+01 6.2708670E+01 -2.327796E+01
       vertex -4.327032E+01 6.3795990E+01 -2.183742E+01
    endloop
endfacet
facet normal  -0.9480197416 0.31060943805 -0.0691400493
    outer loop
       vertex -4.290989E+01 6.4802274E+01 -2.225877E+01
       vertex -4.313269E+01 6.3908318E+01 -2.321981E+01
       vertex -4.327032E+01 6.3795990E+01 -2.183742E+01
    endloop
endfacet
facet normal  -0.9446510391 0.32656662733 -0.0314428417
    outer loop
       vertex -4.327032E+01 6.3795990E+01 -2.183742E+01
       vertex -4.355240E+01 6.3040874E+01 -2.120516E+01
       vertex -4.341782E+01 6.3509260E+01 -2.038392E+01
    endloop
endfacet
facet normal  -0.947620046  0.31060571343 -0.0744334546
    outer loop
       vertex -4.256225E+01 6.5734859E+01 -2.279292E+01
       vertex -4.274556E+01 6.4974682E+01 -2.363138E+01
       vertex -4.290989E+01 6.4802274E+01 -2.225877E+01
    endloop
endfacet
facet normal  -0.9458961723 0.32197086044 -0.0401895039
    outer loop
       vertex -4.303358E+01 6.4609834E+01 -2.088914E+01
       vertex -4.290989E+01 6.4802274E+01 -2.225877E+01
       vertex -4.327032E+01 6.3795990E+01 -2.183742E+01
    endloop
endfacet
facet normal  -0.946204383  0.31506345105 -0.0737040531
    outer loop
       vertex -4.274556E+01 6.4974682E+01 -2.363138E+01
       vertex -4.313269E+01 6.3908318E+01 -2.321981E+01
       vertex -4.290989E+01 6.4802274E+01 -2.225877E+01
    endloop
endfacet
facet normal  -0.9549424424 0.24498670097 -0.1675304392
    outer loop
       vertex -4.454036E+01 5.8723813E+01 -2.367860E+01
       vertex -4.446199E+01 5.9507845E+01 -2.297880E+01
       vertex -4.426276E+01 5.9445702E+01 -2.420531E+01
    endloop
endfacet
facet normal  -0.9571123618 0.23642487044 -0.1674491194
    outer loop
       vertex -4.426276E+01 5.9445702E+01 -2.420531E+01
       vertex -4.446199E+01 5.9507845E+01 -2.297880E+01
       vertex -4.412636E+01 6.0405214E+01 -2.363021E+01
    endloop
endfacet
facet normal  -0.9474139541 0.25250945967 -0.19658528  
    outer loop
       vertex -4.426276E+01 5.9445702E+01 -2.420531E+01
       vertex -4.412636E+01 6.0405214E+01 -2.363021E+01
       vertex -4.390156E+01 6.0260636E+01 -2.489930E+01
    endloop
endfacet
facet normal  -0.9529597315 0.23185944717 -0.19521513  
    outer loop
       vertex -4.390156E+01 6.0260636E+01 -2.489930E+01
       vertex -4.412636E+01 6.0405214E+01 -2.363021E+01
       vertex -4.377540E+01 6.1232441E+01 -2.436092E+01
    endloop
endfacet
facet normal  -0.9432292247 0.24604995842 -0.2231099452
    outer loop
       vertex -4.390156E+01 6.0260636E+01 -2.489930E+01
       vertex -4.377540E+01 6.1232441E+01 -2.436092E+01
       vertex -4.341841E+01 6.1348982E+01 -2.574164E+01
    endloop
endfacet
facet normal  -0.9400110007 0.20805351944 -0.2703572664
    outer loop
       vertex -4.390156E+01 6.0260636E+01 -2.489930E+01
       vertex -4.341841E+01 6.1348982E+01 -2.574164E+01
       vertex -4.362883E+01 5.9916124E+01 -2.611268E+01
    endloop
endfacet
facet normal  -0.9352782318 0.21093846088 -0.2841823268
    outer loop
       vertex -4.362883E+01 5.9916124E+01 -2.611268E+01
       vertex -4.341841E+01 6.1348982E+01 -2.574164E+01
       vertex -4.324470E+01 6.0674299E+01 -2.681412E+01
    endloop
endfacet
facet normal  -0.937045697  0.2064498441  -0.2816448538
    outer loop
       vertex -4.324470E+01 6.0674299E+01 -2.681412E+01
       vertex -4.341841E+01 6.1348982E+01 -2.574164E+01
       vertex -4.293352E+01 6.1809571E+01 -2.701727E+01
    endloop
endfacet
facet normal  -0.93289045   0.21076808796 -0.2920483203
    outer loop
       vertex -4.293352E+01 6.1809571E+01 -2.701727E+01
       vertex -4.264997E+01 6.2860839E+01 -2.716433E+01
       vertex -4.258288E+01 6.1986601E+01 -2.800956E+01
    endloop
endfacet
facet normal  -0.9316683554 0.20124783444 -0.3024787342
    outer loop
       vertex -4.324470E+01 6.0674299E+01 -2.681412E+01
       vertex -4.293352E+01 6.1809571E+01 -2.701727E+01
       vertex -4.289543E+01 6.0819664E+01 -2.779321E+01
    endloop
endfacet
facet normal  -0.9350856308 0.19566111348 -0.2955191901
    outer loop
       vertex -4.289543E+01 6.0819664E+01 -2.779321E+01
       vertex -4.293352E+01 6.1809571E+01 -2.701727E+01
       vertex -4.258288E+01 6.1986601E+01 -2.800956E+01
    endloop
endfacet
facet normal  -0.9451559372 0.30954252521 -0.1042289758
    outer loop
       vertex -4.351917E+01 6.2708670E+01 -2.327796E+01
       vertex -4.313269E+01 6.3908318E+01 -2.321981E+01
       vertex -4.325148E+01 6.3209580E+01 -2.421778E+01
    endloop
endfacet
facet normal  -0.9489556627 0.30007557444 -0.0971483394
    outer loop
       vertex -4.325148E+01 6.3209580E+01 -2.421778E+01
       vertex -4.313269E+01 6.3908318E+01 -2.321981E+01
       vertex -4.289541E+01 6.4252766E+01 -2.447366E+01
    endloop
endfacet
facet normal  -0.960054103  0.23353760712 -0.1541308061
    outer loop
       vertex -4.446199E+01 5.9507845E+01 -2.297880E+01
       vertex -4.454036E+01 5.8723813E+01 -2.367860E+01
       vertex -4.470039E+01 5.8807028E+01 -2.255574E+01
    endloop
endfacet
facet normal  -0.9682360724 0.23425168636 -0.0874360083
    outer loop
       vertex -4.470039E+01 5.8807028E+01 -2.255574E+01
       vertex -4.494287E+01 5.7889554E+01 -2.232862E+01
       vertex -4.487675E+01 5.8451116E+01 -2.155634E+01
    endloop
endfacet
facet normal  -0.9678244958 0.23623334898 -0.0866576612
    outer loop
       vertex -4.470039E+01 5.8807028E+01 -2.255574E+01
       vertex -4.487675E+01 5.8451116E+01 -2.155634E+01
       vertex -4.442237E+01 6.0104364E+01 -2.212414E+01
    endloop
endfacet
facet normal  -0.9599589953 0.2486491631  -0.1290438726
    outer loop
       vertex -4.446199E+01 5.9507845E+01 -2.297880E+01
       vertex -4.470039E+01 5.8807028E+01 -2.255574E+01
       vertex -4.442237E+01 6.0104364E+01 -2.212414E+01
    endloop
endfacet
facet normal  -0.9569681087 0.25690751984 -0.1349465268
    outer loop
       vertex -4.446199E+01 5.9507845E+01 -2.297880E+01
       vertex -4.442237E+01 6.0104364E+01 -2.212414E+01
       vertex -4.422085E+01 6.0428276E+01 -2.293653E+01
    endloop
endfacet
facet normal  -0.9603060115 0.23973121954 -0.1426229525
    outer loop
       vertex -4.422085E+01 6.0428276E+01 -2.293653E+01
       vertex -4.442237E+01 6.0104364E+01 -2.212414E+01
       vertex -4.391558E+01 6.1518022E+01 -2.316026E+01
    endloop
endfacet
facet normal  -0.9564047883 0.2569381108  -0.1388261075
    outer loop
       vertex -4.412636E+01 6.0405214E+01 -2.363021E+01
       vertex -4.446199E+01 5.9507845E+01 -2.297880E+01
       vertex -4.422085E+01 6.0428276E+01 -2.293653E+01
    endloop
endfacet
facet normal  -0.9445471784 0.28053497826 -0.170677338 
    outer loop
       vertex -4.325148E+01 6.3209580E+01 -2.421778E+01
       vertex -4.289541E+01 6.4252766E+01 -2.447366E+01
       vertex -4.301340E+01 6.3363483E+01 -2.528239E+01
    endloop
endfacet
facet normal  -0.9459841085 0.27768985644 -0.1673392065
    outer loop
       vertex -4.301340E+01 6.3363483E+01 -2.528239E+01
       vertex -4.289541E+01 6.4252766E+01 -2.447366E+01
       vertex -4.264939E+01 6.4408275E+01 -2.560639E+01
    endloop
endfacet
facet normal  -0.9444132546 0.2836702504  -0.1661769946
    outer loop
       vertex -4.264939E+01 6.4408275E+01 -2.560639E+01
       vertex -4.289541E+01 6.4252766E+01 -2.447366E+01
       vertex -4.254401E+01 6.5195731E+01 -2.486106E+01
    endloop
endfacet
facet normal  -0.9606407952 0.24059757437 -0.138859893 
    outer loop
       vertex -4.412636E+01 6.0405214E+01 -2.363021E+01
       vertex -4.422085E+01 6.0428276E+01 -2.293653E+01
       vertex -4.391558E+01 6.1518022E+01 -2.316026E+01
    endloop
endfacet
facet normal  -0.9522621115 0.25270335157 -0.1712830613
    outer loop
       vertex -4.377540E+01 6.1232441E+01 -2.436092E+01
       vertex -4.412636E+01 6.0405214E+01 -2.363021E+01
       vertex -4.391558E+01 6.1518022E+01 -2.316026E+01
    endloop
endfacet
facet normal  -0.9507639847 0.25762035686 -0.1722776742
    outer loop
       vertex -4.377540E+01 6.1232441E+01 -2.436092E+01
       vertex -4.391558E+01 6.1518022E+01 -2.316026E+01
       vertex -4.358487E+01 6.2160618E+01 -2.402447E+01
    endloop
endfacet
facet normal  -0.9437643342 0.30060878042 -0.137634453 
    outer loop
       vertex -4.358487E+01 6.2160618E+01 -2.402447E+01
       vertex -4.391558E+01 6.1518022E+01 -2.316026E+01
       vertex -4.351917E+01 6.2708670E+01 -2.327796E+01
    endloop
endfacet
facet normal  -0.9521816372 0.28016742817 -0.121886595 
    outer loop
       vertex -4.358487E+01 6.2160618E+01 -2.402447E+01
       vertex -4.351917E+01 6.2708670E+01 -2.327796E+01
       vertex -4.325148E+01 6.3209580E+01 -2.421778E+01
    endloop
endfacet
facet normal  -0.9465712529 0.23078016395 -0.225262911 
    outer loop
       vertex -4.341841E+01 6.1348982E+01 -2.574164E+01
       vertex -4.377540E+01 6.1232441E+01 -2.436092E+01
       vertex -4.336766E+01 6.2258637E+01 -2.502298E+01
    endloop
endfacet
facet normal  -0.948470976  0.26023226254 -0.1807815732
    outer loop
       vertex -4.336766E+01 6.2258637E+01 -2.502298E+01
       vertex -4.377540E+01 6.1232441E+01 -2.436092E+01
       vertex -4.358487E+01 6.2160618E+01 -2.402447E+01
    endloop
endfacet
facet normal  -0.9355438939 0.22033799457 -0.2760593971
    outer loop
       vertex -4.293352E+01 6.1809571E+01 -2.701727E+01
       vertex -4.341841E+01 6.1348982E+01 -2.574164E+01
       vertex -4.304794E+01 6.2485154E+01 -2.609030E+01
    endloop
endfacet
facet normal  -0.9434632588 0.23629762943 -0.2324661471
    outer loop
       vertex -4.304794E+01 6.2485154E+01 -2.609030E+01
       vertex -4.341841E+01 6.1348982E+01 -2.574164E+01
       vertex -4.336766E+01 6.2258637E+01 -2.502298E+01
    endloop
endfacet
facet normal  -0.937895181  0.21487132057 -0.2723654621
    outer loop
       vertex -4.264997E+01 6.2860839E+01 -2.716433E+01
       vertex -4.293352E+01 6.1809571E+01 -2.701727E+01
       vertex -4.304794E+01 6.2485154E+01 -2.609030E+01
    endloop
endfacet
facet normal  -0.9397470192 0.22337494099 -0.2588033532
    outer loop
       vertex -4.234851E+01 6.3898792E+01 -2.736310E+01
       vertex -4.264997E+01 6.2860839E+01 -2.716433E+01
       vertex -4.270831E+01 6.3576030E+01 -2.633522E+01
    endloop
endfacet
facet normal  -0.9369286178 0.24234552897 -0.2518599009
    outer loop
       vertex -4.234442E+01 6.4597317E+01 -2.670617E+01
       vertex -4.234851E+01 6.3898792E+01 -2.736310E+01
       vertex -4.270831E+01 6.3576030E+01 -2.633522E+01
    endloop
endfacet
facet normal  -0.935798408  0.23169603417 -0.2657033823
    outer loop
       vertex -4.270831E+01 6.3576030E+01 -2.633522E+01
       vertex -4.264997E+01 6.2860839E+01 -2.716433E+01
       vertex -4.304794E+01 6.2485154E+01 -2.609030E+01
    endloop
endfacet
facet normal  -0.9414087125 0.31714547728 -0.1147535722
    outer loop
       vertex -4.254401E+01 6.5195731E+01 -2.486106E+01
       vertex -4.238139E+01 6.5893881E+01 -2.426567E+01
       vertex -4.210526E+01 6.6348000E+01 -2.527589E+01
    endloop
endfacet
facet normal  -0.9426397948 0.2871924716  -0.1701490567
    outer loop
       vertex -4.264939E+01 6.4408275E+01 -2.560639E+01
       vertex -4.254401E+01 6.5195731E+01 -2.486106E+01
       vertex -4.227026E+01 6.5451946E+01 -2.594520E+01
    endloop
endfacet
facet normal  -0.9399198629 0.29778396846 -0.1669591548
    outer loop
       vertex -4.227026E+01 6.5451946E+01 -2.594520E+01
       vertex -4.254401E+01 6.5195731E+01 -2.486106E+01
       vertex -4.210526E+01 6.6348000E+01 -2.527589E+01
    endloop
endfacet
facet normal  -0.9465946415 0.26774927524 -0.1796354929
    outer loop
       vertex -4.336766E+01 6.2258637E+01 -2.502298E+01
       vertex -4.358487E+01 6.2160618E+01 -2.402447E+01
       vertex -4.325148E+01 6.3209580E+01 -2.421778E+01
    endloop
endfacet
facet normal  -0.9488537792 0.26335810692 -0.1741235571
    outer loop
       vertex -4.336766E+01 6.2258637E+01 -2.502298E+01
       vertex -4.325148E+01 6.3209580E+01 -2.421778E+01
       vertex -4.301340E+01 6.3363483E+01 -2.528239E+01
    endloop
endfacet
facet normal  -0.9412376126 0.24795482206 -0.2293254518
    outer loop
       vertex -4.304794E+01 6.2485154E+01 -2.609030E+01
       vertex -4.336766E+01 6.2258637E+01 -2.502298E+01
       vertex -4.301340E+01 6.3363483E+01 -2.528239E+01
    endloop
endfacet
facet normal  -0.9436264828 0.24342853417 -0.2243024961
    outer loop
       vertex -4.270831E+01 6.3576030E+01 -2.633522E+01
       vertex -4.304794E+01 6.2485154E+01 -2.609030E+01
       vertex -4.301340E+01 6.3363483E+01 -2.528239E+01
    endloop
endfacet
facet normal  -0.9403578886 0.25935589592 -0.220139866 
    outer loop
       vertex -4.270831E+01 6.3576030E+01 -2.633522E+01
       vertex -4.301340E+01 6.3363483E+01 -2.528239E+01
       vertex -4.264939E+01 6.4408275E+01 -2.560639E+01
    endloop
endfacet
facet normal  -0.9417999221 0.25673281009 -0.217028042 
    outer loop
       vertex -4.234442E+01 6.4597317E+01 -2.670617E+01
       vertex -4.270831E+01 6.3576030E+01 -2.633522E+01
       vertex -4.264939E+01 6.4408275E+01 -2.560639E+01
    endloop
endfacet
facet normal  -0.9384277107 0.27157581838 -0.2135415805
    outer loop
       vertex -4.234442E+01 6.4597317E+01 -2.670617E+01
       vertex -4.264939E+01 6.4408275E+01 -2.560639E+01
       vertex -4.227026E+01 6.5451946E+01 -2.594520E+01
    endloop
endfacet
facet normal  -0.940857846  0.26716419228 -0.2083502051
    outer loop
       vertex -4.197085E+01 6.5699672E+01 -2.697959E+01
       vertex -4.234442E+01 6.4597317E+01 -2.670617E+01
       vertex -4.227026E+01 6.5451946E+01 -2.594520E+01
    endloop
endfacet
endsolid
