solid S192803_ACL_PL_Region_Fem_2
facet normal  -0.5924294581 0.805234672   0.02498920025
    outer loop
       vertex 8.5780147E+00 6.0810349E+01 -2.003021E+01
       vertex 9.2142396E+00 6.1286436E+01 -2.028805E+01
       vertex 8.4474887E+00 6.0746816E+01 -2.107739E+01
    endloop
endfacet
facet normal  -0.5505265828 0.83462392127 0.01798309371
    outer loop
       vertex 7.6737507E+00 6.0220080E+01 -2.031761E+01
       vertex 8.5780147E+00 6.0810349E+01 -2.003021E+01
       vertex 8.4474887E+00 6.0746816E+01 -2.107739E+01
    endloop
endfacet
facet normal  -0.5689871756 0.82229306438 -0.0093653788
    outer loop
       vertex 7.6737507E+00 6.0220080E+01 -2.031761E+01
       vertex 8.4474887E+00 6.0746816E+01 -2.107739E+01
       vertex 7.6602416E+00 6.0193436E+01 -2.183619E+01
    endloop
endfacet
facet normal  -0.5107382996 0.85967162988 -0.0105393564
    outer loop
       vertex 7.6737507E+00 6.0220080E+01 -2.031761E+01
       vertex 7.6602416E+00 6.0193436E+01 -2.183619E+01
       vertex 6.7182753E+00 5.9642196E+01 -2.115188E+01
    endloop
endfacet
facet normal  -0.5424259334 0.83915248396 0.03996517711
    outer loop
       vertex 6.6247725E+00 5.9520366E+01 -1.986288E+01
       vertex 7.6737507E+00 6.0220080E+01 -2.031761E+01
       vertex 6.7182753E+00 5.9642196E+01 -2.115188E+01
    endloop
endfacet
facet normal  -0.6002571698 0.79578417599 0.08011788419
    outer loop
       vertex 1.0497078E+01 6.2248220E+01 -2.535302E+01
       vertex 9.2868084E+00 6.1278517E+01 -2.478884E+01
       vertex 9.9498083E+00 6.1741122E+01 -2.441642E+01
    endloop
endfacet
facet normal  -0.7511750904 0.65844137448 -0.0468074768
    outer loop
       vertex 1.1668294E+01 6.3521287E+01 -2.624067E+01
       vertex 1.0573686E+01 6.2222913E+01 -2.693844E+01
       vertex 1.0497078E+01 6.2248220E+01 -2.535302E+01
    endloop
endfacet
facet normal  -0.7528795975 0.65606369629 -0.0524665419
    outer loop
       vertex 1.1661843E+01 6.3596728E+01 -2.520475E+01
       vertex 1.1668294E+01 6.3521287E+01 -2.624067E+01
       vertex 1.0497078E+01 6.2248220E+01 -2.535302E+01
    endloop
endfacet
facet normal  -0.8227810236 0.56807541058 0.01793641773
    outer loop
       vertex 1.3001093E+01 6.5445498E+01 -2.247864E+01
       vertex 1.2976202E+01 6.5462133E+01 -2.414728E+01
       vertex 1.2422014E+01 6.4635335E+01 -2.338303E+01
    endloop
endfacet
facet normal  -0.8264714322 0.5628958303  0.00965691202
    outer loop
       vertex 1.2422014E+01 6.4635335E+01 -2.338303E+01
       vertex 1.2976202E+01 6.5462133E+01 -2.414728E+01
       vertex 1.2339643E+01 6.4537257E+01 -2.471569E+01
    endloop
endfacet
facet normal  -0.7931169739 0.60905487529 0.00419815896
    outer loop
       vertex 1.2422014E+01 6.4635335E+01 -2.338303E+01
       vertex 1.2339643E+01 6.4537257E+01 -2.471569E+01
       vertex 1.1694843E+01 6.3690137E+01 -2.363432E+01
    endloop
endfacet
facet normal  -0.8066365596 0.59076782403 -0.0181889726
    outer loop
       vertex 1.1694843E+01 6.3690137E+01 -2.363432E+01
       vertex 1.2339643E+01 6.4537257E+01 -2.471569E+01
       vertex 1.1661843E+01 6.3596728E+01 -2.520475E+01
    endloop
endfacet
facet normal  -0.7553641641 0.65491789895 -0.0225283211
    outer loop
       vertex 1.1661843E+01 6.3596728E+01 -2.520475E+01
       vertex 1.0497078E+01 6.2248220E+01 -2.535302E+01
       vertex 1.0773057E+01 6.2612106E+01 -2.402801E+01
    endloop
endfacet
facet normal  -0.7167098713 0.69611205152 -0.0418923872
    outer loop
       vertex 1.0773057E+01 6.2612106E+01 -2.402801E+01
       vertex 1.0497078E+01 6.2248220E+01 -2.535302E+01
       vertex 9.9498083E+00 6.1741122E+01 -2.441642E+01
    endloop
endfacet
facet normal  -0.755660936  0.65455713848 -0.023054332 
    outer loop
       vertex 1.1694843E+01 6.3690137E+01 -2.363432E+01
       vertex 1.1661843E+01 6.3596728E+01 -2.520475E+01
       vertex 1.0773057E+01 6.2612106E+01 -2.402801E+01
    endloop
endfacet
facet normal  -0.7249356927 0.68877015753 -0.0079944666
    outer loop
       vertex 1.0773057E+01 6.2612106E+01 -2.402801E+01
       vertex 9.9498083E+00 6.1741122E+01 -2.441642E+01
       vertex 9.9549388E+00 6.1763285E+01 -2.297214E+01
    endloop
endfacet
facet normal  -0.6984012281 0.71556284794 -0.0143364994
    outer loop
       vertex 9.9152541E+00 6.1754500E+01 -2.152816E+01
       vertex 9.8791266E+00 6.1748173E+01 -2.008400E+01
       vertex 1.0984484E+01 6.2811329E+01 -2.086717E+01
    endloop
endfacet
facet normal  -0.7222755123 0.69142849763 -0.0156434324
    outer loop
       vertex 9.9549388E+00 6.1763285E+01 -2.297214E+01
       vertex 9.9152541E+00 6.1754500E+01 -2.152816E+01
       vertex 1.0902432E+01 6.2763873E+01 -2.249374E+01
    endloop
endfacet
facet normal  -0.7075916021 0.70646063162 0.01508312324
    outer loop
       vertex 1.0902432E+01 6.2763873E+01 -2.249374E+01
       vertex 9.9152541E+00 6.1754500E+01 -2.152816E+01
       vertex 1.0984484E+01 6.2811329E+01 -2.086717E+01
    endloop
endfacet
facet normal  -0.7243923985 0.68935125493 -0.0071063526
    outer loop
       vertex 1.0773057E+01 6.2612106E+01 -2.402801E+01
       vertex 9.9549388E+00 6.1763285E+01 -2.297214E+01
       vertex 1.0902432E+01 6.2763873E+01 -2.249374E+01
    endloop
endfacet
facet normal  -0.7600003087 0.64992267953 -2.035485E-04
    outer loop
       vertex 1.1694843E+01 6.3690137E+01 -2.363432E+01
       vertex 1.0773057E+01 6.2612106E+01 -2.402801E+01
       vertex 1.0902432E+01 6.2763873E+01 -2.249374E+01
    endloop
endfacet
facet normal  -0.8112883088 0.58263502297 0.04845317365
    outer loop
       vertex 1.3060377E+01 6.5389405E+01 -2.081150E+01
       vertex 1.3001093E+01 6.5445498E+01 -2.247864E+01
       vertex 1.2055364E+01 6.4082801E+01 -2.192767E+01
    endloop
endfacet
facet normal  -0.8193609989 0.57316880091 0.01118387744
    outer loop
       vertex 1.2055364E+01 6.4082801E+01 -2.192767E+01
       vertex 1.3001093E+01 6.5445498E+01 -2.247864E+01
       vertex 1.2422014E+01 6.4635335E+01 -2.338303E+01
    endloop
endfacet
facet normal  -0.7869394731 0.61666563954 0.02120742178
    outer loop
       vertex 1.3072892E+01 6.5348000E+01 -1.914314E+01
       vertex 1.3060377E+01 6.5389405E+01 -2.081150E+01
       vertex 1.2032914E+01 6.4044673E+01 -1.983547E+01
    endloop
endfacet
facet normal  -0.7937004596 0.60830336236 0.00256900703
    outer loop
       vertex 1.2032914E+01 6.4044673E+01 -1.983547E+01
       vertex 1.3060377E+01 6.5389405E+01 -2.081150E+01
       vertex 1.2055364E+01 6.4082801E+01 -2.192767E+01
    endloop
endfacet
facet normal  -0.763383514  0.64593559538 0.00358010062
    outer loop
       vertex 1.0984484E+01 6.2811329E+01 -2.086717E+01
       vertex 1.2032914E+01 6.4044673E+01 -1.983547E+01
       vertex 1.2055364E+01 6.4082801E+01 -2.192767E+01
    endloop
endfacet
facet normal  -0.7568093926 0.65335606618 0.01911528331
    outer loop
       vertex 1.0902432E+01 6.2763873E+01 -2.249374E+01
       vertex 1.0984484E+01 6.2811329E+01 -2.086717E+01
       vertex 1.2055364E+01 6.4082801E+01 -2.192767E+01
    endloop
endfacet
facet normal  -0.7546690437 0.65605089335 0.00847701658
    outer loop
       vertex 1.0902432E+01 6.2763873E+01 -2.249374E+01
       vertex 1.2055364E+01 6.4082801E+01 -2.192767E+01
       vertex 1.1694843E+01 6.3690137E+01 -2.363432E+01
    endloop
endfacet
facet normal  -0.7959657326 0.6046452871  0.02902807918
    outer loop
       vertex 1.1694843E+01 6.3690137E+01 -2.363432E+01
       vertex 1.2055364E+01 6.4082801E+01 -2.192767E+01
       vertex 1.2422014E+01 6.4635335E+01 -2.338303E+01
    endloop
endfacet
facet normal  -0.7218444731 0.68667575726 -0.0861217806
    outer loop
       vertex 1.4029218E+01 6.6373177E+01 -2.648328E+01
       vertex 1.3148280E+01 6.5486742E+01 -2.616738E+01
       vertex 1.3913377E+01 6.6425533E+01 -2.509489E+01
    endloop
endfacet
facet normal  -0.7422492442 0.66785552378 -0.0550913684
    outer loop
       vertex 1.3913377E+01 6.6425533E+01 -2.509489E+01
       vertex 1.3148280E+01 6.5486742E+01 -2.616738E+01
       vertex 1.2976202E+01 6.5462133E+01 -2.414728E+01
    endloop
endfacet
facet normal  -0.6912472447 0.71763292264 -0.0847362677
    outer loop
       vertex 1.4883145E+01 6.7269282E+01 -2.586017E+01
       vertex 1.4029218E+01 6.6373177E+01 -2.648328E+01
       vertex 1.3913377E+01 6.6425533E+01 -2.509489E+01
    endloop
endfacet
facet normal  -0.7624652007 0.64666294091 0.02176829332
    outer loop
       vertex 1.3060377E+01 6.5389405E+01 -2.081150E+01
       vertex 1.3072892E+01 6.5348000E+01 -1.914314E+01
       vertex 1.3900028E+01 6.6355358E+01 -2.009676E+01
    endloop
endfacet
facet normal  -0.7567703357 0.65283575805 0.0332284816 
    outer loop
       vertex 1.3900028E+01 6.6355358E+01 -2.009676E+01
       vertex 1.3072892E+01 6.5348000E+01 -1.914314E+01
       vertex 1.3927349E+01 6.6305752E+01 -1.849993E+01
    endloop
endfacet
facet normal  -0.7243641974 0.68858921026 0.03378474545
    outer loop
       vertex 1.3900028E+01 6.6355358E+01 -2.009676E+01
       vertex 1.3927349E+01 6.6305752E+01 -1.849993E+01
       vertex 1.4768935E+01 6.7234356E+01 -1.938235E+01
    endloop
endfacet
facet normal  -0.6547671594 0.75042428879 -0.0902405328
    outer loop
       vertex 1.5746155E+01 6.8103108E+01 -2.518806E+01
       vertex 1.4883145E+01 6.7269282E+01 -2.586017E+01
       vertex 1.4787217E+01 6.7361111E+01 -2.440051E+01
    endloop
endfacet
facet normal  -0.6933997407 0.71484204106 -0.0905409073
    outer loop
       vertex 1.4787217E+01 6.7361111E+01 -2.440051E+01
       vertex 1.4883145E+01 6.7269282E+01 -2.586017E+01
       vertex 1.3913377E+01 6.6425533E+01 -2.509489E+01
    endloop
endfacet
facet normal  -0.6131737861 0.7850748833  -0.0876089932
    outer loop
       vertex 1.6683666E+01 6.8903404E+01 -2.457813E+01
       vertex 1.5746155E+01 6.8103108E+01 -2.518806E+01
       vertex 1.5746145E+01 6.8250151E+01 -2.387031E+01
    endloop
endfacet
facet normal  -0.6520738132 0.7534784021  -0.0840835278
    outer loop
       vertex 1.5746145E+01 6.8250151E+01 -2.387031E+01
       vertex 1.5746155E+01 6.8103108E+01 -2.518806E+01
       vertex 1.4787217E+01 6.7361111E+01 -2.440051E+01
    endloop
endfacet
facet normal  -0.6080351585 0.79026259917 -0.076014935 
    outer loop
       vertex 1.6775409E+01 6.9072255E+01 -2.355656E+01
       vertex 1.6683666E+01 6.8903404E+01 -2.457813E+01
       vertex 1.5746145E+01 6.8250151E+01 -2.387031E+01
    endloop
endfacet
facet normal  -0.7620860422 0.64563237276 0.04882318549
    outer loop
       vertex 1.3001093E+01 6.5445498E+01 -2.247864E+01
       vertex 1.3060377E+01 6.5389405E+01 -2.081150E+01
       vertex 1.3880340E+01 6.6430844E+01 -2.178449E+01
    endloop
endfacet
facet normal  -0.7677878111 0.63960210442 0.03756361521
    outer loop
       vertex 1.3880340E+01 6.6430844E+01 -2.178449E+01
       vertex 1.3060377E+01 6.5389405E+01 -2.081150E+01
       vertex 1.3900028E+01 6.6355358E+01 -2.009676E+01
    endloop
endfacet
facet normal  -0.7487156308 0.66265298094 0.01777445104
    outer loop
       vertex 1.2976202E+01 6.5462133E+01 -2.414728E+01
       vertex 1.3001093E+01 6.5445498E+01 -2.247864E+01
       vertex 1.3860994E+01 6.6443395E+01 -2.345969E+01
    endloop
endfacet
facet normal  -0.7508131421 0.66037426666 0.01361813508
    outer loop
       vertex 1.3860994E+01 6.6443395E+01 -2.345969E+01
       vertex 1.3001093E+01 6.5445498E+01 -2.247864E+01
       vertex 1.3880340E+01 6.6430844E+01 -2.178449E+01
    endloop
endfacet
facet normal  -0.7314616889 0.68118329583 -0.0308725627
    outer loop
       vertex 1.3913377E+01 6.6425533E+01 -2.509489E+01
       vertex 1.2976202E+01 6.5462133E+01 -2.414728E+01
       vertex 1.3860994E+01 6.6443395E+01 -2.345969E+01
    endloop
endfacet
facet normal  -0.7190286911 0.69430562629 -0.0306176194
    outer loop
       vertex 1.4787217E+01 6.7361111E+01 -2.440051E+01
       vertex 1.3913377E+01 6.6425533E+01 -2.509489E+01
       vertex 1.3860994E+01 6.6443395E+01 -2.345969E+01
    endloop
endfacet
facet normal  -0.6157526359 0.78683452411 -0.0417147818
    outer loop
       vertex 1.5805803E+01 6.8365031E+01 -2.258403E+01
       vertex 1.6775409E+01 6.9072255E+01 -2.355656E+01
       vertex 1.5746145E+01 6.8250151E+01 -2.387031E+01
    endloop
endfacet
facet normal  -0.6148610319 0.7886326083  -0.002126163 
    outer loop
       vertex 1.5997195E+01 6.8517296E+01 -2.145436E+01
       vertex 1.6824999E+01 6.9159546E+01 -2.262349E+01
       vertex 1.5805803E+01 6.8365031E+01 -2.258403E+01
    endloop
endfacet
facet normal  -0.7351660386 0.67677316483 0.03884558062
    outer loop
       vertex 1.3880340E+01 6.6430844E+01 -2.178449E+01
       vertex 1.3900028E+01 6.6355358E+01 -2.009676E+01
       vertex 1.4895806E+01 6.7497699E+01 -2.115334E+01
    endloop
endfacet
facet normal  -0.7299754395 0.68170930076 0.04907430058
    outer loop
       vertex 1.4895806E+01 6.7497699E+01 -2.115334E+01
       vertex 1.3900028E+01 6.6355358E+01 -2.009676E+01
       vertex 1.4768935E+01 6.7234356E+01 -1.938235E+01
    endloop
endfacet
facet normal  -0.6903223169 0.72119061389 0.05778578686
    outer loop
       vertex 1.4895806E+01 6.7497699E+01 -2.115334E+01
       vertex 1.4768935E+01 6.7234356E+01 -1.938235E+01
       vertex 1.5613669E+01 6.8104581E+01 -2.015172E+01
    endloop
endfacet
facet normal  -0.6694430596 0.74210329754 -0.0335959179
    outer loop
       vertex 1.5746145E+01 6.8250151E+01 -2.387031E+01
       vertex 1.4787217E+01 6.7361111E+01 -2.440051E+01
       vertex 1.4786172E+01 6.7429586E+01 -2.286712E+01
    endloop
endfacet
facet normal  -0.7194395608 0.69384151931 -0.0314748226
    outer loop
       vertex 1.4786172E+01 6.7429586E+01 -2.286712E+01
       vertex 1.4787217E+01 6.7361111E+01 -2.440051E+01
       vertex 1.3860994E+01 6.6443395E+01 -2.345969E+01
    endloop
endfacet
facet normal  -0.670304347  0.74125508132 -0.0351139125
    outer loop
       vertex 1.5805803E+01 6.8365031E+01 -2.258403E+01
       vertex 1.5746145E+01 6.8250151E+01 -2.387031E+01
       vertex 1.4786172E+01 6.7429586E+01 -2.286712E+01
    endloop
endfacet
facet normal  -0.7332931162 0.67977739011 0.01356117962
    outer loop
       vertex 1.4786172E+01 6.7429586E+01 -2.286712E+01
       vertex 1.3860994E+01 6.6443395E+01 -2.345969E+01
       vertex 1.3880340E+01 6.6430844E+01 -2.178449E+01
    endloop
endfacet
facet normal  -0.7299463748 0.68322500448 0.01954183275
    outer loop
       vertex 1.4786172E+01 6.7429586E+01 -2.286712E+01
       vertex 1.3880340E+01 6.6430844E+01 -2.178449E+01
       vertex 1.4895806E+01 6.7497699E+01 -2.115334E+01
    endloop
endfacet
facet normal  -0.6780983904 0.7348344545  0.01417382956
    outer loop
       vertex 1.5805803E+01 6.8365031E+01 -2.258403E+01
       vertex 1.4786172E+01 6.7429586E+01 -2.286712E+01
       vertex 1.4895806E+01 6.7497699E+01 -2.115334E+01
    endloop
endfacet
facet normal  -0.6769660074 0.73585083871 0.01551025379
    outer loop
       vertex 1.5997195E+01 6.8517296E+01 -2.145436E+01
       vertex 1.5805803E+01 6.8365031E+01 -2.258403E+01
       vertex 1.4895806E+01 6.7497699E+01 -2.115334E+01
    endloop
endfacet
facet normal  -0.6736563121 0.73818966056 0.03554150001
    outer loop
       vertex 1.4895806E+01 6.7497699E+01 -2.115334E+01
       vertex 1.5613669E+01 6.8104581E+01 -2.015172E+01
       vertex 1.5997195E+01 6.8517296E+01 -2.145436E+01
    endloop
endfacet
facet normal  -0.6492673971 0.7589605193  0.0493029129 
    outer loop
       vertex 1.5997195E+01 6.8517296E+01 -2.145436E+01
       vertex 1.5613669E+01 6.8104581E+01 -2.015172E+01
       vertex 1.6314658E+01 6.8737375E+01 -2.066155E+01
    endloop
endfacet
facet normal  -0.8042056957 0.59118113423 -0.0613030632
    outer loop
       vertex 1.2339643E+01 6.4537257E+01 -2.471569E+01
       vertex 1.2976202E+01 6.5462133E+01 -2.414728E+01
       vertex 1.3148280E+01 6.5486742E+01 -2.616738E+01
    endloop
endfacet
facet normal  -0.6567317059 0.73698426125 -0.1598676487
    outer loop
       vertex 1.4029218E+01 6.6373177E+01 -2.648328E+01
       vertex 1.4883145E+01 6.7269282E+01 -2.586017E+01
       vertex 1.5097197E+01 6.7202473E+01 -2.704748E+01
    endloop
endfacet
facet normal  -0.793613466  0.60507330172 -0.063749244 
    outer loop
       vertex 1.1661843E+01 6.3596728E+01 -2.520475E+01
       vertex 1.2339643E+01 6.4537257E+01 -2.471569E+01
       vertex 1.2247778E+01 6.4265619E+01 -2.615030E+01
    endloop
endfacet
facet normal  -0.8037522447 0.59186989296 -0.0605999915
    outer loop
       vertex 1.2247778E+01 6.4265619E+01 -2.615030E+01
       vertex 1.2339643E+01 6.4537257E+01 -2.471569E+01
       vertex 1.3148280E+01 6.5486742E+01 -2.616738E+01
    endloop
endfacet
facet normal  -0.7851415634 0.61730721702 -0.0498450116
    outer loop
       vertex 1.1668294E+01 6.3521287E+01 -2.624067E+01
       vertex 1.1661843E+01 6.3596728E+01 -2.520475E+01
       vertex 1.2247778E+01 6.4265619E+01 -2.615030E+01
    endloop
endfacet
facet normal  -0.7281528929 0.66618840562 -0.1612028931
    outer loop
       vertex 1.3148280E+01 6.5486742E+01 -2.616738E+01
       vertex 1.4029218E+01 6.6373177E+01 -2.648328E+01
       vertex 1.3504210E+01 6.5524704E+01 -2.761823E+01
    endloop
endfacet
facet normal  -0.7990816254 0.58748579492 -0.1277849625
    outer loop
       vertex 1.2247778E+01 6.4265619E+01 -2.615030E+01
       vertex 1.3148280E+01 6.5486742E+01 -2.616738E+01
       vertex 1.2696702E+01 6.4608301E+01 -2.738210E+01
    endloop
endfacet
facet normal  -0.7606712534 0.6264216312  -0.1702209862
    outer loop
       vertex 1.2696702E+01 6.4608301E+01 -2.738210E+01
       vertex 1.3148280E+01 6.5486742E+01 -2.616738E+01
       vertex 1.3504210E+01 6.5524704E+01 -2.761823E+01
    endloop
endfacet
facet normal  -0.7786811302 0.6188058221  -0.1036100962
    outer loop
       vertex 1.1668294E+01 6.3521287E+01 -2.624067E+01
       vertex 1.2247778E+01 6.4265619E+01 -2.615030E+01
       vertex 1.2055685E+01 6.3848120E+01 -2.720012E+01
    endloop
endfacet
facet normal  -0.7725861695 0.62574559221 -0.1074851829
    outer loop
       vertex 1.2055685E+01 6.3848120E+01 -2.720012E+01
       vertex 1.2247778E+01 6.4265619E+01 -2.615030E+01
       vertex 1.2696702E+01 6.4608301E+01 -2.738210E+01
    endloop
endfacet
facet normal  -0.5681734949 0.82284040654 -0.0106087249
    outer loop
       vertex 9.2142396E+00 6.1286436E+01 -2.028805E+01
       vertex 9.8791266E+00 6.1748173E+01 -2.008400E+01
       vertex 9.9152541E+00 6.1754500E+01 -2.152816E+01
    endloop
endfacet
facet normal  -0.5681734949 0.82284040654 -0.0106087249
    outer loop
       vertex 8.4474887E+00 6.0746816E+01 -2.107739E+01
       vertex 9.2142396E+00 6.1286436E+01 -2.028805E+01
       vertex 9.9152541E+00 6.1754500E+01 -2.152816E+01
    endloop
endfacet
facet normal  -0.5681734949 0.82284040654 -0.0106087249
    outer loop
       vertex 8.4474887E+00 6.0746816E+01 -2.107739E+01
       vertex 9.9152541E+00 6.1754500E+01 -2.152816E+01
       vertex 8.8164992E+00 6.0981978E+01 -2.260074E+01
    endloop
endfacet
facet normal  -0.5681734949 0.82284040654 -0.0106087249
    outer loop
       vertex 8.8164992E+00 6.0981978E+01 -2.260074E+01
       vertex 9.9152541E+00 6.1754500E+01 -2.152816E+01
       vertex 9.9549388E+00 6.1763285E+01 -2.297214E+01
    endloop
endfacet
facet normal  -0.5681734949 0.82284040654 -0.0106087249
    outer loop
       vertex 7.6602416E+00 6.0193436E+01 -2.183619E+01
       vertex 8.4474887E+00 6.0746816E+01 -2.107739E+01
       vertex 8.8164992E+00 6.0981978E+01 -2.260074E+01
    endloop
endfacet
facet normal  -0.5681734949 0.82284040654 -0.0106087249
    outer loop
       vertex 9.9549388E+00 6.1763285E+01 -2.297214E+01
       vertex 9.9498083E+00 6.1741122E+01 -2.441642E+01
       vertex 9.3306275E+00 6.1322215E+01 -2.374639E+01
    endloop
endfacet
facet normal  -0.5681734949 0.82284040654 -0.0106087249
    outer loop
       vertex 8.8164992E+00 6.0981978E+01 -2.260074E+01
       vertex 9.9549388E+00 6.1763285E+01 -2.297214E+01
       vertex 9.3306275E+00 6.1322215E+01 -2.374639E+01
    endloop
endfacet
endsolid
